G04*
G04 #@! TF.GenerationSoftware,Altium Limited,Altium Designer,23.7.1 (13)*
G04*
G04 Layer_Color=32896*
%FSLAX44Y44*%
%MOMM*%
G71*
G04*
G04 #@! TF.SameCoordinates,04D04BC5-F765-4596-8717-98BD9A505975*
G04*
G04*
G04 #@! TF.FilePolarity,Positive*
G04*
G01*
G75*
%ADD10C,0.2000*%
%ADD12C,0.2540*%
%ADD13C,0.1500*%
%ADD14C,0.1200*%
%ADD15C,0.1270*%
%ADD17C,0.1000*%
D10*
X-168998Y-143999D02*
Y-138001D01*
X-165999Y-141000D01*
X-169998D01*
X-163000Y-143999D02*
X-162000D01*
Y-138001D01*
X-161000Y-139001D01*
X-159001D02*
Y-141000D01*
X-158001Y-142000D01*
X-155002D01*
Y-143999D02*
Y-138001D01*
X-158001D01*
X-159001Y-139001D01*
X-157002Y-142000D02*
X-159001Y-143999D01*
X-161000D02*
X-163000D01*
X-143748Y-83499D02*
X-142748Y-84499D01*
X-140749D01*
X-139749Y-83499D01*
X-137750D02*
X-136750Y-84499D01*
X-134750D01*
X-133751Y-83499D01*
Y-79501D01*
X-134750Y-78501D01*
X-136750D01*
X-137750Y-79501D01*
X-139749D02*
X-140749Y-78501D01*
X-142748D01*
X-143748Y-79501D01*
Y-80500D01*
X-142748Y-81500D01*
X-141748D01*
X-142748D01*
X-143748Y-82500D01*
Y-83499D01*
X-130752Y-84499D02*
X-128752D01*
X-129752D01*
Y-78501D01*
X-130752D01*
X-128752D01*
X-154003Y-50251D02*
Y-54249D01*
X-155002Y-55249D01*
X-157002D01*
X-158001Y-54249D01*
X-160001D02*
X-161000Y-55249D01*
X-163000D01*
X-163999Y-54249D01*
Y-53250D01*
X-163000Y-52250D01*
X-162000D01*
X-163000D01*
X-163999Y-51250D01*
Y-50251D01*
X-163000Y-49251D01*
X-161000D01*
X-160001Y-50251D01*
X-158001D02*
X-157002Y-49251D01*
X-155002D01*
X-154003Y-50251D01*
X-165999D02*
X-166998Y-49251D01*
X-168998D01*
X-169997Y-50251D01*
Y-54249D01*
X-168998Y-55249D01*
X-166998D01*
X-165999Y-54249D01*
Y-50251D01*
X-167310Y-71480D02*
X-169310D01*
X-167310D01*
X-187502Y-86501D02*
X-186503Y-87501D01*
Y-91499D01*
X-187502Y-92499D01*
X-189502D01*
X-190501Y-91499D01*
X-192501D02*
X-193500Y-92499D01*
X-195500D01*
X-196499Y-91499D01*
Y-90500D01*
X-195500Y-89500D01*
X-194500D01*
X-195500D01*
X-196499Y-88500D01*
Y-87501D01*
X-195500Y-86501D01*
X-193500D01*
X-192501Y-87501D01*
X-190501D02*
X-189502Y-86501D01*
X-187502D01*
X-198499Y-87501D02*
X-199498Y-86501D01*
X-201498D01*
X-202497Y-87501D01*
Y-88500D01*
X-198499Y-92499D01*
X-202497D01*
X-89248Y38001D02*
X-88248Y37001D01*
X-86249D01*
X-85249Y38001D01*
X-82250Y37001D02*
X-81250D01*
Y42999D01*
X-80251Y41999D01*
X-78251D02*
X-77252Y42999D01*
X-75252D01*
X-74253Y41999D01*
Y38001D01*
X-75252Y37001D01*
X-77252D01*
X-78251Y38001D01*
X-80251Y37001D02*
X-82250D01*
X-85249Y41999D02*
X-86249Y42999D01*
X-88248D01*
X-89248Y41999D01*
Y41000D01*
X-88248Y40000D01*
X-87248D01*
X-88248D01*
X-89248Y39000D01*
Y38001D01*
X-57940Y21060D02*
X-55940D01*
X-57940D01*
X-63251Y8998D02*
X-64251Y9998D01*
X-68249D01*
X-69249Y8998D01*
Y6999D01*
X-68249Y5999D01*
X-64251D01*
X-63251Y6999D01*
Y8998D01*
Y2000D02*
X-64251Y1001D01*
Y-999D02*
X-66250D01*
X-67250Y-1998D01*
Y-4998D01*
X-69249D02*
X-63251D01*
Y-1998D01*
X-64251Y-999D01*
X-63251Y2000D02*
X-69249D01*
Y3000D01*
Y1001D01*
Y-999D02*
X-67250Y-2998D01*
X-57940Y-38750D02*
X-55940D01*
X-57940D01*
X-58000Y-48751D02*
Y-53749D01*
X-57001Y-54749D01*
X-55001D01*
X-54002Y-53749D01*
Y-48751D01*
X-62999D02*
X-60000Y-51750D01*
X-63998D01*
X-62999Y-48751D02*
Y-54749D01*
X-13999Y-54000D02*
X-12999Y-54999D01*
X-13999Y-54000D02*
Y-52000D01*
X-12999Y-51001D01*
X-12000D01*
X-11000Y-52000D01*
Y-53000D01*
Y-52000D01*
X-10000Y-51001D01*
X-9001D01*
X-8001Y-52000D01*
Y-54000D01*
X-9001Y-54999D01*
Y-56999D02*
X-8001Y-57998D01*
Y-59998D01*
X-9001Y-60997D01*
X-12999D01*
X-13999Y-59998D01*
Y-57998D01*
X-12999Y-56999D01*
X251Y-55000D02*
X1251Y-55999D01*
X251Y-55000D02*
Y-53000D01*
X1251Y-52001D01*
X2250D01*
X3250Y-53000D01*
Y-54000D01*
Y-53000D01*
X4250Y-52001D01*
X5249D01*
X6249Y-53000D01*
Y-55000D01*
X5249Y-55999D01*
Y-57999D02*
X6249Y-58998D01*
Y-60998D01*
X5249Y-61997D01*
X1251D01*
X251Y-60998D01*
Y-58998D01*
X1251Y-57999D01*
X5249Y-50001D02*
X4250D01*
X3250Y-49002D01*
Y-46003D01*
X1251D02*
X5249D01*
X6249Y-47002D01*
Y-49002D01*
X5249Y-50001D01*
X26002Y-37999D02*
X27002D01*
Y-32001D01*
X28001Y-33001D01*
Y-37999D02*
X26002D01*
X31000D02*
X32000D01*
Y-32001D01*
X33000Y-33001D01*
X34999D02*
X35999Y-32001D01*
X37998D01*
X38998Y-33001D01*
Y-36999D01*
X37998Y-37999D01*
X35999D01*
X34999Y-36999D01*
X33000Y-37999D02*
X31000D01*
X1251Y-46003D02*
X251Y-47002D01*
Y-49002D01*
X1251Y-50001D01*
X-8001Y-49001D02*
Y-45003D01*
X-9001D01*
X-12999Y-49001D01*
X-13999D01*
X-26503Y1501D02*
X-27502Y501D01*
X-29502D01*
X-30501Y1501D01*
X-32501D02*
X-33500Y501D01*
X-35500D01*
X-36499Y1501D01*
Y2500D01*
X-35500Y3500D01*
X-34500D01*
X-35500D01*
X-36499Y4500D01*
Y5499D01*
X-35500Y6499D01*
X-33500D01*
X-32501Y5499D01*
X-30501D02*
X-29502Y6499D01*
X-27502D01*
X-26503Y5499D01*
Y1501D01*
X-38499D02*
Y2500D01*
X-39498Y3500D01*
X-38499Y4500D01*
Y5499D01*
X-39498Y6499D01*
X-41498D01*
X-42497Y5499D01*
Y4500D01*
X-41498Y3500D01*
X-42497Y2500D01*
Y1501D01*
X-41498Y501D01*
X-39498D01*
X-38499Y1501D01*
X-39498Y3500D02*
X-41498D01*
X-13249Y45253D02*
X-14249Y46252D01*
Y48252D01*
X-13249Y49251D01*
Y51251D02*
X-14249Y52250D01*
Y54250D01*
X-13249Y55249D01*
X-12250D01*
X-11250Y54250D01*
Y53250D01*
Y54250D01*
X-10250Y55249D01*
X-9251D01*
X-8251Y54250D01*
Y52250D01*
X-9251Y51251D01*
Y49251D02*
X-8251Y48252D01*
Y46252D01*
X-9251Y45253D01*
X-13249D01*
X751Y46003D02*
X-249Y47002D01*
Y49002D01*
X751Y50001D01*
Y52001D02*
X-249Y53000D01*
Y55000D01*
X751Y55999D01*
X1750D01*
X2750Y55000D01*
Y54000D01*
Y55000D01*
X3750Y55999D01*
X4749D01*
X5749Y55000D01*
Y53000D01*
X4749Y52001D01*
Y50001D02*
X5749Y49002D01*
Y47002D01*
X4749Y46003D01*
X751D01*
X5749Y57999D02*
X2750D01*
X3750Y59998D01*
Y60998D01*
X2750Y61997D01*
X751D01*
X-249Y60998D01*
Y58998D01*
X751Y57999D01*
X-8251Y58248D02*
Y60248D01*
X-9251Y61247D01*
X-10250D01*
X-11250Y60248D01*
Y59248D01*
Y60248D01*
X-12250Y61247D01*
X-13249D01*
X-14249Y60248D01*
Y58248D01*
X-13249Y57249D01*
X-9251D02*
X-8251Y58248D01*
X5749Y57999D02*
Y61997D01*
X13002Y78001D02*
X17001D01*
X13002Y82000D01*
Y82999D01*
X14002Y83999D01*
X16001D01*
X17001Y82999D01*
X21999D02*
X21000Y83999D01*
Y78001D01*
X20000D01*
X21999D01*
X24999D02*
X23999Y79001D01*
X24999Y78001D02*
X26998D01*
X27998Y79001D01*
Y82999D01*
X26998Y83999D01*
X24999D01*
X23999Y82999D01*
X-20251Y117252D02*
X-21251Y116253D01*
X-25249D01*
X-26249Y117252D01*
Y119252D01*
X-25249Y120251D01*
X-21251D02*
X-20251Y119252D01*
Y117252D01*
Y125250D02*
X-23250Y122251D01*
Y126249D01*
X-26249Y125250D02*
X-20251D01*
Y129248D02*
Y131248D01*
X-21251Y132247D01*
X-25249D01*
X-26249Y131248D01*
Y129248D01*
X-25249Y128249D01*
X-21251D01*
X-20251Y129248D01*
X-36002Y177001D02*
X-37002Y176001D01*
X-39001D01*
X-40001Y177001D01*
Y180999D02*
X-39001Y181999D01*
X-37002D01*
X-36002Y180999D01*
Y177001D01*
X-42000Y179000D02*
X-45999D01*
X-44999Y176001D02*
Y181999D01*
X-42000Y179000D01*
X-47998Y180999D02*
X-48998Y181999D01*
Y176001D01*
X-49998D01*
X-47998D01*
X-48002Y129499D02*
Y124501D01*
X-49001Y123501D01*
X-51001D01*
X-52000Y124501D01*
Y129499D01*
X-54000D02*
X-57998D01*
Y128499D01*
X-54000Y124501D01*
Y123501D01*
X-54002Y51749D02*
Y46751D01*
X-55001Y45751D01*
X-57001D01*
X-58000Y46751D01*
Y51749D01*
X-60000Y48750D02*
Y46751D01*
X-60999Y45751D01*
X-62999D01*
X-63998Y46751D01*
Y47750D01*
X-62999Y48750D01*
X-60000D01*
X-61999Y50749D01*
X-63998Y51749D01*
X-42498Y60501D02*
Y66499D01*
X-39499Y63500D01*
X-43497D01*
X-37499Y64500D02*
X-36500Y63500D01*
X-35500D01*
X-36500D01*
X-37499Y62500D01*
Y61501D01*
X-36500Y60501D01*
X-34500D01*
X-33501Y61501D01*
X-31501D02*
X-30502Y60501D01*
X-28502D01*
X-27503Y61501D01*
Y65499D01*
X-28502Y66499D01*
X-30502D01*
X-31501Y65499D01*
X-33501D02*
X-34500Y66499D01*
X-36500D01*
X-37499Y65499D01*
Y64500D01*
X-145253Y151251D02*
Y157249D01*
X-148251D01*
X-149251Y156249D01*
Y154250D01*
X-148251Y153250D01*
X-145253D01*
X-147252D02*
X-149251Y151251D01*
X-151250D02*
X-153250D01*
X-152250D01*
Y157249D01*
X-151250Y156249D01*
X-156249Y154250D02*
Y152251D01*
X-157249Y151251D01*
X-159248D01*
X-160248Y152251D01*
Y153250D01*
X-159248Y154250D01*
X-156249D01*
X-158248Y156249D01*
X-160248Y157249D01*
Y143999D02*
X-156249D01*
Y141000D01*
X-158248Y142000D01*
X-159248D01*
X-160248Y141000D01*
Y139001D01*
X-159248Y138001D01*
X-157249D01*
X-156249Y139001D01*
X-153250Y138001D02*
X-152250D01*
Y143999D01*
X-151250Y142999D01*
X-149251D02*
Y141000D01*
X-148251Y140000D01*
X-145253D01*
Y138001D02*
Y143999D01*
X-148251D01*
X-149251Y142999D01*
Y138001D02*
X-147252Y140000D01*
X-151250Y138001D02*
X-153250D01*
X-154310Y122433D02*
X-151560D01*
Y88433D01*
X-154310D01*
X-172002Y65249D02*
X-171003Y64249D01*
Y60251D01*
X-172002Y59251D01*
X-174002D01*
X-175001Y60251D01*
X-177001D02*
X-178000Y59251D01*
X-180000D01*
X-180999Y60251D01*
Y61250D01*
X-180000Y62250D01*
X-179000D01*
X-180000D01*
X-180999Y63250D01*
Y64249D01*
X-180000Y65249D01*
X-178000D01*
X-177001Y64249D01*
X-175001D02*
X-174002Y65249D01*
X-172002D01*
X-182999Y62250D02*
Y60251D01*
X-183998Y59251D01*
X-185998D01*
X-186997Y60251D01*
Y61250D01*
X-185998Y62250D01*
X-182999D01*
X-184998Y64249D01*
X-186997Y65249D01*
X-202810Y88433D02*
X-205560D01*
Y122433D01*
X-202810D01*
X83751Y47501D02*
Y49500D01*
Y48500D01*
X89749D01*
X88749Y47501D01*
Y45501D02*
X89749Y44502D01*
Y42502D01*
X88749Y41502D01*
X84751D01*
X83751Y42502D01*
Y44502D01*
X84751Y45501D01*
X115751Y7248D02*
X116751Y8248D01*
X120749D01*
X121749Y7248D01*
Y5249D01*
X120749Y4249D01*
Y2250D02*
X121749Y1250D01*
Y-749D01*
X120749Y-1749D01*
X119750D01*
X118750Y-749D01*
Y250D01*
Y-749D01*
X117750Y-1749D01*
X116751D01*
X115751Y-749D01*
Y1250D01*
X116751Y2250D01*
Y4249D02*
X115751Y5249D01*
Y7248D01*
X130502Y17751D02*
X131502Y16751D01*
X133502D01*
X134501Y17751D01*
Y19750D02*
X132502Y20750D01*
X131502D01*
X130502Y19750D01*
Y17751D01*
X121749Y-3748D02*
Y-5748D01*
Y-4748D01*
X115751D01*
X116751Y-3748D01*
X131752Y-51001D02*
X134751Y-54000D01*
X130752D01*
X129501Y-88001D02*
X128501D01*
X129501D02*
X133499Y-84003D01*
X134499D01*
Y-88001D01*
Y-91000D02*
Y-93000D01*
X133499Y-93999D01*
Y-95999D02*
X134499Y-96998D01*
Y-98998D01*
X133499Y-99997D01*
X129501D01*
X128501Y-98998D01*
Y-96998D01*
X129501Y-95999D01*
X128501Y-93999D02*
X132500Y-90001D01*
X133499D01*
X134499Y-91000D01*
X149753Y-114751D02*
X153751D01*
Y-117750D01*
X151752Y-116750D01*
X150752D01*
X149753Y-117750D01*
Y-119749D01*
X150752Y-120749D01*
X152752D01*
X153751Y-119749D01*
X155751Y-120749D02*
X159749D01*
X155751Y-116750D01*
Y-115751D01*
X156750Y-114751D01*
X158750D01*
X159749Y-115751D01*
X161749D02*
X162748Y-114751D01*
X164748D01*
X165747Y-115751D01*
Y-119749D01*
X164748Y-120749D01*
X162748D01*
X161749Y-119749D01*
X165520Y-98270D02*
X167520D01*
X165520D01*
X145747Y-56999D02*
X143748D01*
X144748D02*
X145747D01*
X144748D02*
Y-51001D01*
X143748D01*
X145747D01*
X139749D02*
X140749Y-52001D01*
Y-55999D01*
X139749Y-56999D01*
X137750D01*
X136750Y-55999D01*
X131752Y-56999D02*
Y-51001D01*
X137750D02*
X139749D01*
X137750D02*
X136750Y-52001D01*
X152252Y-49749D02*
X151253Y-48749D01*
Y-44751D01*
X152252Y-43751D01*
X154252D01*
X155251Y-44751D01*
Y-45750D01*
X154252Y-46750D01*
X151253D01*
X152252Y-49749D02*
X154252D01*
X155251Y-48749D01*
X157251Y-49749D02*
X161249D01*
X157251Y-45750D01*
Y-44751D01*
X158250Y-43751D01*
X160250D01*
X161249Y-44751D01*
X163249D02*
X164248Y-43751D01*
X166248D01*
X167247Y-44751D01*
Y-48749D01*
X166248Y-49749D01*
X164248D01*
X163249Y-48749D01*
X189753Y-41749D02*
X190752Y-42749D01*
X192752D01*
X193751Y-41749D01*
X195751Y-42749D02*
X199749D01*
X195751Y-38750D01*
Y-37751D01*
X196750Y-36751D01*
X198750D01*
X199749Y-37751D01*
X201749D02*
Y-39750D01*
X202748Y-40750D01*
X205747D01*
Y-42749D02*
Y-36751D01*
X202748D01*
X201749Y-37751D01*
X203748Y-40750D02*
X201749Y-42749D01*
X193751Y-37751D02*
X192752Y-36751D01*
X190752D01*
X189753Y-37751D01*
Y-38750D01*
X190752Y-39750D01*
X191752D01*
X190752D01*
X189753Y-40750D01*
Y-41749D01*
X167520Y-24520D02*
X165520D01*
X167520D01*
X145498Y16751D02*
X143498D01*
X144498D02*
X145498D01*
X144498D02*
Y22749D01*
X143498D01*
X145498D01*
X139500D02*
X140499Y21749D01*
Y17751D01*
X139500Y16751D01*
X137500D01*
X136501Y17751D01*
Y21749D02*
X137500Y22749D01*
X139500D01*
X134501D02*
Y19750D01*
X181253Y37001D02*
X185251D01*
X181253Y41000D01*
Y41999D01*
X182252Y42999D01*
X184252D01*
X185251Y41999D01*
X187251D02*
X188250Y42999D01*
X190250D01*
X191249Y41999D01*
X193249D02*
X194248Y42999D01*
X196248D01*
X197247Y41999D01*
Y38001D01*
X196248Y37001D01*
X194248D01*
X193249Y38001D01*
X191249Y37001D02*
X187251Y41000D01*
Y41999D01*
Y37001D02*
X191249D01*
X190502Y31999D02*
X193501Y29000D01*
X189503D01*
X190502Y26001D02*
Y31999D01*
X196500D02*
X198500D01*
X199499Y30999D01*
X201499D02*
Y29000D01*
X202498Y28000D01*
X205497D01*
Y26001D02*
Y31999D01*
X202498D01*
X201499Y30999D01*
X203498Y28000D02*
X201499Y26001D01*
X199499D02*
X195501Y30000D01*
Y30999D01*
X196500Y31999D01*
X195501Y26001D02*
X199499D01*
X191248Y50251D02*
X189249D01*
X190248D02*
X191248D01*
X190248D02*
Y56249D01*
X189249D01*
X191248D01*
X185250D02*
X186250Y55249D01*
Y51251D01*
X185250Y50251D01*
X183251D01*
X182251Y51251D01*
X180252Y50251D02*
X178252D01*
X179252D01*
Y56249D01*
X180252Y55249D01*
X182251D02*
X183251Y56249D01*
X185250D01*
X187002Y87251D02*
Y93249D01*
X190001Y90250D01*
X186003D01*
X192001Y91250D02*
Y92249D01*
X193000Y93249D01*
X195000D01*
X195999Y92249D01*
X197999D02*
X198998Y93249D01*
X200998D01*
X201997Y92249D01*
Y88251D01*
X200998Y87251D01*
X198998D01*
X197999Y88251D01*
X195999Y87251D02*
X192001Y91250D01*
Y87251D02*
X195999D01*
X174248Y118001D02*
Y123999D01*
X171249D01*
X170249Y122999D01*
Y121000D01*
X171249Y120000D01*
X174248D01*
X172248D02*
X170249Y118001D01*
X168250D02*
X166250D01*
X167250D01*
Y123999D01*
X168250Y122999D01*
X163251D02*
X162252Y123999D01*
Y118001D01*
X161252D01*
X163251D01*
X165520Y49230D02*
X167520D01*
X165520D01*
X134501Y22749D02*
X130502D01*
X89749Y52499D02*
X86750D01*
X87750Y54498D01*
Y55498D01*
X86750Y56498D01*
X84751D01*
X83751Y55498D01*
Y53499D01*
X84751Y52499D01*
X89749D02*
Y56498D01*
X135753Y156001D02*
X139751D01*
X135753Y160000D01*
Y160999D01*
X136752Y161999D01*
X138752D01*
X139751Y160999D01*
X141751Y159000D02*
X145749D01*
X142750Y161999D01*
Y156001D01*
X148748D02*
X147749Y157001D01*
X148748Y156001D02*
X150748D01*
X151747Y157001D01*
Y160999D01*
X150748Y161999D01*
X148748D01*
X147749Y160999D01*
X128501Y-90001D02*
Y-93999D01*
D12*
X-152563Y83640D02*
X-152550Y85240D01*
X-152576D02*
X-152563Y83640D01*
D13*
X-122332Y-19000D02*
Y-14002D01*
X-119000D02*
X-122332Y-19000D01*
X-119000D02*
Y-14002D01*
X-120666Y-7963D02*
Y-2965D01*
X-122332D01*
X-119000D01*
X-123998D02*
X-127331D01*
X-125665D01*
Y-7963D01*
X-128997D02*
X-131496D01*
X-132329Y-7130D01*
Y-3798D01*
X-131496Y-2965D01*
X-128997D01*
Y-7963D01*
Y-14002D02*
Y-19000D01*
Y-17334D01*
X-132329Y-14002D01*
X-129830Y-16501D01*
X-132329Y-19000D01*
X-133995D02*
Y-16501D01*
X-137327D01*
Y-14002D01*
Y-19000D01*
X-133995D02*
Y-14002D01*
X-127331Y-14835D02*
X-126497Y-14002D01*
X-124831D01*
X-123998Y-14835D01*
Y-18167D01*
X-124831Y-19000D01*
X-126497D01*
X-127331Y-18167D01*
X-143992Y-19000D02*
X-147324Y-15668D01*
Y-14835D01*
X-146491Y-14002D01*
X-144825D01*
X-143992Y-14835D01*
Y-19000D02*
X-147324D01*
Y-7130D02*
X-146491Y-7963D01*
X-144825D01*
X-143992Y-7130D01*
Y-5464D02*
X-145658Y-4631D01*
X-146491D01*
X-147324Y-5464D01*
Y-7130D01*
X-143992Y-5464D02*
Y-2965D01*
X-147324D01*
X-142326D02*
X-139826Y-5464D01*
X-142326Y-7963D01*
X-138993D02*
Y-6297D01*
X-142326Y-2965D01*
X-138993D02*
Y-7963D01*
X-148990Y-2965D02*
X-152322D01*
Y-3798D01*
X-148990Y-7130D01*
Y-7963D01*
Y-14835D02*
X-149823Y-14002D01*
X-151489D01*
X-152322Y-14835D01*
Y-18167D01*
X-151489Y-19000D01*
X-149823D01*
X-148990Y-18167D01*
Y-14835D01*
X-153989D02*
X-154822Y-14002D01*
X-156488D01*
X-157321Y-14835D01*
Y-15668D01*
X-153989Y-19000D01*
X-157321D01*
X-158987Y-18167D02*
X-159820Y-19000D01*
X-161486D01*
X-162319Y-18167D01*
Y-17334D01*
X-161486Y-16501D01*
X-158987D01*
Y-18167D01*
Y-16501D02*
X-160653Y-14835D01*
X-162319Y-14002D01*
X-57060Y139100D02*
X-55560D01*
X-57060D01*
D14*
X-151150Y-133850D02*
Y-120650D01*
X-179350D01*
Y-133850D01*
X-151150D01*
X-102600Y-106100D02*
Y-92900D01*
X-94500D01*
X-82500D02*
X-74400D01*
Y-106100D01*
X-82500D01*
X-94500D02*
X-102600D01*
X-86600Y-44100D02*
X-73400D01*
Y-36000D01*
X-86600D02*
Y-44100D01*
Y-24000D02*
Y-15900D01*
X-73400D01*
Y-24000D01*
X-73400Y-9100D02*
Y19100D01*
X-86600D01*
Y-9100D01*
X-73400D01*
X-73650Y47150D02*
Y60350D01*
X-81750D01*
X-93750D02*
X-101850D01*
Y47150D01*
X-93750D01*
X-81750D02*
X-73650D01*
X13150Y-55600D02*
X21250D01*
X13150D02*
Y-42400D01*
X21250D01*
X33250Y-55600D02*
X41350D01*
Y-42400D01*
X33250D01*
X28000Y-92900D02*
X36100D01*
Y-106100D01*
X28000D01*
X16000D02*
X7900D01*
Y-92900D01*
X16000D01*
X66400Y41150D02*
Y49250D01*
Y61250D02*
Y69350D01*
X79600D01*
Y61250D01*
Y49250D02*
Y41150D01*
X66400D01*
X28600Y73600D02*
X15400D01*
Y65500D01*
Y53500D02*
Y45400D01*
X28600D01*
Y53500D01*
Y65500D02*
Y73600D01*
X148900Y100650D02*
Y113850D01*
X177100D01*
Y100650D01*
X148900D01*
X178150Y21350D02*
X206350D01*
Y8150D01*
X178150D01*
Y21350D01*
Y-46900D02*
X206350D01*
Y-60100D01*
X178150D01*
Y-46900D01*
X-164650Y160350D02*
X-192850D01*
Y147150D01*
X-164650D01*
Y160350D01*
Y147100D02*
X-192850D01*
Y133900D01*
X-164650D01*
Y147100D01*
D15*
X-172860Y-108230D02*
Y-85230D01*
X-148760D02*
Y-108230D01*
X-51940Y-43250D02*
X-46840D01*
X-27040D02*
X-21940D01*
Y-18250D02*
X-27040D01*
Y16560D02*
X-21940D01*
Y41560D02*
X-27040D01*
X-46840D02*
X-51940D01*
Y16560D02*
X-46840D01*
Y-18250D02*
X-51940D01*
X-37110Y134890D02*
X-33100D01*
Y138900D01*
Y151300D02*
Y155310D01*
X-37110D01*
X-49510D02*
X-53520D01*
Y151300D01*
Y138900D02*
Y134890D01*
X-49510D01*
X146970Y-61520D02*
Y-84520D01*
X171070D02*
Y-61520D01*
Y-10770D02*
Y12230D01*
X146970D02*
Y-10770D01*
X171070Y62980D02*
Y85980D01*
X146970D02*
Y62980D01*
D17*
X5000Y-17750D02*
Y-16250D01*
X4001Y-15251D01*
Y-14751D01*
X0Y-17750D02*
Y-3750D01*
X681Y-3484D02*
X2817Y-2251D01*
X3660Y67D01*
X2817Y2385D01*
X681Y3618D01*
X-1748Y3189D01*
X-3333Y1300D01*
Y-1166D01*
X-1748Y-3056D01*
X681Y-3484D01*
X6000Y-14751D02*
Y-15251D01*
X5000Y-16250D01*
X17251Y16D02*
X3660Y67D01*
X-6500Y4000D02*
X-8499D01*
X-6500D02*
Y4500D01*
X-8499Y6499D01*
Y6999D01*
X-6500D01*
X14751D02*
X16750Y4000D01*
X14751D02*
X16750Y6999D01*
X-86000Y130500D02*
Y149250D01*
X-85319Y149516D02*
X-83183Y150749D01*
X-82340Y153067D01*
X-83183Y155385D01*
X-85319Y156618D01*
X-87748Y156189D01*
X-89333Y154300D01*
Y151834D01*
X-87748Y149944D01*
X-85319Y149516D01*
X-92250Y134249D02*
X-94249Y131250D01*
X-92250D02*
X-94249Y134249D01*
X-64500Y153000D02*
X-82340Y153067D01*
X-83445Y150567D02*
X-88439Y155323D01*
X-83940Y155517D02*
X-87950Y150616D01*
X-92250Y157250D02*
X-94249D01*
X-92250D02*
Y157750D01*
X-94249Y159749D01*
Y160249D01*
X-92250D01*
X-66999D02*
Y159749D01*
X-66000Y158750D01*
Y157250D01*
Y158750D02*
X-65000Y159749D01*
Y160249D01*
M02*
