G04*
G04 #@! TF.GenerationSoftware,Altium Limited,Altium Designer,23.7.1 (13)*
G04*
G04 Layer_Physical_Order=3*
G04 Layer_Color=16440176*
%FSLAX44Y44*%
%MOMM*%
G71*
G04*
G04 #@! TF.SameCoordinates,04D04BC5-F765-4596-8717-98BD9A505975*
G04*
G04*
G04 #@! TF.FilePolarity,Positive*
G04*
G01*
G75*
%ADD101C,0.5000*%
%ADD102C,0.6000*%
G36*
X247500Y-122890D02*
X246230Y-123416D01*
X245162Y-122348D01*
X243338Y-121295D01*
X241303Y-120750D01*
X239197D01*
X237162Y-121295D01*
X235338Y-122348D01*
X233848Y-123838D01*
X232795Y-125662D01*
X232250Y-127697D01*
Y-129803D01*
X232795Y-131838D01*
X233848Y-133662D01*
X235338Y-135152D01*
X237162Y-136205D01*
X239197Y-136750D01*
X241303D01*
X243338Y-136205D01*
X245162Y-135152D01*
X246230Y-134084D01*
X247500Y-134610D01*
Y-247500D01*
X-247500D01*
Y247500D01*
X247500D01*
Y-122890D01*
D02*
G37*
%LPC*%
G36*
X-141013Y240250D02*
X-142987D01*
X-144895Y239739D01*
X-146605Y238752D01*
X-148001Y237355D01*
X-148989Y235645D01*
X-149500Y233737D01*
Y231763D01*
X-148989Y229855D01*
X-148001Y228145D01*
X-147357Y227500D01*
X-148001Y226855D01*
X-148989Y225145D01*
X-149500Y223237D01*
Y221263D01*
X-148989Y219355D01*
X-148001Y217645D01*
X-146605Y216248D01*
X-144895Y215261D01*
X-142987Y214750D01*
X-141013D01*
X-139105Y215261D01*
X-137395Y216248D01*
X-135998Y217645D01*
X-135011Y219355D01*
X-134500Y221263D01*
Y223237D01*
X-135011Y225145D01*
X-135998Y226855D01*
X-136643Y227500D01*
X-135998Y228145D01*
X-135011Y229855D01*
X-134500Y231763D01*
Y233737D01*
X-135011Y235645D01*
X-135998Y237355D01*
X-137395Y238752D01*
X-139105Y239739D01*
X-141013Y240250D01*
D02*
G37*
G36*
X41270Y215720D02*
Y211520D01*
X45470D01*
X44697Y213388D01*
X43138Y214947D01*
X41270Y215720D01*
D02*
G37*
G36*
X-86203D02*
Y211520D01*
X-82002D01*
X-82776Y213388D01*
X-84334Y214947D01*
X-86203Y215720D01*
D02*
G37*
G36*
X-88743D02*
X-90611Y214947D01*
X-92169Y213388D01*
X-92943Y211520D01*
X-88743D01*
Y215720D01*
D02*
G37*
G36*
X139500Y241098D02*
X114500D01*
X112549Y240710D01*
X110895Y239605D01*
X109790Y237951D01*
X109402Y236000D01*
Y216000D01*
X109790Y214049D01*
X110895Y212395D01*
X112549Y211290D01*
X114500Y210902D01*
X139500D01*
X141451Y211290D01*
X143105Y212395D01*
X144210Y214049D01*
X144598Y216000D01*
Y236000D01*
X144210Y237951D01*
X143105Y239605D01*
X141451Y240710D01*
X139500Y241098D01*
D02*
G37*
G36*
X45470Y208980D02*
X41270D01*
Y204780D01*
X43138Y205553D01*
X44697Y207112D01*
X45470Y208980D01*
D02*
G37*
G36*
X31053Y218250D02*
X28947D01*
X26912Y217705D01*
X25088Y216652D01*
X23598Y215162D01*
X22545Y213338D01*
X22000Y211303D01*
Y209197D01*
X22545Y207162D01*
X23598Y205338D01*
X25088Y203848D01*
X26912Y202795D01*
X28947Y202250D01*
X31053D01*
X33088Y202795D01*
X34912Y203848D01*
X36402Y205338D01*
X36498Y205506D01*
X36862Y205553D01*
X38730Y204780D01*
Y210250D01*
Y215720D01*
X36862Y214947D01*
X36498Y214994D01*
X36402Y215162D01*
X34912Y216652D01*
X33088Y217705D01*
X31053Y218250D01*
D02*
G37*
G36*
X-82002Y208980D02*
X-86203D01*
Y204780D01*
X-84334Y205553D01*
X-82776Y207112D01*
X-82002Y208980D01*
D02*
G37*
G36*
X-88743D02*
X-92943D01*
X-92169Y207112D01*
X-90611Y205553D01*
X-88743Y204780D01*
Y208980D01*
D02*
G37*
G36*
X-61447Y218250D02*
X-63553D01*
X-65588Y217705D01*
X-67412Y216652D01*
X-68902Y215162D01*
X-69955Y213338D01*
X-70500Y211303D01*
Y209197D01*
X-69955Y207162D01*
X-68902Y205338D01*
X-67412Y203848D01*
X-65588Y202795D01*
X-63553Y202250D01*
X-61447D01*
X-59412Y202795D01*
X-57588Y203848D01*
X-56098Y205338D01*
X-55045Y207162D01*
X-54500Y209197D01*
Y211303D01*
X-55045Y213338D01*
X-56098Y215162D01*
X-57588Y216652D01*
X-59412Y217705D01*
X-61447Y218250D01*
D02*
G37*
G36*
X224512Y244372D02*
X220079D01*
X215732Y243507D01*
X211638Y241811D01*
X207952Y239349D01*
X204818Y236215D01*
X202356Y232530D01*
X200660Y228435D01*
X199795Y224088D01*
Y219655D01*
X200660Y215308D01*
X202356Y211214D01*
X204818Y207528D01*
X207952Y204394D01*
X211638Y201932D01*
X215732Y200236D01*
X220079Y199371D01*
X224512D01*
X228859Y200236D01*
X232954Y201932D01*
X236639Y204394D01*
X239773Y207528D01*
X242235Y211214D01*
X243932Y215308D01*
X244796Y219655D01*
Y224088D01*
X243932Y228435D01*
X242235Y232530D01*
X239773Y236215D01*
X236639Y239349D01*
X232954Y241811D01*
X228859Y243507D01*
X224512Y244372D01*
D02*
G37*
G36*
X-220488D02*
X-224921D01*
X-229268Y243507D01*
X-233362Y241811D01*
X-237048Y239349D01*
X-240182Y236215D01*
X-242644Y232530D01*
X-244340Y228435D01*
X-245205Y224088D01*
Y219655D01*
X-244340Y215308D01*
X-242644Y211214D01*
X-240182Y207528D01*
X-237048Y204394D01*
X-233362Y201932D01*
X-229268Y200236D01*
X-224921Y199371D01*
X-220488D01*
X-216141Y200236D01*
X-212046Y201932D01*
X-208361Y204394D01*
X-205227Y207528D01*
X-202765Y211214D01*
X-201068Y215308D01*
X-200204Y219655D01*
Y224088D01*
X-201068Y228435D01*
X-202765Y232530D01*
X-205227Y236215D01*
X-208361Y239349D01*
X-212046Y241811D01*
X-216141Y243507D01*
X-220488Y244372D01*
D02*
G37*
G36*
X194803Y204000D02*
X192697D01*
X190662Y203455D01*
X188838Y202402D01*
X187348Y200912D01*
X186295Y199088D01*
X185750Y197053D01*
Y194947D01*
X186295Y192912D01*
X187348Y191088D01*
X188838Y189598D01*
X190662Y188545D01*
X192697Y188000D01*
X194803D01*
X196838Y188545D01*
X198662Y189598D01*
X200152Y191088D01*
X201205Y192912D01*
X201750Y194947D01*
Y197053D01*
X201205Y199088D01*
X200152Y200912D01*
X198662Y202402D01*
X196838Y203455D01*
X194803Y204000D01*
D02*
G37*
G36*
X74020Y179471D02*
Y175270D01*
X78220D01*
X77446Y177138D01*
X75888Y178697D01*
X74020Y179471D01*
D02*
G37*
G36*
X71480D02*
X69612Y178697D01*
X68053Y177138D01*
X67280Y175270D01*
X71480D01*
Y179471D01*
D02*
G37*
G36*
X-203480Y173429D02*
Y169770D01*
X-199821D01*
X-200477Y171355D01*
X-201895Y172773D01*
X-203480Y173429D01*
D02*
G37*
G36*
X-206020D02*
X-207605Y172773D01*
X-209023Y171355D01*
X-209679Y169770D01*
X-206020D01*
Y173429D01*
D02*
G37*
G36*
X85303Y210250D02*
X83197D01*
X81162Y209705D01*
X79338Y208652D01*
X77848Y207162D01*
X76795Y205338D01*
X76250Y203303D01*
Y201197D01*
X76795Y199162D01*
X77848Y197338D01*
X79338Y195848D01*
X80174Y195366D01*
X79902Y194000D01*
Y174000D01*
X80290Y172049D01*
X81395Y170395D01*
X83049Y169290D01*
X85000Y168902D01*
X170000D01*
X171951Y169290D01*
X173605Y170395D01*
X174710Y172049D01*
X175098Y174000D01*
Y194000D01*
X174710Y195951D01*
X173605Y197605D01*
X171951Y198710D01*
X170000Y199098D01*
X93002D01*
X92028Y200368D01*
X92250Y201197D01*
Y203303D01*
X91705Y205338D01*
X90652Y207162D01*
X89162Y208652D01*
X87338Y209705D01*
X85303Y210250D01*
D02*
G37*
G36*
X78220Y172730D02*
X74020D01*
Y168530D01*
X75888Y169303D01*
X77446Y170862D01*
X78220Y172730D01*
D02*
G37*
G36*
X71480D02*
X67280D01*
X68053Y170862D01*
X69612Y169303D01*
X71480Y168530D01*
Y172730D01*
D02*
G37*
G36*
X-23480Y172179D02*
Y168520D01*
X-19821D01*
X-20477Y170105D01*
X-21895Y171523D01*
X-23480Y172179D01*
D02*
G37*
G36*
X-26020D02*
X-27605Y171523D01*
X-29023Y170105D01*
X-29679Y168520D01*
X-26020D01*
Y172179D01*
D02*
G37*
G36*
X-110763Y175750D02*
X-112737D01*
X-114645Y175239D01*
X-116355Y174251D01*
X-117752Y172855D01*
X-118739Y171145D01*
X-119250Y169237D01*
Y167403D01*
X-119644Y167087D01*
X-120149Y166861D01*
X-120434Y166774D01*
X-122105Y167739D01*
X-124013Y168250D01*
X-125987D01*
X-127895Y167739D01*
X-128480Y167401D01*
X-129750Y168134D01*
Y169237D01*
X-130261Y171145D01*
X-131249Y172855D01*
X-132645Y174251D01*
X-134355Y175239D01*
X-136263Y175750D01*
X-138237D01*
X-140145Y175239D01*
X-141855Y174251D01*
X-143251Y172855D01*
X-144239Y171145D01*
X-144750Y169237D01*
Y167263D01*
X-144239Y165355D01*
X-143251Y163645D01*
X-141855Y162248D01*
X-140145Y161261D01*
X-138237Y160750D01*
X-136263D01*
X-134355Y161261D01*
X-133770Y161599D01*
X-132500Y160866D01*
Y159763D01*
X-131989Y157855D01*
X-131002Y156145D01*
X-129605Y154748D01*
X-127895Y153761D01*
X-125987Y153250D01*
X-124013D01*
X-122105Y153761D01*
X-120395Y154748D01*
X-118998Y156145D01*
X-118011Y157855D01*
X-117500Y159763D01*
Y161597D01*
X-117106Y161913D01*
X-116601Y162139D01*
X-116316Y162226D01*
X-114645Y161261D01*
X-112737Y160750D01*
X-110763D01*
X-108855Y161261D01*
X-107145Y162248D01*
X-105749Y163645D01*
X-104761Y165355D01*
X-104724Y165492D01*
X-103410D01*
X-103239Y164855D01*
X-102252Y163145D01*
X-100855Y161749D01*
X-99145Y160761D01*
X-97237Y160250D01*
X-95263D01*
X-93355Y160761D01*
X-91645Y161749D01*
X-90248Y163145D01*
X-90128Y163354D01*
X-88661D01*
X-88251Y162645D01*
X-86855Y161248D01*
X-85145Y160261D01*
X-83237Y159750D01*
X-81263D01*
X-79355Y160261D01*
X-77645Y161248D01*
X-76248Y162645D01*
X-75261Y164355D01*
X-74750Y166263D01*
Y168237D01*
X-75261Y170145D01*
X-76248Y171855D01*
X-77645Y173251D01*
X-79355Y174239D01*
X-81263Y174750D01*
X-83237D01*
X-85145Y174239D01*
X-86855Y173251D01*
X-88251Y171855D01*
X-88372Y171646D01*
X-89839D01*
X-90248Y172355D01*
X-91645Y173752D01*
X-93355Y174739D01*
X-95263Y175250D01*
X-97237D01*
X-99145Y174739D01*
X-100855Y173752D01*
X-102252Y172355D01*
X-103239Y170645D01*
X-103276Y170508D01*
X-104590D01*
X-104761Y171145D01*
X-105749Y172855D01*
X-107145Y174251D01*
X-108855Y175239D01*
X-110763Y175750D01*
D02*
G37*
G36*
X-199821Y167230D02*
X-203480D01*
Y163571D01*
X-201895Y164227D01*
X-200477Y165645D01*
X-199821Y167230D01*
D02*
G37*
G36*
X-206020D02*
X-209679D01*
X-209023Y165645D01*
X-207605Y164227D01*
X-206020Y163571D01*
Y167230D01*
D02*
G37*
G36*
X-19821Y165980D02*
X-23480D01*
Y162321D01*
X-21895Y162977D01*
X-20477Y164395D01*
X-19821Y165980D01*
D02*
G37*
G36*
X-26020D02*
X-29679D01*
X-29023Y164395D01*
X-27605Y162977D01*
X-26020Y162321D01*
Y165980D01*
D02*
G37*
G36*
X236520Y165929D02*
Y162270D01*
X240179D01*
X239523Y163855D01*
X238105Y165273D01*
X236520Y165929D01*
D02*
G37*
G36*
X233980D02*
X232395Y165273D01*
X230977Y163855D01*
X230321Y162270D01*
X233980D01*
Y165929D01*
D02*
G37*
G36*
X-1263Y174750D02*
X-3237D01*
X-5145Y174239D01*
X-6855Y173251D01*
X-8252Y171855D01*
X-9239Y170145D01*
X-9750Y168237D01*
Y166263D01*
X-9239Y164355D01*
X-8252Y162645D01*
X-6855Y161248D01*
X-5145Y160261D01*
X-3237Y159750D01*
X-1263D01*
X645Y160261D01*
X2355Y161248D01*
X3751Y162645D01*
X4739Y164355D01*
X5250Y166263D01*
Y168237D01*
X4739Y170145D01*
X3751Y171855D01*
X2355Y173251D01*
X645Y174239D01*
X-1263Y174750D01*
D02*
G37*
G36*
X42487Y174250D02*
X40513D01*
X38605Y173739D01*
X36895Y172752D01*
X35498Y171355D01*
X34511Y169645D01*
X34000Y167737D01*
Y165763D01*
X34511Y163855D01*
X35498Y162145D01*
X36895Y160749D01*
X38605Y159761D01*
X40513Y159250D01*
X42487D01*
X44395Y159761D01*
X46105Y160749D01*
X47502Y162145D01*
X48489Y163855D01*
X49000Y165763D01*
Y167737D01*
X48489Y169645D01*
X47502Y171355D01*
X46105Y172752D01*
X44395Y173739D01*
X42487Y174250D01*
D02*
G37*
G36*
X240179Y159730D02*
X236520D01*
Y156071D01*
X238105Y156727D01*
X239523Y158145D01*
X240179Y159730D01*
D02*
G37*
G36*
X233980D02*
X230321D01*
X230977Y158145D01*
X232395Y156727D01*
X233980Y156071D01*
Y159730D01*
D02*
G37*
G36*
X100803Y166750D02*
X98697D01*
X96662Y166205D01*
X94838Y165152D01*
X93348Y163662D01*
X92295Y161838D01*
X91750Y159803D01*
Y157697D01*
X92295Y155662D01*
X93348Y153838D01*
X94279Y152907D01*
X94281Y152905D01*
X93502Y151889D01*
X93484Y151899D01*
X92088Y152705D01*
X90053Y153250D01*
X87947D01*
X85912Y152705D01*
X84088Y151652D01*
X82598Y150162D01*
X81545Y148338D01*
X81000Y146303D01*
Y144197D01*
X81545Y142162D01*
X82598Y140338D01*
X84088Y138848D01*
X85912Y137795D01*
X87947Y137250D01*
X90053D01*
X92088Y137795D01*
X93912Y138848D01*
X95402Y140338D01*
X96455Y142162D01*
X97000Y144197D01*
Y146303D01*
X96455Y148338D01*
X95402Y150162D01*
X94471Y151093D01*
X94468Y151095D01*
X95248Y152111D01*
X95266Y152101D01*
X96662Y151295D01*
X98697Y150750D01*
X100803D01*
X102838Y151295D01*
X104662Y152348D01*
X106152Y153838D01*
X107205Y155662D01*
X107750Y157697D01*
Y159803D01*
X107205Y161838D01*
X106152Y163662D01*
X104662Y165152D01*
X102838Y166205D01*
X100803Y166750D01*
D02*
G37*
G36*
X134270Y150970D02*
Y146770D01*
X138470D01*
X137697Y148638D01*
X136138Y150197D01*
X134270Y150970D01*
D02*
G37*
G36*
X131730D02*
X129862Y150197D01*
X128303Y148638D01*
X127530Y146770D01*
X131730D01*
Y150970D01*
D02*
G37*
G36*
X-14763Y156500D02*
X-16737D01*
X-18645Y155989D01*
X-20355Y155001D01*
X-21751Y153605D01*
X-22739Y151895D01*
X-23250Y149987D01*
Y148013D01*
X-22739Y146105D01*
X-21751Y144395D01*
X-20355Y142999D01*
X-18645Y142011D01*
X-16737Y141500D01*
X-14763D01*
X-12855Y142011D01*
X-11145Y142999D01*
X-9748Y144395D01*
X-8761Y146105D01*
X-8250Y148013D01*
Y149987D01*
X-8761Y151895D01*
X-9748Y153605D01*
X-11145Y155001D01*
X-12855Y155989D01*
X-14763Y156500D01*
D02*
G37*
G36*
X-30730Y143929D02*
Y140270D01*
X-27071D01*
X-27727Y141855D01*
X-29145Y143273D01*
X-30730Y143929D01*
D02*
G37*
G36*
X-33270D02*
X-34855Y143273D01*
X-36273Y141855D01*
X-36929Y140270D01*
X-33270D01*
Y143929D01*
D02*
G37*
G36*
X138470Y144230D02*
X134270D01*
Y140030D01*
X136138Y140803D01*
X137697Y142362D01*
X138470Y144230D01*
D02*
G37*
G36*
X131730D02*
X127530D01*
X128303Y142362D01*
X129862Y140803D01*
X131730Y140030D01*
Y144230D01*
D02*
G37*
G36*
X112053Y153500D02*
X109947D01*
X107912Y152955D01*
X106088Y151902D01*
X104598Y150412D01*
X103545Y148588D01*
X103000Y146553D01*
Y144447D01*
X103545Y142412D01*
X104598Y140588D01*
X106088Y139098D01*
X107912Y138045D01*
X109947Y137500D01*
X112053D01*
X114088Y138045D01*
X115912Y139098D01*
X117402Y140588D01*
X118455Y142412D01*
X119000Y144447D01*
Y146553D01*
X118455Y148588D01*
X117402Y150412D01*
X115912Y151902D01*
X114088Y152955D01*
X112053Y153500D01*
D02*
G37*
G36*
X-27071Y137730D02*
X-30730D01*
Y134071D01*
X-29145Y134727D01*
X-27727Y136145D01*
X-27071Y137730D01*
D02*
G37*
G36*
X-33270D02*
X-36929D01*
X-36273Y136145D01*
X-34855Y134727D01*
X-33270Y134071D01*
Y137730D01*
D02*
G37*
G36*
X-210947Y149059D02*
X-213053D01*
X-215088Y148514D01*
X-216912Y147461D01*
X-218402Y145971D01*
X-219455Y144147D01*
X-220000Y142113D01*
Y140006D01*
X-219455Y137971D01*
X-218402Y136147D01*
X-216912Y134658D01*
X-215088Y133604D01*
X-213053Y133059D01*
X-210947D01*
X-208912Y133604D01*
X-207088Y134658D01*
X-205598Y136147D01*
X-204545Y137971D01*
X-204000Y140006D01*
Y142113D01*
X-204545Y144147D01*
X-205598Y145971D01*
X-207088Y147461D01*
X-208912Y148514D01*
X-210947Y149059D01*
D02*
G37*
G36*
X46487Y133750D02*
X44513D01*
X42605Y133239D01*
X40895Y132252D01*
X40000Y131357D01*
X39105Y132252D01*
X37395Y133239D01*
X35487Y133750D01*
X33513D01*
X31605Y133239D01*
X29895Y132252D01*
X28498Y130855D01*
X27511Y129145D01*
X27000Y127237D01*
Y125263D01*
X27511Y123355D01*
X28498Y121645D01*
X29895Y120248D01*
X31605Y119261D01*
X33513Y118750D01*
X35487D01*
X37395Y119261D01*
X39105Y120248D01*
X40000Y121143D01*
X40895Y120248D01*
X42605Y119261D01*
X44513Y118750D01*
X46487D01*
X48395Y119261D01*
X50105Y120248D01*
X51501Y121645D01*
X52489Y123355D01*
X53000Y125263D01*
Y127237D01*
X52489Y129145D01*
X51501Y130855D01*
X50105Y132252D01*
X48395Y133239D01*
X46487Y133750D01*
D02*
G37*
G36*
X207737Y134000D02*
X205763D01*
X203855Y133489D01*
X202145Y132501D01*
X200749Y131105D01*
X199761Y129395D01*
X199250Y127487D01*
Y125513D01*
X199761Y123605D01*
X200749Y121895D01*
X202145Y120499D01*
X203855Y119511D01*
X205763Y119000D01*
X207737D01*
X209645Y119511D01*
X211355Y120499D01*
X212752Y121895D01*
X213739Y123605D01*
X214250Y125513D01*
Y127487D01*
X213739Y129395D01*
X212752Y131105D01*
X211355Y132501D01*
X209645Y133489D01*
X207737Y134000D01*
D02*
G37*
G36*
X64803Y134250D02*
X62697D01*
X60662Y133705D01*
X58838Y132652D01*
X57348Y131162D01*
X56295Y129338D01*
X55750Y127303D01*
Y125197D01*
X56295Y123162D01*
X57348Y121338D01*
X58838Y119848D01*
X60662Y118795D01*
X62697Y118250D01*
X64803D01*
X66838Y118795D01*
X68662Y119848D01*
X70152Y121338D01*
X71205Y123162D01*
X71750Y125197D01*
Y127303D01*
X71205Y129338D01*
X70152Y131162D01*
X68662Y132652D01*
X66838Y133705D01*
X64803Y134250D01*
D02*
G37*
G36*
X-69197Y146816D02*
X-71172D01*
X-73079Y146305D01*
X-74789Y145317D01*
X-76186Y143921D01*
X-77173Y142211D01*
X-77684Y140303D01*
Y138329D01*
X-77173Y136421D01*
X-76186Y134711D01*
X-74789Y133314D01*
X-73079Y132327D01*
X-71172Y131816D01*
X-69197D01*
X-68091Y132112D01*
X-67290Y131497D01*
X-66523Y129645D01*
X-65541Y128664D01*
X-65509Y128569D01*
X-65658Y127247D01*
X-65703Y127166D01*
X-66855Y126502D01*
X-68252Y125105D01*
X-69239Y123395D01*
X-69750Y121487D01*
Y119513D01*
X-69239Y117605D01*
X-68252Y115895D01*
X-66855Y114499D01*
X-65145Y113511D01*
X-63237Y113000D01*
X-61263D01*
X-59355Y113511D01*
X-57645Y114499D01*
X-56248Y115895D01*
X-55261Y117605D01*
X-54750Y119513D01*
Y121487D01*
X-55261Y123395D01*
X-56248Y125105D01*
X-57645Y126502D01*
X-58797Y127166D01*
X-58842Y127247D01*
X-58991Y128569D01*
X-58959Y128664D01*
X-57977Y129645D01*
X-57321Y131230D01*
X-62250D01*
Y133770D01*
X-57321D01*
X-57977Y135355D01*
X-59395Y136773D01*
X-61248Y137540D01*
X-62079D01*
X-62684Y138329D01*
Y140303D01*
X-63195Y142211D01*
X-64183Y143921D01*
X-65579Y145317D01*
X-67289Y146305D01*
X-69197Y146816D01*
D02*
G37*
G36*
X11053Y113750D02*
X8947D01*
X6912Y113205D01*
X5088Y112152D01*
X3598Y110662D01*
X3036Y109688D01*
X1570D01*
X1152Y110412D01*
X-338Y111902D01*
X-2162Y112955D01*
X-4197Y113500D01*
X-6303D01*
X-8338Y112955D01*
X-10162Y111902D01*
X-11652Y110412D01*
X-12705Y108588D01*
X-13250Y106553D01*
Y104447D01*
X-12705Y102412D01*
X-11652Y100588D01*
X-10162Y99098D01*
X-8338Y98045D01*
X-6303Y97500D01*
X-4197D01*
X-2162Y98045D01*
X-338Y99098D01*
X1152Y100588D01*
X1714Y101562D01*
X3180D01*
X3598Y100838D01*
X5088Y99348D01*
X6912Y98295D01*
X8947Y97750D01*
X11053D01*
X13088Y98295D01*
X14912Y99348D01*
X16402Y100838D01*
X17455Y102662D01*
X18000Y104697D01*
Y106803D01*
X17455Y108838D01*
X16402Y110662D01*
X14912Y112152D01*
X13088Y113205D01*
X11053Y113750D01*
D02*
G37*
G36*
X-124013Y146500D02*
X-125987D01*
X-127895Y145989D01*
X-129605Y145001D01*
X-131002Y143605D01*
X-131989Y141895D01*
X-132500Y139987D01*
Y138013D01*
X-131989Y136105D01*
X-131002Y134395D01*
X-129605Y132999D01*
X-127945Y132040D01*
X-127895Y131811D01*
Y130939D01*
X-127945Y130710D01*
X-129605Y129752D01*
X-131002Y128355D01*
X-131989Y126645D01*
X-132500Y124737D01*
Y123544D01*
X-133458Y122556D01*
X-133718Y122500D01*
X-135487D01*
X-137395Y121989D01*
X-139105Y121002D01*
X-140501Y119605D01*
X-141489Y117895D01*
X-142000Y115987D01*
Y114013D01*
X-141489Y112105D01*
X-140501Y110395D01*
X-139105Y108998D01*
X-137395Y108011D01*
X-135487Y107500D01*
X-133513D01*
X-131605Y108011D01*
X-129895Y108998D01*
X-128498Y110395D01*
X-127511Y112105D01*
X-127000Y114013D01*
Y115206D01*
X-126042Y116194D01*
X-125782Y116250D01*
X-124013D01*
X-122105Y116761D01*
X-120395Y117748D01*
X-118998Y119145D01*
X-118011Y120855D01*
X-117500Y122763D01*
Y124737D01*
X-118011Y126645D01*
X-118998Y128355D01*
X-120395Y129752D01*
X-122055Y130710D01*
X-122105Y130939D01*
Y131811D01*
X-122055Y132040D01*
X-120395Y132999D01*
X-118998Y134395D01*
X-118011Y136105D01*
X-117500Y138013D01*
Y139987D01*
X-118011Y141895D01*
X-118998Y143605D01*
X-120395Y145001D01*
X-122105Y145989D01*
X-124013Y146500D01*
D02*
G37*
G36*
X-69513Y113500D02*
X-71487D01*
X-73395Y112989D01*
X-75105Y112001D01*
X-76501Y110605D01*
X-77489Y108895D01*
X-77911Y107321D01*
X-79513Y107750D01*
X-81487D01*
X-83395Y107239D01*
X-85105Y106251D01*
X-86502Y104855D01*
X-87489Y103145D01*
X-88000Y101237D01*
Y99263D01*
X-87489Y97355D01*
X-86502Y95645D01*
X-85105Y94249D01*
X-83395Y93261D01*
X-81487Y92750D01*
X-79513D01*
X-77605Y93261D01*
X-75895Y94249D01*
X-74499Y95645D01*
X-73511Y97355D01*
X-73089Y98929D01*
X-71487Y98500D01*
X-69513D01*
X-67605Y99011D01*
X-65895Y99999D01*
X-64499Y101395D01*
X-63511Y103105D01*
X-63000Y105013D01*
Y106987D01*
X-63511Y108895D01*
X-64499Y110605D01*
X-65895Y112001D01*
X-67605Y112989D01*
X-69513Y113500D01*
D02*
G37*
G36*
X-140730Y105720D02*
Y101520D01*
X-136530D01*
X-137303Y103388D01*
X-138862Y104947D01*
X-140730Y105720D01*
D02*
G37*
G36*
X-143270D02*
X-145138Y104947D01*
X-146697Y103388D01*
X-147470Y101520D01*
X-143270D01*
Y105720D01*
D02*
G37*
G36*
X178020Y103470D02*
Y99270D01*
X182220D01*
X181447Y101138D01*
X179888Y102697D01*
X178020Y103470D01*
D02*
G37*
G36*
X175480D02*
X173612Y102697D01*
X172053Y101138D01*
X171280Y99270D01*
X175480D01*
Y103470D01*
D02*
G37*
G36*
X-25697Y107750D02*
X-27803D01*
X-29838Y107205D01*
X-31662Y106152D01*
X-33152Y104662D01*
X-34205Y102838D01*
X-34750Y100803D01*
Y98697D01*
X-34205Y96662D01*
X-33152Y94838D01*
X-31662Y93348D01*
X-29838Y92295D01*
X-27803Y91750D01*
X-25697D01*
X-23662Y92295D01*
X-21838Y93348D01*
X-20348Y94838D01*
X-19295Y96662D01*
X-18750Y98697D01*
Y100803D01*
X-19295Y102838D01*
X-20348Y104662D01*
X-21838Y106152D01*
X-23662Y107205D01*
X-25697Y107750D01*
D02*
G37*
G36*
X-210947Y100000D02*
X-213053D01*
X-215088Y99455D01*
X-216912Y98402D01*
X-218402Y96912D01*
X-219455Y95088D01*
X-220000Y93053D01*
Y90947D01*
X-219455Y88912D01*
X-218402Y87088D01*
X-216912Y85598D01*
X-215088Y84545D01*
X-213053Y84000D01*
X-210947D01*
X-208912Y84545D01*
X-207088Y85598D01*
X-205598Y87088D01*
X-204545Y88912D01*
X-204000Y90947D01*
Y93053D01*
X-204545Y95088D01*
X-205598Y96912D01*
X-207088Y98402D01*
X-208912Y99455D01*
X-210947Y100000D01*
D02*
G37*
G36*
X-136530Y98980D02*
X-147470D01*
X-146697Y97112D01*
X-145138Y95553D01*
X-143102Y94710D01*
X-143053Y93500D01*
X-145088Y92955D01*
X-146912Y91902D01*
X-148402Y90412D01*
X-149455Y88588D01*
X-150000Y86553D01*
Y84447D01*
X-149455Y82412D01*
X-148402Y80588D01*
X-146912Y79098D01*
X-145088Y78045D01*
X-143053Y77500D01*
X-140947D01*
X-138912Y78045D01*
X-137088Y79098D01*
X-135598Y80588D01*
X-134545Y82412D01*
X-134000Y84447D01*
Y86553D01*
X-134545Y88588D01*
X-135598Y90412D01*
X-137088Y91902D01*
X-138912Y92955D01*
X-140947Y93500D01*
X-140898Y94710D01*
X-138862Y95553D01*
X-137303Y97112D01*
X-136530Y98980D01*
D02*
G37*
G36*
X35487Y90500D02*
X33513D01*
X31605Y89989D01*
X29895Y89002D01*
X28498Y87605D01*
X27511Y85895D01*
X27000Y83987D01*
Y82013D01*
X27511Y80105D01*
X28498Y78395D01*
X29895Y76999D01*
X31605Y76011D01*
X33513Y75500D01*
X35487D01*
X37395Y76011D01*
X39105Y76999D01*
X40501Y78395D01*
X41489Y80105D01*
X42000Y82013D01*
Y83987D01*
X41489Y85895D01*
X40501Y87605D01*
X39105Y89002D01*
X37395Y89989D01*
X35487Y90500D01*
D02*
G37*
G36*
X10237Y73000D02*
X8263D01*
X6355Y72489D01*
X5000Y71707D01*
X3645Y72489D01*
X1737Y73000D01*
X-237D01*
X-2145Y72489D01*
X-3855Y71501D01*
X-5252Y70105D01*
X-6239Y68395D01*
X-6750Y66487D01*
Y64513D01*
X-6239Y62605D01*
X-5252Y60895D01*
X-3855Y59499D01*
X-2145Y58511D01*
X-237Y58000D01*
X1737D01*
X3645Y58511D01*
X5000Y59293D01*
X6355Y58511D01*
X8263Y58000D01*
X10237D01*
X12145Y58511D01*
X13855Y59499D01*
X15251Y60895D01*
X16239Y62605D01*
X16750Y64513D01*
Y66487D01*
X16239Y68395D01*
X15251Y70105D01*
X13855Y71501D01*
X12145Y72489D01*
X10237Y73000D01*
D02*
G37*
G36*
X-81332Y72000D02*
X-83439D01*
X-85473Y71455D01*
X-87297Y70402D01*
X-88787Y68912D01*
X-88829Y68839D01*
X-90088Y68673D01*
X-90112Y68697D01*
X-91980Y69470D01*
Y64000D01*
Y58530D01*
X-90112Y59303D01*
X-90088Y59327D01*
X-88829Y59161D01*
X-88787Y59088D01*
X-87297Y57598D01*
X-85473Y56545D01*
X-83439Y56000D01*
X-81332D01*
X-79297Y56545D01*
X-77473Y57598D01*
X-76964Y58108D01*
X-76855Y57998D01*
X-75145Y57011D01*
X-73237Y56500D01*
X-71263D01*
X-69355Y57011D01*
X-67645Y57998D01*
X-66248Y59395D01*
X-65261Y61105D01*
X-64750Y63013D01*
Y64987D01*
X-65261Y66895D01*
X-66248Y68605D01*
X-67645Y70002D01*
X-69355Y70989D01*
X-71263Y71500D01*
X-73237D01*
X-75145Y70989D01*
X-76855Y70002D01*
X-76964Y69893D01*
X-77473Y70402D01*
X-79297Y71455D01*
X-81332Y72000D01*
D02*
G37*
G36*
X210297Y82191D02*
X208322D01*
X206414Y81680D01*
X204704Y80692D01*
X203308Y79296D01*
X202320Y77586D01*
X201809Y75678D01*
Y73703D01*
X202320Y71796D01*
X203308Y70086D01*
X204704Y68689D01*
X206414Y67702D01*
X208322Y67191D01*
X210297D01*
X212204Y67702D01*
X213914Y68689D01*
X215311Y70086D01*
X216298Y71796D01*
X216809Y73703D01*
Y75678D01*
X216298Y77586D01*
X215311Y79296D01*
X213914Y80692D01*
X212204Y81680D01*
X210297Y82191D01*
D02*
G37*
G36*
X33770Y70220D02*
Y66020D01*
X37970D01*
X37197Y67888D01*
X35638Y69447D01*
X33770Y70220D01*
D02*
G37*
G36*
X31230D02*
X29362Y69447D01*
X27803Y67888D01*
X27030Y66020D01*
X31230D01*
Y70220D01*
D02*
G37*
G36*
X-94520Y69470D02*
X-96388Y68697D01*
X-97947Y67138D01*
X-98720Y65270D01*
X-94520D01*
Y69470D01*
D02*
G37*
G36*
Y62730D02*
X-98720D01*
X-97947Y60862D01*
X-96388Y59303D01*
X-94520Y58530D01*
Y62730D01*
D02*
G37*
G36*
X-47230Y58179D02*
Y54520D01*
X-43571D01*
X-44227Y56105D01*
X-45645Y57523D01*
X-47230Y58179D01*
D02*
G37*
G36*
X-49770D02*
X-51355Y57523D01*
X-52773Y56105D01*
X-53429Y54520D01*
X-49770D01*
Y58179D01*
D02*
G37*
G36*
X-210947Y65000D02*
X-213053D01*
X-215088Y64455D01*
X-216912Y63402D01*
X-218402Y61912D01*
X-219455Y60088D01*
X-220000Y58053D01*
Y55947D01*
X-219455Y53912D01*
X-218402Y52088D01*
X-216912Y50598D01*
X-215088Y49545D01*
X-213053Y49000D01*
X-210947D01*
X-208912Y49545D01*
X-207088Y50598D01*
X-205598Y52088D01*
X-204545Y53912D01*
X-204000Y55947D01*
Y58053D01*
X-204545Y60088D01*
X-205598Y61912D01*
X-207088Y63402D01*
X-208912Y64455D01*
X-210947Y65000D01*
D02*
G37*
G36*
X-43571Y51980D02*
X-47230D01*
Y48321D01*
X-45645Y48977D01*
X-44227Y50395D01*
X-43571Y51980D01*
D02*
G37*
G36*
X-49770D02*
X-53429D01*
X-52773Y50395D01*
X-51355Y48977D01*
X-49770Y48321D01*
Y51980D01*
D02*
G37*
G36*
X37970Y63480D02*
X27030D01*
X27803Y61612D01*
X27913Y61503D01*
X27771Y60429D01*
X27528Y60091D01*
X26098Y58662D01*
X25045Y56838D01*
X24500Y54803D01*
Y52697D01*
X25045Y50662D01*
X26098Y48838D01*
X27588Y47348D01*
X29412Y46295D01*
X31447Y45750D01*
X33553D01*
X35588Y46295D01*
X37412Y47348D01*
X38902Y48838D01*
X39955Y50662D01*
X40500Y52697D01*
Y54803D01*
X39955Y56838D01*
X38902Y58662D01*
X37472Y60091D01*
X37229Y60429D01*
X37087Y61503D01*
X37197Y61612D01*
X37970Y63480D01*
D02*
G37*
G36*
X-91980Y45970D02*
Y41770D01*
X-87780D01*
X-88553Y43638D01*
X-90112Y45197D01*
X-91980Y45970D01*
D02*
G37*
G36*
X-94520D02*
X-96388Y45197D01*
X-97947Y43638D01*
X-98720Y41770D01*
X-94520D01*
Y45970D01*
D02*
G37*
G36*
X139480Y44970D02*
X137612Y44197D01*
X136053Y42638D01*
X135280Y40770D01*
X139480D01*
Y44970D01*
D02*
G37*
G36*
X15270Y40970D02*
Y36770D01*
X19470D01*
X18697Y38638D01*
X17138Y40197D01*
X15270Y40970D01*
D02*
G37*
G36*
X12730D02*
X10862Y40197D01*
X9303Y38638D01*
X8530Y36770D01*
X12730D01*
Y40970D01*
D02*
G37*
G36*
X-87780Y39230D02*
X-91980D01*
Y35030D01*
X-90112Y35803D01*
X-88553Y37362D01*
X-87780Y39230D01*
D02*
G37*
G36*
X-94520D02*
X-98720D01*
X-97947Y37362D01*
X-96388Y35803D01*
X-94520Y35030D01*
Y39230D01*
D02*
G37*
G36*
X139480Y38230D02*
X135280D01*
X136053Y36362D01*
X137612Y34803D01*
X139480Y34030D01*
Y38230D01*
D02*
G37*
G36*
X-119013Y48000D02*
X-120987D01*
X-122895Y47489D01*
X-124605Y46501D01*
X-126002Y45105D01*
X-126989Y43395D01*
X-127500Y41487D01*
Y39513D01*
X-126989Y37605D01*
X-126002Y35895D01*
X-124605Y34499D01*
X-122895Y33511D01*
X-120987Y33000D01*
X-119013D01*
X-117105Y33511D01*
X-115395Y34499D01*
X-113998Y35895D01*
X-113011Y37605D01*
X-112500Y39513D01*
Y41487D01*
X-113011Y43395D01*
X-113998Y45105D01*
X-115395Y46501D01*
X-117105Y47489D01*
X-119013Y48000D01*
D02*
G37*
G36*
X63511Y68458D02*
X61405D01*
X59370Y67913D01*
X57546Y66860D01*
X56056Y65370D01*
X55003Y63546D01*
X54458Y61511D01*
Y59405D01*
X55003Y57370D01*
X56056Y55546D01*
X56644Y54958D01*
X56056Y54370D01*
X55003Y52546D01*
X54458Y50511D01*
Y48405D01*
X55003Y46370D01*
X56056Y44546D01*
X56873Y43730D01*
X56498Y43355D01*
X55511Y41645D01*
X55000Y39737D01*
Y37763D01*
X55511Y35855D01*
X56498Y34145D01*
X57895Y32748D01*
X59605Y31761D01*
X61513Y31250D01*
X63487D01*
X65395Y31761D01*
X67105Y32748D01*
X68502Y34145D01*
X69489Y35855D01*
X70000Y37763D01*
Y39737D01*
X69489Y41645D01*
X68502Y43355D01*
X68085Y43772D01*
X68860Y44546D01*
X69913Y46370D01*
X70458Y48405D01*
Y50511D01*
X69913Y52546D01*
X68860Y54370D01*
X68272Y54958D01*
X68860Y55546D01*
X69913Y57370D01*
X70458Y59405D01*
Y61511D01*
X69913Y63546D01*
X68860Y65370D01*
X67370Y66860D01*
X65546Y67913D01*
X63511Y68458D01*
D02*
G37*
G36*
X19470Y34230D02*
X15270D01*
Y30030D01*
X17138Y30803D01*
X18697Y32362D01*
X19470Y34230D01*
D02*
G37*
G36*
X12730D02*
X8530D01*
X9303Y32362D01*
X10862Y30803D01*
X12730Y30030D01*
Y34230D01*
D02*
G37*
G36*
X-54759Y44099D02*
X-56734D01*
X-58641Y43588D01*
X-60351Y42600D01*
X-61748Y41204D01*
X-62735Y39494D01*
X-63246Y37586D01*
Y35612D01*
X-62735Y33704D01*
X-61748Y31994D01*
X-60351Y30598D01*
X-58641Y29610D01*
X-56734Y29099D01*
X-54759D01*
X-52851Y29610D01*
X-51141Y30598D01*
X-49745Y31994D01*
X-48757Y33704D01*
X-48246Y35612D01*
Y37586D01*
X-48757Y39494D01*
X-49745Y41204D01*
X-51141Y42600D01*
X-52851Y43588D01*
X-54759Y44099D01*
D02*
G37*
G36*
X214520Y28429D02*
Y24770D01*
X218179D01*
X217523Y26355D01*
X216105Y27773D01*
X214520Y28429D01*
D02*
G37*
G36*
X211980D02*
X210395Y27773D01*
X208977Y26355D01*
X208321Y24770D01*
X211980D01*
Y28429D01*
D02*
G37*
G36*
X-92263Y33250D02*
X-94237D01*
X-96145Y32739D01*
X-97855Y31751D01*
X-99251Y30355D01*
X-100239Y28645D01*
X-100750Y26737D01*
Y24763D01*
X-100239Y22855D01*
X-99251Y21145D01*
X-97855Y19749D01*
X-96145Y18761D01*
X-94237Y18250D01*
X-92263D01*
X-90355Y18761D01*
X-88645Y19749D01*
X-87248Y21145D01*
X-86261Y22855D01*
X-85750Y24763D01*
Y26737D01*
X-86261Y28645D01*
X-87248Y30355D01*
X-88645Y31751D01*
X-90355Y32739D01*
X-92263Y33250D01*
D02*
G37*
G36*
X-35763Y19750D02*
X-37737D01*
X-39645Y19239D01*
X-41355Y18252D01*
X-42625Y16982D01*
X-43895Y18251D01*
X-45605Y19239D01*
X-47513Y19750D01*
X-49487D01*
X-51395Y19239D01*
X-53105Y18251D01*
X-54502Y16855D01*
X-55489Y15145D01*
X-56000Y13237D01*
Y11263D01*
X-55489Y9355D01*
X-54707Y8000D01*
X-55489Y6645D01*
X-56000Y4737D01*
Y2763D01*
X-55489Y855D01*
X-54502Y-855D01*
X-53515Y-1841D01*
X-52773Y-2895D01*
X-53429Y-4480D01*
X-43571D01*
X-44227Y-2895D01*
X-43485Y-1841D01*
X-42498Y-855D01*
X-41511Y855D01*
X-41000Y2763D01*
Y4577D01*
X-40585Y4973D01*
X-39859Y5385D01*
X-39645Y5261D01*
X-37737Y4750D01*
X-35763D01*
X-33855Y5261D01*
X-32145Y6248D01*
X-30749Y7645D01*
X-29761Y9355D01*
X-29250Y11263D01*
Y13237D01*
X-29761Y15145D01*
X-30749Y16855D01*
X-32145Y18252D01*
X-33855Y19239D01*
X-35763Y19750D01*
D02*
G37*
G36*
X-91980Y16429D02*
Y12770D01*
X-88321D01*
X-88977Y14355D01*
X-90395Y15773D01*
X-91980Y16429D01*
D02*
G37*
G36*
X-94520D02*
X-96105Y15773D01*
X-97523Y14355D01*
X-98179Y12770D01*
X-94520D01*
Y16429D01*
D02*
G37*
G36*
X15053Y28500D02*
X12947D01*
X10912Y27955D01*
X9088Y26902D01*
X7598Y25412D01*
X6545Y23588D01*
X6000Y21553D01*
Y19447D01*
X6545Y17412D01*
X7598Y15588D01*
X9088Y14098D01*
X10912Y13045D01*
X12947Y12500D01*
X15053D01*
X17088Y13045D01*
X18912Y14098D01*
X20402Y15588D01*
X21455Y17412D01*
X22000Y19447D01*
Y21553D01*
X21455Y23588D01*
X20402Y25412D01*
X18912Y26902D01*
X17088Y27955D01*
X15053Y28500D01*
D02*
G37*
G36*
X90053Y29750D02*
X87947D01*
X85912Y29205D01*
X84088Y28152D01*
X82598Y26662D01*
X81545Y24838D01*
X81000Y22803D01*
Y20697D01*
X81545Y18662D01*
X82598Y16838D01*
X84088Y15348D01*
X85912Y14295D01*
X87947Y13750D01*
X90053D01*
X90230Y13797D01*
X91500Y12823D01*
Y11697D01*
X92045Y9662D01*
X93098Y7838D01*
X94588Y6348D01*
X96412Y5295D01*
X98447Y4750D01*
X100553D01*
X102588Y5295D01*
X104412Y6348D01*
X105902Y7838D01*
X106955Y9662D01*
X107500Y11697D01*
Y13803D01*
X106955Y15838D01*
X105902Y17662D01*
X104412Y19152D01*
X102588Y20205D01*
X100553Y20750D01*
X98447D01*
X98270Y20703D01*
X97000Y21677D01*
Y22803D01*
X96455Y24838D01*
X95402Y26662D01*
X93912Y28152D01*
X92088Y29205D01*
X90053Y29750D01*
D02*
G37*
G36*
X218179Y22230D02*
X208321D01*
X208977Y20645D01*
X210395Y19227D01*
X212248Y18460D01*
X212263Y17250D01*
X210355Y16739D01*
X208645Y15752D01*
X207248Y14355D01*
X206261Y12645D01*
X205750Y10737D01*
Y8763D01*
X206261Y6855D01*
X207248Y5145D01*
X208645Y3749D01*
X210355Y2761D01*
X212263Y2250D01*
X214237D01*
X216145Y2761D01*
X217855Y3749D01*
X219251Y5145D01*
X220239Y6855D01*
X220750Y8763D01*
Y10737D01*
X220239Y12645D01*
X219251Y14355D01*
X217855Y15752D01*
X216145Y16739D01*
X214237Y17250D01*
X214252Y18460D01*
X216105Y19227D01*
X217523Y20645D01*
X218179Y22230D01*
D02*
G37*
G36*
X-88321Y10230D02*
X-98179D01*
X-97523Y8645D01*
X-96105Y7227D01*
X-95500Y6977D01*
X-95587Y5638D01*
X-96145Y5489D01*
X-97855Y4502D01*
X-99251Y3105D01*
X-100239Y1395D01*
X-100750Y-513D01*
Y-2487D01*
X-100239Y-4395D01*
X-99251Y-6105D01*
X-97855Y-7502D01*
X-96145Y-8489D01*
X-94237Y-9000D01*
X-92263D01*
X-90355Y-8489D01*
X-88645Y-7502D01*
X-87248Y-6105D01*
X-86261Y-4395D01*
X-85750Y-2487D01*
Y-513D01*
X-86261Y1395D01*
X-87248Y3105D01*
X-88645Y4502D01*
X-90355Y5489D01*
X-90913Y5638D01*
X-91000Y6977D01*
X-90395Y7227D01*
X-88977Y8645D01*
X-88321Y10230D01*
D02*
G37*
G36*
X7487Y2000D02*
X5513D01*
X3605Y1489D01*
X1895Y501D01*
X498Y-895D01*
X-489Y-2605D01*
X-1000Y-4513D01*
Y-6487D01*
X-489Y-8395D01*
X498Y-10105D01*
X1895Y-11501D01*
X3605Y-12489D01*
X5513Y-13000D01*
X7487D01*
X9395Y-12489D01*
X11105Y-11501D01*
X12501Y-10105D01*
X13489Y-8395D01*
X14000Y-6487D01*
Y-4513D01*
X13489Y-2605D01*
X12501Y-895D01*
X11105Y501D01*
X9395Y1489D01*
X7487Y2000D01*
D02*
G37*
G36*
X-163188Y225848D02*
X-181250Y225848D01*
X-183201Y225460D01*
X-184855Y224355D01*
X-187605Y221605D01*
X-188710Y219951D01*
X-189098Y218000D01*
X-189098Y-77010D01*
X-188968Y-77664D01*
X-188924Y-78329D01*
X-188776Y-78631D01*
X-188710Y-78961D01*
X-188339Y-79515D01*
X-188044Y-80113D01*
X-187792Y-80335D01*
X-187605Y-80615D01*
X-187050Y-80985D01*
X-186549Y-81425D01*
X-186080Y-81696D01*
X-186500Y-83263D01*
Y-85237D01*
X-186080Y-86804D01*
X-186549Y-87075D01*
X-187050Y-87515D01*
X-187605Y-87885D01*
X-187792Y-88165D01*
X-188044Y-88386D01*
X-188339Y-88985D01*
X-188710Y-89539D01*
X-188776Y-89869D01*
X-188924Y-90171D01*
X-188968Y-90836D01*
X-189098Y-91490D01*
Y-101911D01*
X-188966Y-102576D01*
X-188919Y-103252D01*
X-188773Y-103543D01*
X-188710Y-103862D01*
X-188333Y-104426D01*
X-188031Y-105032D01*
X-187786Y-105246D01*
X-187605Y-105516D01*
X-187041Y-105893D01*
X-186530Y-106337D01*
X-185898Y-106699D01*
X-186250Y-108013D01*
Y-109987D01*
X-185898Y-111301D01*
X-186530Y-111663D01*
X-187042Y-112107D01*
X-187605Y-112484D01*
X-187786Y-112754D01*
X-188031Y-112968D01*
X-188333Y-113574D01*
X-188710Y-114137D01*
X-188773Y-114457D01*
X-188919Y-114748D01*
X-188966Y-115424D01*
X-189098Y-116088D01*
Y-121288D01*
X-190368Y-122137D01*
X-191230Y-121780D01*
Y-127250D01*
Y-132720D01*
X-190368Y-132363D01*
X-189098Y-133212D01*
Y-142250D01*
X-188710Y-144201D01*
X-187605Y-145855D01*
X-152605Y-180855D01*
X-150951Y-181960D01*
X-149000Y-182348D01*
X-101476D01*
X-101147Y-182282D01*
X-100811Y-182304D01*
X-100180Y-182090D01*
X-99526Y-181960D01*
X-99246Y-181773D01*
X-98927Y-181665D01*
X-98426Y-181225D01*
X-98224Y-181090D01*
X-97662Y-181652D01*
X-95838Y-182705D01*
X-93803Y-183250D01*
X-91697D01*
X-89662Y-182705D01*
X-87838Y-181652D01*
X-87276Y-181090D01*
X-87074Y-181225D01*
X-86573Y-181665D01*
X-86254Y-181773D01*
X-85974Y-181960D01*
X-85320Y-182090D01*
X-84689Y-182304D01*
X-84353Y-182282D01*
X-84024Y-182348D01*
X48152D01*
Y-223750D01*
X48540Y-225701D01*
X49645Y-227355D01*
X57145Y-234855D01*
X58799Y-235960D01*
X60750Y-236348D01*
X82000D01*
X83951Y-235960D01*
X85605Y-234855D01*
X92351Y-228108D01*
X93105Y-227605D01*
X94210Y-225951D01*
X94598Y-224000D01*
Y-182348D01*
X165250D01*
X167201Y-181960D01*
X168855Y-180855D01*
X174855Y-174855D01*
X175960Y-173201D01*
X176348Y-171250D01*
Y-115720D01*
X178145Y-115239D01*
X179855Y-114251D01*
X181252Y-112855D01*
X182239Y-111145D01*
X182690Y-109461D01*
X183960Y-109628D01*
Y-109852D01*
X184803Y-111888D01*
X186362Y-113447D01*
X188230Y-114220D01*
Y-108750D01*
Y-103280D01*
X186362Y-104053D01*
X184803Y-105612D01*
X183960Y-107648D01*
X182750Y-107503D01*
Y-107263D01*
X182239Y-105355D01*
X181252Y-103645D01*
X179855Y-102248D01*
X178145Y-101261D01*
X176348Y-100780D01*
Y-91750D01*
X176803D01*
X178838Y-91205D01*
X180662Y-90152D01*
X182152Y-88662D01*
X183205Y-86838D01*
X183750Y-84803D01*
Y-82697D01*
X183205Y-80662D01*
X182152Y-78838D01*
X180662Y-77348D01*
X178838Y-76295D01*
X176803Y-75750D01*
X176348D01*
Y-41079D01*
X177618Y-40193D01*
X178763Y-40500D01*
X180737D01*
X182645Y-39989D01*
X184355Y-39002D01*
X185751Y-37605D01*
X186739Y-35895D01*
X187250Y-33987D01*
Y-32013D01*
X186739Y-30105D01*
X185751Y-28395D01*
X184355Y-26999D01*
X182645Y-26011D01*
X180737Y-25500D01*
X178763D01*
X177618Y-25807D01*
X176348Y-24921D01*
Y-18329D01*
X177618Y-17443D01*
X178763Y-17750D01*
X180737D01*
X182645Y-17239D01*
X184355Y-16251D01*
X185751Y-14855D01*
X186739Y-13145D01*
X187250Y-11237D01*
Y-9263D01*
X186739Y-7355D01*
X185751Y-5645D01*
X185357Y-5250D01*
X185751Y-4855D01*
X186739Y-3145D01*
X187250Y-1238D01*
Y737D01*
X186739Y2645D01*
X185751Y4355D01*
X184355Y5751D01*
X182645Y6739D01*
X180737Y7250D01*
X178763D01*
X177618Y6943D01*
X176348Y7829D01*
Y54500D01*
X178237D01*
X180145Y55011D01*
X181855Y55999D01*
X183251Y57395D01*
X184239Y59105D01*
X184750Y61013D01*
Y62987D01*
X184239Y64895D01*
X183251Y66605D01*
X181855Y68001D01*
X180145Y68989D01*
X178237Y69500D01*
X176348D01*
Y79500D01*
X177737D01*
X179645Y80011D01*
X181355Y80998D01*
X182752Y82395D01*
X183739Y84105D01*
X184250Y86013D01*
Y87987D01*
X183739Y89895D01*
X182752Y91605D01*
X181369Y92988D01*
X181120Y93255D01*
X180971Y94387D01*
X181447Y94862D01*
X182220Y96730D01*
X171280D01*
X172053Y94862D01*
X172529Y94387D01*
X172380Y93255D01*
X172131Y92988D01*
X170749Y91605D01*
X169995Y90301D01*
X168500Y90598D01*
X153752D01*
X151802Y90210D01*
X150148Y89105D01*
X147398Y86355D01*
X146845Y85528D01*
X146295Y84706D01*
X146294Y84703D01*
X146292Y84701D01*
X146098Y83726D01*
X145904Y82755D01*
X145904Y81888D01*
X144633Y81274D01*
X143395Y81989D01*
X141487Y82500D01*
X139513D01*
X137605Y81989D01*
X135895Y81002D01*
X134499Y79605D01*
X133511Y77895D01*
X133000Y75987D01*
Y74013D01*
X133511Y72105D01*
X134499Y70395D01*
X135895Y68998D01*
X137266Y68207D01*
X137378Y67805D01*
Y67195D01*
X137266Y66793D01*
X135895Y66002D01*
X134499Y64605D01*
X133511Y62895D01*
X133000Y60987D01*
Y59013D01*
X133511Y57105D01*
X134499Y55395D01*
X135895Y53998D01*
X137605Y53011D01*
X139513Y52500D01*
X141487D01*
X143395Y53011D01*
X144604Y53709D01*
X145873Y53072D01*
X145863Y44018D01*
X144593Y43492D01*
X143888Y44197D01*
X142020Y44970D01*
Y39500D01*
Y34030D01*
X143888Y34803D01*
X144584Y35499D01*
X145854Y34973D01*
X145785Y-29904D01*
X144514Y-30429D01*
X143888Y-29803D01*
X142020Y-29030D01*
Y-34500D01*
Y-39970D01*
X143888Y-39197D01*
X144506Y-38579D01*
X145775Y-39106D01*
X145664Y-143635D01*
X139640Y-149652D01*
X59405D01*
X59076Y-149718D01*
X58740Y-149696D01*
X58109Y-149910D01*
X57455Y-150040D01*
X57175Y-150227D01*
X56856Y-150335D01*
X56355Y-150775D01*
X55896Y-151082D01*
X55662Y-150848D01*
X53838Y-149795D01*
X51803Y-149250D01*
X49697D01*
X47662Y-149795D01*
X45838Y-150848D01*
X45605Y-151082D01*
X45145Y-150775D01*
X44644Y-150335D01*
X44325Y-150227D01*
X44046Y-150040D01*
X43391Y-149910D01*
X42760Y-149696D01*
X42424Y-149718D01*
X42095Y-149652D01*
X-129827D01*
X-154354Y-125126D01*
X-154408Y-103084D01*
X-154507Y-102595D01*
X-154507Y-102096D01*
X-154701Y-101629D01*
X-154801Y-101134D01*
X-155079Y-100720D01*
X-155271Y-100259D01*
X-155511Y-100019D01*
X-155034Y-98240D01*
Y-96133D01*
X-155520Y-94320D01*
X-155293Y-94092D01*
X-155100Y-93625D01*
X-154820Y-93204D01*
X-154724Y-92715D01*
X-154534Y-92253D01*
X-154535Y-91748D01*
X-154437Y-91252D01*
X-155200Y218661D01*
X-155278Y219048D01*
X-155262Y219443D01*
X-155473Y220014D01*
X-155593Y220611D01*
X-155813Y220939D01*
X-155950Y221310D01*
X-156363Y221757D01*
X-156702Y222262D01*
X-157031Y222481D01*
X-157299Y222771D01*
X-160189Y224873D01*
X-160736Y225125D01*
X-161237Y225460D01*
X-161630Y225538D01*
X-161995Y225707D01*
X-162597Y225730D01*
X-163188Y225848D01*
D02*
G37*
G36*
X33237Y-16750D02*
X31263D01*
X29355Y-17261D01*
X27645Y-18248D01*
X27562Y-18331D01*
X27480Y-18248D01*
X25770Y-17261D01*
X23862Y-16750D01*
X21888D01*
X19980Y-17261D01*
X18270Y-18248D01*
X17016Y-19503D01*
X15270Y-18780D01*
Y-24250D01*
X14000D01*
Y-25520D01*
X8530D01*
X9303Y-27388D01*
X10527Y-28612D01*
X10566Y-28732D01*
X10482Y-29838D01*
X10366Y-30110D01*
X9088Y-30848D01*
X7598Y-32338D01*
X6545Y-34162D01*
X6000Y-36197D01*
Y-38303D01*
X6545Y-40338D01*
X7598Y-42162D01*
X9088Y-43652D01*
X10912Y-44705D01*
X12947Y-45250D01*
X15053D01*
X17088Y-44705D01*
X18912Y-43652D01*
X20402Y-42162D01*
X21455Y-40338D01*
X22000Y-38303D01*
Y-36197D01*
X21455Y-34162D01*
X20626Y-32727D01*
X21389Y-31616D01*
X21888Y-31750D01*
X23862D01*
X25770Y-31239D01*
X27480Y-30252D01*
X27562Y-30169D01*
X27645Y-30252D01*
X29355Y-31239D01*
X31263Y-31750D01*
X33237D01*
X35145Y-31239D01*
X36855Y-30252D01*
X38252Y-28855D01*
X39239Y-27145D01*
X39750Y-25237D01*
Y-23263D01*
X39239Y-21355D01*
X38252Y-19645D01*
X36855Y-18248D01*
X35145Y-17261D01*
X33237Y-16750D01*
D02*
G37*
G36*
X-47513Y-6999D02*
X-49488D01*
X-49564Y-7020D01*
X-53429D01*
X-52872Y-8364D01*
X-53105Y-8498D01*
X-54502Y-9895D01*
X-55489Y-11605D01*
X-56000Y-13513D01*
Y-15487D01*
X-55489Y-17395D01*
X-54502Y-19105D01*
X-53105Y-20501D01*
X-51395Y-21489D01*
X-49487Y-22000D01*
X-47513D01*
X-45605Y-21489D01*
X-43895Y-20501D01*
X-42498Y-19105D01*
X-41511Y-17395D01*
X-41000Y-15487D01*
Y-13513D01*
X-41511Y-11605D01*
X-42498Y-9895D01*
X-43895Y-8498D01*
X-44128Y-8364D01*
X-43571Y-7020D01*
X-47436D01*
X-47513Y-6999D01*
D02*
G37*
G36*
X12730Y-18780D02*
X10862Y-19553D01*
X9303Y-21112D01*
X8530Y-22980D01*
X12730D01*
Y-18780D01*
D02*
G37*
G36*
X-4513Y-9750D02*
X-6487D01*
X-8395Y-10261D01*
X-10105Y-11249D01*
X-11501Y-12645D01*
X-12489Y-14355D01*
X-13000Y-16263D01*
Y-18237D01*
X-12489Y-20145D01*
X-11501Y-21855D01*
X-10105Y-23252D01*
X-8395Y-24239D01*
X-6487Y-24750D01*
X-4513D01*
X-2605Y-24239D01*
X-895Y-23252D01*
X501Y-21855D01*
X1489Y-20145D01*
X2000Y-18237D01*
Y-16263D01*
X1489Y-14355D01*
X501Y-12645D01*
X-895Y-11249D01*
X-2605Y-10261D01*
X-4513Y-9750D01*
D02*
G37*
G36*
X139480Y-29030D02*
X137612Y-29803D01*
X136053Y-31362D01*
X135280Y-33230D01*
X139480D01*
Y-29030D01*
D02*
G37*
G36*
X-92197Y-16500D02*
X-94303D01*
X-96338Y-17045D01*
X-98162Y-18098D01*
X-99652Y-19588D01*
X-100705Y-21412D01*
X-101250Y-23447D01*
Y-25553D01*
X-100705Y-27588D01*
X-99652Y-29412D01*
X-98162Y-30902D01*
X-97845Y-31085D01*
X-97679Y-32344D01*
X-97947Y-32612D01*
X-98720Y-34480D01*
X-87780D01*
X-88553Y-32612D01*
X-88821Y-32344D01*
X-88655Y-31085D01*
X-88338Y-30902D01*
X-86848Y-29412D01*
X-85795Y-27588D01*
X-85250Y-25553D01*
Y-23447D01*
X-85795Y-21412D01*
X-86848Y-19588D01*
X-88338Y-18098D01*
X-90162Y-17045D01*
X-92197Y-16500D01*
D02*
G37*
G36*
X214237Y-13000D02*
X212263D01*
X210355Y-13511D01*
X208645Y-14498D01*
X207248Y-15895D01*
X206261Y-17605D01*
X205750Y-19513D01*
Y-21487D01*
X206261Y-23395D01*
X207248Y-25105D01*
X208645Y-26502D01*
X210355Y-27489D01*
X212263Y-28000D01*
X213456D01*
X214444Y-28958D01*
X214500Y-29218D01*
Y-30987D01*
X215011Y-32895D01*
X215998Y-34605D01*
X217395Y-36002D01*
X219105Y-36989D01*
X221013Y-37500D01*
X222987D01*
X224895Y-36989D01*
X226605Y-36002D01*
X228001Y-34605D01*
X228989Y-32895D01*
X229500Y-30987D01*
Y-29013D01*
X228989Y-27105D01*
X228001Y-25395D01*
X226605Y-23998D01*
X224895Y-23011D01*
X222987Y-22500D01*
X221793D01*
X220806Y-21542D01*
X220750Y-21282D01*
Y-19513D01*
X220239Y-17605D01*
X219251Y-15895D01*
X217855Y-14498D01*
X216145Y-13511D01*
X214237Y-13000D01*
D02*
G37*
G36*
X139480Y-35770D02*
X135280D01*
X136053Y-37638D01*
X137612Y-39197D01*
X139480Y-39970D01*
Y-35770D01*
D02*
G37*
G36*
X-35733Y-25006D02*
X-37707D01*
X-39615Y-25517D01*
X-41325Y-26504D01*
X-42722Y-27901D01*
X-43709Y-29611D01*
X-44220Y-31519D01*
Y-33493D01*
X-43709Y-35401D01*
X-42722Y-37111D01*
X-41325Y-38507D01*
X-39615Y-39495D01*
X-37707Y-40006D01*
X-35733D01*
X-33825Y-39495D01*
X-32115Y-38507D01*
X-30719Y-37111D01*
X-29731Y-35401D01*
X-29220Y-33493D01*
Y-31519D01*
X-29731Y-29611D01*
X-30719Y-27901D01*
X-32115Y-26504D01*
X-33825Y-25517D01*
X-35733Y-25006D01*
D02*
G37*
G36*
X-87780Y-37020D02*
X-91980D01*
Y-41220D01*
X-90112Y-40447D01*
X-88553Y-38888D01*
X-87780Y-37020D01*
D02*
G37*
G36*
X-94520D02*
X-98720D01*
X-97947Y-38888D01*
X-96388Y-40447D01*
X-94520Y-41220D01*
Y-37020D01*
D02*
G37*
G36*
X207520Y-42821D02*
Y-46480D01*
X211179D01*
X210523Y-44895D01*
X209105Y-43477D01*
X207520Y-42821D01*
D02*
G37*
G36*
X204980D02*
X203395Y-43477D01*
X201977Y-44895D01*
X201321Y-46480D01*
X204980D01*
Y-42821D01*
D02*
G37*
G36*
X-69513Y-30500D02*
X-71487D01*
X-73395Y-31011D01*
X-75105Y-31999D01*
X-76501Y-33395D01*
X-77489Y-35105D01*
X-78000Y-37013D01*
Y-38987D01*
X-77533Y-40730D01*
X-77763Y-41261D01*
X-78317Y-42000D01*
X-79487D01*
X-81395Y-42511D01*
X-83105Y-43499D01*
X-84501Y-44895D01*
X-85489Y-46605D01*
X-86000Y-48513D01*
Y-50487D01*
X-86201Y-50750D01*
X-86987D01*
X-88895Y-51261D01*
X-90605Y-52249D01*
X-92001Y-53645D01*
X-92989Y-55355D01*
X-93500Y-57263D01*
Y-59237D01*
X-92989Y-61145D01*
X-92001Y-62855D01*
X-90605Y-64251D01*
X-88895Y-65239D01*
X-86987Y-65750D01*
X-85013D01*
X-83105Y-65239D01*
X-81395Y-64251D01*
X-79998Y-62855D01*
X-79011Y-61145D01*
X-78500Y-59237D01*
Y-57263D01*
X-78299Y-57000D01*
X-77513D01*
X-75605Y-56489D01*
X-73895Y-55501D01*
X-72498Y-54105D01*
X-71511Y-52395D01*
X-71000Y-50487D01*
Y-48733D01*
X-70919Y-48685D01*
X-69752Y-48355D01*
X-68355Y-49752D01*
X-66645Y-50739D01*
X-64737Y-51250D01*
X-62763D01*
X-60855Y-50739D01*
X-59145Y-49752D01*
X-57748Y-48355D01*
X-56761Y-46645D01*
X-56250Y-44737D01*
Y-42763D01*
X-56761Y-40855D01*
X-57748Y-39145D01*
X-59145Y-37748D01*
X-60855Y-36761D01*
X-62763Y-36250D01*
X-63204D01*
X-63511Y-35105D01*
X-64499Y-33395D01*
X-65895Y-31999D01*
X-67605Y-31011D01*
X-69513Y-30500D01*
D02*
G37*
G36*
X211179Y-49020D02*
X207520D01*
Y-52679D01*
X209105Y-52023D01*
X210523Y-50605D01*
X211179Y-49020D01*
D02*
G37*
G36*
X204980D02*
X201321D01*
X201977Y-50605D01*
X203395Y-52023D01*
X204980Y-52679D01*
Y-49020D01*
D02*
G37*
G36*
X33385Y-54030D02*
Y-58230D01*
X37585D01*
X36811Y-56362D01*
X35253Y-54803D01*
X33385Y-54030D01*
D02*
G37*
G36*
X-143730Y-56280D02*
Y-60480D01*
X-139530D01*
X-140303Y-58612D01*
X-141862Y-57053D01*
X-143730Y-56280D01*
D02*
G37*
G36*
X-146270D02*
X-148138Y-57053D01*
X-149697Y-58612D01*
X-150470Y-60480D01*
X-146270D01*
Y-56280D01*
D02*
G37*
G36*
X37585Y-60770D02*
X33385D01*
Y-64970D01*
X35253Y-64197D01*
X36811Y-62638D01*
X37585Y-60770D01*
D02*
G37*
G36*
X22553Y-51500D02*
X20447D01*
X18412Y-52045D01*
X16588Y-53098D01*
X15098Y-54588D01*
X14045Y-56412D01*
X13500Y-58447D01*
Y-60553D01*
X14045Y-62588D01*
X15098Y-64412D01*
X16588Y-65902D01*
X18412Y-66955D01*
X20447Y-67500D01*
X22553D01*
X24588Y-66955D01*
X26412Y-65902D01*
X27649Y-64665D01*
X28977Y-64197D01*
X30845Y-64970D01*
Y-59500D01*
Y-54030D01*
X28977Y-54803D01*
X27649Y-54335D01*
X26412Y-53098D01*
X24588Y-52045D01*
X22553Y-51500D01*
D02*
G37*
G36*
X-139530Y-63020D02*
X-143730D01*
Y-67220D01*
X-141862Y-66447D01*
X-140303Y-64888D01*
X-139530Y-63020D01*
D02*
G37*
G36*
X-146270D02*
X-150470D01*
X-149697Y-64888D01*
X-148138Y-66447D01*
X-146270Y-67220D01*
Y-63020D01*
D02*
G37*
G36*
X237020Y-69780D02*
Y-73980D01*
X241220D01*
X240447Y-72112D01*
X238888Y-70553D01*
X237020Y-69780D01*
D02*
G37*
G36*
X234480D02*
X232612Y-70553D01*
X231053Y-72112D01*
X230280Y-73980D01*
X234480D01*
Y-69780D01*
D02*
G37*
G36*
X213270Y-70030D02*
Y-74230D01*
X217470D01*
X216697Y-72362D01*
X215138Y-70803D01*
X213270Y-70030D01*
D02*
G37*
G36*
X210730D02*
X208862Y-70803D01*
X207303Y-72362D01*
X206530Y-74230D01*
X210730D01*
Y-70030D01*
D02*
G37*
G36*
X241220Y-76520D02*
X237020D01*
Y-80720D01*
X238888Y-79947D01*
X240447Y-78388D01*
X241220Y-76520D01*
D02*
G37*
G36*
X234480D02*
X230280D01*
X231053Y-78388D01*
X232612Y-79947D01*
X234480Y-80720D01*
Y-76520D01*
D02*
G37*
G36*
X217470Y-76770D02*
X213270D01*
Y-80970D01*
X215138Y-80197D01*
X216697Y-78638D01*
X217470Y-76770D01*
D02*
G37*
G36*
X210730D02*
X206530D01*
X207303Y-78638D01*
X208862Y-80197D01*
X210730Y-80970D01*
Y-76770D01*
D02*
G37*
G36*
X28418Y-81250D02*
X26312D01*
X24277Y-81795D01*
X22453Y-82848D01*
X22115Y-83186D01*
X21777Y-82848D01*
X19953Y-81795D01*
X17918Y-81250D01*
X15812D01*
X13777Y-81795D01*
X11953Y-82848D01*
X10463Y-84338D01*
X9410Y-86162D01*
X8865Y-88197D01*
Y-90303D01*
X9410Y-92338D01*
X10463Y-94162D01*
X11953Y-95652D01*
X13777Y-96705D01*
X15812Y-97250D01*
X17918D01*
X19953Y-96705D01*
X21777Y-95652D01*
X22115Y-95314D01*
X22453Y-95652D01*
X24277Y-96705D01*
X26312Y-97250D01*
X28418D01*
X30453Y-96705D01*
X32277Y-95652D01*
X33766Y-94162D01*
X34820Y-92338D01*
X35365Y-90303D01*
Y-88197D01*
X34820Y-86162D01*
X33766Y-84338D01*
X32277Y-82848D01*
X30453Y-81795D01*
X28418Y-81250D01*
D02*
G37*
G36*
X-14096Y-82250D02*
X-16071D01*
X-17978Y-82761D01*
X-19688Y-83749D01*
X-19917Y-83977D01*
X-20145Y-83749D01*
X-21855Y-82761D01*
X-23763Y-82250D01*
X-25737D01*
X-27645Y-82761D01*
X-29355Y-83749D01*
X-30752Y-85145D01*
X-31739Y-86855D01*
X-32250Y-88763D01*
Y-90737D01*
X-31739Y-92645D01*
X-30752Y-94355D01*
X-29355Y-95751D01*
X-27645Y-96739D01*
X-25737Y-97250D01*
X-23763D01*
X-21855Y-96739D01*
X-20145Y-95751D01*
X-19917Y-95523D01*
X-19688Y-95751D01*
X-17978Y-96739D01*
X-16071Y-97250D01*
X-14096D01*
X-12188Y-96739D01*
X-10729Y-95896D01*
X-9821Y-96575D01*
X-9717Y-96706D01*
X-10250Y-98697D01*
Y-100803D01*
X-9705Y-102838D01*
X-8652Y-104662D01*
X-7162Y-106152D01*
X-5338Y-107205D01*
X-3303Y-107750D01*
X-1197D01*
X838Y-107205D01*
X2662Y-106152D01*
X4152Y-104662D01*
X5205Y-102838D01*
X5750Y-100803D01*
Y-98697D01*
X5205Y-96662D01*
X4152Y-94838D01*
X2662Y-93348D01*
X838Y-92295D01*
X-1197Y-91750D01*
X-3303D01*
X-5338Y-92295D01*
X-6991Y-93249D01*
X-7560Y-92937D01*
X-8040Y-92442D01*
X-7583Y-90737D01*
Y-88763D01*
X-8094Y-86855D01*
X-9082Y-85145D01*
X-10478Y-83749D01*
X-12188Y-82761D01*
X-14096Y-82250D01*
D02*
G37*
G36*
X-81615Y-83780D02*
Y-87980D01*
X-77415D01*
X-78189Y-86112D01*
X-79747Y-84553D01*
X-81615Y-83780D01*
D02*
G37*
G36*
X190770Y-87280D02*
Y-91480D01*
X194970D01*
X194197Y-89612D01*
X192638Y-88053D01*
X190770Y-87280D01*
D02*
G37*
G36*
X188230D02*
X186362Y-88053D01*
X184803Y-89612D01*
X184030Y-91480D01*
X188230D01*
Y-87280D01*
D02*
G37*
G36*
X-77415Y-90520D02*
X-81615D01*
Y-94720D01*
X-79747Y-93947D01*
X-78189Y-92388D01*
X-77415Y-90520D01*
D02*
G37*
G36*
X-92697Y-81250D02*
X-94803D01*
X-96838Y-81795D01*
X-98662Y-82848D01*
X-100152Y-84338D01*
X-101205Y-86162D01*
X-101750Y-88197D01*
Y-90303D01*
X-101205Y-92338D01*
X-100152Y-94162D01*
X-98662Y-95652D01*
X-96838Y-96705D01*
X-94803Y-97250D01*
X-92697D01*
X-90662Y-96705D01*
X-88838Y-95652D01*
X-87348Y-94162D01*
X-87306Y-94089D01*
X-86047Y-93923D01*
X-86023Y-93947D01*
X-84155Y-94720D01*
Y-89250D01*
Y-83780D01*
X-86023Y-84553D01*
X-86047Y-84577D01*
X-87306Y-84411D01*
X-87348Y-84338D01*
X-88838Y-82848D01*
X-90662Y-81795D01*
X-92697Y-81250D01*
D02*
G37*
G36*
X237020Y-91030D02*
Y-95230D01*
X241220D01*
X240447Y-93362D01*
X238888Y-91803D01*
X237020Y-91030D01*
D02*
G37*
G36*
X234480D02*
X232612Y-91803D01*
X231053Y-93362D01*
X230280Y-95230D01*
X234480D01*
Y-91030D01*
D02*
G37*
G36*
X194970Y-94020D02*
X190770D01*
Y-98220D01*
X192638Y-97447D01*
X194197Y-95888D01*
X194970Y-94020D01*
D02*
G37*
G36*
X188230D02*
X184030D01*
X184803Y-95888D01*
X186362Y-97447D01*
X188230Y-98220D01*
Y-94020D01*
D02*
G37*
G36*
X241220Y-97770D02*
X237020D01*
Y-101970D01*
X238888Y-101197D01*
X240447Y-99638D01*
X241220Y-97770D01*
D02*
G37*
G36*
X234480D02*
X230280D01*
X231053Y-99638D01*
X232612Y-101197D01*
X234480Y-101970D01*
Y-97770D01*
D02*
G37*
G36*
X-208697Y-88750D02*
X-210803D01*
X-212838Y-89295D01*
X-214662Y-90348D01*
X-216152Y-91838D01*
X-217205Y-93662D01*
X-217750Y-95697D01*
Y-97803D01*
X-217205Y-99838D01*
X-216152Y-101662D01*
X-214662Y-103152D01*
X-212838Y-104205D01*
X-210803Y-104750D01*
X-208697D01*
X-206662Y-104205D01*
X-204838Y-103152D01*
X-203348Y-101662D01*
X-202295Y-99838D01*
X-201750Y-97803D01*
Y-95697D01*
X-202295Y-93662D01*
X-203348Y-91838D01*
X-204838Y-90348D01*
X-206662Y-89295D01*
X-208697Y-88750D01*
D02*
G37*
G36*
X190770Y-103280D02*
Y-107480D01*
X194970D01*
X194197Y-105612D01*
X192638Y-104053D01*
X190770Y-103280D01*
D02*
G37*
G36*
X194970Y-110020D02*
X190770D01*
Y-114220D01*
X192638Y-113447D01*
X194197Y-111888D01*
X194970Y-110020D01*
D02*
G37*
G36*
X-144013Y-89687D02*
X-145987D01*
X-147895Y-90198D01*
X-149605Y-91185D01*
X-151002Y-92582D01*
X-151989Y-94292D01*
X-152500Y-96199D01*
Y-98174D01*
X-151989Y-100082D01*
X-151002Y-101792D01*
X-149605Y-103188D01*
X-149091Y-103485D01*
Y-104952D01*
X-149605Y-105248D01*
X-151002Y-106645D01*
X-151989Y-108355D01*
X-152500Y-110263D01*
Y-112237D01*
X-151989Y-114145D01*
X-151002Y-115855D01*
X-149605Y-117252D01*
X-147895Y-118239D01*
X-145987Y-118750D01*
X-144013D01*
X-142105Y-118239D01*
X-140395Y-117252D01*
X-138998Y-115855D01*
X-138011Y-114145D01*
X-137500Y-112237D01*
Y-110263D01*
X-138011Y-108355D01*
X-138998Y-106645D01*
X-140395Y-105248D01*
X-140909Y-104952D01*
Y-103485D01*
X-140395Y-103188D01*
X-138998Y-101792D01*
X-138011Y-100082D01*
X-137500Y-98174D01*
Y-96199D01*
X-138011Y-94292D01*
X-138998Y-92582D01*
X-140395Y-91185D01*
X-142105Y-90198D01*
X-144013Y-89687D01*
D02*
G37*
G36*
X190770Y-119780D02*
Y-123980D01*
X194970D01*
X194197Y-122112D01*
X192638Y-120553D01*
X190770Y-119780D01*
D02*
G37*
G36*
X188230D02*
X186362Y-120553D01*
X184803Y-122112D01*
X184030Y-123980D01*
X188230D01*
Y-119780D01*
D02*
G37*
G36*
X-193770Y-121780D02*
X-195638Y-122553D01*
X-197197Y-124112D01*
X-197970Y-125980D01*
X-193770D01*
Y-121780D01*
D02*
G37*
G36*
X194970Y-126520D02*
X190770D01*
Y-130720D01*
X192638Y-129947D01*
X194197Y-128388D01*
X194970Y-126520D01*
D02*
G37*
G36*
X188230D02*
X184030D01*
X184803Y-128388D01*
X186362Y-129947D01*
X188230Y-130720D01*
Y-126520D01*
D02*
G37*
G36*
X-193770Y-128520D02*
X-197970D01*
X-197197Y-130388D01*
X-195638Y-131947D01*
X-193770Y-132720D01*
Y-128520D01*
D02*
G37*
G36*
X-120197Y-129000D02*
X-122303D01*
X-124338Y-129545D01*
X-126162Y-130598D01*
X-127652Y-132088D01*
X-128705Y-133912D01*
X-129250Y-135947D01*
Y-138053D01*
X-128705Y-140088D01*
X-127652Y-141912D01*
X-126162Y-143402D01*
X-124338Y-144455D01*
X-122303Y-145000D01*
X-120197D01*
X-118162Y-144455D01*
X-116338Y-143402D01*
X-114848Y-141912D01*
X-113795Y-140088D01*
X-113250Y-138053D01*
Y-135947D01*
X-113795Y-133912D01*
X-114848Y-132088D01*
X-116338Y-130598D01*
X-118162Y-129545D01*
X-120197Y-129000D01*
D02*
G37*
G36*
X-208697Y-167000D02*
X-210803D01*
X-212838Y-167545D01*
X-214662Y-168598D01*
X-216152Y-170088D01*
X-217205Y-171912D01*
X-217750Y-173947D01*
Y-176053D01*
X-217205Y-178088D01*
X-216152Y-179912D01*
X-214662Y-181402D01*
X-212838Y-182455D01*
X-210803Y-183000D01*
X-208697D01*
X-206662Y-182455D01*
X-204838Y-181402D01*
X-203348Y-179912D01*
X-202295Y-178088D01*
X-201750Y-176053D01*
Y-173947D01*
X-202295Y-171912D01*
X-203348Y-170088D01*
X-204838Y-168598D01*
X-206662Y-167545D01*
X-208697Y-167000D01*
D02*
G37*
G36*
X12053Y-184500D02*
X9947D01*
X7912Y-185045D01*
X6088Y-186098D01*
X4598Y-187588D01*
X3545Y-189412D01*
X3000Y-191447D01*
Y-193553D01*
X3545Y-195588D01*
X4598Y-197412D01*
X6088Y-198902D01*
X7912Y-199955D01*
X9947Y-200500D01*
X12053D01*
X14088Y-199955D01*
X15912Y-198902D01*
X17402Y-197412D01*
X18455Y-195588D01*
X19000Y-193553D01*
Y-191447D01*
X18455Y-189412D01*
X17402Y-187588D01*
X15912Y-186098D01*
X14088Y-185045D01*
X12053Y-184500D01*
D02*
G37*
G36*
X-91697Y-188500D02*
X-93803D01*
X-95838Y-189045D01*
X-97662Y-190098D01*
X-99152Y-191588D01*
X-100205Y-193412D01*
X-100750Y-195447D01*
Y-197553D01*
X-100205Y-199588D01*
X-99152Y-201412D01*
X-97662Y-202902D01*
X-95838Y-203955D01*
X-93803Y-204500D01*
X-91697D01*
X-89662Y-203955D01*
X-87838Y-202902D01*
X-86348Y-201412D01*
X-85295Y-199588D01*
X-84750Y-197553D01*
Y-195447D01*
X-85295Y-193412D01*
X-86348Y-191588D01*
X-87838Y-190098D01*
X-89662Y-189045D01*
X-91697Y-188500D01*
D02*
G37*
G36*
X152303Y-204000D02*
X150197D01*
X148162Y-204545D01*
X146338Y-205598D01*
X144848Y-207088D01*
X143795Y-208912D01*
X143250Y-210947D01*
Y-213053D01*
X143795Y-215088D01*
X144848Y-216912D01*
X146338Y-218402D01*
X148162Y-219455D01*
X150197Y-220000D01*
X152303D01*
X154338Y-219455D01*
X156162Y-218402D01*
X157652Y-216912D01*
X158705Y-215088D01*
X159250Y-213053D01*
Y-210947D01*
X158705Y-208912D01*
X157652Y-207088D01*
X156162Y-205598D01*
X154338Y-204545D01*
X152303Y-204000D01*
D02*
G37*
G36*
X-170197Y-223750D02*
X-172303D01*
X-174338Y-224295D01*
X-176162Y-225348D01*
X-177652Y-226838D01*
X-178705Y-228662D01*
X-179250Y-230697D01*
Y-232803D01*
X-178705Y-234838D01*
X-177652Y-236662D01*
X-176162Y-238152D01*
X-174338Y-239205D01*
X-172303Y-239750D01*
X-170197D01*
X-168162Y-239205D01*
X-166338Y-238152D01*
X-164848Y-236662D01*
X-163795Y-234838D01*
X-163250Y-232803D01*
Y-230697D01*
X-163795Y-228662D01*
X-164848Y-226838D01*
X-166338Y-225348D01*
X-168162Y-224295D01*
X-170197Y-223750D01*
D02*
G37*
G36*
X224512Y-200378D02*
X220079D01*
X215732Y-201243D01*
X211638Y-202939D01*
X207952Y-205401D01*
X204818Y-208535D01*
X202356Y-212220D01*
X200660Y-216315D01*
X199795Y-220662D01*
Y-225095D01*
X200660Y-229442D01*
X202356Y-233536D01*
X204818Y-237222D01*
X207952Y-240356D01*
X211638Y-242818D01*
X215732Y-244514D01*
X220079Y-245379D01*
X224512D01*
X228859Y-244514D01*
X232954Y-242818D01*
X236639Y-240356D01*
X239773Y-237222D01*
X242235Y-233536D01*
X243932Y-229442D01*
X244796Y-225095D01*
Y-220662D01*
X243932Y-216315D01*
X242235Y-212220D01*
X239773Y-208535D01*
X236639Y-205401D01*
X232954Y-202939D01*
X228859Y-201243D01*
X224512Y-200378D01*
D02*
G37*
G36*
X-220488D02*
X-224921D01*
X-229268Y-201243D01*
X-233362Y-202939D01*
X-237048Y-205401D01*
X-240182Y-208535D01*
X-242644Y-212220D01*
X-244340Y-216315D01*
X-245205Y-220662D01*
Y-225095D01*
X-244340Y-229442D01*
X-242644Y-233536D01*
X-240182Y-237222D01*
X-237048Y-240356D01*
X-233362Y-242818D01*
X-229268Y-244514D01*
X-224921Y-245379D01*
X-220488D01*
X-216141Y-244514D01*
X-212046Y-242818D01*
X-208361Y-240356D01*
X-205227Y-237222D01*
X-202765Y-233536D01*
X-201068Y-229442D01*
X-200204Y-225095D01*
Y-220662D01*
X-201068Y-216315D01*
X-202765Y-212220D01*
X-205227Y-208535D01*
X-208361Y-205401D01*
X-212046Y-202939D01*
X-216141Y-201243D01*
X-220488Y-200378D01*
D02*
G37*
%LPD*%
G36*
X-160298Y218648D02*
X-159535Y-91265D01*
X-160803Y-92114D01*
X-161764Y-91716D01*
Y-97187D01*
Y-102657D01*
X-160778Y-102249D01*
X-159506Y-103096D01*
X-159447Y-127242D01*
X-131939Y-154750D01*
X42095D01*
X42868Y-155758D01*
X42750Y-156197D01*
Y-158303D01*
X43295Y-160338D01*
X44348Y-162162D01*
X45838Y-163652D01*
X47662Y-164705D01*
X49697Y-165250D01*
X51803D01*
X53838Y-164705D01*
X55662Y-163652D01*
X57152Y-162162D01*
X58205Y-160338D01*
X58750Y-158303D01*
Y-156197D01*
X58632Y-155758D01*
X59405Y-154750D01*
X141750D01*
X150760Y-145750D01*
X151002Y82750D01*
X153752Y85500D01*
X168500D01*
X169712Y84288D01*
X169761Y84105D01*
X170749Y82395D01*
X171250Y81893D01*
Y66607D01*
X171248Y66605D01*
X170261Y64895D01*
X169750Y62987D01*
Y61013D01*
X170261Y59105D01*
X171248Y57395D01*
X171250Y57393D01*
Y-77111D01*
X170838Y-77348D01*
X169348Y-78838D01*
X168295Y-80662D01*
X167750Y-82697D01*
Y-84803D01*
X168295Y-86838D01*
X169348Y-88662D01*
X170838Y-90152D01*
X171250Y-90389D01*
Y-101899D01*
X170645Y-102248D01*
X169249Y-103645D01*
X168261Y-105355D01*
X167750Y-107263D01*
Y-109237D01*
X168261Y-111145D01*
X169249Y-112855D01*
X170645Y-114251D01*
X171250Y-114601D01*
Y-171250D01*
X165250Y-177250D01*
X89500D01*
Y-224000D01*
X89250D01*
X82000Y-231250D01*
X60750D01*
X53250Y-223750D01*
Y-177250D01*
X-84024D01*
X-84750Y-176303D01*
Y-174197D01*
X-85295Y-172162D01*
X-86348Y-170338D01*
X-87838Y-168848D01*
X-89662Y-167795D01*
X-91697Y-167250D01*
X-93803D01*
X-95838Y-167795D01*
X-97662Y-168848D01*
X-99152Y-170338D01*
X-100205Y-172162D01*
X-100750Y-174197D01*
Y-176303D01*
X-101476Y-177250D01*
X-149000D01*
X-184000Y-142250D01*
Y-116088D01*
X-182730Y-115362D01*
X-181645Y-115989D01*
X-179737Y-116500D01*
X-177763D01*
X-175855Y-115989D01*
X-174145Y-115001D01*
X-172749Y-113605D01*
X-171761Y-111895D01*
X-171250Y-109987D01*
Y-108013D01*
X-171761Y-106105D01*
X-172749Y-104395D01*
X-174145Y-102999D01*
X-175855Y-102011D01*
X-177763Y-101500D01*
X-179737D01*
X-181645Y-102011D01*
X-182730Y-102638D01*
X-184000Y-101911D01*
Y-91490D01*
X-182730Y-90757D01*
X-181895Y-91239D01*
X-179987Y-91750D01*
X-178013D01*
X-176105Y-91239D01*
X-174395Y-90252D01*
X-172999Y-88855D01*
X-172011Y-87145D01*
X-171500Y-85237D01*
Y-83263D01*
X-172011Y-81355D01*
X-172999Y-79645D01*
X-174395Y-78249D01*
X-176105Y-77261D01*
X-178013Y-76750D01*
X-179987D01*
X-181895Y-77261D01*
X-182730Y-77743D01*
X-184000Y-77010D01*
X-184000Y218000D01*
X-181250Y220750D01*
X-163188Y220750D01*
X-160298Y218648D01*
D02*
G37*
%LPC*%
G36*
X-173730Y215720D02*
Y211520D01*
X-169530D01*
X-170303Y213388D01*
X-171862Y214947D01*
X-173730Y215720D01*
D02*
G37*
G36*
X-176270D02*
X-178138Y214947D01*
X-179697Y213388D01*
X-180470Y211520D01*
X-176270D01*
Y215720D01*
D02*
G37*
G36*
X-169530Y208980D02*
X-173730D01*
Y204780D01*
X-171862Y205553D01*
X-170303Y207112D01*
X-169530Y208980D01*
D02*
G37*
G36*
X-176270D02*
X-180470D01*
X-179697Y207112D01*
X-178138Y205553D01*
X-176270Y204780D01*
Y208980D01*
D02*
G37*
G36*
X162762Y80165D02*
Y76506D01*
X166421D01*
X165765Y78091D01*
X164347Y79509D01*
X162762Y80165D01*
D02*
G37*
G36*
X160222D02*
X158637Y79509D01*
X157219Y78091D01*
X156563Y76506D01*
X160222D01*
Y80165D01*
D02*
G37*
G36*
X166421Y73966D02*
X162762D01*
Y70307D01*
X164347Y70963D01*
X165765Y72381D01*
X166421Y73966D01*
D02*
G37*
G36*
X160222D02*
X156563D01*
X157219Y72381D01*
X158637Y70963D01*
X160222Y70307D01*
Y73966D01*
D02*
G37*
G36*
X162790Y7679D02*
Y4020D01*
X166449D01*
X165793Y5605D01*
X164375Y7023D01*
X162790Y7679D01*
D02*
G37*
G36*
X160250D02*
X158665Y7023D01*
X157247Y5605D01*
X156591Y4020D01*
X160250D01*
Y7679D01*
D02*
G37*
G36*
X166449Y1480D02*
X162790D01*
Y-2179D01*
X164375Y-1523D01*
X165793Y-105D01*
X166449Y1480D01*
D02*
G37*
G36*
X160250D02*
X156591D01*
X157247Y-105D01*
X158665Y-1523D01*
X160250Y-2179D01*
Y1480D01*
D02*
G37*
G36*
X162790Y-66321D02*
Y-69980D01*
X166449D01*
X165793Y-68395D01*
X164375Y-66977D01*
X162790Y-66321D01*
D02*
G37*
G36*
X160250D02*
X158665Y-66977D01*
X157247Y-68395D01*
X156591Y-69980D01*
X160250D01*
Y-66321D01*
D02*
G37*
G36*
X166449Y-72520D02*
X162790D01*
Y-76179D01*
X164375Y-75523D01*
X165793Y-74105D01*
X166449Y-72520D01*
D02*
G37*
G36*
X160250D02*
X156591D01*
X157247Y-74105D01*
X158665Y-75523D01*
X160250Y-76179D01*
Y-72520D01*
D02*
G37*
G36*
X-164304Y-91716D02*
X-166172Y-92490D01*
X-167731Y-94049D01*
X-168505Y-95917D01*
X-164304D01*
Y-91716D01*
D02*
G37*
G36*
Y-98457D02*
X-168505D01*
X-167731Y-100325D01*
X-166172Y-101883D01*
X-164304Y-102657D01*
Y-98457D01*
D02*
G37*
G36*
X165520Y-146530D02*
Y-150730D01*
X169720D01*
X168947Y-148862D01*
X167388Y-147303D01*
X165520Y-146530D01*
D02*
G37*
G36*
X162980D02*
X161112Y-147303D01*
X159553Y-148862D01*
X158780Y-150730D01*
X162980D01*
Y-146530D01*
D02*
G37*
G36*
X169720Y-153270D02*
X165520D01*
Y-157470D01*
X167388Y-156697D01*
X168947Y-155138D01*
X169720Y-153270D01*
D02*
G37*
G36*
X162980D02*
X158780D01*
X159553Y-155138D01*
X161112Y-156697D01*
X162980Y-157470D01*
Y-153270D01*
D02*
G37*
G36*
X73270Y-195530D02*
Y-199730D01*
X77470D01*
X76697Y-197862D01*
X75138Y-196303D01*
X73270Y-195530D01*
D02*
G37*
G36*
X70730D02*
X68862Y-196303D01*
X67303Y-197862D01*
X66530Y-199730D01*
X70730D01*
Y-195530D01*
D02*
G37*
G36*
X77470Y-202270D02*
X73270D01*
Y-206470D01*
X75138Y-205697D01*
X76697Y-204138D01*
X77470Y-202270D01*
D02*
G37*
G36*
X70730D02*
X66530D01*
X67303Y-204138D01*
X68862Y-205697D01*
X70730Y-206470D01*
Y-202270D01*
D02*
G37*
G36*
X73270Y-211780D02*
Y-215980D01*
X77470D01*
X76697Y-214112D01*
X75138Y-212553D01*
X73270Y-211780D01*
D02*
G37*
G36*
X70730D02*
X68862Y-212553D01*
X67303Y-214112D01*
X66530Y-215980D01*
X70730D01*
Y-211780D01*
D02*
G37*
G36*
X77470Y-218520D02*
X73270D01*
Y-222720D01*
X75138Y-221947D01*
X76697Y-220388D01*
X77470Y-218520D01*
D02*
G37*
G36*
X70730D02*
X66530D01*
X67303Y-220388D01*
X68862Y-221947D01*
X70730Y-222720D01*
Y-218520D01*
D02*
G37*
%LPD*%
D101*
X161520Y-71250D02*
D03*
X206250Y-47750D02*
D03*
X161520Y2750D02*
D03*
X213250Y23500D02*
D03*
X161492Y75236D02*
D03*
X235250Y161000D02*
D03*
X-24750Y167250D02*
D03*
X-32000Y139000D02*
D03*
X-62250Y132500D02*
D03*
X-48500Y53250D02*
D03*
X-93250Y11500D02*
D03*
X-48500Y-5750D02*
D03*
X-204750Y168500D02*
D03*
D102*
X72000Y-217250D02*
D03*
Y-201000D02*
D03*
X164250Y-152000D02*
D03*
X189500Y-125250D02*
D03*
Y-108750D02*
D03*
Y-92750D02*
D03*
X212000Y-75500D02*
D03*
X235750Y-96500D02*
D03*
Y-75250D02*
D03*
X140750Y39500D02*
D03*
X176750Y98000D02*
D03*
X133000Y145500D02*
D03*
X72750Y174000D02*
D03*
X40000Y210250D02*
D03*
X-87473D02*
D03*
X-142000Y100250D02*
D03*
X-93250Y64000D02*
D03*
Y40500D02*
D03*
Y-35750D02*
D03*
X-82885Y-89250D02*
D03*
X-145000Y-61750D02*
D03*
X-163034Y-97187D02*
D03*
X-192500Y-127250D02*
D03*
X14000Y-24250D02*
D03*
X32115Y-59500D02*
D03*
X140750Y-34500D02*
D03*
X32500Y64750D02*
D03*
X14000Y35500D02*
D03*
X-175000Y210250D02*
D03*
M02*
