G04*
G04 #@! TF.GenerationSoftware,Altium Limited,Altium Designer,23.7.1 (13)*
G04*
G04 Layer_Color=16711935*
%FSLAX44Y44*%
%MOMM*%
G71*
G04*
G04 #@! TF.SameCoordinates,04D04BC5-F765-4596-8717-98BD9A505975*
G04*
G04*
G04 #@! TF.FilePolarity,Negative*
G04*
G01*
G75*
%ADD20R,0.8000X0.7000*%
G04:AMPARAMS|DCode=39|XSize=0.8032mm|YSize=0.9032mm|CornerRadius=0.1766mm|HoleSize=0mm|Usage=FLASHONLY|Rotation=180.000|XOffset=0mm|YOffset=0mm|HoleType=Round|Shape=RoundedRectangle|*
%AMROUNDEDRECTD39*
21,1,0.8032,0.5500,0,0,180.0*
21,1,0.4500,0.9032,0,0,180.0*
1,1,0.3532,-0.2250,0.2750*
1,1,0.3532,0.2250,0.2750*
1,1,0.3532,0.2250,-0.2750*
1,1,0.3532,-0.2250,-0.2750*
%
%ADD39ROUNDEDRECTD39*%
%ADD48R,0.9000X1.1000*%
%ADD51R,1.1000X0.9000*%
%ADD54R,0.7000X0.8000*%
%ADD57C,3.7033*%
G04:AMPARAMS|DCode=107|XSize=0.59mm|YSize=0.35mm|CornerRadius=0.0875mm|HoleSize=0mm|Usage=FLASHONLY|Rotation=270.000|XOffset=0mm|YOffset=0mm|HoleType=Round|Shape=RoundedRectangle|*
%AMROUNDEDRECTD107*
21,1,0.5900,0.1750,0,0,270.0*
21,1,0.4150,0.3500,0,0,270.0*
1,1,0.1750,-0.0875,-0.2075*
1,1,0.1750,-0.0875,0.2075*
1,1,0.1750,0.0875,0.2075*
1,1,0.1750,0.0875,-0.2075*
%
%ADD107ROUNDEDRECTD107*%
G04:AMPARAMS|DCode=108|XSize=0.59mm|YSize=0.35mm|CornerRadius=0.0875mm|HoleSize=0mm|Usage=FLASHONLY|Rotation=180.000|XOffset=0mm|YOffset=0mm|HoleType=Round|Shape=RoundedRectangle|*
%AMROUNDEDRECTD108*
21,1,0.5900,0.1750,0,0,180.0*
21,1,0.4150,0.3500,0,0,180.0*
1,1,0.1750,-0.2075,0.0875*
1,1,0.1750,0.2075,0.0875*
1,1,0.1750,0.2075,-0.0875*
1,1,0.1750,-0.2075,-0.0875*
%
%ADD108ROUNDEDRECTD108*%
G04:AMPARAMS|DCode=110|XSize=0.8032mm|YSize=0.9032mm|CornerRadius=0.1766mm|HoleSize=0mm|Usage=FLASHONLY|Rotation=90.000|XOffset=0mm|YOffset=0mm|HoleType=Round|Shape=RoundedRectangle|*
%AMROUNDEDRECTD110*
21,1,0.8032,0.5500,0,0,90.0*
21,1,0.4500,0.9032,0,0,90.0*
1,1,0.3532,0.2750,0.2250*
1,1,0.3532,0.2750,-0.2250*
1,1,0.3532,-0.2750,-0.2250*
1,1,0.3532,-0.2750,0.2250*
%
%ADD110ROUNDEDRECTD110*%
G04:AMPARAMS|DCode=111|XSize=1.3232mm|YSize=0.4732mm|CornerRadius=0.1354mm|HoleSize=0mm|Usage=FLASHONLY|Rotation=90.000|XOffset=0mm|YOffset=0mm|HoleType=Round|Shape=RoundedRectangle|*
%AMROUNDEDRECTD111*
21,1,1.3232,0.2025,0,0,90.0*
21,1,1.0525,0.4732,0,0,90.0*
1,1,0.2707,0.1013,0.5263*
1,1,0.2707,0.1013,-0.5263*
1,1,0.2707,-0.1013,-0.5263*
1,1,0.2707,-0.1013,0.5263*
%
%ADD111ROUNDEDRECTD111*%
%ADD112R,0.7016X1.6016*%
G04:AMPARAMS|DCode=113|XSize=1.0032mm|YSize=1.2032mm|CornerRadius=0.2016mm|HoleSize=0mm|Usage=FLASHONLY|Rotation=90.000|XOffset=0mm|YOffset=0mm|HoleType=Round|Shape=RoundedRectangle|*
%AMROUNDEDRECTD113*
21,1,1.0032,0.8000,0,0,90.0*
21,1,0.6000,1.2032,0,0,90.0*
1,1,0.4032,0.4000,0.3000*
1,1,0.4032,0.4000,-0.3000*
1,1,0.4032,-0.4000,-0.3000*
1,1,0.4032,-0.4000,0.3000*
%
%ADD113ROUNDEDRECTD113*%
%ADD114C,0.4032*%
G36*
X-30810Y-18160D02*
X-30740Y-18170D01*
X-30680Y-18180D01*
X-30620Y-18190D01*
X-30550Y-18210D01*
X-30490Y-18230D01*
X-30430Y-18260D01*
X-30370Y-18290D01*
X-30320Y-18320D01*
X-30260Y-18350D01*
X-30210Y-18390D01*
X-30150Y-18430D01*
X-30100Y-18470D01*
X-30060Y-18520D01*
X-30010Y-18560D01*
X-29970Y-18610D01*
X-29930Y-18670D01*
X-29890Y-18720D01*
X-29860Y-18770D01*
X-29830Y-18830D01*
X-29800Y-18890D01*
X-29770Y-18950D01*
X-29750Y-19010D01*
X-29730Y-19080D01*
X-29720Y-19140D01*
X-29710Y-19200D01*
X-29700Y-19270D01*
X-29690Y-19330D01*
Y-19400D01*
Y-23800D01*
Y-23870D01*
X-29700Y-23930D01*
X-29710Y-24000D01*
X-29720Y-24060D01*
X-29730Y-24120D01*
X-29750Y-24190D01*
X-29770Y-24250D01*
X-29800Y-24310D01*
X-29830Y-24370D01*
X-29860Y-24430D01*
X-29890Y-24480D01*
X-29930Y-24530D01*
X-29970Y-24590D01*
X-30010Y-24640D01*
X-30060Y-24680D01*
X-30100Y-24730D01*
X-30150Y-24770D01*
X-30210Y-24810D01*
X-30260Y-24850D01*
X-30320Y-24880D01*
X-30370Y-24910D01*
X-30430Y-24940D01*
X-30490Y-24970D01*
X-30550Y-24990D01*
X-30620Y-25010D01*
X-30680Y-25020D01*
X-30740Y-25030D01*
X-30810Y-25040D01*
X-30870Y-25050D01*
X-33010D01*
X-33070Y-25040D01*
X-33140Y-25030D01*
X-33200Y-25020D01*
X-33260Y-25010D01*
X-33330Y-24990D01*
X-33390Y-24970D01*
X-33450Y-24940D01*
X-33510Y-24910D01*
X-33560Y-24880D01*
X-33620Y-24850D01*
X-33670Y-24810D01*
X-33730Y-24770D01*
X-33780Y-24730D01*
X-33820Y-24680D01*
X-33870Y-24640D01*
X-33910Y-24590D01*
X-33950Y-24530D01*
X-33990Y-24480D01*
X-34020Y-24430D01*
X-34050Y-24370D01*
X-34080Y-24310D01*
X-34110Y-24250D01*
X-34130Y-24190D01*
X-34150Y-24120D01*
X-34160Y-24060D01*
X-34170Y-24000D01*
X-34180Y-23930D01*
X-34190Y-23870D01*
Y-23800D01*
Y-19400D01*
Y-19330D01*
X-34180Y-19270D01*
X-34170Y-19200D01*
X-34160Y-19140D01*
X-34150Y-19080D01*
X-34130Y-19010D01*
X-34110Y-18950D01*
X-34080Y-18890D01*
X-34050Y-18830D01*
X-34020Y-18770D01*
X-33990Y-18720D01*
X-33950Y-18670D01*
X-33910Y-18610D01*
X-33870Y-18560D01*
X-33820Y-18520D01*
X-33780Y-18470D01*
X-33730Y-18430D01*
X-33670Y-18390D01*
X-33620Y-18350D01*
X-33570Y-18320D01*
X-33510Y-18290D01*
X-33450Y-18260D01*
X-33390Y-18230D01*
X-33330Y-18210D01*
X-33260Y-18190D01*
X-33200Y-18180D01*
X-33140Y-18170D01*
X-33070Y-18160D01*
X-33010Y-18150D01*
X-30870D01*
X-30810Y-18160D01*
D02*
G37*
G36*
X-35810D02*
X-35740Y-18170D01*
X-35680Y-18180D01*
X-35620Y-18190D01*
X-35550Y-18210D01*
X-35490Y-18230D01*
X-35430Y-18260D01*
X-35370Y-18290D01*
X-35310Y-18320D01*
X-35260Y-18350D01*
X-35210Y-18390D01*
X-35150Y-18430D01*
X-35100Y-18470D01*
X-35060Y-18520D01*
X-35010Y-18560D01*
X-34970Y-18610D01*
X-34930Y-18670D01*
X-34890Y-18720D01*
X-34860Y-18770D01*
X-34830Y-18830D01*
X-34800Y-18890D01*
X-34770Y-18950D01*
X-34750Y-19010D01*
X-34730Y-19080D01*
X-34720Y-19140D01*
X-34710Y-19200D01*
X-34700Y-19270D01*
X-34690Y-19330D01*
Y-19400D01*
Y-23800D01*
Y-23870D01*
X-34700Y-23930D01*
X-34710Y-24000D01*
X-34720Y-24060D01*
X-34730Y-24120D01*
X-34750Y-24190D01*
X-34770Y-24250D01*
X-34800Y-24310D01*
X-34830Y-24370D01*
X-34860Y-24430D01*
X-34890Y-24480D01*
X-34930Y-24530D01*
X-34970Y-24590D01*
X-35010Y-24640D01*
X-35060Y-24680D01*
X-35100Y-24730D01*
X-35150Y-24770D01*
X-35210Y-24810D01*
X-35260Y-24850D01*
X-35310Y-24880D01*
X-35370Y-24910D01*
X-35430Y-24940D01*
X-35490Y-24970D01*
X-35550Y-24990D01*
X-35620Y-25010D01*
X-35680Y-25020D01*
X-35740Y-25030D01*
X-35810Y-25040D01*
X-35870Y-25050D01*
X-38010D01*
X-38070Y-25040D01*
X-38140Y-25030D01*
X-38200Y-25020D01*
X-38260Y-25010D01*
X-38330Y-24990D01*
X-38390Y-24970D01*
X-38450Y-24940D01*
X-38510Y-24910D01*
X-38560Y-24880D01*
X-38620Y-24850D01*
X-38670Y-24810D01*
X-38730Y-24770D01*
X-38780Y-24730D01*
X-38820Y-24680D01*
X-38870Y-24640D01*
X-38910Y-24590D01*
X-38950Y-24530D01*
X-38990Y-24480D01*
X-39020Y-24430D01*
X-39050Y-24370D01*
X-39080Y-24310D01*
X-39110Y-24250D01*
X-39130Y-24190D01*
X-39150Y-24120D01*
X-39160Y-24060D01*
X-39170Y-24000D01*
X-39180Y-23930D01*
X-39190Y-23870D01*
Y-23800D01*
Y-19400D01*
Y-19330D01*
X-39180Y-19270D01*
X-39170Y-19200D01*
X-39160Y-19140D01*
X-39150Y-19080D01*
X-39130Y-19010D01*
X-39110Y-18950D01*
X-39080Y-18890D01*
X-39050Y-18830D01*
X-39020Y-18770D01*
X-38990Y-18720D01*
X-38950Y-18670D01*
X-38910Y-18610D01*
X-38870Y-18560D01*
X-38820Y-18520D01*
X-38780Y-18470D01*
X-38730Y-18430D01*
X-38670Y-18390D01*
X-38620Y-18350D01*
X-38570Y-18320D01*
X-38510Y-18290D01*
X-38450Y-18260D01*
X-38390Y-18230D01*
X-38330Y-18210D01*
X-38260Y-18190D01*
X-38200Y-18180D01*
X-38140Y-18170D01*
X-38070Y-18160D01*
X-38010Y-18150D01*
X-35870D01*
X-35810Y-18160D01*
D02*
G37*
G36*
X-40810D02*
X-40740Y-18170D01*
X-40680Y-18180D01*
X-40620Y-18190D01*
X-40550Y-18210D01*
X-40490Y-18230D01*
X-40430Y-18260D01*
X-40370Y-18290D01*
X-40320Y-18320D01*
X-40260Y-18350D01*
X-40210Y-18390D01*
X-40150Y-18430D01*
X-40100Y-18470D01*
X-40060Y-18520D01*
X-40010Y-18560D01*
X-39970Y-18610D01*
X-39930Y-18670D01*
X-39890Y-18720D01*
X-39860Y-18770D01*
X-39830Y-18830D01*
X-39800Y-18890D01*
X-39770Y-18950D01*
X-39750Y-19010D01*
X-39730Y-19080D01*
X-39720Y-19140D01*
X-39710Y-19200D01*
X-39700Y-19270D01*
X-39690Y-19330D01*
Y-19400D01*
Y-23800D01*
Y-23870D01*
X-39700Y-23930D01*
X-39710Y-24000D01*
X-39720Y-24060D01*
X-39730Y-24120D01*
X-39750Y-24190D01*
X-39770Y-24250D01*
X-39800Y-24310D01*
X-39830Y-24370D01*
X-39860Y-24430D01*
X-39890Y-24480D01*
X-39930Y-24530D01*
X-39970Y-24590D01*
X-40010Y-24640D01*
X-40060Y-24680D01*
X-40100Y-24730D01*
X-40150Y-24770D01*
X-40210Y-24810D01*
X-40260Y-24850D01*
X-40320Y-24880D01*
X-40370Y-24910D01*
X-40430Y-24940D01*
X-40490Y-24970D01*
X-40550Y-24990D01*
X-40620Y-25010D01*
X-40680Y-25020D01*
X-40740Y-25030D01*
X-40810Y-25040D01*
X-40870Y-25050D01*
X-43010D01*
X-43070Y-25040D01*
X-43140Y-25030D01*
X-43200Y-25020D01*
X-43260Y-25010D01*
X-43330Y-24990D01*
X-43390Y-24970D01*
X-43450Y-24940D01*
X-43510Y-24910D01*
X-43560Y-24880D01*
X-43620Y-24850D01*
X-43670Y-24810D01*
X-43730Y-24770D01*
X-43780Y-24730D01*
X-43820Y-24680D01*
X-43870Y-24640D01*
X-43910Y-24590D01*
X-43950Y-24530D01*
X-43990Y-24480D01*
X-44020Y-24430D01*
X-44050Y-24370D01*
X-44080Y-24310D01*
X-44110Y-24250D01*
X-44130Y-24190D01*
X-44150Y-24120D01*
X-44160Y-24060D01*
X-44170Y-24000D01*
X-44180Y-23930D01*
X-44190Y-23870D01*
Y-23800D01*
Y-19400D01*
Y-19330D01*
X-44180Y-19270D01*
X-44170Y-19200D01*
X-44160Y-19140D01*
X-44150Y-19080D01*
X-44130Y-19010D01*
X-44110Y-18950D01*
X-44080Y-18890D01*
X-44050Y-18830D01*
X-44020Y-18770D01*
X-43990Y-18720D01*
X-43950Y-18670D01*
X-43910Y-18610D01*
X-43870Y-18560D01*
X-43820Y-18520D01*
X-43780Y-18470D01*
X-43730Y-18430D01*
X-43670Y-18390D01*
X-43620Y-18350D01*
X-43570Y-18320D01*
X-43510Y-18290D01*
X-43450Y-18260D01*
X-43390Y-18230D01*
X-43330Y-18210D01*
X-43260Y-18190D01*
X-43200Y-18180D01*
X-43140Y-18170D01*
X-43070Y-18160D01*
X-43010Y-18150D01*
X-40870D01*
X-40810Y-18160D01*
D02*
G37*
G36*
X-22960Y-21010D02*
X-22890Y-21020D01*
X-22830Y-21030D01*
X-22770Y-21040D01*
X-22700Y-21060D01*
X-22640Y-21080D01*
X-22580Y-21110D01*
X-22520Y-21140D01*
X-22460Y-21170D01*
X-22410Y-21200D01*
X-22360Y-21240D01*
X-22300Y-21280D01*
X-22250Y-21320D01*
X-22210Y-21370D01*
X-22160Y-21410D01*
X-22120Y-21460D01*
X-22080Y-21520D01*
X-22040Y-21570D01*
X-22010Y-21630D01*
X-21980Y-21680D01*
X-21950Y-21740D01*
X-21920Y-21800D01*
X-21900Y-21860D01*
X-21880Y-21930D01*
X-21870Y-21990D01*
X-21860Y-22050D01*
X-21850Y-22120D01*
X-21840Y-22180D01*
Y-22250D01*
Y-24250D01*
Y-24320D01*
X-21850Y-24380D01*
X-21860Y-24450D01*
X-21870Y-24510D01*
X-21880Y-24570D01*
X-21900Y-24640D01*
X-21920Y-24700D01*
X-21950Y-24760D01*
X-21980Y-24820D01*
X-22010Y-24870D01*
X-22040Y-24930D01*
X-22080Y-24980D01*
X-22120Y-25040D01*
X-22160Y-25090D01*
X-22210Y-25130D01*
X-22250Y-25180D01*
X-22300Y-25220D01*
X-22360Y-25260D01*
X-22410Y-25300D01*
X-22460Y-25330D01*
X-22520Y-25360D01*
X-22580Y-25390D01*
X-22640Y-25420D01*
X-22700Y-25440D01*
X-22770Y-25460D01*
X-22830Y-25470D01*
X-22890Y-25480D01*
X-22960Y-25490D01*
X-23020Y-25500D01*
X-27560D01*
X-27620Y-25490D01*
X-27690Y-25480D01*
X-27750Y-25470D01*
X-27810Y-25460D01*
X-27880Y-25440D01*
X-27940Y-25420D01*
X-28000Y-25390D01*
X-28060Y-25360D01*
X-28120Y-25330D01*
X-28170Y-25300D01*
X-28220Y-25260D01*
X-28280Y-25220D01*
X-28330Y-25180D01*
X-28370Y-25130D01*
X-28420Y-25090D01*
X-28460Y-25040D01*
X-28500Y-24980D01*
X-28540Y-24930D01*
X-28570Y-24870D01*
X-28600Y-24820D01*
X-28630Y-24760D01*
X-28660Y-24700D01*
X-28680Y-24640D01*
X-28700Y-24570D01*
X-28710Y-24510D01*
X-28720Y-24450D01*
X-28730Y-24380D01*
X-28740Y-24320D01*
Y-24250D01*
Y-22250D01*
Y-22180D01*
X-28730Y-22120D01*
X-28720Y-22050D01*
X-28710Y-21990D01*
X-28700Y-21930D01*
X-28680Y-21860D01*
X-28660Y-21800D01*
X-28630Y-21740D01*
X-28600Y-21680D01*
X-28570Y-21630D01*
X-28540Y-21570D01*
X-28500Y-21520D01*
X-28460Y-21460D01*
X-28420Y-21410D01*
X-28370Y-21370D01*
X-28330Y-21320D01*
X-28280Y-21280D01*
X-28220Y-21240D01*
X-28170Y-21200D01*
X-28120Y-21170D01*
X-28060Y-21140D01*
X-28000Y-21110D01*
X-27940Y-21080D01*
X-27880Y-21060D01*
X-27810Y-21040D01*
X-27750Y-21030D01*
X-27690Y-21020D01*
X-27620Y-21010D01*
X-27560Y-21000D01*
X-23020D01*
X-22960Y-21010D01*
D02*
G37*
G36*
X-46260D02*
X-46190Y-21020D01*
X-46130Y-21030D01*
X-46070Y-21040D01*
X-46000Y-21060D01*
X-45940Y-21080D01*
X-45880Y-21110D01*
X-45820Y-21140D01*
X-45760Y-21170D01*
X-45710Y-21200D01*
X-45660Y-21240D01*
X-45600Y-21280D01*
X-45550Y-21320D01*
X-45510Y-21370D01*
X-45460Y-21410D01*
X-45420Y-21460D01*
X-45380Y-21520D01*
X-45340Y-21570D01*
X-45310Y-21630D01*
X-45280Y-21680D01*
X-45250Y-21740D01*
X-45220Y-21800D01*
X-45200Y-21860D01*
X-45180Y-21930D01*
X-45170Y-21990D01*
X-45160Y-22050D01*
X-45150Y-22120D01*
X-45140Y-22180D01*
Y-22250D01*
Y-24250D01*
Y-24320D01*
X-45150Y-24380D01*
X-45160Y-24450D01*
X-45170Y-24510D01*
X-45180Y-24570D01*
X-45200Y-24640D01*
X-45220Y-24700D01*
X-45250Y-24760D01*
X-45280Y-24820D01*
X-45310Y-24870D01*
X-45340Y-24930D01*
X-45380Y-24980D01*
X-45420Y-25040D01*
X-45460Y-25090D01*
X-45510Y-25130D01*
X-45550Y-25180D01*
X-45600Y-25220D01*
X-45660Y-25260D01*
X-45710Y-25300D01*
X-45760Y-25330D01*
X-45820Y-25360D01*
X-45880Y-25390D01*
X-45940Y-25420D01*
X-46000Y-25440D01*
X-46070Y-25460D01*
X-46130Y-25470D01*
X-46190Y-25480D01*
X-46260Y-25490D01*
X-46320Y-25500D01*
X-50860D01*
X-50920Y-25490D01*
X-50990Y-25480D01*
X-51050Y-25470D01*
X-51110Y-25460D01*
X-51180Y-25440D01*
X-51240Y-25420D01*
X-51300Y-25390D01*
X-51360Y-25360D01*
X-51420Y-25330D01*
X-51470Y-25300D01*
X-51520Y-25260D01*
X-51580Y-25220D01*
X-51630Y-25180D01*
X-51670Y-25130D01*
X-51720Y-25090D01*
X-51760Y-25040D01*
X-51800Y-24980D01*
X-51840Y-24930D01*
X-51870Y-24870D01*
X-51900Y-24820D01*
X-51930Y-24760D01*
X-51960Y-24700D01*
X-51980Y-24640D01*
X-52000Y-24570D01*
X-52010Y-24510D01*
X-52020Y-24450D01*
X-52030Y-24380D01*
X-52040Y-24320D01*
Y-24250D01*
Y-22250D01*
Y-22180D01*
X-52030Y-22120D01*
X-52020Y-22050D01*
X-52010Y-21990D01*
X-52000Y-21930D01*
X-51980Y-21860D01*
X-51960Y-21800D01*
X-51930Y-21740D01*
X-51900Y-21680D01*
X-51870Y-21630D01*
X-51840Y-21570D01*
X-51800Y-21520D01*
X-51760Y-21460D01*
X-51720Y-21410D01*
X-51670Y-21370D01*
X-51630Y-21320D01*
X-51580Y-21280D01*
X-51520Y-21240D01*
X-51470Y-21200D01*
X-51420Y-21170D01*
X-51360Y-21140D01*
X-51300Y-21110D01*
X-51240Y-21080D01*
X-51180Y-21060D01*
X-51110Y-21040D01*
X-51050Y-21030D01*
X-50990Y-21020D01*
X-50920Y-21010D01*
X-50860Y-21000D01*
X-46320D01*
X-46260Y-21010D01*
D02*
G37*
G36*
X-22960Y-26010D02*
X-22890Y-26020D01*
X-22830Y-26030D01*
X-22770Y-26040D01*
X-22700Y-26060D01*
X-22640Y-26080D01*
X-22580Y-26110D01*
X-22520Y-26140D01*
X-22460Y-26170D01*
X-22410Y-26200D01*
X-22360Y-26240D01*
X-22300Y-26280D01*
X-22250Y-26320D01*
X-22210Y-26370D01*
X-22160Y-26410D01*
X-22120Y-26460D01*
X-22080Y-26520D01*
X-22040Y-26570D01*
X-22010Y-26630D01*
X-21980Y-26680D01*
X-21950Y-26740D01*
X-21920Y-26800D01*
X-21900Y-26860D01*
X-21880Y-26930D01*
X-21870Y-26990D01*
X-21860Y-27050D01*
X-21850Y-27120D01*
X-21840Y-27180D01*
Y-27250D01*
Y-29250D01*
Y-29320D01*
X-21850Y-29380D01*
X-21860Y-29450D01*
X-21870Y-29510D01*
X-21880Y-29570D01*
X-21900Y-29640D01*
X-21920Y-29700D01*
X-21950Y-29760D01*
X-21980Y-29820D01*
X-22010Y-29870D01*
X-22040Y-29930D01*
X-22080Y-29980D01*
X-22120Y-30040D01*
X-22160Y-30090D01*
X-22210Y-30130D01*
X-22250Y-30180D01*
X-22300Y-30220D01*
X-22360Y-30260D01*
X-22410Y-30300D01*
X-22460Y-30330D01*
X-22520Y-30360D01*
X-22580Y-30390D01*
X-22640Y-30420D01*
X-22700Y-30440D01*
X-22770Y-30460D01*
X-22830Y-30470D01*
X-22890Y-30480D01*
X-22960Y-30490D01*
X-23020Y-30500D01*
X-27560D01*
X-27620Y-30490D01*
X-27690Y-30480D01*
X-27750Y-30470D01*
X-27810Y-30460D01*
X-27880Y-30440D01*
X-27940Y-30420D01*
X-28000Y-30390D01*
X-28060Y-30360D01*
X-28120Y-30330D01*
X-28170Y-30300D01*
X-28220Y-30260D01*
X-28280Y-30220D01*
X-28330Y-30180D01*
X-28370Y-30130D01*
X-28420Y-30090D01*
X-28460Y-30040D01*
X-28500Y-29980D01*
X-28540Y-29930D01*
X-28570Y-29870D01*
X-28600Y-29820D01*
X-28630Y-29760D01*
X-28660Y-29700D01*
X-28680Y-29640D01*
X-28700Y-29570D01*
X-28710Y-29510D01*
X-28720Y-29450D01*
X-28730Y-29380D01*
X-28740Y-29320D01*
Y-29250D01*
Y-27250D01*
Y-27180D01*
X-28730Y-27120D01*
X-28720Y-27050D01*
X-28710Y-26990D01*
X-28700Y-26930D01*
X-28680Y-26860D01*
X-28660Y-26800D01*
X-28630Y-26740D01*
X-28600Y-26680D01*
X-28570Y-26630D01*
X-28540Y-26570D01*
X-28500Y-26520D01*
X-28460Y-26460D01*
X-28420Y-26410D01*
X-28370Y-26370D01*
X-28330Y-26320D01*
X-28280Y-26280D01*
X-28220Y-26240D01*
X-28170Y-26200D01*
X-28120Y-26170D01*
X-28060Y-26140D01*
X-28000Y-26110D01*
X-27940Y-26080D01*
X-27880Y-26060D01*
X-27810Y-26040D01*
X-27750Y-26030D01*
X-27690Y-26020D01*
X-27620Y-26010D01*
X-27560Y-26000D01*
X-23020D01*
X-22960Y-26010D01*
D02*
G37*
G36*
X-46260D02*
X-46190Y-26020D01*
X-46130Y-26030D01*
X-46070Y-26040D01*
X-46000Y-26060D01*
X-45940Y-26080D01*
X-45880Y-26110D01*
X-45820Y-26140D01*
X-45760Y-26170D01*
X-45710Y-26200D01*
X-45660Y-26240D01*
X-45600Y-26280D01*
X-45550Y-26320D01*
X-45510Y-26370D01*
X-45460Y-26410D01*
X-45420Y-26460D01*
X-45380Y-26520D01*
X-45340Y-26570D01*
X-45310Y-26630D01*
X-45280Y-26680D01*
X-45250Y-26740D01*
X-45220Y-26800D01*
X-45200Y-26860D01*
X-45180Y-26930D01*
X-45170Y-26990D01*
X-45160Y-27050D01*
X-45150Y-27120D01*
X-45140Y-27180D01*
Y-27250D01*
Y-29250D01*
Y-29320D01*
X-45150Y-29380D01*
X-45160Y-29450D01*
X-45170Y-29510D01*
X-45180Y-29570D01*
X-45200Y-29640D01*
X-45220Y-29700D01*
X-45250Y-29760D01*
X-45280Y-29820D01*
X-45310Y-29870D01*
X-45340Y-29930D01*
X-45380Y-29980D01*
X-45420Y-30040D01*
X-45460Y-30090D01*
X-45510Y-30130D01*
X-45550Y-30180D01*
X-45600Y-30220D01*
X-45660Y-30260D01*
X-45710Y-30300D01*
X-45760Y-30330D01*
X-45820Y-30360D01*
X-45880Y-30390D01*
X-45940Y-30420D01*
X-46000Y-30440D01*
X-46070Y-30460D01*
X-46130Y-30470D01*
X-46190Y-30480D01*
X-46260Y-30490D01*
X-46320Y-30500D01*
X-50860D01*
X-50920Y-30490D01*
X-50990Y-30480D01*
X-51050Y-30470D01*
X-51110Y-30460D01*
X-51180Y-30440D01*
X-51240Y-30420D01*
X-51300Y-30390D01*
X-51360Y-30360D01*
X-51420Y-30330D01*
X-51470Y-30300D01*
X-51520Y-30260D01*
X-51580Y-30220D01*
X-51630Y-30180D01*
X-51670Y-30130D01*
X-51720Y-30090D01*
X-51760Y-30040D01*
X-51800Y-29980D01*
X-51840Y-29930D01*
X-51870Y-29870D01*
X-51900Y-29820D01*
X-51930Y-29760D01*
X-51960Y-29700D01*
X-51980Y-29640D01*
X-52000Y-29570D01*
X-52010Y-29510D01*
X-52020Y-29450D01*
X-52030Y-29380D01*
X-52040Y-29320D01*
Y-29250D01*
Y-27250D01*
Y-27180D01*
X-52030Y-27120D01*
X-52020Y-27050D01*
X-52010Y-26990D01*
X-52000Y-26930D01*
X-51980Y-26860D01*
X-51960Y-26800D01*
X-51930Y-26740D01*
X-51900Y-26680D01*
X-51870Y-26630D01*
X-51840Y-26570D01*
X-51800Y-26520D01*
X-51760Y-26460D01*
X-51720Y-26410D01*
X-51670Y-26370D01*
X-51630Y-26320D01*
X-51580Y-26280D01*
X-51520Y-26240D01*
X-51470Y-26200D01*
X-51420Y-26170D01*
X-51360Y-26140D01*
X-51300Y-26110D01*
X-51240Y-26080D01*
X-51180Y-26060D01*
X-51110Y-26040D01*
X-51050Y-26030D01*
X-50990Y-26020D01*
X-50920Y-26010D01*
X-50860Y-26000D01*
X-46320D01*
X-46260Y-26010D01*
D02*
G37*
G36*
X-22960Y-31010D02*
X-22890Y-31020D01*
X-22830Y-31030D01*
X-22770Y-31040D01*
X-22700Y-31060D01*
X-22640Y-31080D01*
X-22580Y-31110D01*
X-22520Y-31140D01*
X-22460Y-31170D01*
X-22410Y-31200D01*
X-22360Y-31240D01*
X-22300Y-31280D01*
X-22250Y-31320D01*
X-22210Y-31370D01*
X-22160Y-31410D01*
X-22120Y-31460D01*
X-22080Y-31520D01*
X-22040Y-31570D01*
X-22010Y-31630D01*
X-21980Y-31680D01*
X-21950Y-31740D01*
X-21920Y-31800D01*
X-21900Y-31860D01*
X-21880Y-31930D01*
X-21870Y-31990D01*
X-21860Y-32050D01*
X-21850Y-32120D01*
X-21840Y-32180D01*
Y-32250D01*
Y-34250D01*
Y-34320D01*
X-21850Y-34380D01*
X-21860Y-34450D01*
X-21870Y-34510D01*
X-21880Y-34570D01*
X-21900Y-34640D01*
X-21920Y-34700D01*
X-21950Y-34760D01*
X-21980Y-34820D01*
X-22010Y-34870D01*
X-22040Y-34930D01*
X-22080Y-34980D01*
X-22120Y-35040D01*
X-22160Y-35090D01*
X-22210Y-35130D01*
X-22250Y-35180D01*
X-22300Y-35220D01*
X-22360Y-35260D01*
X-22410Y-35300D01*
X-22460Y-35330D01*
X-22520Y-35360D01*
X-22580Y-35390D01*
X-22640Y-35420D01*
X-22700Y-35440D01*
X-22770Y-35460D01*
X-22830Y-35470D01*
X-22890Y-35480D01*
X-22960Y-35490D01*
X-23020Y-35500D01*
X-27560D01*
X-27620Y-35490D01*
X-27690Y-35480D01*
X-27750Y-35470D01*
X-27810Y-35460D01*
X-27880Y-35440D01*
X-27940Y-35420D01*
X-28000Y-35390D01*
X-28060Y-35360D01*
X-28120Y-35330D01*
X-28170Y-35300D01*
X-28220Y-35260D01*
X-28280Y-35220D01*
X-28330Y-35180D01*
X-28370Y-35130D01*
X-28420Y-35090D01*
X-28460Y-35040D01*
X-28500Y-34980D01*
X-28540Y-34930D01*
X-28570Y-34870D01*
X-28600Y-34820D01*
X-28630Y-34760D01*
X-28660Y-34700D01*
X-28680Y-34640D01*
X-28700Y-34570D01*
X-28710Y-34510D01*
X-28720Y-34450D01*
X-28730Y-34380D01*
X-28740Y-34320D01*
Y-34250D01*
Y-32250D01*
Y-32180D01*
X-28730Y-32120D01*
X-28720Y-32050D01*
X-28710Y-31990D01*
X-28700Y-31930D01*
X-28680Y-31860D01*
X-28660Y-31800D01*
X-28630Y-31740D01*
X-28600Y-31680D01*
X-28570Y-31630D01*
X-28540Y-31570D01*
X-28500Y-31520D01*
X-28460Y-31460D01*
X-28420Y-31410D01*
X-28370Y-31370D01*
X-28330Y-31320D01*
X-28280Y-31280D01*
X-28220Y-31240D01*
X-28170Y-31200D01*
X-28120Y-31170D01*
X-28060Y-31140D01*
X-28000Y-31110D01*
X-27940Y-31080D01*
X-27880Y-31060D01*
X-27810Y-31040D01*
X-27750Y-31030D01*
X-27690Y-31020D01*
X-27620Y-31010D01*
X-27560Y-31000D01*
X-23020D01*
X-22960Y-31010D01*
D02*
G37*
G36*
X-46260D02*
X-46190Y-31020D01*
X-46130Y-31030D01*
X-46070Y-31040D01*
X-46000Y-31060D01*
X-45940Y-31080D01*
X-45880Y-31110D01*
X-45820Y-31140D01*
X-45760Y-31170D01*
X-45710Y-31200D01*
X-45660Y-31240D01*
X-45600Y-31280D01*
X-45550Y-31320D01*
X-45510Y-31370D01*
X-45460Y-31410D01*
X-45420Y-31460D01*
X-45380Y-31520D01*
X-45340Y-31570D01*
X-45310Y-31630D01*
X-45280Y-31680D01*
X-45250Y-31740D01*
X-45220Y-31800D01*
X-45200Y-31860D01*
X-45180Y-31930D01*
X-45170Y-31990D01*
X-45160Y-32050D01*
X-45150Y-32120D01*
X-45140Y-32180D01*
Y-32250D01*
Y-34250D01*
Y-34320D01*
X-45150Y-34380D01*
X-45160Y-34450D01*
X-45170Y-34510D01*
X-45180Y-34570D01*
X-45200Y-34640D01*
X-45220Y-34700D01*
X-45250Y-34760D01*
X-45280Y-34820D01*
X-45310Y-34870D01*
X-45340Y-34930D01*
X-45380Y-34980D01*
X-45420Y-35040D01*
X-45460Y-35090D01*
X-45510Y-35130D01*
X-45550Y-35180D01*
X-45600Y-35220D01*
X-45660Y-35260D01*
X-45710Y-35300D01*
X-45760Y-35330D01*
X-45820Y-35360D01*
X-45880Y-35390D01*
X-45940Y-35420D01*
X-46000Y-35440D01*
X-46070Y-35460D01*
X-46130Y-35470D01*
X-46190Y-35480D01*
X-46260Y-35490D01*
X-46320Y-35500D01*
X-50860D01*
X-50920Y-35490D01*
X-50990Y-35480D01*
X-51050Y-35470D01*
X-51110Y-35460D01*
X-51180Y-35440D01*
X-51240Y-35420D01*
X-51300Y-35390D01*
X-51360Y-35360D01*
X-51420Y-35330D01*
X-51470Y-35300D01*
X-51520Y-35260D01*
X-51580Y-35220D01*
X-51630Y-35180D01*
X-51670Y-35130D01*
X-51720Y-35090D01*
X-51760Y-35040D01*
X-51800Y-34980D01*
X-51840Y-34930D01*
X-51870Y-34870D01*
X-51900Y-34820D01*
X-51930Y-34760D01*
X-51960Y-34700D01*
X-51980Y-34640D01*
X-52000Y-34570D01*
X-52010Y-34510D01*
X-52020Y-34450D01*
X-52030Y-34380D01*
X-52040Y-34320D01*
Y-34250D01*
Y-32250D01*
Y-32180D01*
X-52030Y-32120D01*
X-52020Y-32050D01*
X-52010Y-31990D01*
X-52000Y-31930D01*
X-51980Y-31860D01*
X-51960Y-31800D01*
X-51930Y-31740D01*
X-51900Y-31680D01*
X-51870Y-31630D01*
X-51840Y-31570D01*
X-51800Y-31520D01*
X-51760Y-31460D01*
X-51720Y-31410D01*
X-51670Y-31370D01*
X-51630Y-31320D01*
X-51580Y-31280D01*
X-51520Y-31240D01*
X-51470Y-31200D01*
X-51420Y-31170D01*
X-51360Y-31140D01*
X-51300Y-31110D01*
X-51240Y-31080D01*
X-51180Y-31060D01*
X-51110Y-31040D01*
X-51050Y-31030D01*
X-50990Y-31020D01*
X-50920Y-31010D01*
X-50860Y-31000D01*
X-46320D01*
X-46260Y-31010D01*
D02*
G37*
G36*
X-22960Y-36010D02*
X-22890Y-36020D01*
X-22830Y-36030D01*
X-22770Y-36040D01*
X-22700Y-36060D01*
X-22640Y-36080D01*
X-22580Y-36110D01*
X-22520Y-36140D01*
X-22460Y-36170D01*
X-22410Y-36200D01*
X-22360Y-36240D01*
X-22300Y-36280D01*
X-22250Y-36320D01*
X-22210Y-36370D01*
X-22160Y-36410D01*
X-22120Y-36460D01*
X-22080Y-36520D01*
X-22040Y-36570D01*
X-22010Y-36630D01*
X-21980Y-36680D01*
X-21950Y-36740D01*
X-21920Y-36800D01*
X-21900Y-36860D01*
X-21880Y-36930D01*
X-21870Y-36990D01*
X-21860Y-37050D01*
X-21850Y-37120D01*
X-21840Y-37180D01*
Y-37250D01*
Y-39250D01*
Y-39320D01*
X-21850Y-39380D01*
X-21860Y-39450D01*
X-21870Y-39510D01*
X-21880Y-39570D01*
X-21900Y-39640D01*
X-21920Y-39700D01*
X-21950Y-39760D01*
X-21980Y-39820D01*
X-22010Y-39870D01*
X-22040Y-39930D01*
X-22080Y-39980D01*
X-22120Y-40040D01*
X-22160Y-40090D01*
X-22210Y-40130D01*
X-22250Y-40180D01*
X-22300Y-40220D01*
X-22360Y-40260D01*
X-22410Y-40300D01*
X-22460Y-40330D01*
X-22520Y-40360D01*
X-22580Y-40390D01*
X-22640Y-40420D01*
X-22700Y-40440D01*
X-22770Y-40460D01*
X-22830Y-40470D01*
X-22890Y-40480D01*
X-22960Y-40490D01*
X-23020Y-40500D01*
X-27560D01*
X-27620Y-40490D01*
X-27690Y-40480D01*
X-27750Y-40470D01*
X-27810Y-40460D01*
X-27880Y-40440D01*
X-27940Y-40420D01*
X-28000Y-40390D01*
X-28060Y-40360D01*
X-28120Y-40330D01*
X-28170Y-40300D01*
X-28220Y-40260D01*
X-28280Y-40220D01*
X-28330Y-40180D01*
X-28370Y-40130D01*
X-28420Y-40090D01*
X-28460Y-40040D01*
X-28500Y-39980D01*
X-28540Y-39930D01*
X-28570Y-39870D01*
X-28600Y-39820D01*
X-28630Y-39760D01*
X-28660Y-39700D01*
X-28680Y-39640D01*
X-28700Y-39570D01*
X-28710Y-39510D01*
X-28720Y-39450D01*
X-28730Y-39380D01*
X-28740Y-39320D01*
Y-39250D01*
Y-37250D01*
Y-37180D01*
X-28730Y-37120D01*
X-28720Y-37050D01*
X-28710Y-36990D01*
X-28700Y-36930D01*
X-28680Y-36860D01*
X-28660Y-36800D01*
X-28630Y-36740D01*
X-28600Y-36680D01*
X-28570Y-36630D01*
X-28540Y-36570D01*
X-28500Y-36520D01*
X-28460Y-36460D01*
X-28420Y-36410D01*
X-28370Y-36370D01*
X-28330Y-36320D01*
X-28280Y-36280D01*
X-28220Y-36240D01*
X-28170Y-36200D01*
X-28120Y-36170D01*
X-28060Y-36140D01*
X-28000Y-36110D01*
X-27940Y-36080D01*
X-27880Y-36060D01*
X-27810Y-36040D01*
X-27750Y-36030D01*
X-27690Y-36020D01*
X-27620Y-36010D01*
X-27560Y-36000D01*
X-23020D01*
X-22960Y-36010D01*
D02*
G37*
G36*
X-46260D02*
X-46190Y-36020D01*
X-46130Y-36030D01*
X-46070Y-36040D01*
X-46000Y-36060D01*
X-45940Y-36080D01*
X-45880Y-36110D01*
X-45820Y-36140D01*
X-45760Y-36170D01*
X-45710Y-36200D01*
X-45660Y-36240D01*
X-45600Y-36280D01*
X-45550Y-36320D01*
X-45510Y-36370D01*
X-45460Y-36410D01*
X-45420Y-36460D01*
X-45380Y-36520D01*
X-45340Y-36570D01*
X-45310Y-36630D01*
X-45280Y-36680D01*
X-45250Y-36740D01*
X-45220Y-36800D01*
X-45200Y-36860D01*
X-45180Y-36930D01*
X-45170Y-36990D01*
X-45160Y-37050D01*
X-45150Y-37120D01*
X-45140Y-37180D01*
Y-37250D01*
Y-39250D01*
Y-39320D01*
X-45150Y-39380D01*
X-45160Y-39450D01*
X-45170Y-39510D01*
X-45180Y-39570D01*
X-45200Y-39640D01*
X-45220Y-39700D01*
X-45250Y-39760D01*
X-45280Y-39820D01*
X-45310Y-39870D01*
X-45340Y-39930D01*
X-45380Y-39980D01*
X-45420Y-40040D01*
X-45460Y-40090D01*
X-45510Y-40130D01*
X-45550Y-40180D01*
X-45600Y-40220D01*
X-45660Y-40260D01*
X-45710Y-40300D01*
X-45760Y-40330D01*
X-45820Y-40360D01*
X-45880Y-40390D01*
X-45940Y-40420D01*
X-46000Y-40440D01*
X-46070Y-40460D01*
X-46130Y-40470D01*
X-46190Y-40480D01*
X-46260Y-40490D01*
X-46320Y-40500D01*
X-50860D01*
X-50920Y-40490D01*
X-50990Y-40480D01*
X-51050Y-40470D01*
X-51110Y-40460D01*
X-51180Y-40440D01*
X-51240Y-40420D01*
X-51300Y-40390D01*
X-51360Y-40360D01*
X-51420Y-40330D01*
X-51470Y-40300D01*
X-51520Y-40260D01*
X-51580Y-40220D01*
X-51630Y-40180D01*
X-51670Y-40130D01*
X-51720Y-40090D01*
X-51760Y-40040D01*
X-51800Y-39980D01*
X-51840Y-39930D01*
X-51870Y-39870D01*
X-51900Y-39820D01*
X-51930Y-39760D01*
X-51960Y-39700D01*
X-51980Y-39640D01*
X-52000Y-39570D01*
X-52010Y-39510D01*
X-52020Y-39450D01*
X-52030Y-39380D01*
X-52040Y-39320D01*
Y-39250D01*
Y-37250D01*
Y-37180D01*
X-52030Y-37120D01*
X-52020Y-37050D01*
X-52010Y-36990D01*
X-52000Y-36930D01*
X-51980Y-36860D01*
X-51960Y-36800D01*
X-51930Y-36740D01*
X-51900Y-36680D01*
X-51870Y-36630D01*
X-51840Y-36570D01*
X-51800Y-36520D01*
X-51760Y-36460D01*
X-51720Y-36410D01*
X-51670Y-36370D01*
X-51630Y-36320D01*
X-51580Y-36280D01*
X-51520Y-36240D01*
X-51470Y-36200D01*
X-51420Y-36170D01*
X-51360Y-36140D01*
X-51300Y-36110D01*
X-51240Y-36080D01*
X-51180Y-36060D01*
X-51110Y-36040D01*
X-51050Y-36030D01*
X-50990Y-36020D01*
X-50920Y-36010D01*
X-50860Y-36000D01*
X-46320D01*
X-46260Y-36010D01*
D02*
G37*
G36*
X-30810Y-36460D02*
X-30740Y-36470D01*
X-30680Y-36480D01*
X-30620Y-36490D01*
X-30550Y-36510D01*
X-30490Y-36530D01*
X-30430Y-36560D01*
X-30370Y-36590D01*
X-30320Y-36620D01*
X-30260Y-36650D01*
X-30210Y-36690D01*
X-30150Y-36730D01*
X-30100Y-36770D01*
X-30060Y-36820D01*
X-30010Y-36860D01*
X-29970Y-36910D01*
X-29930Y-36970D01*
X-29890Y-37020D01*
X-29860Y-37070D01*
X-29830Y-37130D01*
X-29800Y-37190D01*
X-29770Y-37250D01*
X-29750Y-37310D01*
X-29730Y-37380D01*
X-29720Y-37440D01*
X-29710Y-37500D01*
X-29700Y-37570D01*
X-29690Y-37630D01*
Y-37700D01*
Y-42100D01*
Y-42170D01*
X-29700Y-42230D01*
X-29710Y-42300D01*
X-29720Y-42360D01*
X-29730Y-42420D01*
X-29750Y-42490D01*
X-29770Y-42550D01*
X-29800Y-42610D01*
X-29830Y-42670D01*
X-29860Y-42730D01*
X-29890Y-42780D01*
X-29930Y-42830D01*
X-29970Y-42890D01*
X-30010Y-42940D01*
X-30060Y-42980D01*
X-30100Y-43030D01*
X-30150Y-43070D01*
X-30210Y-43110D01*
X-30260Y-43150D01*
X-30320Y-43180D01*
X-30370Y-43210D01*
X-30430Y-43240D01*
X-30490Y-43270D01*
X-30550Y-43290D01*
X-30620Y-43310D01*
X-30680Y-43320D01*
X-30740Y-43330D01*
X-30810Y-43340D01*
X-30870Y-43350D01*
X-33010D01*
X-33070Y-43340D01*
X-33140Y-43330D01*
X-33200Y-43320D01*
X-33260Y-43310D01*
X-33330Y-43290D01*
X-33390Y-43270D01*
X-33450Y-43240D01*
X-33510Y-43210D01*
X-33560Y-43180D01*
X-33620Y-43150D01*
X-33670Y-43110D01*
X-33730Y-43070D01*
X-33780Y-43030D01*
X-33820Y-42980D01*
X-33870Y-42940D01*
X-33910Y-42890D01*
X-33950Y-42830D01*
X-33990Y-42780D01*
X-34020Y-42730D01*
X-34050Y-42670D01*
X-34080Y-42610D01*
X-34110Y-42550D01*
X-34130Y-42490D01*
X-34150Y-42420D01*
X-34160Y-42360D01*
X-34170Y-42300D01*
X-34180Y-42230D01*
X-34190Y-42170D01*
Y-42100D01*
Y-37700D01*
Y-37630D01*
X-34180Y-37570D01*
X-34170Y-37500D01*
X-34160Y-37440D01*
X-34150Y-37380D01*
X-34130Y-37310D01*
X-34110Y-37250D01*
X-34080Y-37190D01*
X-34050Y-37130D01*
X-34020Y-37070D01*
X-33990Y-37020D01*
X-33950Y-36970D01*
X-33910Y-36910D01*
X-33870Y-36860D01*
X-33820Y-36820D01*
X-33780Y-36770D01*
X-33730Y-36730D01*
X-33670Y-36690D01*
X-33620Y-36650D01*
X-33570Y-36620D01*
X-33510Y-36590D01*
X-33450Y-36560D01*
X-33390Y-36530D01*
X-33330Y-36510D01*
X-33260Y-36490D01*
X-33200Y-36480D01*
X-33140Y-36470D01*
X-33070Y-36460D01*
X-33010Y-36450D01*
X-30870D01*
X-30810Y-36460D01*
D02*
G37*
G36*
X-35810D02*
X-35740Y-36470D01*
X-35680Y-36480D01*
X-35620Y-36490D01*
X-35550Y-36510D01*
X-35490Y-36530D01*
X-35430Y-36560D01*
X-35370Y-36590D01*
X-35310Y-36620D01*
X-35260Y-36650D01*
X-35210Y-36690D01*
X-35150Y-36730D01*
X-35100Y-36770D01*
X-35060Y-36820D01*
X-35010Y-36860D01*
X-34970Y-36910D01*
X-34930Y-36970D01*
X-34890Y-37020D01*
X-34860Y-37070D01*
X-34830Y-37130D01*
X-34800Y-37190D01*
X-34770Y-37250D01*
X-34750Y-37310D01*
X-34730Y-37380D01*
X-34720Y-37440D01*
X-34710Y-37500D01*
X-34700Y-37570D01*
X-34690Y-37630D01*
Y-37700D01*
Y-42100D01*
Y-42170D01*
X-34700Y-42230D01*
X-34710Y-42300D01*
X-34720Y-42360D01*
X-34730Y-42420D01*
X-34750Y-42490D01*
X-34770Y-42550D01*
X-34800Y-42610D01*
X-34830Y-42670D01*
X-34860Y-42730D01*
X-34890Y-42780D01*
X-34930Y-42830D01*
X-34970Y-42890D01*
X-35010Y-42940D01*
X-35060Y-42980D01*
X-35100Y-43030D01*
X-35150Y-43070D01*
X-35210Y-43110D01*
X-35260Y-43150D01*
X-35310Y-43180D01*
X-35370Y-43210D01*
X-35430Y-43240D01*
X-35490Y-43270D01*
X-35550Y-43290D01*
X-35620Y-43310D01*
X-35680Y-43320D01*
X-35740Y-43330D01*
X-35810Y-43340D01*
X-35870Y-43350D01*
X-38010D01*
X-38070Y-43340D01*
X-38140Y-43330D01*
X-38200Y-43320D01*
X-38260Y-43310D01*
X-38330Y-43290D01*
X-38390Y-43270D01*
X-38450Y-43240D01*
X-38510Y-43210D01*
X-38560Y-43180D01*
X-38620Y-43150D01*
X-38670Y-43110D01*
X-38730Y-43070D01*
X-38780Y-43030D01*
X-38820Y-42980D01*
X-38870Y-42940D01*
X-38910Y-42890D01*
X-38950Y-42830D01*
X-38990Y-42780D01*
X-39020Y-42730D01*
X-39050Y-42670D01*
X-39080Y-42610D01*
X-39110Y-42550D01*
X-39130Y-42490D01*
X-39150Y-42420D01*
X-39160Y-42360D01*
X-39170Y-42300D01*
X-39180Y-42230D01*
X-39190Y-42170D01*
Y-42100D01*
Y-37700D01*
Y-37630D01*
X-39180Y-37570D01*
X-39170Y-37500D01*
X-39160Y-37440D01*
X-39150Y-37380D01*
X-39130Y-37310D01*
X-39110Y-37250D01*
X-39080Y-37190D01*
X-39050Y-37130D01*
X-39020Y-37070D01*
X-38990Y-37020D01*
X-38950Y-36970D01*
X-38910Y-36910D01*
X-38870Y-36860D01*
X-38820Y-36820D01*
X-38780Y-36770D01*
X-38730Y-36730D01*
X-38670Y-36690D01*
X-38620Y-36650D01*
X-38570Y-36620D01*
X-38510Y-36590D01*
X-38450Y-36560D01*
X-38390Y-36530D01*
X-38330Y-36510D01*
X-38260Y-36490D01*
X-38200Y-36480D01*
X-38140Y-36470D01*
X-38070Y-36460D01*
X-38010Y-36450D01*
X-35870D01*
X-35810Y-36460D01*
D02*
G37*
G36*
X-40810D02*
X-40740Y-36470D01*
X-40680Y-36480D01*
X-40620Y-36490D01*
X-40550Y-36510D01*
X-40490Y-36530D01*
X-40430Y-36560D01*
X-40370Y-36590D01*
X-40320Y-36620D01*
X-40260Y-36650D01*
X-40210Y-36690D01*
X-40150Y-36730D01*
X-40100Y-36770D01*
X-40060Y-36820D01*
X-40010Y-36860D01*
X-39970Y-36910D01*
X-39930Y-36970D01*
X-39890Y-37020D01*
X-39860Y-37070D01*
X-39830Y-37130D01*
X-39800Y-37190D01*
X-39770Y-37250D01*
X-39750Y-37310D01*
X-39730Y-37380D01*
X-39720Y-37440D01*
X-39710Y-37500D01*
X-39700Y-37570D01*
X-39690Y-37630D01*
Y-37700D01*
Y-42100D01*
Y-42170D01*
X-39700Y-42230D01*
X-39710Y-42300D01*
X-39720Y-42360D01*
X-39730Y-42420D01*
X-39750Y-42490D01*
X-39770Y-42550D01*
X-39800Y-42610D01*
X-39830Y-42670D01*
X-39860Y-42730D01*
X-39890Y-42780D01*
X-39930Y-42830D01*
X-39970Y-42890D01*
X-40010Y-42940D01*
X-40060Y-42980D01*
X-40100Y-43030D01*
X-40150Y-43070D01*
X-40210Y-43110D01*
X-40260Y-43150D01*
X-40320Y-43180D01*
X-40370Y-43210D01*
X-40430Y-43240D01*
X-40490Y-43270D01*
X-40550Y-43290D01*
X-40620Y-43310D01*
X-40680Y-43320D01*
X-40740Y-43330D01*
X-40810Y-43340D01*
X-40870Y-43350D01*
X-43010D01*
X-43070Y-43340D01*
X-43140Y-43330D01*
X-43200Y-43320D01*
X-43260Y-43310D01*
X-43330Y-43290D01*
X-43390Y-43270D01*
X-43450Y-43240D01*
X-43510Y-43210D01*
X-43560Y-43180D01*
X-43620Y-43150D01*
X-43670Y-43110D01*
X-43730Y-43070D01*
X-43780Y-43030D01*
X-43820Y-42980D01*
X-43870Y-42940D01*
X-43910Y-42890D01*
X-43950Y-42830D01*
X-43990Y-42780D01*
X-44020Y-42730D01*
X-44050Y-42670D01*
X-44080Y-42610D01*
X-44110Y-42550D01*
X-44130Y-42490D01*
X-44150Y-42420D01*
X-44160Y-42360D01*
X-44170Y-42300D01*
X-44180Y-42230D01*
X-44190Y-42170D01*
Y-42100D01*
Y-37700D01*
Y-37630D01*
X-44180Y-37570D01*
X-44170Y-37500D01*
X-44160Y-37440D01*
X-44150Y-37380D01*
X-44130Y-37310D01*
X-44110Y-37250D01*
X-44080Y-37190D01*
X-44050Y-37130D01*
X-44020Y-37070D01*
X-43990Y-37020D01*
X-43950Y-36970D01*
X-43910Y-36910D01*
X-43870Y-36860D01*
X-43820Y-36820D01*
X-43780Y-36770D01*
X-43730Y-36730D01*
X-43670Y-36690D01*
X-43620Y-36650D01*
X-43570Y-36620D01*
X-43510Y-36590D01*
X-43450Y-36560D01*
X-43390Y-36530D01*
X-43330Y-36510D01*
X-43260Y-36490D01*
X-43200Y-36480D01*
X-43140Y-36470D01*
X-43070Y-36460D01*
X-43010Y-36450D01*
X-40870D01*
X-40810Y-36460D01*
D02*
G37*
G36*
X-30810Y41650D02*
X-30740Y41640D01*
X-30680Y41630D01*
X-30620Y41620D01*
X-30550Y41600D01*
X-30490Y41580D01*
X-30430Y41550D01*
X-30370Y41520D01*
X-30320Y41490D01*
X-30260Y41460D01*
X-30210Y41420D01*
X-30150Y41380D01*
X-30100Y41340D01*
X-30060Y41290D01*
X-30010Y41250D01*
X-29970Y41200D01*
X-29930Y41140D01*
X-29890Y41090D01*
X-29860Y41040D01*
X-29830Y40980D01*
X-29800Y40920D01*
X-29770Y40860D01*
X-29750Y40800D01*
X-29730Y40730D01*
X-29720Y40670D01*
X-29710Y40610D01*
X-29700Y40540D01*
X-29690Y40480D01*
Y40410D01*
Y36010D01*
Y35940D01*
X-29700Y35880D01*
X-29710Y35810D01*
X-29720Y35750D01*
X-29730Y35690D01*
X-29750Y35620D01*
X-29770Y35560D01*
X-29800Y35500D01*
X-29830Y35440D01*
X-29860Y35380D01*
X-29890Y35330D01*
X-29930Y35280D01*
X-29970Y35220D01*
X-30010Y35170D01*
X-30060Y35130D01*
X-30100Y35080D01*
X-30150Y35040D01*
X-30210Y35000D01*
X-30260Y34960D01*
X-30320Y34930D01*
X-30370Y34900D01*
X-30430Y34870D01*
X-30490Y34840D01*
X-30550Y34820D01*
X-30620Y34800D01*
X-30680Y34790D01*
X-30740Y34780D01*
X-30810Y34770D01*
X-30870Y34760D01*
X-33010D01*
X-33070Y34770D01*
X-33140Y34780D01*
X-33200Y34790D01*
X-33260Y34800D01*
X-33330Y34820D01*
X-33390Y34840D01*
X-33450Y34870D01*
X-33510Y34900D01*
X-33560Y34930D01*
X-33620Y34960D01*
X-33670Y35000D01*
X-33730Y35040D01*
X-33780Y35080D01*
X-33820Y35130D01*
X-33870Y35170D01*
X-33910Y35220D01*
X-33950Y35280D01*
X-33990Y35330D01*
X-34020Y35380D01*
X-34050Y35440D01*
X-34080Y35500D01*
X-34110Y35560D01*
X-34130Y35620D01*
X-34150Y35690D01*
X-34160Y35750D01*
X-34170Y35810D01*
X-34180Y35880D01*
X-34190Y35940D01*
Y36010D01*
Y40410D01*
Y40480D01*
X-34180Y40540D01*
X-34170Y40610D01*
X-34160Y40670D01*
X-34150Y40730D01*
X-34130Y40800D01*
X-34110Y40860D01*
X-34080Y40920D01*
X-34050Y40980D01*
X-34020Y41040D01*
X-33990Y41090D01*
X-33950Y41140D01*
X-33910Y41200D01*
X-33870Y41250D01*
X-33820Y41290D01*
X-33780Y41340D01*
X-33730Y41380D01*
X-33670Y41420D01*
X-33620Y41460D01*
X-33570Y41490D01*
X-33510Y41520D01*
X-33450Y41550D01*
X-33390Y41580D01*
X-33330Y41600D01*
X-33260Y41620D01*
X-33200Y41630D01*
X-33140Y41640D01*
X-33070Y41650D01*
X-33010Y41660D01*
X-30870D01*
X-30810Y41650D01*
D02*
G37*
G36*
X-35810D02*
X-35740Y41640D01*
X-35680Y41630D01*
X-35620Y41620D01*
X-35550Y41600D01*
X-35490Y41580D01*
X-35430Y41550D01*
X-35370Y41520D01*
X-35310Y41490D01*
X-35260Y41460D01*
X-35210Y41420D01*
X-35150Y41380D01*
X-35100Y41340D01*
X-35060Y41290D01*
X-35010Y41250D01*
X-34970Y41200D01*
X-34930Y41140D01*
X-34890Y41090D01*
X-34860Y41040D01*
X-34830Y40980D01*
X-34800Y40920D01*
X-34770Y40860D01*
X-34750Y40800D01*
X-34730Y40730D01*
X-34720Y40670D01*
X-34710Y40610D01*
X-34700Y40540D01*
X-34690Y40480D01*
Y40410D01*
Y36010D01*
Y35940D01*
X-34700Y35880D01*
X-34710Y35810D01*
X-34720Y35750D01*
X-34730Y35690D01*
X-34750Y35620D01*
X-34770Y35560D01*
X-34800Y35500D01*
X-34830Y35440D01*
X-34860Y35380D01*
X-34890Y35330D01*
X-34930Y35280D01*
X-34970Y35220D01*
X-35010Y35170D01*
X-35060Y35130D01*
X-35100Y35080D01*
X-35150Y35040D01*
X-35210Y35000D01*
X-35260Y34960D01*
X-35310Y34930D01*
X-35370Y34900D01*
X-35430Y34870D01*
X-35490Y34840D01*
X-35550Y34820D01*
X-35620Y34800D01*
X-35680Y34790D01*
X-35740Y34780D01*
X-35810Y34770D01*
X-35870Y34760D01*
X-38010D01*
X-38070Y34770D01*
X-38140Y34780D01*
X-38200Y34790D01*
X-38260Y34800D01*
X-38330Y34820D01*
X-38390Y34840D01*
X-38450Y34870D01*
X-38510Y34900D01*
X-38560Y34930D01*
X-38620Y34960D01*
X-38670Y35000D01*
X-38730Y35040D01*
X-38780Y35080D01*
X-38820Y35130D01*
X-38870Y35170D01*
X-38910Y35220D01*
X-38950Y35280D01*
X-38990Y35330D01*
X-39020Y35380D01*
X-39050Y35440D01*
X-39080Y35500D01*
X-39110Y35560D01*
X-39130Y35620D01*
X-39150Y35690D01*
X-39160Y35750D01*
X-39170Y35810D01*
X-39180Y35880D01*
X-39190Y35940D01*
Y36010D01*
Y40410D01*
Y40480D01*
X-39180Y40540D01*
X-39170Y40610D01*
X-39160Y40670D01*
X-39150Y40730D01*
X-39130Y40800D01*
X-39110Y40860D01*
X-39080Y40920D01*
X-39050Y40980D01*
X-39020Y41040D01*
X-38990Y41090D01*
X-38950Y41140D01*
X-38910Y41200D01*
X-38870Y41250D01*
X-38820Y41290D01*
X-38780Y41340D01*
X-38730Y41380D01*
X-38670Y41420D01*
X-38620Y41460D01*
X-38570Y41490D01*
X-38510Y41520D01*
X-38450Y41550D01*
X-38390Y41580D01*
X-38330Y41600D01*
X-38260Y41620D01*
X-38200Y41630D01*
X-38140Y41640D01*
X-38070Y41650D01*
X-38010Y41660D01*
X-35870D01*
X-35810Y41650D01*
D02*
G37*
G36*
X-40810D02*
X-40740Y41640D01*
X-40680Y41630D01*
X-40620Y41620D01*
X-40550Y41600D01*
X-40490Y41580D01*
X-40430Y41550D01*
X-40370Y41520D01*
X-40320Y41490D01*
X-40260Y41460D01*
X-40210Y41420D01*
X-40150Y41380D01*
X-40100Y41340D01*
X-40060Y41290D01*
X-40010Y41250D01*
X-39970Y41200D01*
X-39930Y41140D01*
X-39890Y41090D01*
X-39860Y41040D01*
X-39830Y40980D01*
X-39800Y40920D01*
X-39770Y40860D01*
X-39750Y40800D01*
X-39730Y40730D01*
X-39720Y40670D01*
X-39710Y40610D01*
X-39700Y40540D01*
X-39690Y40480D01*
Y40410D01*
Y36010D01*
Y35940D01*
X-39700Y35880D01*
X-39710Y35810D01*
X-39720Y35750D01*
X-39730Y35690D01*
X-39750Y35620D01*
X-39770Y35560D01*
X-39800Y35500D01*
X-39830Y35440D01*
X-39860Y35380D01*
X-39890Y35330D01*
X-39930Y35280D01*
X-39970Y35220D01*
X-40010Y35170D01*
X-40060Y35130D01*
X-40100Y35080D01*
X-40150Y35040D01*
X-40210Y35000D01*
X-40260Y34960D01*
X-40320Y34930D01*
X-40370Y34900D01*
X-40430Y34870D01*
X-40490Y34840D01*
X-40550Y34820D01*
X-40620Y34800D01*
X-40680Y34790D01*
X-40740Y34780D01*
X-40810Y34770D01*
X-40870Y34760D01*
X-43010D01*
X-43070Y34770D01*
X-43140Y34780D01*
X-43200Y34790D01*
X-43260Y34800D01*
X-43330Y34820D01*
X-43390Y34840D01*
X-43450Y34870D01*
X-43510Y34900D01*
X-43560Y34930D01*
X-43620Y34960D01*
X-43670Y35000D01*
X-43730Y35040D01*
X-43780Y35080D01*
X-43820Y35130D01*
X-43870Y35170D01*
X-43910Y35220D01*
X-43950Y35280D01*
X-43990Y35330D01*
X-44020Y35380D01*
X-44050Y35440D01*
X-44080Y35500D01*
X-44110Y35560D01*
X-44130Y35620D01*
X-44150Y35690D01*
X-44160Y35750D01*
X-44170Y35810D01*
X-44180Y35880D01*
X-44190Y35940D01*
Y36010D01*
Y40410D01*
Y40480D01*
X-44180Y40540D01*
X-44170Y40610D01*
X-44160Y40670D01*
X-44150Y40730D01*
X-44130Y40800D01*
X-44110Y40860D01*
X-44080Y40920D01*
X-44050Y40980D01*
X-44020Y41040D01*
X-43990Y41090D01*
X-43950Y41140D01*
X-43910Y41200D01*
X-43870Y41250D01*
X-43820Y41290D01*
X-43780Y41340D01*
X-43730Y41380D01*
X-43670Y41420D01*
X-43620Y41460D01*
X-43570Y41490D01*
X-43510Y41520D01*
X-43450Y41550D01*
X-43390Y41580D01*
X-43330Y41600D01*
X-43260Y41620D01*
X-43200Y41630D01*
X-43140Y41640D01*
X-43070Y41650D01*
X-43010Y41660D01*
X-40870D01*
X-40810Y41650D01*
D02*
G37*
G36*
X-22960Y38800D02*
X-22890Y38790D01*
X-22830Y38780D01*
X-22770Y38770D01*
X-22700Y38750D01*
X-22640Y38730D01*
X-22580Y38700D01*
X-22520Y38670D01*
X-22460Y38640D01*
X-22410Y38610D01*
X-22360Y38570D01*
X-22300Y38530D01*
X-22250Y38490D01*
X-22210Y38440D01*
X-22160Y38400D01*
X-22120Y38350D01*
X-22080Y38290D01*
X-22040Y38240D01*
X-22010Y38180D01*
X-21980Y38130D01*
X-21950Y38070D01*
X-21920Y38010D01*
X-21900Y37950D01*
X-21880Y37880D01*
X-21870Y37820D01*
X-21860Y37760D01*
X-21850Y37690D01*
X-21840Y37630D01*
Y37560D01*
Y35560D01*
Y35490D01*
X-21850Y35430D01*
X-21860Y35360D01*
X-21870Y35300D01*
X-21880Y35240D01*
X-21900Y35170D01*
X-21920Y35110D01*
X-21950Y35050D01*
X-21980Y34990D01*
X-22010Y34940D01*
X-22040Y34880D01*
X-22080Y34830D01*
X-22120Y34770D01*
X-22160Y34720D01*
X-22210Y34680D01*
X-22250Y34630D01*
X-22300Y34590D01*
X-22360Y34550D01*
X-22410Y34510D01*
X-22460Y34480D01*
X-22520Y34450D01*
X-22580Y34420D01*
X-22640Y34390D01*
X-22700Y34370D01*
X-22770Y34350D01*
X-22830Y34340D01*
X-22890Y34330D01*
X-22960Y34320D01*
X-23020Y34310D01*
X-27560D01*
X-27620Y34320D01*
X-27690Y34330D01*
X-27750Y34340D01*
X-27810Y34350D01*
X-27880Y34370D01*
X-27940Y34390D01*
X-28000Y34420D01*
X-28060Y34450D01*
X-28120Y34480D01*
X-28170Y34510D01*
X-28220Y34550D01*
X-28280Y34590D01*
X-28330Y34630D01*
X-28370Y34680D01*
X-28420Y34720D01*
X-28460Y34770D01*
X-28500Y34830D01*
X-28540Y34880D01*
X-28570Y34940D01*
X-28600Y34990D01*
X-28630Y35050D01*
X-28660Y35110D01*
X-28680Y35170D01*
X-28700Y35240D01*
X-28710Y35300D01*
X-28720Y35360D01*
X-28730Y35430D01*
X-28740Y35490D01*
Y35560D01*
Y37560D01*
Y37630D01*
X-28730Y37690D01*
X-28720Y37760D01*
X-28710Y37820D01*
X-28700Y37880D01*
X-28680Y37950D01*
X-28660Y38010D01*
X-28630Y38070D01*
X-28600Y38130D01*
X-28570Y38180D01*
X-28540Y38240D01*
X-28500Y38290D01*
X-28460Y38350D01*
X-28420Y38400D01*
X-28370Y38440D01*
X-28330Y38490D01*
X-28280Y38530D01*
X-28220Y38570D01*
X-28170Y38610D01*
X-28120Y38640D01*
X-28060Y38670D01*
X-28000Y38700D01*
X-27940Y38730D01*
X-27880Y38750D01*
X-27810Y38770D01*
X-27750Y38780D01*
X-27690Y38790D01*
X-27620Y38800D01*
X-27560Y38810D01*
X-23020D01*
X-22960Y38800D01*
D02*
G37*
G36*
X-46260D02*
X-46190Y38790D01*
X-46130Y38780D01*
X-46070Y38770D01*
X-46000Y38750D01*
X-45940Y38730D01*
X-45880Y38700D01*
X-45820Y38670D01*
X-45760Y38640D01*
X-45710Y38610D01*
X-45660Y38570D01*
X-45600Y38530D01*
X-45550Y38490D01*
X-45510Y38440D01*
X-45460Y38400D01*
X-45420Y38350D01*
X-45380Y38290D01*
X-45340Y38240D01*
X-45310Y38180D01*
X-45280Y38130D01*
X-45250Y38070D01*
X-45220Y38010D01*
X-45200Y37950D01*
X-45180Y37880D01*
X-45170Y37820D01*
X-45160Y37760D01*
X-45150Y37690D01*
X-45140Y37630D01*
Y37560D01*
Y35560D01*
Y35490D01*
X-45150Y35430D01*
X-45160Y35360D01*
X-45170Y35300D01*
X-45180Y35240D01*
X-45200Y35170D01*
X-45220Y35110D01*
X-45250Y35050D01*
X-45280Y34990D01*
X-45310Y34940D01*
X-45340Y34880D01*
X-45380Y34830D01*
X-45420Y34770D01*
X-45460Y34720D01*
X-45510Y34680D01*
X-45550Y34630D01*
X-45600Y34590D01*
X-45660Y34550D01*
X-45710Y34510D01*
X-45760Y34480D01*
X-45820Y34450D01*
X-45880Y34420D01*
X-45940Y34390D01*
X-46000Y34370D01*
X-46070Y34350D01*
X-46130Y34340D01*
X-46190Y34330D01*
X-46260Y34320D01*
X-46320Y34310D01*
X-50860D01*
X-50920Y34320D01*
X-50990Y34330D01*
X-51050Y34340D01*
X-51110Y34350D01*
X-51180Y34370D01*
X-51240Y34390D01*
X-51300Y34420D01*
X-51360Y34450D01*
X-51420Y34480D01*
X-51470Y34510D01*
X-51520Y34550D01*
X-51580Y34590D01*
X-51630Y34630D01*
X-51670Y34680D01*
X-51720Y34720D01*
X-51760Y34770D01*
X-51800Y34830D01*
X-51840Y34880D01*
X-51870Y34940D01*
X-51900Y34990D01*
X-51930Y35050D01*
X-51960Y35110D01*
X-51980Y35170D01*
X-52000Y35240D01*
X-52010Y35300D01*
X-52020Y35360D01*
X-52030Y35430D01*
X-52040Y35490D01*
Y35560D01*
Y37560D01*
Y37630D01*
X-52030Y37690D01*
X-52020Y37760D01*
X-52010Y37820D01*
X-52000Y37880D01*
X-51980Y37950D01*
X-51960Y38010D01*
X-51930Y38070D01*
X-51900Y38130D01*
X-51870Y38180D01*
X-51840Y38240D01*
X-51800Y38290D01*
X-51760Y38350D01*
X-51720Y38400D01*
X-51670Y38440D01*
X-51630Y38490D01*
X-51580Y38530D01*
X-51520Y38570D01*
X-51470Y38610D01*
X-51420Y38640D01*
X-51360Y38670D01*
X-51300Y38700D01*
X-51240Y38730D01*
X-51180Y38750D01*
X-51110Y38770D01*
X-51050Y38780D01*
X-50990Y38790D01*
X-50920Y38800D01*
X-50860Y38810D01*
X-46320D01*
X-46260Y38800D01*
D02*
G37*
G36*
X-22960Y33800D02*
X-22890Y33790D01*
X-22830Y33780D01*
X-22770Y33770D01*
X-22700Y33750D01*
X-22640Y33730D01*
X-22580Y33700D01*
X-22520Y33670D01*
X-22460Y33640D01*
X-22410Y33610D01*
X-22360Y33570D01*
X-22300Y33530D01*
X-22250Y33490D01*
X-22210Y33440D01*
X-22160Y33400D01*
X-22120Y33350D01*
X-22080Y33290D01*
X-22040Y33240D01*
X-22010Y33180D01*
X-21980Y33130D01*
X-21950Y33070D01*
X-21920Y33010D01*
X-21900Y32950D01*
X-21880Y32880D01*
X-21870Y32820D01*
X-21860Y32760D01*
X-21850Y32690D01*
X-21840Y32630D01*
Y32560D01*
Y30560D01*
Y30490D01*
X-21850Y30430D01*
X-21860Y30360D01*
X-21870Y30300D01*
X-21880Y30240D01*
X-21900Y30170D01*
X-21920Y30110D01*
X-21950Y30050D01*
X-21980Y29990D01*
X-22010Y29940D01*
X-22040Y29880D01*
X-22080Y29830D01*
X-22120Y29770D01*
X-22160Y29720D01*
X-22210Y29680D01*
X-22250Y29630D01*
X-22300Y29590D01*
X-22360Y29550D01*
X-22410Y29510D01*
X-22460Y29480D01*
X-22520Y29450D01*
X-22580Y29420D01*
X-22640Y29390D01*
X-22700Y29370D01*
X-22770Y29350D01*
X-22830Y29340D01*
X-22890Y29330D01*
X-22960Y29320D01*
X-23020Y29310D01*
X-27560D01*
X-27620Y29320D01*
X-27690Y29330D01*
X-27750Y29340D01*
X-27810Y29350D01*
X-27880Y29370D01*
X-27940Y29390D01*
X-28000Y29420D01*
X-28060Y29450D01*
X-28120Y29480D01*
X-28170Y29510D01*
X-28220Y29550D01*
X-28280Y29590D01*
X-28330Y29630D01*
X-28370Y29680D01*
X-28420Y29720D01*
X-28460Y29770D01*
X-28500Y29830D01*
X-28540Y29880D01*
X-28570Y29940D01*
X-28600Y29990D01*
X-28630Y30050D01*
X-28660Y30110D01*
X-28680Y30170D01*
X-28700Y30240D01*
X-28710Y30300D01*
X-28720Y30360D01*
X-28730Y30430D01*
X-28740Y30490D01*
Y30560D01*
Y32560D01*
Y32630D01*
X-28730Y32690D01*
X-28720Y32760D01*
X-28710Y32820D01*
X-28700Y32880D01*
X-28680Y32950D01*
X-28660Y33010D01*
X-28630Y33070D01*
X-28600Y33130D01*
X-28570Y33180D01*
X-28540Y33240D01*
X-28500Y33290D01*
X-28460Y33350D01*
X-28420Y33400D01*
X-28370Y33440D01*
X-28330Y33490D01*
X-28280Y33530D01*
X-28220Y33570D01*
X-28170Y33610D01*
X-28120Y33640D01*
X-28060Y33670D01*
X-28000Y33700D01*
X-27940Y33730D01*
X-27880Y33750D01*
X-27810Y33770D01*
X-27750Y33780D01*
X-27690Y33790D01*
X-27620Y33800D01*
X-27560Y33810D01*
X-23020D01*
X-22960Y33800D01*
D02*
G37*
G36*
X-46260D02*
X-46190Y33790D01*
X-46130Y33780D01*
X-46070Y33770D01*
X-46000Y33750D01*
X-45940Y33730D01*
X-45880Y33700D01*
X-45820Y33670D01*
X-45760Y33640D01*
X-45710Y33610D01*
X-45660Y33570D01*
X-45600Y33530D01*
X-45550Y33490D01*
X-45510Y33440D01*
X-45460Y33400D01*
X-45420Y33350D01*
X-45380Y33290D01*
X-45340Y33240D01*
X-45310Y33180D01*
X-45280Y33130D01*
X-45250Y33070D01*
X-45220Y33010D01*
X-45200Y32950D01*
X-45180Y32880D01*
X-45170Y32820D01*
X-45160Y32760D01*
X-45150Y32690D01*
X-45140Y32630D01*
Y32560D01*
Y30560D01*
Y30490D01*
X-45150Y30430D01*
X-45160Y30360D01*
X-45170Y30300D01*
X-45180Y30240D01*
X-45200Y30170D01*
X-45220Y30110D01*
X-45250Y30050D01*
X-45280Y29990D01*
X-45310Y29940D01*
X-45340Y29880D01*
X-45380Y29830D01*
X-45420Y29770D01*
X-45460Y29720D01*
X-45510Y29680D01*
X-45550Y29630D01*
X-45600Y29590D01*
X-45660Y29550D01*
X-45710Y29510D01*
X-45760Y29480D01*
X-45820Y29450D01*
X-45880Y29420D01*
X-45940Y29390D01*
X-46000Y29370D01*
X-46070Y29350D01*
X-46130Y29340D01*
X-46190Y29330D01*
X-46260Y29320D01*
X-46320Y29310D01*
X-50860D01*
X-50920Y29320D01*
X-50990Y29330D01*
X-51050Y29340D01*
X-51110Y29350D01*
X-51180Y29370D01*
X-51240Y29390D01*
X-51300Y29420D01*
X-51360Y29450D01*
X-51420Y29480D01*
X-51470Y29510D01*
X-51520Y29550D01*
X-51580Y29590D01*
X-51630Y29630D01*
X-51670Y29680D01*
X-51720Y29720D01*
X-51760Y29770D01*
X-51800Y29830D01*
X-51840Y29880D01*
X-51870Y29940D01*
X-51900Y29990D01*
X-51930Y30050D01*
X-51960Y30110D01*
X-51980Y30170D01*
X-52000Y30240D01*
X-52010Y30300D01*
X-52020Y30360D01*
X-52030Y30430D01*
X-52040Y30490D01*
Y30560D01*
Y32560D01*
Y32630D01*
X-52030Y32690D01*
X-52020Y32760D01*
X-52010Y32820D01*
X-52000Y32880D01*
X-51980Y32950D01*
X-51960Y33010D01*
X-51930Y33070D01*
X-51900Y33130D01*
X-51870Y33180D01*
X-51840Y33240D01*
X-51800Y33290D01*
X-51760Y33350D01*
X-51720Y33400D01*
X-51670Y33440D01*
X-51630Y33490D01*
X-51580Y33530D01*
X-51520Y33570D01*
X-51470Y33610D01*
X-51420Y33640D01*
X-51360Y33670D01*
X-51300Y33700D01*
X-51240Y33730D01*
X-51180Y33750D01*
X-51110Y33770D01*
X-51050Y33780D01*
X-50990Y33790D01*
X-50920Y33800D01*
X-50860Y33810D01*
X-46320D01*
X-46260Y33800D01*
D02*
G37*
G36*
X-22960Y28800D02*
X-22890Y28790D01*
X-22830Y28780D01*
X-22770Y28770D01*
X-22700Y28750D01*
X-22640Y28730D01*
X-22580Y28700D01*
X-22520Y28670D01*
X-22460Y28640D01*
X-22410Y28610D01*
X-22360Y28570D01*
X-22300Y28530D01*
X-22250Y28490D01*
X-22210Y28440D01*
X-22160Y28400D01*
X-22120Y28350D01*
X-22080Y28290D01*
X-22040Y28240D01*
X-22010Y28180D01*
X-21980Y28130D01*
X-21950Y28070D01*
X-21920Y28010D01*
X-21900Y27950D01*
X-21880Y27880D01*
X-21870Y27820D01*
X-21860Y27760D01*
X-21850Y27690D01*
X-21840Y27630D01*
Y27560D01*
Y25560D01*
Y25490D01*
X-21850Y25430D01*
X-21860Y25360D01*
X-21870Y25300D01*
X-21880Y25240D01*
X-21900Y25170D01*
X-21920Y25110D01*
X-21950Y25050D01*
X-21980Y24990D01*
X-22010Y24940D01*
X-22040Y24880D01*
X-22080Y24830D01*
X-22120Y24770D01*
X-22160Y24720D01*
X-22210Y24680D01*
X-22250Y24630D01*
X-22300Y24590D01*
X-22360Y24550D01*
X-22410Y24510D01*
X-22460Y24480D01*
X-22520Y24450D01*
X-22580Y24420D01*
X-22640Y24390D01*
X-22700Y24370D01*
X-22770Y24350D01*
X-22830Y24340D01*
X-22890Y24330D01*
X-22960Y24320D01*
X-23020Y24310D01*
X-27560D01*
X-27620Y24320D01*
X-27690Y24330D01*
X-27750Y24340D01*
X-27810Y24350D01*
X-27880Y24370D01*
X-27940Y24390D01*
X-28000Y24420D01*
X-28060Y24450D01*
X-28120Y24480D01*
X-28170Y24510D01*
X-28220Y24550D01*
X-28280Y24590D01*
X-28330Y24630D01*
X-28370Y24680D01*
X-28420Y24720D01*
X-28460Y24770D01*
X-28500Y24830D01*
X-28540Y24880D01*
X-28570Y24940D01*
X-28600Y24990D01*
X-28630Y25050D01*
X-28660Y25110D01*
X-28680Y25170D01*
X-28700Y25240D01*
X-28710Y25300D01*
X-28720Y25360D01*
X-28730Y25430D01*
X-28740Y25490D01*
Y25560D01*
Y27560D01*
Y27630D01*
X-28730Y27690D01*
X-28720Y27760D01*
X-28710Y27820D01*
X-28700Y27880D01*
X-28680Y27950D01*
X-28660Y28010D01*
X-28630Y28070D01*
X-28600Y28130D01*
X-28570Y28180D01*
X-28540Y28240D01*
X-28500Y28290D01*
X-28460Y28350D01*
X-28420Y28400D01*
X-28370Y28440D01*
X-28330Y28490D01*
X-28280Y28530D01*
X-28220Y28570D01*
X-28170Y28610D01*
X-28120Y28640D01*
X-28060Y28670D01*
X-28000Y28700D01*
X-27940Y28730D01*
X-27880Y28750D01*
X-27810Y28770D01*
X-27750Y28780D01*
X-27690Y28790D01*
X-27620Y28800D01*
X-27560Y28810D01*
X-23020D01*
X-22960Y28800D01*
D02*
G37*
G36*
X-46260D02*
X-46190Y28790D01*
X-46130Y28780D01*
X-46070Y28770D01*
X-46000Y28750D01*
X-45940Y28730D01*
X-45880Y28700D01*
X-45820Y28670D01*
X-45760Y28640D01*
X-45710Y28610D01*
X-45660Y28570D01*
X-45600Y28530D01*
X-45550Y28490D01*
X-45510Y28440D01*
X-45460Y28400D01*
X-45420Y28350D01*
X-45380Y28290D01*
X-45340Y28240D01*
X-45310Y28180D01*
X-45280Y28130D01*
X-45250Y28070D01*
X-45220Y28010D01*
X-45200Y27950D01*
X-45180Y27880D01*
X-45170Y27820D01*
X-45160Y27760D01*
X-45150Y27690D01*
X-45140Y27630D01*
Y27560D01*
Y25560D01*
Y25490D01*
X-45150Y25430D01*
X-45160Y25360D01*
X-45170Y25300D01*
X-45180Y25240D01*
X-45200Y25170D01*
X-45220Y25110D01*
X-45250Y25050D01*
X-45280Y24990D01*
X-45310Y24940D01*
X-45340Y24880D01*
X-45380Y24830D01*
X-45420Y24770D01*
X-45460Y24720D01*
X-45510Y24680D01*
X-45550Y24630D01*
X-45600Y24590D01*
X-45660Y24550D01*
X-45710Y24510D01*
X-45760Y24480D01*
X-45820Y24450D01*
X-45880Y24420D01*
X-45940Y24390D01*
X-46000Y24370D01*
X-46070Y24350D01*
X-46130Y24340D01*
X-46190Y24330D01*
X-46260Y24320D01*
X-46320Y24310D01*
X-50860D01*
X-50920Y24320D01*
X-50990Y24330D01*
X-51050Y24340D01*
X-51110Y24350D01*
X-51180Y24370D01*
X-51240Y24390D01*
X-51300Y24420D01*
X-51360Y24450D01*
X-51420Y24480D01*
X-51470Y24510D01*
X-51520Y24550D01*
X-51580Y24590D01*
X-51630Y24630D01*
X-51670Y24680D01*
X-51720Y24720D01*
X-51760Y24770D01*
X-51800Y24830D01*
X-51840Y24880D01*
X-51870Y24940D01*
X-51900Y24990D01*
X-51930Y25050D01*
X-51960Y25110D01*
X-51980Y25170D01*
X-52000Y25240D01*
X-52010Y25300D01*
X-52020Y25360D01*
X-52030Y25430D01*
X-52040Y25490D01*
Y25560D01*
Y27560D01*
Y27630D01*
X-52030Y27690D01*
X-52020Y27760D01*
X-52010Y27820D01*
X-52000Y27880D01*
X-51980Y27950D01*
X-51960Y28010D01*
X-51930Y28070D01*
X-51900Y28130D01*
X-51870Y28180D01*
X-51840Y28240D01*
X-51800Y28290D01*
X-51760Y28350D01*
X-51720Y28400D01*
X-51670Y28440D01*
X-51630Y28490D01*
X-51580Y28530D01*
X-51520Y28570D01*
X-51470Y28610D01*
X-51420Y28640D01*
X-51360Y28670D01*
X-51300Y28700D01*
X-51240Y28730D01*
X-51180Y28750D01*
X-51110Y28770D01*
X-51050Y28780D01*
X-50990Y28790D01*
X-50920Y28800D01*
X-50860Y28810D01*
X-46320D01*
X-46260Y28800D01*
D02*
G37*
G36*
X-22960Y23800D02*
X-22890Y23790D01*
X-22830Y23780D01*
X-22770Y23770D01*
X-22700Y23750D01*
X-22640Y23730D01*
X-22580Y23700D01*
X-22520Y23670D01*
X-22460Y23640D01*
X-22410Y23610D01*
X-22360Y23570D01*
X-22300Y23530D01*
X-22250Y23490D01*
X-22210Y23440D01*
X-22160Y23400D01*
X-22120Y23350D01*
X-22080Y23290D01*
X-22040Y23240D01*
X-22010Y23180D01*
X-21980Y23130D01*
X-21950Y23070D01*
X-21920Y23010D01*
X-21900Y22950D01*
X-21880Y22880D01*
X-21870Y22820D01*
X-21860Y22760D01*
X-21850Y22690D01*
X-21840Y22630D01*
Y22560D01*
Y20560D01*
Y20490D01*
X-21850Y20430D01*
X-21860Y20360D01*
X-21870Y20300D01*
X-21880Y20240D01*
X-21900Y20170D01*
X-21920Y20110D01*
X-21950Y20050D01*
X-21980Y19990D01*
X-22010Y19940D01*
X-22040Y19880D01*
X-22080Y19830D01*
X-22120Y19770D01*
X-22160Y19720D01*
X-22210Y19680D01*
X-22250Y19630D01*
X-22300Y19590D01*
X-22360Y19550D01*
X-22410Y19510D01*
X-22460Y19480D01*
X-22520Y19450D01*
X-22580Y19420D01*
X-22640Y19390D01*
X-22700Y19370D01*
X-22770Y19350D01*
X-22830Y19340D01*
X-22890Y19330D01*
X-22960Y19320D01*
X-23020Y19310D01*
X-27560D01*
X-27620Y19320D01*
X-27690Y19330D01*
X-27750Y19340D01*
X-27810Y19350D01*
X-27880Y19370D01*
X-27940Y19390D01*
X-28000Y19420D01*
X-28060Y19450D01*
X-28120Y19480D01*
X-28170Y19510D01*
X-28220Y19550D01*
X-28280Y19590D01*
X-28330Y19630D01*
X-28370Y19680D01*
X-28420Y19720D01*
X-28460Y19770D01*
X-28500Y19830D01*
X-28540Y19880D01*
X-28570Y19940D01*
X-28600Y19990D01*
X-28630Y20050D01*
X-28660Y20110D01*
X-28680Y20170D01*
X-28700Y20240D01*
X-28710Y20300D01*
X-28720Y20360D01*
X-28730Y20430D01*
X-28740Y20490D01*
Y20560D01*
Y22560D01*
Y22630D01*
X-28730Y22690D01*
X-28720Y22760D01*
X-28710Y22820D01*
X-28700Y22880D01*
X-28680Y22950D01*
X-28660Y23010D01*
X-28630Y23070D01*
X-28600Y23130D01*
X-28570Y23180D01*
X-28540Y23240D01*
X-28500Y23290D01*
X-28460Y23350D01*
X-28420Y23400D01*
X-28370Y23440D01*
X-28330Y23490D01*
X-28280Y23530D01*
X-28220Y23570D01*
X-28170Y23610D01*
X-28120Y23640D01*
X-28060Y23670D01*
X-28000Y23700D01*
X-27940Y23730D01*
X-27880Y23750D01*
X-27810Y23770D01*
X-27750Y23780D01*
X-27690Y23790D01*
X-27620Y23800D01*
X-27560Y23810D01*
X-23020D01*
X-22960Y23800D01*
D02*
G37*
G36*
X-46260D02*
X-46190Y23790D01*
X-46130Y23780D01*
X-46070Y23770D01*
X-46000Y23750D01*
X-45940Y23730D01*
X-45880Y23700D01*
X-45820Y23670D01*
X-45760Y23640D01*
X-45710Y23610D01*
X-45660Y23570D01*
X-45600Y23530D01*
X-45550Y23490D01*
X-45510Y23440D01*
X-45460Y23400D01*
X-45420Y23350D01*
X-45380Y23290D01*
X-45340Y23240D01*
X-45310Y23180D01*
X-45280Y23130D01*
X-45250Y23070D01*
X-45220Y23010D01*
X-45200Y22950D01*
X-45180Y22880D01*
X-45170Y22820D01*
X-45160Y22760D01*
X-45150Y22690D01*
X-45140Y22630D01*
Y22560D01*
Y20560D01*
Y20490D01*
X-45150Y20430D01*
X-45160Y20360D01*
X-45170Y20300D01*
X-45180Y20240D01*
X-45200Y20170D01*
X-45220Y20110D01*
X-45250Y20050D01*
X-45280Y19990D01*
X-45310Y19940D01*
X-45340Y19880D01*
X-45380Y19830D01*
X-45420Y19770D01*
X-45460Y19720D01*
X-45510Y19680D01*
X-45550Y19630D01*
X-45600Y19590D01*
X-45660Y19550D01*
X-45710Y19510D01*
X-45760Y19480D01*
X-45820Y19450D01*
X-45880Y19420D01*
X-45940Y19390D01*
X-46000Y19370D01*
X-46070Y19350D01*
X-46130Y19340D01*
X-46190Y19330D01*
X-46260Y19320D01*
X-46320Y19310D01*
X-50860D01*
X-50920Y19320D01*
X-50990Y19330D01*
X-51050Y19340D01*
X-51110Y19350D01*
X-51180Y19370D01*
X-51240Y19390D01*
X-51300Y19420D01*
X-51360Y19450D01*
X-51420Y19480D01*
X-51470Y19510D01*
X-51520Y19550D01*
X-51580Y19590D01*
X-51630Y19630D01*
X-51670Y19680D01*
X-51720Y19720D01*
X-51760Y19770D01*
X-51800Y19830D01*
X-51840Y19880D01*
X-51870Y19940D01*
X-51900Y19990D01*
X-51930Y20050D01*
X-51960Y20110D01*
X-51980Y20170D01*
X-52000Y20240D01*
X-52010Y20300D01*
X-52020Y20360D01*
X-52030Y20430D01*
X-52040Y20490D01*
Y20560D01*
Y22560D01*
Y22630D01*
X-52030Y22690D01*
X-52020Y22760D01*
X-52010Y22820D01*
X-52000Y22880D01*
X-51980Y22950D01*
X-51960Y23010D01*
X-51930Y23070D01*
X-51900Y23130D01*
X-51870Y23180D01*
X-51840Y23240D01*
X-51800Y23290D01*
X-51760Y23350D01*
X-51720Y23400D01*
X-51670Y23440D01*
X-51630Y23490D01*
X-51580Y23530D01*
X-51520Y23570D01*
X-51470Y23610D01*
X-51420Y23640D01*
X-51360Y23670D01*
X-51300Y23700D01*
X-51240Y23730D01*
X-51180Y23750D01*
X-51110Y23770D01*
X-51050Y23780D01*
X-50990Y23790D01*
X-50920Y23800D01*
X-50860Y23810D01*
X-46320D01*
X-46260Y23800D01*
D02*
G37*
G36*
X-30810Y23350D02*
X-30740Y23340D01*
X-30680Y23330D01*
X-30620Y23320D01*
X-30550Y23300D01*
X-30490Y23280D01*
X-30430Y23250D01*
X-30370Y23220D01*
X-30320Y23190D01*
X-30260Y23160D01*
X-30210Y23120D01*
X-30150Y23080D01*
X-30100Y23040D01*
X-30060Y22990D01*
X-30010Y22950D01*
X-29970Y22900D01*
X-29930Y22840D01*
X-29890Y22790D01*
X-29860Y22740D01*
X-29830Y22680D01*
X-29800Y22620D01*
X-29770Y22560D01*
X-29750Y22500D01*
X-29730Y22430D01*
X-29720Y22370D01*
X-29710Y22310D01*
X-29700Y22240D01*
X-29690Y22180D01*
Y22110D01*
Y17710D01*
Y17640D01*
X-29700Y17580D01*
X-29710Y17510D01*
X-29720Y17450D01*
X-29730Y17390D01*
X-29750Y17320D01*
X-29770Y17260D01*
X-29800Y17200D01*
X-29830Y17140D01*
X-29860Y17080D01*
X-29890Y17030D01*
X-29930Y16980D01*
X-29970Y16920D01*
X-30010Y16870D01*
X-30060Y16830D01*
X-30100Y16780D01*
X-30150Y16740D01*
X-30210Y16700D01*
X-30260Y16660D01*
X-30320Y16630D01*
X-30370Y16600D01*
X-30430Y16570D01*
X-30490Y16540D01*
X-30550Y16520D01*
X-30620Y16500D01*
X-30680Y16490D01*
X-30740Y16480D01*
X-30810Y16470D01*
X-30870Y16460D01*
X-33010D01*
X-33070Y16470D01*
X-33140Y16480D01*
X-33200Y16490D01*
X-33260Y16500D01*
X-33330Y16520D01*
X-33390Y16540D01*
X-33450Y16570D01*
X-33510Y16600D01*
X-33560Y16630D01*
X-33620Y16660D01*
X-33670Y16700D01*
X-33730Y16740D01*
X-33780Y16780D01*
X-33820Y16830D01*
X-33870Y16870D01*
X-33910Y16920D01*
X-33950Y16980D01*
X-33990Y17030D01*
X-34020Y17080D01*
X-34050Y17140D01*
X-34080Y17200D01*
X-34110Y17260D01*
X-34130Y17320D01*
X-34150Y17390D01*
X-34160Y17450D01*
X-34170Y17510D01*
X-34180Y17580D01*
X-34190Y17640D01*
Y17710D01*
Y22110D01*
Y22180D01*
X-34180Y22240D01*
X-34170Y22310D01*
X-34160Y22370D01*
X-34150Y22430D01*
X-34130Y22500D01*
X-34110Y22560D01*
X-34080Y22620D01*
X-34050Y22680D01*
X-34020Y22740D01*
X-33990Y22790D01*
X-33950Y22840D01*
X-33910Y22900D01*
X-33870Y22950D01*
X-33820Y22990D01*
X-33780Y23040D01*
X-33730Y23080D01*
X-33670Y23120D01*
X-33620Y23160D01*
X-33570Y23190D01*
X-33510Y23220D01*
X-33450Y23250D01*
X-33390Y23280D01*
X-33330Y23300D01*
X-33260Y23320D01*
X-33200Y23330D01*
X-33140Y23340D01*
X-33070Y23350D01*
X-33010Y23360D01*
X-30870D01*
X-30810Y23350D01*
D02*
G37*
G36*
X-35810D02*
X-35740Y23340D01*
X-35680Y23330D01*
X-35620Y23320D01*
X-35550Y23300D01*
X-35490Y23280D01*
X-35430Y23250D01*
X-35370Y23220D01*
X-35310Y23190D01*
X-35260Y23160D01*
X-35210Y23120D01*
X-35150Y23080D01*
X-35100Y23040D01*
X-35060Y22990D01*
X-35010Y22950D01*
X-34970Y22900D01*
X-34930Y22840D01*
X-34890Y22790D01*
X-34860Y22740D01*
X-34830Y22680D01*
X-34800Y22620D01*
X-34770Y22560D01*
X-34750Y22500D01*
X-34730Y22430D01*
X-34720Y22370D01*
X-34710Y22310D01*
X-34700Y22240D01*
X-34690Y22180D01*
Y22110D01*
Y17710D01*
Y17640D01*
X-34700Y17580D01*
X-34710Y17510D01*
X-34720Y17450D01*
X-34730Y17390D01*
X-34750Y17320D01*
X-34770Y17260D01*
X-34800Y17200D01*
X-34830Y17140D01*
X-34860Y17080D01*
X-34890Y17030D01*
X-34930Y16980D01*
X-34970Y16920D01*
X-35010Y16870D01*
X-35060Y16830D01*
X-35100Y16780D01*
X-35150Y16740D01*
X-35210Y16700D01*
X-35260Y16660D01*
X-35310Y16630D01*
X-35370Y16600D01*
X-35430Y16570D01*
X-35490Y16540D01*
X-35550Y16520D01*
X-35620Y16500D01*
X-35680Y16490D01*
X-35740Y16480D01*
X-35810Y16470D01*
X-35870Y16460D01*
X-38010D01*
X-38070Y16470D01*
X-38140Y16480D01*
X-38200Y16490D01*
X-38260Y16500D01*
X-38330Y16520D01*
X-38390Y16540D01*
X-38450Y16570D01*
X-38510Y16600D01*
X-38560Y16630D01*
X-38620Y16660D01*
X-38670Y16700D01*
X-38730Y16740D01*
X-38780Y16780D01*
X-38820Y16830D01*
X-38870Y16870D01*
X-38910Y16920D01*
X-38950Y16980D01*
X-38990Y17030D01*
X-39020Y17080D01*
X-39050Y17140D01*
X-39080Y17200D01*
X-39110Y17260D01*
X-39130Y17320D01*
X-39150Y17390D01*
X-39160Y17450D01*
X-39170Y17510D01*
X-39180Y17580D01*
X-39190Y17640D01*
Y17710D01*
Y22110D01*
Y22180D01*
X-39180Y22240D01*
X-39170Y22310D01*
X-39160Y22370D01*
X-39150Y22430D01*
X-39130Y22500D01*
X-39110Y22560D01*
X-39080Y22620D01*
X-39050Y22680D01*
X-39020Y22740D01*
X-38990Y22790D01*
X-38950Y22840D01*
X-38910Y22900D01*
X-38870Y22950D01*
X-38820Y22990D01*
X-38780Y23040D01*
X-38730Y23080D01*
X-38670Y23120D01*
X-38620Y23160D01*
X-38570Y23190D01*
X-38510Y23220D01*
X-38450Y23250D01*
X-38390Y23280D01*
X-38330Y23300D01*
X-38260Y23320D01*
X-38200Y23330D01*
X-38140Y23340D01*
X-38070Y23350D01*
X-38010Y23360D01*
X-35870D01*
X-35810Y23350D01*
D02*
G37*
G36*
X-40810D02*
X-40740Y23340D01*
X-40680Y23330D01*
X-40620Y23320D01*
X-40550Y23300D01*
X-40490Y23280D01*
X-40430Y23250D01*
X-40370Y23220D01*
X-40320Y23190D01*
X-40260Y23160D01*
X-40210Y23120D01*
X-40150Y23080D01*
X-40100Y23040D01*
X-40060Y22990D01*
X-40010Y22950D01*
X-39970Y22900D01*
X-39930Y22840D01*
X-39890Y22790D01*
X-39860Y22740D01*
X-39830Y22680D01*
X-39800Y22620D01*
X-39770Y22560D01*
X-39750Y22500D01*
X-39730Y22430D01*
X-39720Y22370D01*
X-39710Y22310D01*
X-39700Y22240D01*
X-39690Y22180D01*
Y22110D01*
Y17710D01*
Y17640D01*
X-39700Y17580D01*
X-39710Y17510D01*
X-39720Y17450D01*
X-39730Y17390D01*
X-39750Y17320D01*
X-39770Y17260D01*
X-39800Y17200D01*
X-39830Y17140D01*
X-39860Y17080D01*
X-39890Y17030D01*
X-39930Y16980D01*
X-39970Y16920D01*
X-40010Y16870D01*
X-40060Y16830D01*
X-40100Y16780D01*
X-40150Y16740D01*
X-40210Y16700D01*
X-40260Y16660D01*
X-40320Y16630D01*
X-40370Y16600D01*
X-40430Y16570D01*
X-40490Y16540D01*
X-40550Y16520D01*
X-40620Y16500D01*
X-40680Y16490D01*
X-40740Y16480D01*
X-40810Y16470D01*
X-40870Y16460D01*
X-43010D01*
X-43070Y16470D01*
X-43140Y16480D01*
X-43200Y16490D01*
X-43260Y16500D01*
X-43330Y16520D01*
X-43390Y16540D01*
X-43450Y16570D01*
X-43510Y16600D01*
X-43560Y16630D01*
X-43620Y16660D01*
X-43670Y16700D01*
X-43730Y16740D01*
X-43780Y16780D01*
X-43820Y16830D01*
X-43870Y16870D01*
X-43910Y16920D01*
X-43950Y16980D01*
X-43990Y17030D01*
X-44020Y17080D01*
X-44050Y17140D01*
X-44080Y17200D01*
X-44110Y17260D01*
X-44130Y17320D01*
X-44150Y17390D01*
X-44160Y17450D01*
X-44170Y17510D01*
X-44180Y17580D01*
X-44190Y17640D01*
Y17710D01*
Y22110D01*
Y22180D01*
X-44180Y22240D01*
X-44170Y22310D01*
X-44160Y22370D01*
X-44150Y22430D01*
X-44130Y22500D01*
X-44110Y22560D01*
X-44080Y22620D01*
X-44050Y22680D01*
X-44020Y22740D01*
X-43990Y22790D01*
X-43950Y22840D01*
X-43910Y22900D01*
X-43870Y22950D01*
X-43820Y22990D01*
X-43780Y23040D01*
X-43730Y23080D01*
X-43670Y23120D01*
X-43620Y23160D01*
X-43570Y23190D01*
X-43510Y23220D01*
X-43450Y23250D01*
X-43390Y23280D01*
X-43330Y23300D01*
X-43260Y23320D01*
X-43200Y23330D01*
X-43140Y23340D01*
X-43070Y23350D01*
X-43010Y23360D01*
X-40870D01*
X-40810Y23350D01*
D02*
G37*
D20*
X-80000Y-35334D02*
D03*
Y-24666D02*
D03*
X22000Y54166D02*
D03*
Y64834D02*
D03*
X73000Y60584D02*
D03*
Y49916D02*
D03*
D39*
X163750Y-108250D02*
D03*
X153750D02*
D03*
X164000Y-34500D02*
D03*
X154000D02*
D03*
X165000Y39500D02*
D03*
X155000D02*
D03*
X189750Y79000D02*
D03*
X199750D02*
D03*
X127500Y158500D02*
D03*
X117500D02*
D03*
X-38250Y167250D02*
D03*
X-48250D02*
D03*
X-39500Y53250D02*
D03*
X-29500D02*
D03*
Y-6000D02*
D03*
X-39500D02*
D03*
X-156500Y-61750D02*
D03*
X-166500D02*
D03*
X-188750Y-101250D02*
D03*
X-198750D02*
D03*
X-183500Y75000D02*
D03*
X-173500D02*
D03*
D48*
X-80000Y-1500D02*
D03*
Y11500D02*
D03*
D51*
X-171750Y-127250D02*
D03*
X-158750D02*
D03*
X-172250Y140500D02*
D03*
Y153750D02*
D03*
X-185250D02*
D03*
Y140500D02*
D03*
X156500Y107250D02*
D03*
X169500D02*
D03*
X185750Y14750D02*
D03*
X198750D02*
D03*
Y-53500D02*
D03*
X185750D02*
D03*
D54*
X16666Y-99500D02*
D03*
X27334D02*
D03*
X32584Y-49000D02*
D03*
X21916D02*
D03*
X-82416Y53750D02*
D03*
X-93084D02*
D03*
X-93834Y-99500D02*
D03*
X-83166D02*
D03*
D57*
X222296Y-222878D02*
D03*
Y221872D02*
D03*
X-222704D02*
D03*
Y-222878D02*
D03*
D107*
X-41940Y-39900D02*
D03*
X-36940D02*
D03*
X-31940D02*
D03*
Y-21600D02*
D03*
X-36940D02*
D03*
X-41940D02*
D03*
Y19910D02*
D03*
X-36940D02*
D03*
X-31940D02*
D03*
Y38210D02*
D03*
X-36940D02*
D03*
X-41940D02*
D03*
D108*
X-25290Y-38250D02*
D03*
Y-33250D02*
D03*
Y-28250D02*
D03*
Y-23250D02*
D03*
Y21560D02*
D03*
Y26560D02*
D03*
Y31560D02*
D03*
Y36560D02*
D03*
X-48590D02*
D03*
Y31560D02*
D03*
Y26560D02*
D03*
Y21560D02*
D03*
Y-23250D02*
D03*
Y-28250D02*
D03*
Y-33250D02*
D03*
Y-38250D02*
D03*
D110*
X131250Y-77750D02*
D03*
Y-67750D02*
D03*
Y-4000D02*
D03*
Y6000D02*
D03*
X-11500Y23250D02*
D03*
Y33250D02*
D03*
Y-25750D02*
D03*
Y-35750D02*
D03*
X-24000Y139000D02*
D03*
Y149000D02*
D03*
D111*
X-168310Y-110780D02*
D03*
X-163310D02*
D03*
X-158310D02*
D03*
X-153310D02*
D03*
Y-82680D02*
D03*
X-158310D02*
D03*
X-163310D02*
D03*
X-168310D02*
D03*
X151520Y-87070D02*
D03*
X156520D02*
D03*
X161520D02*
D03*
X166520D02*
D03*
Y-58970D02*
D03*
X161520D02*
D03*
X156520D02*
D03*
X151520D02*
D03*
X161520Y-13320D02*
D03*
X166520D02*
D03*
Y14780D02*
D03*
X161520D02*
D03*
X156520D02*
D03*
X151520D02*
D03*
Y-13320D02*
D03*
X156520D02*
D03*
X161520Y60430D02*
D03*
X166520D02*
D03*
Y88530D02*
D03*
X161520D02*
D03*
X156520D02*
D03*
X151520D02*
D03*
Y60430D02*
D03*
X156520D02*
D03*
D112*
X-172309Y92433D02*
D03*
X-159810D02*
D03*
Y118433D02*
D03*
X-172309D02*
D03*
X-184811D02*
D03*
X-197310D02*
D03*
Y92433D02*
D03*
X-184811D02*
D03*
D113*
X4250Y-38750D02*
D03*
Y-23750D02*
D03*
Y21000D02*
D03*
Y36000D02*
D03*
D114*
X-43660Y139090D02*
D03*
X-38000D02*
D03*
Y144750D02*
D03*
X-40830Y141920D02*
D03*
Y147580D02*
D03*
X-38000Y150410D02*
D03*
X-43660D02*
D03*
X-49320D02*
D03*
X-46490Y147580D02*
D03*
X-49320Y144750D02*
D03*
Y139090D02*
D03*
X-46490Y141920D02*
D03*
M02*
