G04*
G04 #@! TF.GenerationSoftware,Altium Limited,Altium Designer,23.7.1 (13)*
G04*
G04 Layer_Physical_Order=3*
G04 Layer_Color=16440176*
%FSLAX44Y44*%
%MOMM*%
G71*
G04*
G04 #@! TF.SameCoordinates,CA0AFEA4-99C7-4052-BA11-7F101D67CBD2*
G04*
G04*
G04 #@! TF.FilePolarity,Positive*
G04*
G01*
G75*
%ADD101C,0.6000*%
%ADD102C,0.5000*%
G36*
X247500Y-247500D02*
X-247500D01*
Y247500D01*
X247500D01*
Y-247500D01*
D02*
G37*
%LPC*%
G36*
X139500Y238039D02*
X114500D01*
X113720Y237884D01*
X113058Y237442D01*
X112616Y236780D01*
X112461Y236000D01*
Y216000D01*
X112616Y215220D01*
X113058Y214558D01*
X113720Y214116D01*
X114500Y213961D01*
X139500D01*
X140280Y214116D01*
X140942Y214558D01*
X141384Y215220D01*
X141539Y216000D01*
Y236000D01*
X141384Y236780D01*
X140942Y237442D01*
X140280Y237884D01*
X139500Y238039D01*
D02*
G37*
G36*
X30995Y215250D02*
X29005D01*
X27168Y214489D01*
X25761Y213082D01*
X25000Y211245D01*
Y209255D01*
X25761Y207418D01*
X27168Y206011D01*
X29005Y205250D01*
X30995D01*
X32832Y206011D01*
X34239Y207418D01*
X35000Y209255D01*
Y211245D01*
X34239Y213082D01*
X32832Y214489D01*
X30995Y215250D01*
D02*
G37*
G36*
X-61505D02*
X-63495D01*
X-65332Y214489D01*
X-66739Y213082D01*
X-67500Y211245D01*
Y209255D01*
X-66739Y207418D01*
X-65332Y206011D01*
X-63495Y205250D01*
X-61505D01*
X-59668Y206011D01*
X-58261Y207418D01*
X-57500Y209255D01*
Y211245D01*
X-58261Y213082D01*
X-59668Y214489D01*
X-61505Y215250D01*
D02*
G37*
G36*
X224216Y241372D02*
X220375D01*
X216607Y240623D01*
X213059Y239153D01*
X209865Y237019D01*
X207148Y234303D01*
X205014Y231109D01*
X203544Y227560D01*
X202795Y223792D01*
Y219951D01*
X203544Y216183D01*
X205014Y212635D01*
X207148Y209441D01*
X209865Y206724D01*
X213059Y204590D01*
X216607Y203120D01*
X220375Y202371D01*
X224216D01*
X227984Y203120D01*
X231533Y204590D01*
X234727Y206724D01*
X237443Y209441D01*
X239577Y212635D01*
X241047Y216183D01*
X241796Y219951D01*
Y223792D01*
X241047Y227560D01*
X239577Y231109D01*
X237443Y234303D01*
X234727Y237019D01*
X231533Y239153D01*
X227984Y240623D01*
X224216Y241372D01*
D02*
G37*
G36*
X-220784D02*
X-224625D01*
X-228393Y240623D01*
X-231941Y239153D01*
X-235135Y237019D01*
X-237852Y234303D01*
X-239986Y231109D01*
X-241456Y227560D01*
X-242205Y223792D01*
Y219951D01*
X-241456Y216183D01*
X-239986Y212635D01*
X-237852Y209441D01*
X-235135Y206724D01*
X-231941Y204590D01*
X-228393Y203120D01*
X-224625Y202371D01*
X-220784D01*
X-217016Y203120D01*
X-213467Y204590D01*
X-210273Y206724D01*
X-207557Y209441D01*
X-205423Y212635D01*
X-203953Y216183D01*
X-203204Y219951D01*
Y223792D01*
X-203953Y227560D01*
X-205423Y231109D01*
X-207557Y234303D01*
X-210273Y237019D01*
X-213467Y239153D01*
X-217016Y240623D01*
X-220784Y241372D01*
D02*
G37*
G36*
X194745Y201000D02*
X192755D01*
X190918Y200239D01*
X189511Y198832D01*
X188750Y196995D01*
Y195005D01*
X189511Y193168D01*
X190918Y191761D01*
X192755Y191000D01*
X194745D01*
X196582Y191761D01*
X197989Y193168D01*
X198750Y195005D01*
Y196995D01*
X197989Y198832D01*
X196582Y200239D01*
X194745Y201000D01*
D02*
G37*
G36*
X85245Y207250D02*
X83255D01*
X81418Y206489D01*
X80011Y205082D01*
X79250Y203245D01*
Y201255D01*
X80011Y199418D01*
X81418Y198011D01*
X83255Y197250D01*
X84025D01*
X84577Y197250D01*
X84702Y195980D01*
X84220Y195884D01*
X83558Y195442D01*
X83116Y194780D01*
X82961Y194000D01*
Y174000D01*
X83116Y173220D01*
X83558Y172558D01*
X84220Y172116D01*
X85000Y171961D01*
X170000D01*
X170780Y172116D01*
X171442Y172558D01*
X171884Y173220D01*
X172039Y174000D01*
Y194000D01*
X171884Y194780D01*
X171442Y195442D01*
X170780Y195884D01*
X170000Y196039D01*
X85947D01*
X85387Y196039D01*
X85245Y197250D01*
X85787Y197475D01*
X87082Y198011D01*
X88489Y199418D01*
X89250Y201255D01*
Y203245D01*
X88489Y205082D01*
X87082Y206489D01*
X85245Y207250D01*
D02*
G37*
G36*
X-148855Y173000D02*
X-150645D01*
X-152299Y172315D01*
X-153565Y171049D01*
X-154250Y169395D01*
Y167605D01*
X-153565Y165951D01*
X-152299Y164685D01*
X-150645Y164000D01*
X-148855D01*
X-147201Y164685D01*
X-145935Y165951D01*
X-145250Y167605D01*
Y169395D01*
X-145935Y171049D01*
X-147201Y172315D01*
X-148855Y173000D01*
D02*
G37*
G36*
X-110855Y172750D02*
X-112645D01*
X-114299Y172065D01*
X-115565Y170799D01*
X-116250Y169145D01*
Y167355D01*
X-115565Y165701D01*
X-114299Y164435D01*
X-112645Y163750D01*
X-110855D01*
X-109201Y164435D01*
X-107935Y165701D01*
X-107250Y167355D01*
Y169145D01*
X-107935Y170799D01*
X-109201Y172065D01*
X-110855Y172750D01*
D02*
G37*
G36*
X-136355D02*
X-138145D01*
X-139799Y172065D01*
X-141065Y170799D01*
X-141750Y169145D01*
Y167355D01*
X-141065Y165701D01*
X-139799Y164435D01*
X-138145Y163750D01*
X-136355D01*
X-134701Y164435D01*
X-133435Y165701D01*
X-132750Y167355D01*
Y169145D01*
X-133435Y170799D01*
X-134701Y172065D01*
X-136355Y172750D01*
D02*
G37*
G36*
X-95355Y172250D02*
X-97145D01*
X-98799Y171565D01*
X-100065Y170299D01*
X-100750Y168645D01*
Y166855D01*
X-100065Y165201D01*
X-98799Y163935D01*
X-97145Y163250D01*
X-95355D01*
X-93701Y163935D01*
X-92435Y165201D01*
X-91750Y166855D01*
Y168645D01*
X-92435Y170299D01*
X-93701Y171565D01*
X-95355Y172250D01*
D02*
G37*
G36*
X645Y171750D02*
X-1145D01*
X-2799Y171065D01*
X-4065Y169799D01*
X-4750Y168145D01*
Y166355D01*
X-4065Y164701D01*
X-2799Y163435D01*
X-1145Y162750D01*
X645D01*
X2299Y163435D01*
X3565Y164701D01*
X4250Y166355D01*
Y168145D01*
X3565Y169799D01*
X2299Y171065D01*
X645Y171750D01*
D02*
G37*
G36*
X-81355D02*
X-83145D01*
X-84799Y171065D01*
X-86065Y169799D01*
X-86750Y168145D01*
Y166355D01*
X-86065Y164701D01*
X-84799Y163435D01*
X-83145Y162750D01*
X-81355D01*
X-79701Y163435D01*
X-78435Y164701D01*
X-77750Y166355D01*
Y168145D01*
X-78435Y169799D01*
X-79701Y171065D01*
X-81355Y171750D01*
D02*
G37*
G36*
X42395Y171250D02*
X40605D01*
X38951Y170565D01*
X37685Y169299D01*
X37000Y167645D01*
Y165855D01*
X37685Y164201D01*
X38951Y162935D01*
X40605Y162250D01*
X42395D01*
X44049Y162935D01*
X45315Y164201D01*
X46000Y165855D01*
Y167645D01*
X45315Y169299D01*
X44049Y170565D01*
X42395Y171250D01*
D02*
G37*
G36*
X100745Y163750D02*
X98755D01*
X96918Y162989D01*
X95511Y161582D01*
X94750Y159745D01*
Y157755D01*
X95511Y155918D01*
X96918Y154511D01*
X98755Y153750D01*
X100745D01*
X102582Y154511D01*
X103989Y155918D01*
X104750Y157755D01*
Y159745D01*
X103989Y161582D01*
X102582Y162989D01*
X100745Y163750D01*
D02*
G37*
G36*
X111995Y150500D02*
X110005D01*
X108168Y149739D01*
X106761Y148332D01*
X106000Y146495D01*
Y144505D01*
X106761Y142668D01*
X108168Y141261D01*
X110005Y140500D01*
X111995D01*
X113832Y141261D01*
X115239Y142668D01*
X116000Y144505D01*
Y146495D01*
X115239Y148332D01*
X113832Y149739D01*
X111995Y150500D01*
D02*
G37*
G36*
X89995Y150250D02*
X88005D01*
X86168Y149489D01*
X84761Y148082D01*
X84000Y146245D01*
Y144255D01*
X84761Y142418D01*
X86168Y141011D01*
X88005Y140250D01*
X89995D01*
X91832Y141011D01*
X93239Y142418D01*
X94000Y144255D01*
Y146245D01*
X93239Y148082D01*
X91832Y149489D01*
X89995Y150250D01*
D02*
G37*
G36*
X-69289Y143816D02*
X-71079D01*
X-72733Y143131D01*
X-73999Y141865D01*
X-74684Y140211D01*
Y138421D01*
X-73999Y136767D01*
X-72733Y135501D01*
X-71079Y134816D01*
X-69289D01*
X-67635Y135501D01*
X-66369Y136767D01*
X-65684Y138421D01*
Y140211D01*
X-66369Y141865D01*
X-67635Y143131D01*
X-69289Y143816D01*
D02*
G37*
G36*
X-124355Y143500D02*
X-126145D01*
X-127799Y142815D01*
X-129065Y141549D01*
X-129750Y139895D01*
Y138105D01*
X-129065Y136451D01*
X-127799Y135185D01*
X-126145Y134500D01*
X-124355D01*
X-122701Y135185D01*
X-121435Y136451D01*
X-120750Y138105D01*
Y139895D01*
X-121435Y141549D01*
X-122701Y142815D01*
X-124355Y143500D01*
D02*
G37*
G36*
X207645Y131000D02*
X205855D01*
X204201Y130315D01*
X202935Y129049D01*
X202250Y127395D01*
Y125605D01*
X202935Y123951D01*
X204201Y122685D01*
X205855Y122000D01*
X207645D01*
X209299Y122685D01*
X210565Y123951D01*
X211250Y125605D01*
Y127395D01*
X210565Y129049D01*
X209299Y130315D01*
X207645Y131000D01*
D02*
G37*
G36*
X46395Y130750D02*
X44605D01*
X42951Y130065D01*
X41685Y128799D01*
X41000Y127145D01*
Y125355D01*
X41685Y123701D01*
X42951Y122435D01*
X44605Y121750D01*
X46395D01*
X48049Y122435D01*
X49315Y123701D01*
X50000Y125355D01*
Y127145D01*
X49315Y128799D01*
X48049Y130065D01*
X46395Y130750D01*
D02*
G37*
G36*
X35395D02*
X33605D01*
X31951Y130065D01*
X30685Y128799D01*
X30000Y127145D01*
Y125355D01*
X30685Y123701D01*
X31951Y122435D01*
X33605Y121750D01*
X35395D01*
X37049Y122435D01*
X38315Y123701D01*
X39000Y125355D01*
Y127145D01*
X38315Y128799D01*
X37049Y130065D01*
X35395Y130750D01*
D02*
G37*
G36*
X64745Y131250D02*
X62755D01*
X60918Y130489D01*
X59511Y129082D01*
X58750Y127245D01*
Y125255D01*
X59511Y123418D01*
X60918Y122011D01*
X62755Y121250D01*
X64745D01*
X66582Y122011D01*
X67989Y123418D01*
X68750Y125255D01*
Y127245D01*
X67989Y129082D01*
X66582Y130489D01*
X64745Y131250D01*
D02*
G37*
G36*
X-124355Y128250D02*
X-126145D01*
X-127799Y127565D01*
X-129065Y126299D01*
X-129750Y124645D01*
Y122855D01*
X-129065Y121201D01*
X-127799Y119935D01*
X-126145Y119250D01*
X-124355D01*
X-122701Y119935D01*
X-121435Y121201D01*
X-120750Y122855D01*
Y124645D01*
X-121435Y126299D01*
X-122701Y127565D01*
X-124355Y128250D01*
D02*
G37*
G36*
X-61355Y125000D02*
X-63145D01*
X-64799Y124315D01*
X-66065Y123049D01*
X-66750Y121395D01*
Y119605D01*
X-66065Y117951D01*
X-64799Y116685D01*
X-63145Y116000D01*
X-61355D01*
X-59701Y116685D01*
X-58435Y117951D01*
X-57750Y119605D01*
Y121395D01*
X-58435Y123049D01*
X-59701Y124315D01*
X-61355Y125000D01*
D02*
G37*
G36*
X-230855Y121500D02*
X-232645D01*
X-234299Y120815D01*
X-235565Y119549D01*
X-236250Y117895D01*
Y116105D01*
X-235565Y114451D01*
X-234299Y113185D01*
X-232645Y112500D01*
X-230855D01*
X-229201Y113185D01*
X-227935Y114451D01*
X-227250Y116105D01*
Y117895D01*
X-227935Y119549D01*
X-229201Y120815D01*
X-230855Y121500D01*
D02*
G37*
G36*
X-133605Y119500D02*
X-135395D01*
X-137049Y118815D01*
X-138315Y117549D01*
X-139000Y115895D01*
Y114105D01*
X-138315Y112451D01*
X-137049Y111185D01*
X-135395Y110500D01*
X-133605D01*
X-131951Y111185D01*
X-130685Y112451D01*
X-130000Y114105D01*
Y115895D01*
X-130685Y117549D01*
X-131951Y118815D01*
X-133605Y119500D01*
D02*
G37*
G36*
X-69605Y110500D02*
X-71395D01*
X-73049Y109815D01*
X-74315Y108549D01*
X-75000Y106895D01*
Y105105D01*
X-74315Y103451D01*
X-73049Y102185D01*
X-71395Y101500D01*
X-69605D01*
X-67951Y102185D01*
X-66685Y103451D01*
X-66000Y105105D01*
Y106895D01*
X-66685Y108549D01*
X-67951Y109815D01*
X-69605Y110500D01*
D02*
G37*
G36*
X-4255D02*
X-6245D01*
X-8082Y109739D01*
X-9489Y108332D01*
X-10250Y106495D01*
Y104505D01*
X-9489Y102668D01*
X-8082Y101261D01*
X-6245Y100500D01*
X-4255D01*
X-2418Y101261D01*
X-1011Y102668D01*
X-250Y104505D01*
Y106495D01*
X-1011Y108332D01*
X-2418Y109739D01*
X-4255Y110500D01*
D02*
G37*
G36*
X21745Y110250D02*
X19755D01*
X17918Y109489D01*
X16511Y108082D01*
X15750Y106245D01*
Y104255D01*
X16511Y102418D01*
X17918Y101011D01*
X19755Y100250D01*
X21745D01*
X23582Y101011D01*
X24989Y102418D01*
X25750Y104255D01*
Y106245D01*
X24989Y108082D01*
X23582Y109489D01*
X21745Y110250D01*
D02*
G37*
G36*
X-79605Y104750D02*
X-81395D01*
X-83049Y104065D01*
X-84315Y102799D01*
X-85000Y101145D01*
Y99355D01*
X-84315Y97701D01*
X-83049Y96435D01*
X-81395Y95750D01*
X-79605D01*
X-77951Y96435D01*
X-76685Y97701D01*
X-76000Y99355D01*
Y101145D01*
X-76685Y102799D01*
X-77951Y104065D01*
X-79605Y104750D01*
D02*
G37*
G36*
X-25755D02*
X-27745D01*
X-29582Y103989D01*
X-30989Y102582D01*
X-31750Y100745D01*
Y98755D01*
X-30989Y96918D01*
X-29582Y95511D01*
X-27745Y94750D01*
X-25755D01*
X-23918Y95511D01*
X-22511Y96918D01*
X-21750Y98755D01*
Y100745D01*
X-22511Y102582D01*
X-23918Y103989D01*
X-25755Y104750D01*
D02*
G37*
G36*
X-141005Y90500D02*
X-142995D01*
X-144832Y89739D01*
X-146239Y88332D01*
X-147000Y86495D01*
Y84505D01*
X-146239Y82668D01*
X-144832Y81261D01*
X-142995Y80500D01*
X-141005D01*
X-139168Y81261D01*
X-137761Y82668D01*
X-137000Y84505D01*
Y86495D01*
X-137761Y88332D01*
X-139168Y89739D01*
X-141005Y90500D01*
D02*
G37*
G36*
X35395Y87500D02*
X33605D01*
X31951Y86815D01*
X30685Y85549D01*
X30000Y83895D01*
Y82105D01*
X30685Y80451D01*
X31951Y79185D01*
X33605Y78500D01*
X35395D01*
X37049Y79185D01*
X38315Y80451D01*
X39000Y82105D01*
Y83895D01*
X38315Y85549D01*
X37049Y86815D01*
X35395Y87500D01*
D02*
G37*
G36*
X-184000Y215289D02*
X-184780Y215134D01*
X-185442Y214692D01*
X-193942Y206192D01*
X-194384Y205530D01*
X-194539Y204750D01*
Y-136750D01*
X-194539Y-136750D01*
X-194384Y-137530D01*
X-193942Y-138192D01*
X-181442Y-150692D01*
X-180780Y-151134D01*
X-180000Y-151289D01*
X48756D01*
X49009Y-152559D01*
X47918Y-153011D01*
X46511Y-154418D01*
X45750Y-156256D01*
Y-158245D01*
X46511Y-160082D01*
X47918Y-161489D01*
X49755Y-162250D01*
X51744D01*
X53582Y-161489D01*
X54989Y-160082D01*
X55750Y-158245D01*
Y-156256D01*
X54989Y-154418D01*
X53582Y-153011D01*
X52491Y-152559D01*
X52744Y-151289D01*
X124155D01*
X130961Y-158095D01*
Y-178155D01*
X123405Y-185711D01*
X52750D01*
X51970Y-185866D01*
X51308Y-186308D01*
X51308Y-186308D01*
X40308Y-197308D01*
X39866Y-197970D01*
X39711Y-198750D01*
Y-222500D01*
X39866Y-223280D01*
X40308Y-223942D01*
X50808Y-234442D01*
X51470Y-234884D01*
X52250Y-235039D01*
X53030Y-234884D01*
X53546Y-234539D01*
X165250D01*
X165593Y-234471D01*
X165940Y-234419D01*
X165982Y-234394D01*
X166030Y-234384D01*
X166322Y-234189D01*
X166622Y-234009D01*
X169372Y-231509D01*
X169401Y-231469D01*
X169442Y-231442D01*
X171942Y-228942D01*
X172384Y-228280D01*
X172539Y-227500D01*
Y-221750D01*
Y-36813D01*
X173229Y-36503D01*
X173809Y-36423D01*
X174951Y-37565D01*
X176605Y-38250D01*
X178395D01*
X180049Y-37565D01*
X181315Y-36299D01*
X182000Y-34645D01*
Y-32855D01*
X181315Y-31201D01*
X180049Y-29935D01*
X178395Y-29250D01*
X176605D01*
X174951Y-29935D01*
X173809Y-31077D01*
X173229Y-30997D01*
X172539Y-30687D01*
Y-12449D01*
X173809Y-11923D01*
X174701Y-12815D01*
X176355Y-13500D01*
X178145D01*
X179799Y-12815D01*
X181065Y-11549D01*
X181750Y-9895D01*
Y-8105D01*
X181065Y-6451D01*
X179799Y-5185D01*
X178145Y-4500D01*
X176355D01*
X174701Y-5185D01*
X173809Y-6077D01*
X172539Y-5551D01*
Y48801D01*
X173809Y49327D01*
X174701Y48435D01*
X176355Y47750D01*
X178145D01*
X179799Y48435D01*
X181065Y49701D01*
X181750Y51355D01*
Y53145D01*
X181065Y54799D01*
X179799Y56065D01*
X178145Y56750D01*
X176355D01*
X174701Y56065D01*
X173809Y55173D01*
X172539Y55699D01*
Y73551D01*
X173809Y74077D01*
X174701Y73185D01*
X176355Y72500D01*
X178145D01*
X179799Y73185D01*
X181065Y74451D01*
X181750Y76105D01*
Y77895D01*
X181065Y79549D01*
X179799Y80815D01*
X178145Y81500D01*
X176355D01*
X174701Y80815D01*
X173809Y79923D01*
X172539Y80449D01*
Y86500D01*
X172539Y86500D01*
X172384Y87280D01*
X171942Y87942D01*
X169442Y90442D01*
X168780Y90884D01*
X168000Y91039D01*
X155000D01*
X155000Y91039D01*
X154220Y90884D01*
X153558Y90442D01*
X150308Y87192D01*
X149866Y86530D01*
X149711Y85750D01*
Y-94655D01*
X134405Y-109961D01*
X-136655D01*
X-137848Y-108768D01*
X-137898Y-108735D01*
X-137935Y-108686D01*
X-138228Y-108514D01*
X-138510Y-108326D01*
X-138569Y-108314D01*
X-138621Y-108284D01*
X-138957Y-108237D01*
X-139290Y-108171D01*
X-139349Y-108183D01*
X-139409Y-108174D01*
X-139737Y-108260D01*
X-140070Y-108326D01*
X-141185Y-108701D01*
X-142451Y-107435D01*
X-142076Y-106320D01*
X-142010Y-105987D01*
X-141924Y-105659D01*
X-141932Y-105599D01*
X-141921Y-105540D01*
X-141987Y-105207D01*
X-142034Y-104871D01*
X-142064Y-104819D01*
X-142076Y-104760D01*
X-142264Y-104478D01*
X-142436Y-104185D01*
X-142485Y-104148D01*
X-142518Y-104098D01*
X-143756Y-102860D01*
X-143418Y-101402D01*
X-142451Y-101002D01*
X-141185Y-99736D01*
X-140500Y-98082D01*
Y-96292D01*
X-141185Y-94638D01*
X-142451Y-93372D01*
X-144105Y-92687D01*
X-145895D01*
X-147549Y-93372D01*
X-148815Y-94638D01*
X-149215Y-95605D01*
X-150673Y-95943D01*
X-158961Y-87655D01*
Y163763D01*
X-159000Y163960D01*
Y164161D01*
X-159077Y164346D01*
X-159116Y164543D01*
X-159228Y164710D01*
X-159305Y164896D01*
Y165082D01*
X-158435Y165951D01*
X-157750Y167605D01*
Y169395D01*
X-158435Y171049D01*
X-159305Y171919D01*
Y172104D01*
X-159228Y172290D01*
X-159116Y172457D01*
X-159077Y172654D01*
X-159000Y172839D01*
Y173040D01*
X-158961Y173237D01*
Y206750D01*
X-159116Y207530D01*
X-159558Y208192D01*
X-159558Y208192D01*
X-166058Y214692D01*
X-166720Y215134D01*
X-167500Y215289D01*
X-184000D01*
X-184000Y215289D01*
D02*
G37*
G36*
X141895Y69500D02*
X140105D01*
X138451Y68815D01*
X137185Y67549D01*
X136500Y65895D01*
Y64105D01*
X137185Y62451D01*
X138451Y61185D01*
X140105Y60500D01*
X141895D01*
X143549Y61185D01*
X144815Y62451D01*
X145500Y64105D01*
Y65895D01*
X144815Y67549D01*
X143549Y68815D01*
X141895Y69500D01*
D02*
G37*
G36*
X213645Y69250D02*
X211855D01*
X210201Y68565D01*
X208935Y67299D01*
X208250Y65645D01*
Y63855D01*
X208935Y62201D01*
X210201Y60935D01*
X211855Y60250D01*
X213645D01*
X215299Y60935D01*
X216565Y62201D01*
X217250Y63855D01*
Y65645D01*
X216565Y67299D01*
X215299Y68565D01*
X213645Y69250D01*
D02*
G37*
G36*
X-81391Y69000D02*
X-83380D01*
X-85218Y68239D01*
X-86624Y66832D01*
X-87385Y64995D01*
Y63005D01*
X-86624Y61168D01*
X-85218Y59761D01*
X-83380Y59000D01*
X-81391D01*
X-79553Y59761D01*
X-78147Y61168D01*
X-77734Y62163D01*
X-76360D01*
X-76065Y61451D01*
X-74799Y60185D01*
X-73145Y59500D01*
X-71355D01*
X-69701Y60185D01*
X-68435Y61451D01*
X-67750Y63105D01*
Y64895D01*
X-68435Y66549D01*
X-69701Y67815D01*
X-71355Y68500D01*
X-73145D01*
X-74799Y67815D01*
X-76065Y66549D01*
X-76360Y65837D01*
X-77734D01*
X-78147Y66832D01*
X-79553Y68239D01*
X-81391Y69000D01*
D02*
G37*
G36*
X-211005Y62000D02*
X-212995D01*
X-214832Y61239D01*
X-216239Y59832D01*
X-217000Y57994D01*
Y56005D01*
X-216239Y54168D01*
X-214832Y52761D01*
X-212995Y52000D01*
X-211005D01*
X-209168Y52761D01*
X-207761Y54168D01*
X-207000Y56005D01*
Y57994D01*
X-207761Y59832D01*
X-209168Y61239D01*
X-211005Y62000D01*
D02*
G37*
G36*
X33495Y58750D02*
X31505D01*
X29668Y57989D01*
X28261Y56582D01*
X27500Y54745D01*
Y52755D01*
X28261Y50918D01*
X29668Y49511D01*
X31505Y48750D01*
X33495D01*
X35332Y49511D01*
X36739Y50918D01*
X37500Y52755D01*
Y54745D01*
X36739Y56582D01*
X35332Y57989D01*
X33495Y58750D01*
D02*
G37*
G36*
X141895Y54500D02*
X140105D01*
X138451Y53815D01*
X137185Y52549D01*
X136500Y50895D01*
Y49105D01*
X137185Y47451D01*
X138451Y46185D01*
X140105Y45500D01*
X141895D01*
X143549Y46185D01*
X144815Y47451D01*
X145500Y49105D01*
Y50895D01*
X144815Y52549D01*
X143549Y53815D01*
X141895Y54500D01*
D02*
G37*
G36*
X-119105Y45000D02*
X-120895D01*
X-122549Y44315D01*
X-123815Y43049D01*
X-124500Y41395D01*
Y39605D01*
X-123815Y37951D01*
X-122549Y36685D01*
X-120895Y36000D01*
X-119105D01*
X-117451Y36685D01*
X-116185Y37951D01*
X-115500Y39605D01*
Y41395D01*
X-116185Y43049D01*
X-117451Y44315D01*
X-119105Y45000D01*
D02*
G37*
G36*
X63453Y65458D02*
X61463D01*
X59626Y64697D01*
X58219Y63290D01*
X57458Y61453D01*
Y59463D01*
X58219Y57626D01*
X59626Y56219D01*
X61045Y55631D01*
Y54285D01*
X59626Y53697D01*
X58219Y52290D01*
X57458Y50453D01*
Y48463D01*
X58219Y46626D01*
X59626Y45219D01*
X61463Y44458D01*
X61605Y43250D01*
X59951Y42565D01*
X58685Y41299D01*
X58000Y39645D01*
Y37855D01*
X58685Y36201D01*
X59951Y34935D01*
X61605Y34250D01*
X63395D01*
X65049Y34935D01*
X66315Y36201D01*
X67000Y37855D01*
Y39645D01*
X66315Y41299D01*
X65049Y42565D01*
X63395Y43250D01*
X63453Y44458D01*
X65290Y45219D01*
X66697Y46626D01*
X67458Y48463D01*
Y50453D01*
X66697Y52290D01*
X65290Y53697D01*
X63871Y54285D01*
Y55631D01*
X65290Y56219D01*
X66697Y57626D01*
X67458Y59463D01*
Y61453D01*
X66697Y63290D01*
X65290Y64697D01*
X63453Y65458D01*
D02*
G37*
G36*
X-54851Y41099D02*
X-56641D01*
X-58295Y40414D01*
X-59561Y39148D01*
X-60246Y37494D01*
Y35704D01*
X-59561Y34050D01*
X-58295Y32784D01*
X-56641Y32099D01*
X-54851D01*
X-53197Y32784D01*
X-51931Y34050D01*
X-51246Y35704D01*
Y37494D01*
X-51931Y39148D01*
X-53197Y40414D01*
X-54851Y41099D01*
D02*
G37*
G36*
X100745Y27250D02*
X98755D01*
X96918Y26489D01*
X95511Y25082D01*
X94959Y23749D01*
X93584D01*
X93239Y24582D01*
X91832Y25989D01*
X89995Y26750D01*
X88005D01*
X86168Y25989D01*
X84761Y24582D01*
X84000Y22745D01*
Y20755D01*
X84761Y18918D01*
X86168Y17511D01*
X88005Y16750D01*
X89995D01*
X91832Y17511D01*
X93239Y18918D01*
X93791Y20251D01*
X95166D01*
X95511Y19418D01*
X96918Y18011D01*
X98755Y17250D01*
X100745D01*
X102582Y18011D01*
X103989Y19418D01*
X104750Y21255D01*
Y23245D01*
X103989Y25082D01*
X102582Y26489D01*
X100745Y27250D01*
D02*
G37*
G36*
X-92355Y30250D02*
X-94145D01*
X-95799Y29565D01*
X-97065Y28299D01*
X-97750Y26645D01*
Y24855D01*
X-97065Y23201D01*
X-95799Y21935D01*
X-94145Y21250D01*
X-92355D01*
X-90701Y21935D01*
X-89435Y23201D01*
X-88750Y24855D01*
Y26645D01*
X-89435Y28299D01*
X-90701Y29565D01*
X-92355Y30250D01*
D02*
G37*
G36*
X395Y25000D02*
X-1395D01*
X-3049Y24315D01*
X-4315Y23049D01*
X-5000Y21395D01*
Y19605D01*
X-4315Y17951D01*
X-3049Y16685D01*
X-1395Y16000D01*
X395D01*
X2049Y16685D01*
X3315Y17951D01*
X4000Y19605D01*
Y21395D01*
X3315Y23049D01*
X2049Y24315D01*
X395Y25000D01*
D02*
G37*
G36*
X-35855Y16750D02*
X-37645D01*
X-39299Y16065D01*
X-40565Y14799D01*
X-41250Y13145D01*
Y11355D01*
X-40565Y9701D01*
X-39299Y8435D01*
X-37645Y7750D01*
X-35855D01*
X-34201Y8435D01*
X-32935Y9701D01*
X-32250Y11355D01*
Y13145D01*
X-32935Y14799D01*
X-34201Y16065D01*
X-35855Y16750D01*
D02*
G37*
G36*
X-47605D02*
X-49395D01*
X-51049Y16065D01*
X-52315Y14799D01*
X-53000Y13145D01*
Y11355D01*
X-52315Y9701D01*
X-51049Y8435D01*
X-49395Y7750D01*
X-47605D01*
X-45951Y8435D01*
X-44685Y9701D01*
X-44000Y11355D01*
Y13145D01*
X-44685Y14799D01*
X-45951Y16065D01*
X-47605Y16750D01*
D02*
G37*
G36*
X-92355Y3000D02*
X-94145D01*
X-95799Y2315D01*
X-97065Y1049D01*
X-97750Y-605D01*
Y-2395D01*
X-97065Y-4049D01*
X-95799Y-5315D01*
X-94145Y-6000D01*
X-92355D01*
X-90701Y-5315D01*
X-89435Y-4049D01*
X-88750Y-2395D01*
Y-605D01*
X-89435Y1049D01*
X-90701Y2315D01*
X-92355Y3000D01*
D02*
G37*
G36*
X-47355Y-250D02*
X-49145D01*
X-50799Y-935D01*
X-52065Y-2201D01*
X-52750Y-3855D01*
Y-5645D01*
X-52065Y-7299D01*
X-50799Y-8565D01*
X-49145Y-9250D01*
X-47355D01*
X-45701Y-8565D01*
X-44435Y-7299D01*
X-43750Y-5645D01*
Y-3855D01*
X-44435Y-2201D01*
X-45701Y-935D01*
X-47355Y-250D01*
D02*
G37*
G36*
X142395Y-2250D02*
X140605D01*
X138951Y-2935D01*
X137685Y-4201D01*
X137000Y-5855D01*
Y-7645D01*
X137685Y-9299D01*
X138951Y-10565D01*
X140605Y-11250D01*
X142395D01*
X144049Y-10565D01*
X145315Y-9299D01*
X146000Y-7645D01*
Y-5855D01*
X145315Y-4201D01*
X144049Y-2935D01*
X142395Y-2250D01*
D02*
G37*
G36*
X-54355Y-13250D02*
X-56145D01*
X-57799Y-13935D01*
X-59065Y-15201D01*
X-59750Y-16855D01*
Y-18645D01*
X-59065Y-20299D01*
X-57799Y-21565D01*
X-56145Y-22250D01*
X-54355D01*
X-52701Y-21565D01*
X-51435Y-20299D01*
X-50750Y-18645D01*
Y-16855D01*
X-51435Y-15201D01*
X-52701Y-13935D01*
X-54355Y-13250D01*
D02*
G37*
G36*
X-35855Y-15000D02*
X-37645D01*
X-39299Y-15685D01*
X-40565Y-16951D01*
X-41250Y-18605D01*
Y-20395D01*
X-40565Y-22049D01*
X-39299Y-23315D01*
X-37645Y-24000D01*
X-35855D01*
X-34201Y-23315D01*
X-32935Y-22049D01*
X-32250Y-20395D01*
Y-18605D01*
X-32935Y-16951D01*
X-34201Y-15685D01*
X-35855Y-15000D01*
D02*
G37*
G36*
X142395Y-16286D02*
X140605D01*
X138951Y-16971D01*
X137685Y-18237D01*
X137000Y-19891D01*
Y-21681D01*
X137685Y-23335D01*
X138951Y-24601D01*
X140605Y-25286D01*
X142395D01*
X144049Y-24601D01*
X145315Y-23335D01*
X146000Y-21681D01*
Y-19891D01*
X145315Y-18237D01*
X144049Y-16971D01*
X142395Y-16286D01*
D02*
G37*
G36*
X213645Y-16750D02*
X211855D01*
X210201Y-17435D01*
X208935Y-18701D01*
X208250Y-20355D01*
Y-22145D01*
X208935Y-23799D01*
X210201Y-25065D01*
X211855Y-25750D01*
X213645D01*
X215299Y-25065D01*
X216565Y-23799D01*
X217250Y-22145D01*
Y-20355D01*
X216565Y-18701D01*
X215299Y-17435D01*
X213645Y-16750D01*
D02*
G37*
G36*
X63145Y-18000D02*
X61355D01*
X59701Y-18685D01*
X58435Y-19951D01*
X57750Y-21605D01*
Y-23395D01*
X58435Y-25049D01*
X59701Y-26315D01*
X61355Y-27000D01*
X63145D01*
X64799Y-26315D01*
X66065Y-25049D01*
X66750Y-23395D01*
Y-21605D01*
X66065Y-19951D01*
X64799Y-18685D01*
X63145Y-18000D01*
D02*
G37*
G36*
X-92255Y-19500D02*
X-94244D01*
X-96082Y-20261D01*
X-97489Y-21668D01*
X-98250Y-23505D01*
Y-25495D01*
X-97489Y-27332D01*
X-96082Y-28739D01*
X-94244Y-29500D01*
X-92255D01*
X-90418Y-28739D01*
X-89011Y-27332D01*
X-88250Y-25495D01*
Y-23505D01*
X-89011Y-21668D01*
X-90418Y-20261D01*
X-92255Y-19500D01*
D02*
G37*
G36*
X-69255Y-21250D02*
X-71245D01*
X-73082Y-22011D01*
X-74489Y-23418D01*
X-75250Y-25255D01*
Y-27245D01*
X-74489Y-29082D01*
X-73082Y-30489D01*
X-71245Y-31250D01*
X-69255D01*
X-67418Y-30489D01*
X-66011Y-29082D01*
X-65250Y-27245D01*
Y-25255D01*
X-66011Y-23418D01*
X-67418Y-22011D01*
X-69255Y-21250D01*
D02*
G37*
G36*
X1274Y-22808D02*
X-516D01*
X-2170Y-23493D01*
X-3436Y-24759D01*
X-4121Y-26413D01*
Y-28203D01*
X-3436Y-29857D01*
X-2170Y-31123D01*
X-516Y-31808D01*
X1274D01*
X2928Y-31123D01*
X4194Y-29857D01*
X4879Y-28203D01*
Y-26413D01*
X4194Y-24759D01*
X2928Y-23493D01*
X1274Y-22808D01*
D02*
G37*
G36*
X-63105Y-30750D02*
X-64895D01*
X-66549Y-31435D01*
X-67815Y-32701D01*
X-68500Y-34355D01*
Y-36145D01*
X-67815Y-37799D01*
X-66549Y-39065D01*
X-64895Y-39750D01*
X-63105D01*
X-61451Y-39065D01*
X-60185Y-37799D01*
X-59500Y-36145D01*
Y-34355D01*
X-60185Y-32701D01*
X-61451Y-31435D01*
X-63105Y-30750D01*
D02*
G37*
G36*
X63145Y-33000D02*
X61355D01*
X59701Y-33685D01*
X58435Y-34951D01*
X57750Y-36605D01*
Y-38395D01*
X58435Y-40049D01*
X59701Y-41315D01*
X61355Y-42000D01*
X63145D01*
X64799Y-41315D01*
X66065Y-40049D01*
X66750Y-38395D01*
Y-36605D01*
X66065Y-34951D01*
X64799Y-33685D01*
X63145Y-33000D01*
D02*
G37*
G36*
X-77355Y-43500D02*
X-79145D01*
X-80799Y-44185D01*
X-82065Y-45451D01*
X-82750Y-47105D01*
Y-48895D01*
X-82065Y-50549D01*
X-80799Y-51815D01*
X-79145Y-52500D01*
X-77355D01*
X-75701Y-51815D01*
X-74435Y-50549D01*
X-73750Y-48895D01*
Y-47105D01*
X-74435Y-45451D01*
X-75701Y-44185D01*
X-77355Y-43500D01*
D02*
G37*
G36*
X-85105Y-53750D02*
X-86895D01*
X-88549Y-54435D01*
X-89815Y-55701D01*
X-90500Y-57355D01*
Y-59145D01*
X-89815Y-60799D01*
X-88549Y-62065D01*
X-86895Y-62750D01*
X-85105D01*
X-83451Y-62065D01*
X-82185Y-60799D01*
X-81500Y-59145D01*
Y-57355D01*
X-82185Y-55701D01*
X-83451Y-54435D01*
X-85105Y-53750D01*
D02*
G37*
G36*
X22495Y-54500D02*
X20505D01*
X18668Y-55261D01*
X17261Y-56668D01*
X16500Y-58505D01*
Y-60495D01*
X17261Y-62332D01*
X18668Y-63739D01*
X20505Y-64500D01*
X22495D01*
X24332Y-63739D01*
X25739Y-62332D01*
X26500Y-60495D01*
Y-58505D01*
X25739Y-56668D01*
X24332Y-55261D01*
X22495Y-54500D01*
D02*
G37*
G36*
X182495Y-65500D02*
X180505D01*
X178668Y-66261D01*
X177261Y-67668D01*
X176500Y-69505D01*
Y-71495D01*
X177261Y-73332D01*
X178668Y-74739D01*
X180505Y-75500D01*
X182495D01*
X184332Y-74739D01*
X185739Y-73332D01*
X186500Y-71495D01*
Y-69505D01*
X185739Y-67668D01*
X184332Y-66261D01*
X182495Y-65500D01*
D02*
G37*
G36*
X28359Y-84250D02*
X26370D01*
X24532Y-85011D01*
X23126Y-86418D01*
X22802Y-87200D01*
X21427D01*
X21103Y-86418D01*
X19697Y-85011D01*
X17859Y-84250D01*
X15870D01*
X14032Y-85011D01*
X12626Y-86418D01*
X11865Y-88255D01*
Y-90245D01*
X12626Y-92082D01*
X14032Y-93489D01*
X15870Y-94250D01*
X17859D01*
X19697Y-93489D01*
X21103Y-92082D01*
X21427Y-91300D01*
X22802D01*
X23126Y-92082D01*
X24532Y-93489D01*
X26370Y-94250D01*
X28359D01*
X30197Y-93489D01*
X31604Y-92082D01*
X32365Y-90245D01*
Y-88255D01*
X31604Y-86418D01*
X30197Y-85011D01*
X28359Y-84250D01*
D02*
G37*
G36*
X-2005D02*
X-3995D01*
X-5832Y-85011D01*
X-7239Y-86418D01*
X-8000Y-88255D01*
Y-90245D01*
X-7239Y-92082D01*
X-5832Y-93489D01*
X-3995Y-94250D01*
X-2005D01*
X-168Y-93489D01*
X1239Y-92082D01*
X2000Y-90245D01*
Y-88255D01*
X1239Y-86418D01*
X-168Y-85011D01*
X-2005Y-84250D01*
D02*
G37*
G36*
X-92755D02*
X-94745D01*
X-96582Y-85011D01*
X-97989Y-86418D01*
X-98750Y-88255D01*
Y-90245D01*
X-97989Y-92082D01*
X-96582Y-93489D01*
X-94745Y-94250D01*
X-92755D01*
X-90918Y-93489D01*
X-89511Y-92082D01*
X-88750Y-90245D01*
Y-88255D01*
X-89511Y-86418D01*
X-90918Y-85011D01*
X-92755Y-84250D01*
D02*
G37*
G36*
X-211505Y-91750D02*
X-213495D01*
X-215332Y-92511D01*
X-216739Y-93918D01*
X-217500Y-95755D01*
Y-97745D01*
X-216739Y-99582D01*
X-215332Y-100989D01*
X-213495Y-101750D01*
X-211505D01*
X-209668Y-100989D01*
X-208261Y-99582D01*
X-207500Y-97745D01*
Y-95755D01*
X-208261Y-93918D01*
X-209668Y-92511D01*
X-211505Y-91750D01*
D02*
G37*
G36*
X241245Y-123750D02*
X239255D01*
X237418Y-124511D01*
X236011Y-125918D01*
X235250Y-127755D01*
Y-129745D01*
X236011Y-131582D01*
X237418Y-132989D01*
X239255Y-133750D01*
X241245D01*
X243082Y-132989D01*
X244489Y-131582D01*
X245250Y-129745D01*
Y-127755D01*
X244489Y-125918D01*
X243082Y-124511D01*
X241245Y-123750D01*
D02*
G37*
G36*
X-211505Y-170000D02*
X-213495D01*
X-215332Y-170761D01*
X-216739Y-172168D01*
X-217500Y-174005D01*
Y-175995D01*
X-216739Y-177832D01*
X-215332Y-179239D01*
X-213495Y-180000D01*
X-211505D01*
X-209668Y-179239D01*
X-208261Y-177832D01*
X-207500Y-175995D01*
Y-174005D01*
X-208261Y-172168D01*
X-209668Y-170761D01*
X-211505Y-170000D01*
D02*
G37*
G36*
X-91755Y-170250D02*
X-93745D01*
X-95582Y-171011D01*
X-96989Y-172418D01*
X-97750Y-174255D01*
Y-176245D01*
X-96989Y-178082D01*
X-95582Y-179489D01*
X-93745Y-180250D01*
X-91755D01*
X-89918Y-179489D01*
X-88511Y-178082D01*
X-87750Y-176245D01*
Y-174255D01*
X-88511Y-172418D01*
X-89918Y-171011D01*
X-91755Y-170250D01*
D02*
G37*
G36*
X11995Y-187500D02*
X10005D01*
X8168Y-188261D01*
X6761Y-189668D01*
X6000Y-191505D01*
Y-193495D01*
X6761Y-195332D01*
X8168Y-196739D01*
X10005Y-197500D01*
X11995D01*
X13832Y-196739D01*
X15239Y-195332D01*
X16000Y-193495D01*
Y-191505D01*
X15239Y-189668D01*
X13832Y-188261D01*
X11995Y-187500D01*
D02*
G37*
G36*
X-91755Y-191500D02*
X-93745D01*
X-95582Y-192261D01*
X-96989Y-193668D01*
X-97750Y-195505D01*
Y-197495D01*
X-96989Y-199332D01*
X-95582Y-200739D01*
X-93745Y-201500D01*
X-91755D01*
X-89918Y-200739D01*
X-88511Y-199332D01*
X-87750Y-197495D01*
Y-195505D01*
X-88511Y-193668D01*
X-89918Y-192261D01*
X-91755Y-191500D01*
D02*
G37*
G36*
X-170255Y-226750D02*
X-172245D01*
X-174082Y-227511D01*
X-175489Y-228918D01*
X-176250Y-230755D01*
Y-232745D01*
X-175489Y-234582D01*
X-174082Y-235989D01*
X-172245Y-236750D01*
X-170255D01*
X-168418Y-235989D01*
X-167011Y-234582D01*
X-166250Y-232745D01*
Y-230755D01*
X-167011Y-228918D01*
X-168418Y-227511D01*
X-170255Y-226750D01*
D02*
G37*
G36*
X224216Y-203378D02*
X220375D01*
X216607Y-204127D01*
X213059Y-205597D01*
X209865Y-207731D01*
X207148Y-210448D01*
X205014Y-213641D01*
X203544Y-217190D01*
X202795Y-220958D01*
Y-224799D01*
X203544Y-228566D01*
X205014Y-232115D01*
X207148Y-235309D01*
X209865Y-238025D01*
X213059Y-240160D01*
X216607Y-241630D01*
X220375Y-242379D01*
X224216D01*
X227984Y-241630D01*
X231533Y-240160D01*
X234727Y-238025D01*
X237443Y-235309D01*
X239577Y-232115D01*
X241047Y-228566D01*
X241796Y-224799D01*
Y-220958D01*
X241047Y-217190D01*
X239577Y-213641D01*
X237443Y-210448D01*
X234727Y-207731D01*
X231533Y-205597D01*
X227984Y-204127D01*
X224216Y-203378D01*
D02*
G37*
G36*
X-220784D02*
X-224625D01*
X-228393Y-204127D01*
X-231941Y-205597D01*
X-235135Y-207731D01*
X-237852Y-210448D01*
X-239986Y-213641D01*
X-241456Y-217190D01*
X-242205Y-220958D01*
Y-224799D01*
X-241456Y-228566D01*
X-239986Y-232115D01*
X-237852Y-235309D01*
X-235135Y-238025D01*
X-231941Y-240160D01*
X-228393Y-241630D01*
X-224625Y-242379D01*
X-220784D01*
X-217016Y-241630D01*
X-213467Y-240160D01*
X-210273Y-238025D01*
X-207557Y-235309D01*
X-205423Y-232115D01*
X-203953Y-228566D01*
X-203204Y-224799D01*
Y-220958D01*
X-203953Y-217190D01*
X-205423Y-213641D01*
X-207557Y-210448D01*
X-210273Y-207731D01*
X-213467Y-205597D01*
X-217016Y-204127D01*
X-220784Y-203378D01*
D02*
G37*
%LPD*%
G36*
X-161000Y206750D02*
Y173237D01*
X-161355Y173000D01*
X-163145D01*
X-164799Y172315D01*
X-166065Y171049D01*
X-166750Y169395D01*
Y167605D01*
X-166065Y165951D01*
X-164799Y164685D01*
X-163145Y164000D01*
X-161355D01*
X-161000Y163763D01*
Y-88500D01*
X-143960Y-105540D01*
X-144546Y-106750D01*
X-145895D01*
X-147549Y-107435D01*
X-148815Y-108701D01*
X-149500Y-110355D01*
Y-112145D01*
X-148815Y-113799D01*
X-147549Y-115065D01*
X-145895Y-115750D01*
X-144105D01*
X-142451Y-115065D01*
X-141185Y-113799D01*
X-140500Y-112145D01*
Y-110796D01*
X-139290Y-110210D01*
X-137500Y-112000D01*
X135250D01*
X151750Y-95500D01*
Y85750D01*
X155000Y89000D01*
X168000D01*
X170500Y86500D01*
Y-221750D01*
Y-227500D01*
X168000Y-230000D01*
X165250Y-232500D01*
X52750D01*
X52250Y-233000D01*
X41750Y-222500D01*
Y-198750D01*
X52750Y-187750D01*
X124250D01*
X133000Y-179000D01*
Y-157250D01*
X125000Y-149250D01*
X-180000D01*
X-192500Y-136750D01*
Y204750D01*
X-184000Y213250D01*
X-167500D01*
X-161000Y206750D01*
D02*
G37*
%LPC*%
G36*
X-178105Y-79750D02*
X-179895D01*
X-181549Y-80435D01*
X-182815Y-81701D01*
X-183500Y-83355D01*
Y-85145D01*
X-182815Y-86799D01*
X-181549Y-88065D01*
X-179895Y-88750D01*
X-178105D01*
X-176451Y-88065D01*
X-175185Y-86799D01*
X-174500Y-85145D01*
Y-83355D01*
X-175185Y-81701D01*
X-176451Y-80435D01*
X-178105Y-79750D01*
D02*
G37*
G36*
X-177855Y-104500D02*
X-179645D01*
X-181299Y-105185D01*
X-182565Y-106451D01*
X-183250Y-108105D01*
Y-109895D01*
X-182565Y-111549D01*
X-181299Y-112815D01*
X-179645Y-113500D01*
X-177855D01*
X-176201Y-112815D01*
X-174935Y-111549D01*
X-174250Y-109895D01*
Y-108105D01*
X-174935Y-106451D01*
X-176201Y-105185D01*
X-177855Y-104500D01*
D02*
G37*
G36*
X-120255Y-132000D02*
X-122245D01*
X-124082Y-132761D01*
X-125489Y-134168D01*
X-126250Y-136005D01*
Y-137995D01*
X-125489Y-139832D01*
X-124082Y-141239D01*
X-122245Y-142000D01*
X-120255D01*
X-118418Y-141239D01*
X-117011Y-139832D01*
X-116250Y-137995D01*
Y-136005D01*
X-117011Y-134168D01*
X-118418Y-132761D01*
X-120255Y-132000D01*
D02*
G37*
G36*
X152245Y-207000D02*
X150255D01*
X148418Y-207761D01*
X147011Y-209168D01*
X146250Y-211005D01*
Y-212995D01*
X147011Y-214832D01*
X148418Y-216239D01*
X150255Y-217000D01*
X152245D01*
X154082Y-216239D01*
X155489Y-214832D01*
X156250Y-212995D01*
Y-211005D01*
X155489Y-209168D01*
X154082Y-207761D01*
X152245Y-207000D01*
D02*
G37*
%LPD*%
D101*
X72000Y-217250D02*
D03*
Y-201000D02*
D03*
X164250Y-152000D02*
D03*
X189500Y-125250D02*
D03*
Y-109000D02*
D03*
Y-92750D02*
D03*
X212000Y-75500D02*
D03*
X235750Y-96500D02*
D03*
Y-75250D02*
D03*
X162174Y-20786D02*
D03*
X177500Y-51500D02*
D03*
X141000Y22250D02*
D03*
Y82500D02*
D03*
X133000Y145500D02*
D03*
X72750Y174000D02*
D03*
X40000Y210250D02*
D03*
X-87473D02*
D03*
X-142000Y100250D02*
D03*
X-93250Y64000D02*
D03*
Y40500D02*
D03*
Y-35750D02*
D03*
X-82885Y-89250D02*
D03*
X-163034Y-97187D02*
D03*
X-10750Y0D02*
D03*
X-11000Y47250D02*
D03*
X32500Y64750D02*
D03*
X32115Y-59500D02*
D03*
X-175000Y210250D02*
D03*
D102*
X-145000Y-66750D02*
D03*
X-93250Y11500D02*
D03*
X-33750Y142500D02*
D03*
X-24750Y167250D02*
D03*
X-62250Y132500D02*
D03*
X-231750Y134000D02*
D03*
X161992Y65018D02*
D03*
X235250Y161000D02*
D03*
M02*
