G04*
G04 #@! TF.GenerationSoftware,Altium Limited,Altium Designer,23.7.1 (13)*
G04*
G04 Layer_Physical_Order=4*
G04 Layer_Color=16711680*
%FSLAX44Y44*%
%MOMM*%
G71*
G04*
G04 #@! TF.SameCoordinates,04D04BC5-F765-4596-8717-98BD9A505975*
G04*
G04*
G04 #@! TF.FilePolarity,Positive*
G04*
G01*
G75*
%ADD10C,0.2000*%
%ADD11C,0.2500*%
%ADD17C,0.1000*%
%ADD58R,0.6000X0.5000*%
G04:AMPARAMS|DCode=75|XSize=0.6mm|YSize=0.7mm|CornerRadius=0.075mm|HoleSize=0mm|Usage=FLASHONLY|Rotation=180.000|XOffset=0mm|YOffset=0mm|HoleType=Round|Shape=RoundedRectangle|*
%AMROUNDEDRECTD75*
21,1,0.6000,0.5500,0,0,180.0*
21,1,0.4500,0.7000,0,0,180.0*
1,1,0.1500,-0.2250,0.2750*
1,1,0.1500,0.2250,0.2750*
1,1,0.1500,0.2250,-0.2750*
1,1,0.1500,-0.2250,-0.2750*
%
%ADD75ROUNDEDRECTD75*%
%ADD84R,0.7000X0.9000*%
%ADD87R,0.9000X0.7000*%
%ADD90R,0.5000X0.6000*%
%ADD93C,0.5000*%
%ADD94C,0.3000*%
%ADD100C,3.5001*%
%ADD101C,0.5000*%
%ADD102C,0.6000*%
G04:AMPARAMS|DCode=103|XSize=0.6mm|YSize=0.7mm|CornerRadius=0.075mm|HoleSize=0mm|Usage=FLASHONLY|Rotation=90.000|XOffset=0mm|YOffset=0mm|HoleType=Round|Shape=RoundedRectangle|*
%AMROUNDEDRECTD103*
21,1,0.6000,0.5500,0,0,90.0*
21,1,0.4500,0.7000,0,0,90.0*
1,1,0.1500,0.2750,0.2250*
1,1,0.1500,0.2750,-0.2250*
1,1,0.1500,-0.2750,-0.2250*
1,1,0.1500,-0.2750,0.2250*
%
%ADD103ROUNDEDRECTD103*%
G04:AMPARAMS|DCode=104|XSize=1.12mm|YSize=0.27mm|CornerRadius=0.0338mm|HoleSize=0mm|Usage=FLASHONLY|Rotation=90.000|XOffset=0mm|YOffset=0mm|HoleType=Round|Shape=RoundedRectangle|*
%AMROUNDEDRECTD104*
21,1,1.1200,0.2025,0,0,90.0*
21,1,1.0525,0.2700,0,0,90.0*
1,1,0.0675,0.1013,0.5263*
1,1,0.0675,0.1013,-0.5263*
1,1,0.0675,-0.1013,-0.5263*
1,1,0.0675,-0.1013,0.5263*
%
%ADD104ROUNDEDRECTD104*%
%ADD105R,0.6000X1.5000*%
G04:AMPARAMS|DCode=106|XSize=0.8mm|YSize=1mm|CornerRadius=0.1mm|HoleSize=0mm|Usage=FLASHONLY|Rotation=90.000|XOffset=0mm|YOffset=0mm|HoleType=Round|Shape=RoundedRectangle|*
%AMROUNDEDRECTD106*
21,1,0.8000,0.8000,0,0,90.0*
21,1,0.6000,1.0000,0,0,90.0*
1,1,0.2000,0.4000,0.3000*
1,1,0.2000,0.4000,-0.3000*
1,1,0.2000,-0.4000,-0.3000*
1,1,0.2000,-0.4000,0.3000*
%
%ADD106ROUNDEDRECTD106*%
G04:AMPARAMS|DCode=107|XSize=0.59mm|YSize=0.35mm|CornerRadius=0.0875mm|HoleSize=0mm|Usage=FLASHONLY|Rotation=270.000|XOffset=0mm|YOffset=0mm|HoleType=Round|Shape=RoundedRectangle|*
%AMROUNDEDRECTD107*
21,1,0.5900,0.1750,0,0,270.0*
21,1,0.4150,0.3500,0,0,270.0*
1,1,0.1750,-0.0875,-0.2075*
1,1,0.1750,-0.0875,0.2075*
1,1,0.1750,0.0875,0.2075*
1,1,0.1750,0.0875,-0.2075*
%
%ADD107ROUNDEDRECTD107*%
G04:AMPARAMS|DCode=108|XSize=0.59mm|YSize=0.35mm|CornerRadius=0.0875mm|HoleSize=0mm|Usage=FLASHONLY|Rotation=180.000|XOffset=0mm|YOffset=0mm|HoleType=Round|Shape=RoundedRectangle|*
%AMROUNDEDRECTD108*
21,1,0.5900,0.1750,0,0,180.0*
21,1,0.4150,0.3500,0,0,180.0*
1,1,0.1750,-0.2075,0.0875*
1,1,0.1750,0.2075,0.0875*
1,1,0.1750,0.2075,-0.0875*
1,1,0.1750,-0.2075,-0.0875*
%
%ADD108ROUNDEDRECTD108*%
%ADD109C,0.2000*%
G36*
X212907Y242337D02*
X211638Y241811D01*
X207952Y239349D01*
X204818Y236215D01*
X202356Y232530D01*
X200660Y228435D01*
X199795Y224088D01*
Y219655D01*
X200660Y215308D01*
X202356Y211214D01*
X204818Y207528D01*
X207952Y204394D01*
X211638Y201932D01*
X215732Y200236D01*
X220079Y199371D01*
X224512D01*
X228859Y200236D01*
X232954Y201932D01*
X236639Y204394D01*
X239773Y207528D01*
X242235Y211214D01*
X242362Y211518D01*
X243607Y211270D01*
Y163695D01*
X242337Y163528D01*
X242239Y163895D01*
X241252Y165605D01*
X239855Y167001D01*
X238145Y167989D01*
X236237Y168500D01*
X234263D01*
X232355Y167989D01*
X230645Y167001D01*
X229249Y165605D01*
X228261Y163895D01*
X227750Y161987D01*
Y160013D01*
X228261Y158105D01*
X229249Y156395D01*
X230645Y154999D01*
X232355Y154011D01*
X234263Y153500D01*
X236237D01*
X238145Y154011D01*
X239855Y154999D01*
X241252Y156395D01*
X242239Y158105D01*
X242337Y158472D01*
X243607Y158305D01*
Y-70319D01*
X242337Y-70659D01*
X242152Y-70338D01*
X240662Y-68848D01*
X238838Y-67795D01*
X236803Y-67250D01*
X234697D01*
X232662Y-67795D01*
X230838Y-68848D01*
X229348Y-70338D01*
X228295Y-72162D01*
X227750Y-74197D01*
Y-76303D01*
X228295Y-78338D01*
X229348Y-80162D01*
X230838Y-81652D01*
X232662Y-82705D01*
X234697Y-83250D01*
X236803D01*
X238838Y-82705D01*
X240662Y-81652D01*
X242152Y-80162D01*
X242337Y-79841D01*
X243607Y-80181D01*
Y-91569D01*
X242337Y-91909D01*
X242152Y-91588D01*
X240662Y-90098D01*
X238838Y-89045D01*
X236803Y-88500D01*
X234697D01*
X232662Y-89045D01*
X230838Y-90098D01*
X229348Y-91588D01*
X228295Y-93412D01*
X227750Y-95447D01*
Y-97553D01*
X228295Y-99588D01*
X229348Y-101412D01*
X230838Y-102902D01*
X232662Y-103955D01*
X234697Y-104500D01*
X236803D01*
X238838Y-103955D01*
X240662Y-102902D01*
X242152Y-101412D01*
X242337Y-101091D01*
X243607Y-101431D01*
Y-122769D01*
X242337Y-123618D01*
X241520Y-123280D01*
Y-128750D01*
Y-134220D01*
X242337Y-133882D01*
X243607Y-134731D01*
Y-212277D01*
X242362Y-212525D01*
X242235Y-212220D01*
X239773Y-208535D01*
X236639Y-205401D01*
X232954Y-202939D01*
X228859Y-201243D01*
X224512Y-200378D01*
X220079D01*
X215732Y-201243D01*
X211638Y-202939D01*
X207952Y-205401D01*
X204818Y-208535D01*
X202356Y-212220D01*
X200660Y-216315D01*
X199795Y-220662D01*
Y-225095D01*
X200660Y-229442D01*
X202356Y-233536D01*
X204818Y-237222D01*
X207952Y-240356D01*
X210918Y-242337D01*
X210532Y-243607D01*
X-210941D01*
X-211327Y-242337D01*
X-208361Y-240356D01*
X-205227Y-237222D01*
X-202765Y-233536D01*
X-201068Y-229442D01*
X-200204Y-225095D01*
Y-220662D01*
X-201068Y-216315D01*
X-202765Y-212220D01*
X-205227Y-208535D01*
X-208361Y-205401D01*
X-212046Y-202939D01*
X-216141Y-201243D01*
X-220488Y-200378D01*
X-224921D01*
X-229268Y-201243D01*
X-233362Y-202939D01*
X-237048Y-205401D01*
X-240182Y-208535D01*
X-242337Y-211761D01*
X-243607Y-211376D01*
Y210369D01*
X-242337Y210754D01*
X-240182Y207528D01*
X-237048Y204394D01*
X-233362Y201932D01*
X-229268Y200236D01*
X-224921Y199371D01*
X-220488D01*
X-216141Y200236D01*
X-212046Y201932D01*
X-208361Y204394D01*
X-205227Y207528D01*
X-202765Y211214D01*
X-201068Y215308D01*
X-200204Y219655D01*
Y224088D01*
X-201068Y228435D01*
X-202765Y232530D01*
X-205227Y236215D01*
X-208361Y239349D01*
X-212046Y241811D01*
X-213316Y242337D01*
X-213063Y243607D01*
X212654D01*
X212907Y242337D01*
D02*
G37*
%LPC*%
G36*
X139500Y241098D02*
X114500D01*
X112549Y240710D01*
X110895Y239605D01*
X109790Y237951D01*
X109402Y236000D01*
Y216000D01*
X109790Y214049D01*
X110895Y212395D01*
X112549Y211290D01*
X114500Y210902D01*
X139500D01*
X141451Y211290D01*
X143105Y212395D01*
X144210Y214049D01*
X144598Y216000D01*
Y236000D01*
X144210Y237951D01*
X143105Y239605D01*
X141451Y240710D01*
X139500Y241098D01*
D02*
G37*
G36*
X28730Y208980D02*
X24530D01*
X25303Y207112D01*
X26862Y205553D01*
X28730Y204780D01*
Y208980D01*
D02*
G37*
G36*
X-57030D02*
X-61230D01*
Y204780D01*
X-59362Y205553D01*
X-57803Y207112D01*
X-57030Y208980D01*
D02*
G37*
G36*
X-63770D02*
X-67970D01*
X-67197Y207112D01*
X-65638Y205553D01*
X-63770Y204780D01*
Y208980D01*
D02*
G37*
G36*
X85520Y207720D02*
Y203520D01*
X89720D01*
X88947Y205388D01*
X87388Y206947D01*
X85520Y207720D01*
D02*
G37*
G36*
X82980D02*
X81112Y206947D01*
X79553Y205388D01*
X78780Y203520D01*
X82980D01*
Y207720D01*
D02*
G37*
G36*
X-173947Y218250D02*
X-176053D01*
X-178088Y217705D01*
X-179912Y216652D01*
X-181402Y215162D01*
X-182455Y213338D01*
X-183000Y211303D01*
Y209197D01*
X-182455Y207162D01*
X-181402Y205338D01*
X-179912Y203848D01*
X-178088Y202795D01*
X-176053Y202250D01*
X-173947D01*
X-171912Y202795D01*
X-170088Y203848D01*
X-168598Y205338D01*
X-167545Y207162D01*
X-167000Y209197D01*
Y211303D01*
X-167545Y213338D01*
X-168598Y215162D01*
X-170088Y216652D01*
X-171912Y217705D01*
X-173947Y218250D01*
D02*
G37*
G36*
X195020Y201470D02*
Y197270D01*
X199220D01*
X198447Y199138D01*
X196888Y200697D01*
X195020Y201470D01*
D02*
G37*
G36*
X192480D02*
X190612Y200697D01*
X189053Y199138D01*
X188280Y197270D01*
X192480D01*
Y201470D01*
D02*
G37*
G36*
X199220Y194730D02*
X195020D01*
Y190530D01*
X196888Y191303D01*
X198447Y192862D01*
X199220Y194730D01*
D02*
G37*
G36*
X192480D02*
X188280D01*
X189053Y192862D01*
X190612Y191303D01*
X192480Y190530D01*
Y194730D01*
D02*
G37*
G36*
X-141013Y240250D02*
X-142987D01*
X-144895Y239739D01*
X-146605Y238752D01*
X-148001Y237355D01*
X-148989Y235645D01*
X-149500Y233737D01*
Y231763D01*
X-148989Y229855D01*
X-148001Y228145D01*
X-147357Y227500D01*
X-148001Y226855D01*
X-148989Y225145D01*
X-149500Y223237D01*
Y221263D01*
X-148989Y219355D01*
X-148001Y217645D01*
X-146605Y216248D01*
X-144895Y215261D01*
X-142987Y214750D01*
X-141013D01*
X-139105Y215261D01*
X-138037Y215878D01*
X-94869D01*
X-94194Y214608D01*
X-94927Y213338D01*
X-95473Y211303D01*
Y209197D01*
X-94927Y207162D01*
X-93874Y205338D01*
X-92385Y203848D01*
X-90560Y202795D01*
X-88526Y202250D01*
X-86419D01*
X-84385Y202795D01*
X-82561Y203848D01*
X-81071Y205338D01*
X-80018Y207162D01*
X-79473Y209197D01*
Y211303D01*
X-80018Y213338D01*
X-80751Y214608D01*
X-80076Y215878D01*
X-66457D01*
X-65977Y214608D01*
X-67197Y213388D01*
X-67970Y211520D01*
X-57030D01*
X-57803Y213388D01*
X-59023Y214608D01*
X-58543Y215878D01*
X26043D01*
X26523Y214608D01*
X25303Y213388D01*
X24530Y211520D01*
X30000D01*
Y210250D01*
X31270D01*
Y204780D01*
X33138Y205553D01*
X33502Y205506D01*
X33598Y205338D01*
X35088Y203848D01*
X36912Y202795D01*
X38947Y202250D01*
X41053D01*
X41628Y201809D01*
Y174250D01*
X40513D01*
X38605Y173739D01*
X37537Y173122D01*
X8250D01*
X5811Y172637D01*
X4411Y171701D01*
X3751Y171855D01*
X2355Y173251D01*
X645Y174239D01*
X-1263Y174750D01*
X-3237D01*
X-5145Y174239D01*
X-6855Y173251D01*
X-8252Y171855D01*
X-9239Y170145D01*
X-9750Y168237D01*
Y166263D01*
X-9524Y165420D01*
X-10627Y164630D01*
X-11409Y165152D01*
X-13750Y165618D01*
X-16108D01*
X-17087Y166171D01*
X-17233Y166888D01*
X-17185Y167250D01*
X-17250Y167742D01*
Y168237D01*
X-17378Y168716D01*
X-17443Y169208D01*
X-17633Y169666D01*
X-17761Y170145D01*
X-18009Y170574D01*
X-18199Y171032D01*
X-18501Y171426D01*
X-18749Y171855D01*
X-19099Y172206D01*
X-19401Y172599D01*
X-19794Y172901D01*
X-20145Y173251D01*
X-20574Y173499D01*
X-20968Y173801D01*
X-21426Y173991D01*
X-21855Y174239D01*
X-22334Y174367D01*
X-22792Y174557D01*
X-23284Y174622D01*
X-23763Y174750D01*
X-24258D01*
X-24750Y174815D01*
X-32856D01*
X-33756Y175416D01*
X-36000Y175863D01*
X-40500D01*
X-42744Y175416D01*
X-44646Y174146D01*
X-45271Y173209D01*
X-46000Y173354D01*
X-46980D01*
Y167250D01*
Y161146D01*
X-46000D01*
X-45271Y161291D01*
X-44646Y160354D01*
X-44556Y160295D01*
Y159000D01*
X-44333Y157303D01*
X-44117Y156784D01*
Y153950D01*
X-44364D01*
X-45277Y153572D01*
X-45297Y153580D01*
X-47684D01*
X-47703Y153572D01*
X-48616Y153950D01*
X-50024D01*
X-51325Y153411D01*
X-51549Y153188D01*
X-57093D01*
X-57159Y153232D01*
X-59500Y153698D01*
X-60227D01*
X-60553Y153833D01*
X-62250Y154056D01*
X-75000D01*
X-75178Y154033D01*
X-76132Y154870D01*
Y162846D01*
X-75261Y164355D01*
X-74750Y166263D01*
Y168237D01*
X-75261Y170145D01*
X-76248Y171855D01*
X-77645Y173251D01*
X-79355Y174239D01*
X-81263Y174750D01*
X-83237D01*
X-85145Y174239D01*
X-86855Y173251D01*
X-88251Y171855D01*
X-88372Y171646D01*
X-89839D01*
X-90248Y172355D01*
X-91645Y173752D01*
X-93355Y174739D01*
X-95263Y175250D01*
X-97237D01*
X-99145Y174739D01*
X-100855Y173752D01*
X-102252Y172355D01*
X-103239Y170645D01*
X-103276Y170508D01*
X-104590D01*
X-104761Y171145D01*
X-105749Y172855D01*
X-107145Y174251D01*
X-108855Y175239D01*
X-110763Y175750D01*
X-112737D01*
X-114645Y175239D01*
X-115828Y174556D01*
X-133172D01*
X-134355Y175239D01*
X-135191Y175463D01*
X-138864Y179136D01*
X-140222Y180178D01*
X-141803Y180833D01*
X-143500Y181056D01*
X-167250D01*
X-168947Y180833D01*
X-170528Y180178D01*
X-171886Y179136D01*
X-176886Y174136D01*
X-177928Y172778D01*
X-178583Y171197D01*
X-178693Y170361D01*
X-179501Y170018D01*
X-180025Y169973D01*
X-183901Y173849D01*
X-185468Y175051D01*
X-187292Y175807D01*
X-189250Y176065D01*
X-204750D01*
X-205242Y176000D01*
X-205737D01*
X-206216Y175872D01*
X-206708Y175807D01*
X-207166Y175617D01*
X-207645Y175489D01*
X-208074Y175241D01*
X-208532Y175051D01*
X-208926Y174749D01*
X-209355Y174501D01*
X-209706Y174151D01*
X-210099Y173849D01*
X-210401Y173456D01*
X-210751Y173105D01*
X-210999Y172676D01*
X-211301Y172282D01*
X-211491Y171824D01*
X-211739Y171395D01*
X-211867Y170916D01*
X-212057Y170458D01*
X-212122Y169966D01*
X-212250Y169487D01*
Y168992D01*
X-212315Y168500D01*
X-212250Y168008D01*
Y167513D01*
X-212122Y167034D01*
X-212057Y166542D01*
X-211867Y166084D01*
X-211739Y165605D01*
X-211491Y165176D01*
X-211301Y164718D01*
X-210999Y164324D01*
X-210751Y163895D01*
X-210401Y163544D01*
X-210099Y163151D01*
X-209706Y162849D01*
X-209355Y162498D01*
X-208926Y162251D01*
X-208532Y161949D01*
X-208074Y161759D01*
X-207645Y161511D01*
X-207166Y161383D01*
X-206708Y161193D01*
X-206216Y161128D01*
X-205737Y161000D01*
X-205242D01*
X-204750Y160935D01*
X-194750D01*
Y145250D01*
Y132000D01*
X-193300D01*
X-192811Y130933D01*
Y128473D01*
X-196040D01*
Y118433D01*
Y108393D01*
X-192811D01*
Y105933D01*
X-180962D01*
X-180309Y104933D01*
X-180309Y104663D01*
Y102473D01*
X-183541D01*
Y92433D01*
Y82393D01*
X-181359D01*
X-181357Y82374D01*
X-182502Y81104D01*
X-185750D01*
X-187034Y80849D01*
X-188122Y80122D01*
X-188849Y79034D01*
X-189104Y77750D01*
Y76270D01*
X-183500D01*
Y75000D01*
X-182230D01*
Y68896D01*
X-181250D01*
X-180521Y69041D01*
X-179895Y68105D01*
X-177994Y66834D01*
X-175750Y66387D01*
X-171250D01*
X-169007Y66834D01*
X-167104Y68105D01*
X-165834Y70006D01*
X-165387Y72250D01*
Y77750D01*
X-165626Y78952D01*
X-164821Y79933D01*
X-151810D01*
Y84869D01*
X-149817D01*
X-148810Y85001D01*
X-147548Y84402D01*
X-147358Y83959D01*
X-146697Y82362D01*
X-145138Y80803D01*
X-143270Y80030D01*
Y85500D01*
X-142000D01*
Y86770D01*
X-136530D01*
X-137303Y88638D01*
X-138862Y90197D01*
X-139569Y90490D01*
X-139817Y91735D01*
X-138544Y93007D01*
X-137088Y93848D01*
X-135598Y95338D01*
X-134545Y97162D01*
X-134000Y99197D01*
Y101303D01*
X-134545Y103338D01*
X-135598Y105162D01*
X-137088Y106652D01*
X-136476Y107765D01*
X-135487Y107500D01*
X-133513D01*
X-131605Y108011D01*
X-130856Y108444D01*
X-113977D01*
X-113491Y107271D01*
X-115756Y105006D01*
X-117137Y102939D01*
X-117622Y100500D01*
Y51890D01*
X-121704Y47808D01*
X-122895Y47489D01*
X-124605Y46501D01*
X-126002Y45105D01*
X-126989Y43395D01*
X-127500Y41487D01*
Y39513D01*
X-126989Y37605D01*
X-126002Y35895D01*
X-124605Y34499D01*
X-122895Y33511D01*
X-120987Y33000D01*
X-119013D01*
X-117105Y33511D01*
X-115395Y34499D01*
X-113998Y35895D01*
X-113011Y37605D01*
X-112692Y38796D01*
X-106744Y44744D01*
X-105363Y46811D01*
X-104878Y49250D01*
Y97860D01*
X-102611Y100128D01*
X-88000D01*
Y99263D01*
X-87489Y97355D01*
X-86502Y95645D01*
X-85105Y94249D01*
X-83395Y93261D01*
X-81487Y92750D01*
X-79513D01*
X-77605Y93261D01*
X-76096Y94132D01*
X-59000D01*
X-56659Y94598D01*
X-54674Y95924D01*
X-54674Y95924D01*
X-50466Y100133D01*
X-44500D01*
X-42159Y100598D01*
X-40642Y101611D01*
X-39372Y101012D01*
Y75640D01*
X-41566Y73446D01*
X-69177D01*
X-71615Y72961D01*
X-73682Y71579D01*
X-73954Y71308D01*
X-75145Y70989D01*
X-76855Y70002D01*
X-77806Y69051D01*
X-79247Y68697D01*
X-81115Y69470D01*
Y64000D01*
X-83655D01*
Y69470D01*
X-85523Y68697D01*
X-85547Y68673D01*
X-86806Y68839D01*
X-86848Y68912D01*
X-88338Y70402D01*
X-90162Y71455D01*
X-92197Y72000D01*
X-94303D01*
X-96338Y71455D01*
X-98162Y70402D01*
X-99652Y68912D01*
X-100705Y67088D01*
X-101250Y65053D01*
Y62947D01*
X-100705Y60912D01*
X-100649Y60815D01*
Y53750D01*
X-100584Y53258D01*
Y45750D01*
X-100584D01*
X-100190Y44480D01*
X-100705Y43588D01*
X-101250Y41553D01*
Y39447D01*
X-100705Y37412D01*
X-99652Y35588D01*
X-98162Y34098D01*
X-97246Y33570D01*
Y32103D01*
X-97855Y31751D01*
X-99251Y30355D01*
X-100239Y28645D01*
X-100750Y26737D01*
Y24763D01*
X-100239Y22855D01*
X-99251Y21145D01*
X-97855Y19749D01*
X-97179Y19358D01*
Y17892D01*
X-97855Y17501D01*
X-99251Y16105D01*
X-100239Y14395D01*
X-100750Y12487D01*
Y10513D01*
X-100239Y8605D01*
X-99251Y6895D01*
X-98153Y5796D01*
X-97970Y5000D01*
X-98153Y4204D01*
X-98206Y4151D01*
X-98599Y3849D01*
X-98901Y3456D01*
X-99251Y3105D01*
X-99499Y2676D01*
X-99801Y2282D01*
X-99991Y1824D01*
X-100239Y1395D01*
X-100367Y916D01*
X-100557Y458D01*
X-100622Y-34D01*
X-100750Y-513D01*
Y-1008D01*
X-100815Y-1500D01*
X-100750Y-1992D01*
Y-2487D01*
X-100622Y-2966D01*
X-100557Y-3458D01*
X-100367Y-3916D01*
X-100239Y-4395D01*
X-99991Y-4824D01*
X-99801Y-5282D01*
X-99499Y-5676D01*
X-99251Y-6105D01*
X-98901Y-6456D01*
X-98599Y-6849D01*
X-98206Y-7151D01*
X-97855Y-7502D01*
X-97426Y-7750D01*
X-97032Y-8051D01*
X-96574Y-8241D01*
X-96145Y-8489D01*
X-95666Y-8617D01*
X-95208Y-8807D01*
X-94716Y-8872D01*
X-94237Y-9000D01*
X-93742D01*
X-93250Y-9065D01*
X-88500D01*
Y-11000D01*
X-76872D01*
Y-19626D01*
X-78730D01*
Y-24666D01*
X-80000D01*
Y-25936D01*
X-85540D01*
Y-27769D01*
X-87233D01*
X-88082Y-26499D01*
X-87780Y-25770D01*
X-98720D01*
X-97947Y-27638D01*
X-97679Y-27906D01*
X-97845Y-29165D01*
X-98162Y-29348D01*
X-99652Y-30838D01*
X-100705Y-32662D01*
X-101250Y-34697D01*
Y-36803D01*
X-100705Y-38838D01*
X-99652Y-40662D01*
X-98162Y-42152D01*
X-96338Y-43205D01*
X-94303Y-43750D01*
X-92197D01*
X-90162Y-43205D01*
X-89632Y-42899D01*
X-84301D01*
X-83775Y-44169D01*
X-84501Y-44895D01*
X-85489Y-46605D01*
X-86000Y-48513D01*
Y-49821D01*
X-87661Y-50931D01*
X-88895Y-51261D01*
X-90605Y-52249D01*
X-92001Y-53645D01*
X-92989Y-55355D01*
X-93500Y-57263D01*
Y-59237D01*
X-92989Y-61145D01*
X-92001Y-62855D01*
X-90605Y-64251D01*
X-88895Y-65239D01*
X-86987Y-65750D01*
X-85013D01*
X-83105Y-65239D01*
X-81395Y-64251D01*
X-79998Y-62855D01*
X-79431Y-61872D01*
X-37000D01*
X-34561Y-61387D01*
X-32494Y-60006D01*
X-27934Y-55446D01*
X-26553Y-53379D01*
X-26068Y-50940D01*
Y-45071D01*
X-25531Y-44267D01*
X-25201Y-42607D01*
X-23215D01*
X-21883Y-42342D01*
X-20753Y-41587D01*
X-19998Y-40458D01*
X-19733Y-39125D01*
Y-37375D01*
X-19998Y-36042D01*
X-20194Y-35750D01*
X-19998Y-35457D01*
X-19733Y-34125D01*
X-18695Y-33344D01*
X-17703Y-33499D01*
X-17605Y-33589D01*
Y-34480D01*
X-11500D01*
X-5396D01*
Y-33500D01*
X-5541Y-32771D01*
X-4604Y-32146D01*
X-4446Y-31908D01*
X-3201Y-31661D01*
X-2744Y-31966D01*
X-2347Y-33072D01*
X-2521Y-33526D01*
X-3085Y-34369D01*
X-3359Y-35750D01*
Y-37480D01*
X4250D01*
Y-38750D01*
X5520D01*
Y-45359D01*
X8250D01*
X9631Y-45085D01*
X10802Y-44302D01*
X11585Y-43131D01*
X12518Y-42632D01*
X12730Y-42720D01*
Y-37250D01*
X14000D01*
Y-35980D01*
X19470D01*
X18697Y-34112D01*
X17473Y-32888D01*
X17434Y-32768D01*
X17518Y-31662D01*
X17634Y-31390D01*
X18912Y-30652D01*
X18931Y-30633D01*
X19980Y-31239D01*
X21888Y-31750D01*
X23862D01*
X25770Y-31239D01*
X27480Y-30252D01*
X27562Y-30169D01*
X27645Y-30252D01*
X29355Y-31239D01*
X31263Y-31750D01*
X33237D01*
X35145Y-31239D01*
X36855Y-30252D01*
X38252Y-28855D01*
X39239Y-27145D01*
X39750Y-25237D01*
Y-23263D01*
X39239Y-21355D01*
X38252Y-19645D01*
X37999Y-19392D01*
X38525Y-18122D01*
X145065D01*
Y-18583D01*
X145480Y-20665D01*
X146659Y-22431D01*
X147965Y-23303D01*
X147628Y-25000D01*
Y-26935D01*
X143428D01*
X141803Y-26500D01*
X139697D01*
X137662Y-27045D01*
X135838Y-28098D01*
X134348Y-29588D01*
X133295Y-31412D01*
X132750Y-33447D01*
Y-35553D01*
X133295Y-37588D01*
X134348Y-39412D01*
X135838Y-40902D01*
X137662Y-41955D01*
X139697Y-42500D01*
X141803D01*
X143428Y-42065D01*
X148606D01*
X149507Y-42666D01*
X151750Y-43113D01*
X155665D01*
X156050Y-44383D01*
X155135Y-44994D01*
X152114Y-48015D01*
X151947Y-48265D01*
X150507D01*
X148425Y-48680D01*
X146659Y-49859D01*
X145480Y-51625D01*
X145286Y-52598D01*
X79530D01*
X77091Y-53083D01*
X75024Y-54464D01*
X57111Y-72378D01*
X-4083D01*
X-6522Y-72863D01*
X-8589Y-74244D01*
X-16787Y-82442D01*
X-17978Y-82761D01*
X-19688Y-83749D01*
X-19917Y-83977D01*
X-20145Y-83749D01*
X-21855Y-82761D01*
X-23763Y-82250D01*
X-25737D01*
X-27645Y-82761D01*
X-29355Y-83749D01*
X-30752Y-85145D01*
X-31739Y-86855D01*
X-32250Y-88763D01*
Y-90737D01*
X-31739Y-92645D01*
X-31122Y-93713D01*
Y-98000D01*
X-30637Y-100439D01*
X-29256Y-102506D01*
X-17256Y-114506D01*
X-15189Y-115887D01*
X-12750Y-116372D01*
X62500D01*
X64939Y-115887D01*
X67006Y-114506D01*
X88069Y-93442D01*
X145286D01*
X145480Y-94415D01*
X146659Y-96181D01*
X147128Y-96493D01*
X146878Y-97750D01*
Y-102068D01*
X146084Y-103257D01*
X145637Y-105500D01*
Y-111000D01*
X146084Y-113244D01*
X147354Y-115146D01*
X147985Y-115567D01*
X148072Y-115778D01*
X149114Y-117136D01*
X161864Y-129886D01*
X163222Y-130928D01*
X164803Y-131583D01*
X166500Y-131806D01*
X184855D01*
X186412Y-132705D01*
X188447Y-133250D01*
X190553D01*
X192588Y-132705D01*
X194412Y-131652D01*
X195902Y-130162D01*
X196955Y-128338D01*
X197500Y-126303D01*
Y-124197D01*
X196955Y-122162D01*
X195902Y-120338D01*
X194412Y-118848D01*
X192588Y-117795D01*
X192074Y-117657D01*
Y-116343D01*
X192588Y-116205D01*
X194412Y-115152D01*
X195902Y-113662D01*
X196955Y-111838D01*
X197500Y-109803D01*
Y-107697D01*
X196955Y-105662D01*
X195902Y-103838D01*
X194412Y-102348D01*
X192853Y-101448D01*
X192719Y-100820D01*
Y-100680D01*
X192853Y-100051D01*
X194412Y-99152D01*
X195902Y-97662D01*
X196955Y-95838D01*
X197500Y-93803D01*
Y-91697D01*
X196955Y-89662D01*
X195902Y-87838D01*
X194412Y-86348D01*
X192588Y-85295D01*
X190553Y-84750D01*
X188447D01*
X186412Y-85295D01*
X184588Y-86348D01*
X183098Y-87838D01*
X182045Y-89662D01*
X181500Y-91697D01*
Y-93803D01*
X182045Y-95838D01*
X183098Y-97662D01*
X184588Y-99152D01*
X186147Y-100051D01*
X186281Y-100680D01*
Y-100820D01*
X186147Y-101448D01*
X184588Y-102348D01*
X183098Y-103838D01*
X182045Y-105662D01*
X181560Y-107473D01*
X180290Y-107306D01*
Y-107247D01*
X179523Y-105395D01*
X178105Y-103977D01*
X176520Y-103321D01*
Y-108250D01*
X173980D01*
Y-103321D01*
X172395Y-103977D01*
X170977Y-105395D01*
X170624Y-106247D01*
X169354Y-105994D01*
Y-105500D01*
X169099Y-104216D01*
X168372Y-103128D01*
X167284Y-102401D01*
X166000Y-102146D01*
X165020D01*
Y-108250D01*
X162480D01*
Y-102146D01*
X161500D01*
X161054Y-102234D01*
X160144Y-101298D01*
X160107Y-99905D01*
X160926Y-99086D01*
X161789Y-97795D01*
X163425Y-97360D01*
X165508Y-97775D01*
X167533D01*
X169615Y-97360D01*
X171381Y-96181D01*
X172560Y-94415D01*
X172974Y-92332D01*
Y-89740D01*
X174030Y-89034D01*
X174480Y-89220D01*
Y-83750D01*
X175750D01*
Y-82480D01*
X181220D01*
X180447Y-80612D01*
X178888Y-79053D01*
X177896Y-78642D01*
X178149Y-77372D01*
X204219D01*
X204545Y-78588D01*
X205598Y-80412D01*
X207088Y-81902D01*
X208912Y-82955D01*
X210947Y-83500D01*
X213053D01*
X215088Y-82955D01*
X216912Y-81902D01*
X218402Y-80412D01*
X219455Y-78588D01*
X220000Y-76553D01*
Y-74447D01*
X219455Y-72412D01*
X218402Y-70588D01*
X217413Y-69599D01*
X226506Y-60506D01*
X227887Y-58439D01*
X228372Y-56000D01*
Y-33963D01*
X228989Y-32895D01*
X229500Y-30987D01*
Y-29013D01*
X228989Y-27105D01*
X228001Y-25395D01*
X226605Y-23998D01*
X224895Y-23011D01*
X222987Y-22500D01*
X221793D01*
X220806Y-21542D01*
X220750Y-21282D01*
Y-19513D01*
X220239Y-17605D01*
X219251Y-15895D01*
X217855Y-14498D01*
X216145Y-13511D01*
X214237Y-13000D01*
X212263D01*
X210355Y-13511D01*
X208645Y-14498D01*
X207248Y-15895D01*
X206261Y-17605D01*
X205750Y-19513D01*
Y-21487D01*
X206261Y-23395D01*
X206628Y-24030D01*
Y-40250D01*
X205263D01*
X203355Y-40761D01*
X201645Y-41748D01*
X200249Y-43145D01*
X199261Y-44855D01*
X199222Y-45000D01*
X185262D01*
X185256Y-44994D01*
X183189Y-43613D01*
X180750Y-43128D01*
X160089D01*
X159704Y-41858D01*
X160396Y-41396D01*
X161021Y-40459D01*
X161750Y-40605D01*
X162730D01*
Y-34500D01*
Y-28396D01*
X161750D01*
X161329Y-28479D01*
X160604Y-27408D01*
X161026Y-26986D01*
X162407Y-24919D01*
X162509Y-24409D01*
X163942Y-23713D01*
X165508Y-24025D01*
X167533D01*
X169615Y-23610D01*
X171381Y-22431D01*
X172560Y-20665D01*
X172974Y-18583D01*
Y-16623D01*
X175787D01*
X176855Y-17239D01*
X178763Y-17750D01*
X180737D01*
X182645Y-17239D01*
X184355Y-16251D01*
X185751Y-14855D01*
X186739Y-13145D01*
X187250Y-11237D01*
Y-9263D01*
X186739Y-7355D01*
X185751Y-5645D01*
X185357Y-5250D01*
X185751Y-4855D01*
X186739Y-3145D01*
X187250Y-1238D01*
Y737D01*
X186739Y2645D01*
X185751Y4355D01*
X185126Y4980D01*
X185653Y6250D01*
X208250D01*
X208250Y6250D01*
Y6250D01*
X209520Y6352D01*
X210395Y5477D01*
X211980Y4821D01*
Y9750D01*
X213250D01*
Y11020D01*
X218179D01*
X217523Y12605D01*
X216105Y14023D01*
X214252Y14790D01*
X214237Y16000D01*
X214716Y16128D01*
X215208Y16193D01*
X215666Y16383D01*
X216145Y16511D01*
X216574Y16759D01*
X217032Y16949D01*
X217426Y17251D01*
X217855Y17499D01*
X218206Y17849D01*
X218599Y18151D01*
X218901Y18544D01*
X219251Y18895D01*
X219499Y19324D01*
X219801Y19718D01*
X219991Y20176D01*
X220239Y20605D01*
X220367Y21084D01*
X220557Y21542D01*
X220622Y22034D01*
X220750Y22513D01*
Y23008D01*
X220815Y23500D01*
X220750Y23992D01*
Y24487D01*
X220622Y24966D01*
X220557Y25458D01*
X220367Y25916D01*
X220239Y26395D01*
X219991Y26824D01*
X219801Y27282D01*
X219499Y27676D01*
X219251Y28105D01*
X218901Y28456D01*
X218599Y28849D01*
X218206Y29151D01*
X217855Y29502D01*
X217426Y29749D01*
X217032Y30051D01*
X216574Y30241D01*
X216145Y30489D01*
X215666Y30617D01*
X215208Y30807D01*
X214716Y30872D01*
X214237Y31000D01*
X213742D01*
X213250Y31065D01*
X208500D01*
X208500Y31065D01*
X206542Y30807D01*
X204718Y30051D01*
X203151Y28849D01*
X203151Y28849D01*
X197552Y23250D01*
X185262D01*
X180376Y28136D01*
X178309Y29517D01*
X175870Y30003D01*
X159311D01*
X159186Y31272D01*
X159494Y31334D01*
X161395Y32604D01*
X162021Y33541D01*
X162750Y33396D01*
X163730D01*
Y39500D01*
Y45605D01*
X162750D01*
X162206Y45496D01*
X161390Y46449D01*
X161260Y47864D01*
X162274Y49381D01*
X162768Y49707D01*
X163799Y50065D01*
X165508Y49725D01*
X167533D01*
X169615Y50140D01*
X171381Y51319D01*
X172560Y53085D01*
X172717Y53874D01*
X175139D01*
X176836Y54097D01*
X177808Y54500D01*
X178237D01*
X180145Y55011D01*
X181855Y55999D01*
X183251Y57395D01*
X184239Y59105D01*
X184750Y61013D01*
Y62987D01*
X184239Y64895D01*
X183251Y66605D01*
X181855Y68001D01*
X180145Y68989D01*
X178237Y69500D01*
X176263D01*
X174355Y68989D01*
X172645Y68001D01*
X172392Y68026D01*
X171381Y69541D01*
X170618Y70050D01*
X170477Y71480D01*
X171382Y72444D01*
X183128D01*
X183354Y72105D01*
X185257Y70834D01*
X187500Y70387D01*
X192000D01*
X194244Y70834D01*
X196145Y72105D01*
X196771Y73041D01*
X197500Y72895D01*
X198480D01*
Y79000D01*
Y85105D01*
X197500D01*
X196771Y84959D01*
X196145Y85896D01*
X194244Y87166D01*
X192000Y87613D01*
X187500D01*
X185520Y87219D01*
X184250Y87905D01*
Y87987D01*
X183739Y89895D01*
X182752Y91605D01*
X182210Y92147D01*
X183152Y93088D01*
X184205Y94912D01*
X184750Y96947D01*
Y99053D01*
X184205Y101088D01*
X184117Y101240D01*
X183866Y103149D01*
X183110Y104974D01*
X181908Y106540D01*
X181908Y106540D01*
X179000Y109448D01*
Y115750D01*
X147000D01*
Y98750D01*
X147000Y98750D01*
X146649Y97625D01*
X145480Y95875D01*
X145065Y93792D01*
Y83268D01*
X145147Y82855D01*
Y82407D01*
X143986Y81648D01*
X143395Y81989D01*
X141487Y82500D01*
X139513D01*
X137605Y81989D01*
X135895Y81002D01*
X134499Y79605D01*
X133511Y77895D01*
X133000Y75987D01*
Y74013D01*
X133511Y72105D01*
X134499Y70395D01*
X135895Y68998D01*
X137266Y68207D01*
X137378Y67805D01*
Y67195D01*
X137266Y66793D01*
X135895Y66002D01*
X134499Y64605D01*
X133511Y62895D01*
X133000Y60987D01*
Y59013D01*
X133511Y57105D01*
X134499Y55395D01*
X135895Y53998D01*
X137605Y53011D01*
X139513Y52500D01*
X141487D01*
X143395Y53011D01*
X144138Y53440D01*
X145480Y53085D01*
X146659Y51319D01*
X148187Y50299D01*
X148128Y50000D01*
Y47065D01*
X143428D01*
X141803Y47500D01*
X139697D01*
X137662Y46955D01*
X135838Y45902D01*
X134348Y44412D01*
X133295Y42588D01*
X132750Y40553D01*
Y38447D01*
X133295Y36412D01*
X134348Y34588D01*
X135838Y33098D01*
X137662Y32045D01*
X139697Y31500D01*
X141803D01*
X143428Y31935D01*
X149606D01*
X150506Y31334D01*
X152750Y30887D01*
X156960D01*
X157085Y29617D01*
X156583Y29517D01*
X154515Y28136D01*
X152114Y25735D01*
X151947Y25485D01*
X150507D01*
X148425Y25070D01*
X146659Y23891D01*
X145480Y22125D01*
X145286Y21153D01*
X118030D01*
X115591Y20667D01*
X113524Y19286D01*
X108651Y14413D01*
X107235Y14793D01*
X106955Y15838D01*
X105997Y17496D01*
Y140872D01*
X107267Y141398D01*
X107862Y140803D01*
X109730Y140030D01*
Y145500D01*
Y150970D01*
X107862Y150197D01*
X107267Y149602D01*
X105997Y150128D01*
Y153684D01*
X106152Y153838D01*
X107205Y155662D01*
X107750Y157697D01*
Y159803D01*
X107205Y161838D01*
X106152Y163662D01*
X104662Y165152D01*
X102838Y166205D01*
X100803Y166750D01*
X98697D01*
X96662Y166205D01*
X94838Y165152D01*
X93348Y163662D01*
X92295Y161838D01*
X91750Y159803D01*
Y157697D01*
X92295Y155662D01*
X93253Y154004D01*
Y153302D01*
X92319Y152763D01*
X91983Y152733D01*
X90053Y153250D01*
X87947D01*
X85912Y152705D01*
X84088Y151652D01*
X82598Y150162D01*
X81545Y148338D01*
X81000Y146303D01*
Y144197D01*
X81545Y142162D01*
X82598Y140338D01*
X82628Y140309D01*
Y26691D01*
X82598Y26662D01*
X81545Y24838D01*
X81000Y22803D01*
Y20697D01*
X81545Y18662D01*
X82598Y16838D01*
X84088Y15348D01*
X85912Y14295D01*
X87947Y13750D01*
X90053D01*
X90230Y13797D01*
X91500Y12823D01*
Y11697D01*
X91059Y11122D01*
X10750D01*
X8311Y10637D01*
X6244Y9256D01*
X1994Y5006D01*
X613Y2939D01*
X128Y500D01*
Y-1537D01*
X-489Y-2605D01*
X-1000Y-4513D01*
Y-5378D01*
X-4035D01*
X-6474Y-5863D01*
X-8541Y-7244D01*
X-10006Y-8709D01*
X-11387Y-10776D01*
X-11872Y-13214D01*
Y-13287D01*
X-12489Y-14355D01*
X-13000Y-16263D01*
Y-16393D01*
X-14270Y-17242D01*
X-15053Y-16917D01*
X-16750Y-16694D01*
X-21662D01*
X-23215Y-16385D01*
X-27365D01*
X-29101Y-16730D01*
X-29733Y-16308D01*
X-31065Y-16043D01*
X-32815Y-16043D01*
X-32944Y-14821D01*
Y-13060D01*
X-31916Y-12071D01*
X-31750Y-12104D01*
X-30770D01*
Y-6000D01*
X-29500D01*
Y-4730D01*
X-23895D01*
Y-3250D01*
X-24151Y-1966D01*
X-24878Y-878D01*
X-25966Y-151D01*
X-27114Y77D01*
X-27355Y471D01*
X-27614Y1374D01*
X-25244Y3744D01*
X-23863Y5811D01*
X-23378Y8250D01*
Y16746D01*
X-23419Y16954D01*
X-23215Y17203D01*
X-21883Y17468D01*
X-20753Y18223D01*
X-19998Y19353D01*
X-19733Y20685D01*
Y22435D01*
X-19998Y23767D01*
X-20194Y24060D01*
X-19998Y24353D01*
X-19733Y25685D01*
Y25946D01*
X-18979Y26449D01*
X-18971Y26462D01*
X-18501Y26783D01*
X-17484Y26104D01*
X-17605Y25500D01*
Y24520D01*
X-11500D01*
X-5396D01*
Y25500D01*
X-5541Y26229D01*
X-4604Y26855D01*
X-4129Y27566D01*
X-2963Y27734D01*
X-2369Y26621D01*
X-2521Y26224D01*
X-3085Y25381D01*
X-3359Y24000D01*
Y22270D01*
X4250D01*
Y21000D01*
X5520D01*
Y14391D01*
X8250D01*
X9631Y14665D01*
X10802Y15448D01*
X11001Y15746D01*
X12730Y15030D01*
Y20500D01*
Y25970D01*
X12182Y25743D01*
X10910Y26516D01*
X10848Y26678D01*
X11244Y27784D01*
X11428Y27907D01*
X12947Y27500D01*
X15053D01*
X17088Y28045D01*
X18912Y29098D01*
X20402Y30588D01*
X21455Y32412D01*
X22000Y34447D01*
Y36553D01*
X21455Y38588D01*
X20402Y40412D01*
X18912Y41902D01*
X17088Y42955D01*
X15053Y43500D01*
X12947D01*
X12496Y43379D01*
X10591Y44652D01*
X8250Y45118D01*
X250D01*
X-2091Y44652D01*
X-4076Y43326D01*
X-5402Y41341D01*
X-5461Y41042D01*
X-7138D01*
X-8750Y41363D01*
X-13142D01*
X-14282Y42238D01*
X-15863Y42893D01*
X-17560Y43116D01*
X-21662D01*
X-23215Y43425D01*
X-27365D01*
X-29101Y43080D01*
X-29733Y43502D01*
X-31065Y43767D01*
X-32815D01*
X-33406Y44252D01*
Y46153D01*
X-33105Y46354D01*
X-32479Y47291D01*
X-31750Y47146D01*
X-30770D01*
Y53250D01*
X-29500D01*
Y54520D01*
X-23895D01*
Y55378D01*
X-22000D01*
X-19561Y55863D01*
X-17494Y57244D01*
X-11244Y63494D01*
X-9863Y65561D01*
X-9378Y68000D01*
Y97364D01*
X-8108Y97984D01*
X-6303Y97500D01*
X-4197D01*
X-2162Y98045D01*
X-338Y99098D01*
X-184Y99253D01*
X5254D01*
X5768Y98955D01*
X5934Y97696D01*
X-3756Y88006D01*
X-5137Y85939D01*
X-5622Y83500D01*
Y69463D01*
X-6239Y68395D01*
X-6750Y66487D01*
Y64513D01*
X-6239Y62605D01*
X-5252Y60895D01*
X-3855Y59499D01*
X-2145Y58511D01*
X-237Y58000D01*
X1737D01*
X3645Y58511D01*
X5000Y59293D01*
X6355Y58511D01*
X8263Y58000D01*
X10237D01*
X12145Y58511D01*
X12730Y58849D01*
X14000Y58116D01*
Y57334D01*
X16460D01*
Y55436D01*
X22000D01*
Y54166D01*
X23270D01*
Y49126D01*
X27540D01*
Y49126D01*
X28810Y49605D01*
X29362Y49053D01*
X31230Y48280D01*
Y53750D01*
X33770D01*
Y48280D01*
X35638Y49053D01*
X37197Y50612D01*
X37858Y52208D01*
X39128Y51955D01*
Y43250D01*
X39613Y40811D01*
X40994Y38744D01*
X45494Y34244D01*
X47561Y32863D01*
X50000Y32378D01*
X58537D01*
X59605Y31761D01*
X61513Y31250D01*
X63487D01*
X65395Y31761D01*
X67105Y32748D01*
X68502Y34145D01*
X69489Y35855D01*
X70000Y37763D01*
Y39737D01*
X69651Y41039D01*
X70458Y42309D01*
X70958D01*
X71769Y42416D01*
X81000D01*
Y57416D01*
X78540D01*
Y59314D01*
X73000D01*
Y60584D01*
X71730D01*
Y65624D01*
X67460D01*
Y65087D01*
X66190Y64561D01*
X65596Y65155D01*
X63728Y65928D01*
Y60458D01*
X62458D01*
Y59188D01*
X56988D01*
X57761Y57320D01*
X57871Y57211D01*
X57729Y56137D01*
X57486Y55799D01*
X56056Y54370D01*
X55003Y52546D01*
X54458Y50511D01*
Y48405D01*
X55003Y46370D01*
X55089Y46222D01*
X54454Y45122D01*
X52639D01*
X51872Y45890D01*
Y122287D01*
X52489Y123355D01*
X53000Y125263D01*
Y127237D01*
X52489Y129145D01*
X51501Y130855D01*
X50147Y132210D01*
X50146Y132784D01*
X50269Y133529D01*
X50689Y133613D01*
X52756Y134994D01*
X63256Y145494D01*
X64637Y147561D01*
X65122Y150000D01*
Y168671D01*
X66189Y169034D01*
X66392Y169044D01*
X67838Y167598D01*
X69662Y166545D01*
X71697Y166000D01*
X73803D01*
X75838Y166545D01*
X77662Y167598D01*
X79152Y169088D01*
X79888Y170364D01*
X81333Y170489D01*
X81395Y170395D01*
X83049Y169290D01*
X85000Y168902D01*
X170000D01*
X171951Y169290D01*
X173605Y170395D01*
X174710Y172049D01*
X175098Y174000D01*
Y194000D01*
X174710Y195951D01*
X173605Y197605D01*
X171951Y198710D01*
X170000Y199098D01*
X90316D01*
X89467Y200368D01*
X89720Y200980D01*
X78780D01*
X79553Y199112D01*
X81112Y197553D01*
X81190Y197297D01*
X80290Y195951D01*
X79902Y194000D01*
Y179958D01*
X78632Y179432D01*
X77662Y180402D01*
X75838Y181455D01*
X73803Y182000D01*
X71697D01*
X69662Y181455D01*
X67838Y180402D01*
X66392Y178956D01*
X66189Y178966D01*
X65122Y179329D01*
Y222250D01*
X64637Y224689D01*
X63256Y226756D01*
X52756Y237256D01*
X50689Y238637D01*
X48250Y239122D01*
X-138037D01*
X-139105Y239739D01*
X-141013Y240250D01*
D02*
G37*
G36*
X-49520Y173354D02*
X-50500D01*
X-51784Y173099D01*
X-52872Y172372D01*
X-53599Y171284D01*
X-53854Y170000D01*
Y168520D01*
X-49520D01*
Y173354D01*
D02*
G37*
G36*
X129750Y167113D02*
X125250D01*
X123006Y166666D01*
X121104Y165396D01*
X120479Y164459D01*
X119750Y164604D01*
X118770D01*
Y158500D01*
Y152395D01*
X119750D01*
X120479Y152541D01*
X121104Y151604D01*
X123006Y150334D01*
X124831Y149971D01*
X125244Y149558D01*
Y147464D01*
X125000Y146553D01*
Y144447D01*
X125545Y142412D01*
X126598Y140588D01*
X128088Y139098D01*
X129912Y138045D01*
X131947Y137500D01*
X134053D01*
X136088Y138045D01*
X137912Y139098D01*
X139402Y140588D01*
X140455Y142412D01*
X141000Y144447D01*
Y146553D01*
X140455Y148588D01*
X140373Y148729D01*
Y152691D01*
X140116Y154649D01*
X139360Y156474D01*
X138158Y158040D01*
X138158Y158041D01*
X135613Y160585D01*
Y161250D01*
X135166Y163493D01*
X133896Y165396D01*
X131994Y166666D01*
X129750Y167113D01*
D02*
G37*
G36*
X-49520Y165980D02*
X-53854D01*
Y164500D01*
X-53599Y163216D01*
X-52872Y162128D01*
X-51784Y161401D01*
X-50500Y161146D01*
X-49520D01*
Y165980D01*
D02*
G37*
G36*
X116230Y164604D02*
X115250D01*
X113966Y164349D01*
X112878Y163622D01*
X112151Y162534D01*
X111896Y161250D01*
Y159770D01*
X116230D01*
Y164604D01*
D02*
G37*
G36*
Y157230D02*
X111896D01*
Y155750D01*
X112151Y154466D01*
X112878Y153378D01*
X113966Y152651D01*
X115250Y152395D01*
X116230D01*
Y157230D01*
D02*
G37*
G36*
X112270Y150970D02*
Y146770D01*
X116470D01*
X115697Y148638D01*
X114138Y150197D01*
X112270Y150970D01*
D02*
G37*
G36*
X-210730Y146530D02*
Y142329D01*
X-206530D01*
X-207303Y144198D01*
X-208862Y145756D01*
X-210730Y146530D01*
D02*
G37*
G36*
X-213270D02*
X-215138Y145756D01*
X-216697Y144198D01*
X-217470Y142329D01*
X-213270D01*
Y146530D01*
D02*
G37*
G36*
X116470Y144230D02*
X112270D01*
Y140030D01*
X114138Y140803D01*
X115697Y142362D01*
X116470Y144230D01*
D02*
G37*
G36*
X-206530Y139789D02*
X-210730D01*
Y135589D01*
X-208862Y136363D01*
X-207303Y137921D01*
X-206530Y139789D01*
D02*
G37*
G36*
X-213270D02*
X-217470D01*
X-216697Y137921D01*
X-215138Y136363D01*
X-213270Y135589D01*
Y139789D01*
D02*
G37*
G36*
X208020Y131429D02*
Y127770D01*
X211679D01*
X211023Y129355D01*
X209605Y130773D01*
X208020Y131429D01*
D02*
G37*
G36*
X205480D02*
X203895Y130773D01*
X202477Y129355D01*
X201821Y127770D01*
X205480D01*
Y131429D01*
D02*
G37*
G36*
X65020Y131720D02*
Y127520D01*
X69220D01*
X68447Y129388D01*
X66888Y130947D01*
X65020Y131720D01*
D02*
G37*
G36*
X62480D02*
X60612Y130947D01*
X59053Y129388D01*
X58280Y127520D01*
X62480D01*
Y131720D01*
D02*
G37*
G36*
X211679Y125230D02*
X208020D01*
Y121571D01*
X209605Y122227D01*
X211023Y123645D01*
X211679Y125230D01*
D02*
G37*
G36*
X205480D02*
X201821D01*
X202477Y123645D01*
X203895Y122227D01*
X205480Y121571D01*
Y125230D01*
D02*
G37*
G36*
X69220Y124980D02*
X65020D01*
Y120780D01*
X66888Y121553D01*
X68447Y123112D01*
X69220Y124980D01*
D02*
G37*
G36*
X62480D02*
X58280D01*
X59053Y123112D01*
X60612Y121553D01*
X62480Y120780D01*
Y124980D01*
D02*
G37*
G36*
X-198580Y128473D02*
X-202850D01*
Y119703D01*
X-198580D01*
Y128473D01*
D02*
G37*
G36*
Y117163D02*
X-202850D01*
Y108393D01*
X-198580D01*
Y117163D01*
D02*
G37*
G36*
X-191770Y102473D02*
X-196040D01*
Y93703D01*
X-191770D01*
Y102473D01*
D02*
G37*
G36*
X-198580D02*
X-202850D01*
Y93703D01*
X-198580D01*
Y102473D01*
D02*
G37*
G36*
X-186081D02*
X-190351D01*
Y93703D01*
X-186081D01*
Y102473D01*
D02*
G37*
G36*
X-210730Y97470D02*
Y93270D01*
X-206530D01*
X-207303Y95138D01*
X-208862Y96697D01*
X-210730Y97470D01*
D02*
G37*
G36*
X-213270D02*
X-215138Y96697D01*
X-216697Y95138D01*
X-217470Y93270D01*
X-213270D01*
Y97470D01*
D02*
G37*
G36*
X-206530Y90730D02*
X-210730D01*
Y86530D01*
X-208862Y87303D01*
X-207303Y88862D01*
X-206530Y90730D01*
D02*
G37*
G36*
X-213270D02*
X-217470D01*
X-216697Y88862D01*
X-215138Y87303D01*
X-213270Y86530D01*
Y90730D01*
D02*
G37*
G36*
X-186081Y91163D02*
X-190351D01*
Y82393D01*
X-186081D01*
Y91163D01*
D02*
G37*
G36*
X-191770D02*
X-196040D01*
Y82393D01*
X-191770D01*
Y91163D01*
D02*
G37*
G36*
X-198580D02*
X-202850D01*
Y82393D01*
X-198580D01*
Y91163D01*
D02*
G37*
G36*
X-136530Y84230D02*
X-140730D01*
Y80030D01*
X-138862Y80803D01*
X-137303Y82362D01*
X-136530Y84230D01*
D02*
G37*
G36*
X210579Y79620D02*
Y75961D01*
X214238D01*
X213582Y77546D01*
X212164Y78963D01*
X210579Y79620D01*
D02*
G37*
G36*
X214238Y73421D02*
X210579D01*
Y69762D01*
X212164Y70418D01*
X213582Y71836D01*
X214238Y73421D01*
D02*
G37*
G36*
X202000Y85105D02*
X201020D01*
Y79000D01*
Y72895D01*
X202000D01*
X203284Y73151D01*
X204725Y72587D01*
X205037Y71836D01*
X206454Y70418D01*
X208039Y69762D01*
Y74691D01*
Y79620D01*
X206625Y79034D01*
X205354Y79523D01*
Y81750D01*
X205099Y83034D01*
X204372Y84122D01*
X203284Y84849D01*
X202000Y85105D01*
D02*
G37*
G36*
X-184770Y73730D02*
X-189104D01*
Y72250D01*
X-188849Y70966D01*
X-188122Y69878D01*
X-187034Y69151D01*
X-185750Y68896D01*
X-184770D01*
Y73730D01*
D02*
G37*
G36*
X78540Y65624D02*
X74270D01*
Y61854D01*
X78540D01*
Y65624D01*
D02*
G37*
G36*
X61188Y65928D02*
X59320Y65155D01*
X57761Y63596D01*
X56988Y61728D01*
X61188D01*
Y65928D01*
D02*
G37*
G36*
X-210730Y62470D02*
Y58270D01*
X-206530D01*
X-207303Y60138D01*
X-208862Y61697D01*
X-210730Y62470D01*
D02*
G37*
G36*
X-213270D02*
X-215138Y61697D01*
X-216697Y60138D01*
X-217470Y58270D01*
X-213270D01*
Y62470D01*
D02*
G37*
G36*
X-206530Y55730D02*
X-210730D01*
Y51530D01*
X-208862Y52303D01*
X-207303Y53862D01*
X-206530Y55730D01*
D02*
G37*
G36*
X-213270D02*
X-217470D01*
X-216697Y53862D01*
X-215138Y52303D01*
X-213270Y51530D01*
Y55730D01*
D02*
G37*
G36*
X20730Y52896D02*
X16460D01*
Y49126D01*
X20730D01*
Y52896D01*
D02*
G37*
G36*
X-23895Y51980D02*
X-28230D01*
Y47146D01*
X-27250D01*
X-25966Y47401D01*
X-24878Y48128D01*
X-24151Y49216D01*
X-23895Y50500D01*
Y51980D01*
D02*
G37*
G36*
X167250Y45605D02*
X166270D01*
Y40770D01*
X170604D01*
Y42250D01*
X170349Y43534D01*
X169622Y44622D01*
X168534Y45349D01*
X167250Y45605D01*
D02*
G37*
G36*
X170604Y38230D02*
X166270D01*
Y33396D01*
X167250D01*
X168534Y33651D01*
X169622Y34378D01*
X170349Y35466D01*
X170604Y36750D01*
Y38230D01*
D02*
G37*
G36*
X15270Y25970D02*
Y21770D01*
X19470D01*
X18697Y23638D01*
X17138Y25197D01*
X15270Y25970D01*
D02*
G37*
G36*
X-5396Y21980D02*
X-10230D01*
Y17646D01*
X-8750D01*
X-7466Y17901D01*
X-6378Y18628D01*
X-5651Y19716D01*
X-5396Y21000D01*
Y21980D01*
D02*
G37*
G36*
X-12770D02*
X-17605D01*
Y21000D01*
X-17349Y19716D01*
X-16622Y18628D01*
X-15534Y17901D01*
X-14250Y17646D01*
X-12770D01*
Y21980D01*
D02*
G37*
G36*
X19470Y19230D02*
X15270D01*
Y15030D01*
X17138Y15803D01*
X18697Y17362D01*
X19470Y19230D01*
D02*
G37*
G36*
X2980Y19730D02*
X-3359D01*
Y18000D01*
X-3085Y16619D01*
X-2302Y15448D01*
X-1131Y14665D01*
X250Y14391D01*
X2980D01*
Y19730D01*
D02*
G37*
G36*
X218179Y8480D02*
X214520D01*
Y4821D01*
X216105Y5477D01*
X217523Y6895D01*
X218179Y8480D01*
D02*
G37*
G36*
X-23895Y-7270D02*
X-28230D01*
Y-12104D01*
X-27250D01*
X-25966Y-11849D01*
X-24878Y-11122D01*
X-24151Y-10034D01*
X-23895Y-8750D01*
Y-7270D01*
D02*
G37*
G36*
X-91980Y-19030D02*
Y-23230D01*
X-87780D01*
X-88553Y-21362D01*
X-90112Y-19803D01*
X-91980Y-19030D01*
D02*
G37*
G36*
X-94520D02*
X-96388Y-19803D01*
X-97947Y-21362D01*
X-98720Y-23230D01*
X-94520D01*
Y-19030D01*
D02*
G37*
G36*
X-81270Y-19626D02*
X-85540D01*
Y-23396D01*
X-81270D01*
Y-19626D01*
D02*
G37*
G36*
X181020Y-28071D02*
Y-31730D01*
X184679D01*
X184023Y-30145D01*
X182605Y-28727D01*
X181020Y-28071D01*
D02*
G37*
G36*
X178480D02*
X176895Y-28727D01*
X175477Y-30145D01*
X174821Y-31730D01*
X178480D01*
Y-28071D01*
D02*
G37*
G36*
X166250Y-28396D02*
X165270D01*
Y-33230D01*
X169604D01*
Y-31750D01*
X169349Y-30466D01*
X168622Y-29378D01*
X167534Y-28651D01*
X166250Y-28396D01*
D02*
G37*
G36*
X184679Y-34270D02*
X181020D01*
Y-37929D01*
X182605Y-37273D01*
X184023Y-35855D01*
X184679Y-34270D01*
D02*
G37*
G36*
X178480D02*
X174821D01*
X175477Y-35855D01*
X176895Y-37273D01*
X178480Y-37929D01*
Y-34270D01*
D02*
G37*
G36*
X169604Y-35770D02*
X165270D01*
Y-40605D01*
X166250D01*
X167534Y-40349D01*
X168622Y-39622D01*
X169349Y-38534D01*
X169604Y-37250D01*
Y-35770D01*
D02*
G37*
G36*
X-5396Y-37020D02*
X-10230D01*
Y-41354D01*
X-8750D01*
X-7466Y-41099D01*
X-6378Y-40372D01*
X-5651Y-39284D01*
X-5396Y-38000D01*
Y-37020D01*
D02*
G37*
G36*
X-12770D02*
X-17605D01*
Y-38000D01*
X-17349Y-39284D01*
X-16622Y-40372D01*
X-15534Y-41099D01*
X-14250Y-41354D01*
X-12770D01*
Y-37020D01*
D02*
G37*
G36*
X19470Y-38520D02*
X15270D01*
Y-42720D01*
X17138Y-41947D01*
X18697Y-40388D01*
X19470Y-38520D01*
D02*
G37*
G36*
X2980Y-40020D02*
X-3359D01*
Y-41750D01*
X-3085Y-43131D01*
X-2302Y-44302D01*
X-1131Y-45085D01*
X250Y-45359D01*
X2980D01*
Y-40020D01*
D02*
G37*
G36*
X20646Y-43460D02*
X16876D01*
Y-47730D01*
X20646D01*
Y-43460D01*
D02*
G37*
G36*
X40084Y-41000D02*
X25084D01*
Y-43460D01*
X23186D01*
Y-49000D01*
X21916D01*
Y-50270D01*
X16876D01*
Y-54540D01*
X16876D01*
X17355Y-55810D01*
X16803Y-56362D01*
X16030Y-58230D01*
X21500D01*
Y-59500D01*
X22770D01*
Y-64970D01*
X24638Y-64197D01*
X25966Y-64665D01*
X27203Y-65902D01*
X29027Y-66955D01*
X31061Y-67500D01*
X33168D01*
X35203Y-66955D01*
X37027Y-65902D01*
X38516Y-64412D01*
X39569Y-62588D01*
X40115Y-60553D01*
Y-59019D01*
X40149Y-58760D01*
Y-49000D01*
X40084Y-48508D01*
Y-41000D01*
D02*
G37*
G36*
X-154250Y-53137D02*
X-158750D01*
X-160993Y-53584D01*
X-162896Y-54854D01*
X-163521Y-55791D01*
X-164250Y-55645D01*
X-165230D01*
Y-61750D01*
Y-67854D01*
X-164250D01*
X-163789Y-67763D01*
X-162897Y-68703D01*
X-162923Y-69964D01*
X-164045Y-71644D01*
X-164611Y-72005D01*
X-165581Y-72317D01*
X-167298Y-71975D01*
X-169323D01*
X-171405Y-72390D01*
X-173171Y-73569D01*
X-174350Y-75335D01*
X-174613Y-76656D01*
X-175961Y-77327D01*
X-175996Y-77324D01*
X-176105Y-77261D01*
X-178013Y-76750D01*
X-179987D01*
X-181895Y-77261D01*
X-183605Y-78249D01*
X-185002Y-79645D01*
X-185989Y-81355D01*
X-186500Y-83263D01*
Y-85237D01*
X-185989Y-87145D01*
X-185002Y-88855D01*
X-183605Y-90252D01*
X-181895Y-91239D01*
X-179987Y-91750D01*
X-178013D01*
X-176105Y-91239D01*
X-175037Y-90622D01*
X-173951D01*
X-173171Y-91791D01*
X-172983Y-91916D01*
X-172822Y-93551D01*
X-173966Y-94694D01*
X-182128D01*
X-182355Y-94354D01*
X-184256Y-93084D01*
X-186500Y-92637D01*
X-191000D01*
X-193244Y-93084D01*
X-195145Y-94354D01*
X-195771Y-95291D01*
X-196500Y-95146D01*
X-197480D01*
Y-101250D01*
Y-107354D01*
X-196500D01*
X-195771Y-107209D01*
X-195145Y-108146D01*
X-193244Y-109416D01*
X-191000Y-109863D01*
X-186500D01*
X-186421Y-109847D01*
X-186250Y-109987D01*
X-185739Y-111895D01*
X-184751Y-113605D01*
X-183355Y-115001D01*
X-181645Y-115989D01*
X-179737Y-116500D01*
X-177763D01*
X-176196Y-116080D01*
X-175019Y-116736D01*
X-174816Y-117699D01*
X-175618Y-118750D01*
X-181250D01*
Y-119685D01*
X-189822D01*
X-191447Y-119250D01*
X-193553D01*
X-195588Y-119795D01*
X-197412Y-120848D01*
X-198902Y-122338D01*
X-199955Y-124162D01*
X-200500Y-126197D01*
Y-128303D01*
X-199955Y-130338D01*
X-198902Y-132162D01*
X-197412Y-133652D01*
X-195588Y-134705D01*
X-193553Y-135250D01*
X-191447D01*
X-189822Y-134815D01*
X-181250D01*
Y-135750D01*
X-149250D01*
Y-120426D01*
X-148449Y-119891D01*
X-147429Y-118364D01*
X-145987Y-118750D01*
X-144013D01*
X-142105Y-118239D01*
X-140395Y-117252D01*
X-138998Y-115855D01*
X-138011Y-114145D01*
X-137500Y-112237D01*
Y-110263D01*
X-138011Y-108355D01*
X-138998Y-106645D01*
X-140395Y-105248D01*
X-140909Y-104952D01*
Y-103485D01*
X-140395Y-103188D01*
X-138998Y-101792D01*
X-138011Y-100082D01*
X-137500Y-98174D01*
Y-96199D01*
X-138011Y-94292D01*
X-138998Y-92582D01*
X-140395Y-91185D01*
X-142105Y-90198D01*
X-144013Y-89687D01*
X-145987D01*
X-146938Y-88958D01*
Y-88355D01*
X-146856Y-87942D01*
Y-77417D01*
X-147270Y-75335D01*
X-148449Y-73569D01*
X-149942Y-72572D01*
X-149878Y-72250D01*
Y-69315D01*
X-147678D01*
X-146053Y-69750D01*
X-143947D01*
X-141912Y-69205D01*
X-140088Y-68152D01*
X-138598Y-66662D01*
X-137545Y-64838D01*
X-137000Y-62803D01*
Y-60697D01*
X-137545Y-58662D01*
X-138598Y-56838D01*
X-140088Y-55348D01*
X-141912Y-54295D01*
X-143947Y-53750D01*
X-146053D01*
X-147678Y-54185D01*
X-151106D01*
X-152007Y-53584D01*
X-154250Y-53137D01*
D02*
G37*
G36*
X-167770Y-55645D02*
X-168750D01*
X-170034Y-55901D01*
X-171122Y-56628D01*
X-171849Y-57716D01*
X-172104Y-59000D01*
Y-60480D01*
X-167770D01*
Y-55645D01*
D02*
G37*
G36*
X20230Y-60770D02*
X16030D01*
X16803Y-62638D01*
X18362Y-64197D01*
X20230Y-64970D01*
Y-60770D01*
D02*
G37*
G36*
X-167770Y-63020D02*
X-172104D01*
Y-64500D01*
X-171849Y-65784D01*
X-171122Y-66872D01*
X-170034Y-67599D01*
X-168750Y-67854D01*
X-167770D01*
Y-63020D01*
D02*
G37*
G36*
X-81832Y-81250D02*
X-83939D01*
X-85973Y-81795D01*
X-87797Y-82848D01*
X-89287Y-84338D01*
X-89329Y-84411D01*
X-90588Y-84577D01*
X-90612Y-84553D01*
X-92480Y-83780D01*
Y-89250D01*
X-93750D01*
Y-90520D01*
X-99220D01*
X-98447Y-92388D01*
X-98145Y-92690D01*
X-98671Y-93960D01*
X-98874D01*
Y-98230D01*
X-93834D01*
Y-99500D01*
X-92564D01*
Y-105040D01*
X-90666D01*
Y-107500D01*
X-75666D01*
Y-99992D01*
X-75601Y-99500D01*
Y-92634D01*
X-75430Y-92338D01*
X-74885Y-90303D01*
Y-88197D01*
X-75430Y-86162D01*
X-76484Y-84338D01*
X-77973Y-82848D01*
X-79797Y-81795D01*
X-81832Y-81250D01*
D02*
G37*
G36*
X-95020Y-83780D02*
X-96888Y-84553D01*
X-98447Y-86112D01*
X-99220Y-87980D01*
X-95020D01*
Y-83780D01*
D02*
G37*
G36*
X181220Y-85020D02*
X177020D01*
Y-89220D01*
X178888Y-88447D01*
X180447Y-86888D01*
X181220Y-85020D01*
D02*
G37*
G36*
X-211020Y-91280D02*
X-212888Y-92053D01*
X-214447Y-93612D01*
X-215220Y-95480D01*
X-211020D01*
Y-91280D01*
D02*
G37*
G36*
Y-98020D02*
X-215220D01*
X-214447Y-99888D01*
X-212888Y-101447D01*
X-211020Y-102220D01*
Y-98020D01*
D02*
G37*
G36*
X-95104Y-100770D02*
X-98874D01*
Y-105040D01*
X-95104D01*
Y-100770D01*
D02*
G37*
G36*
X-208480Y-91280D02*
Y-96750D01*
Y-102220D01*
X-206612Y-101447D01*
X-205625Y-100459D01*
X-204354Y-100985D01*
Y-104000D01*
X-204099Y-105284D01*
X-203372Y-106372D01*
X-202284Y-107099D01*
X-201000Y-107354D01*
X-200020D01*
Y-101250D01*
Y-95146D01*
X-201000D01*
X-202284Y-95401D01*
X-202940Y-95839D01*
X-203374Y-95774D01*
X-204215Y-95450D01*
X-204330Y-95357D01*
X-205053Y-93612D01*
X-206612Y-92053D01*
X-208480Y-91280D01*
D02*
G37*
G36*
X238980Y-123280D02*
X237112Y-124053D01*
X235553Y-125612D01*
X234780Y-127480D01*
X238980D01*
Y-123280D01*
D02*
G37*
G36*
Y-130020D02*
X234780D01*
X235553Y-131888D01*
X237112Y-133447D01*
X238980Y-134220D01*
Y-130020D01*
D02*
G37*
G36*
X-119980Y-131530D02*
Y-135730D01*
X-115780D01*
X-116553Y-133862D01*
X-118112Y-132303D01*
X-119980Y-131530D01*
D02*
G37*
G36*
X-122520D02*
X-124388Y-132303D01*
X-125947Y-133862D01*
X-126720Y-135730D01*
X-122520D01*
Y-131530D01*
D02*
G37*
G36*
X-115780Y-138270D02*
X-119980D01*
Y-142470D01*
X-118112Y-141697D01*
X-116553Y-140138D01*
X-115780Y-138270D01*
D02*
G37*
G36*
X-122520D02*
X-126720D01*
X-125947Y-140138D01*
X-124388Y-141697D01*
X-122520Y-142470D01*
Y-138270D01*
D02*
G37*
G36*
X52020Y-151780D02*
Y-155980D01*
X56220D01*
X55447Y-154112D01*
X53888Y-152553D01*
X52020Y-151780D01*
D02*
G37*
G36*
X49480D02*
X47612Y-152553D01*
X46053Y-154112D01*
X45280Y-155980D01*
X49480D01*
Y-151780D01*
D02*
G37*
G36*
X165303Y-144000D02*
X163197D01*
X161162Y-144545D01*
X159338Y-145598D01*
X157848Y-147088D01*
X156795Y-148912D01*
X156250Y-150947D01*
Y-153053D01*
X156795Y-155088D01*
X157848Y-156912D01*
X159338Y-158402D01*
X161162Y-159455D01*
X163197Y-160000D01*
X165303D01*
X167338Y-159455D01*
X169162Y-158402D01*
X170652Y-156912D01*
X171705Y-155088D01*
X172250Y-153053D01*
Y-150947D01*
X171705Y-148912D01*
X170652Y-147088D01*
X169162Y-145598D01*
X167338Y-144545D01*
X165303Y-144000D01*
D02*
G37*
G36*
X56220Y-158520D02*
X52020D01*
Y-162720D01*
X53888Y-161947D01*
X55447Y-160388D01*
X56220Y-158520D01*
D02*
G37*
G36*
X49480D02*
X45280D01*
X46053Y-160388D01*
X47612Y-161947D01*
X49480Y-162720D01*
Y-158520D01*
D02*
G37*
G36*
X-208480Y-169530D02*
Y-173730D01*
X-204280D01*
X-205053Y-171862D01*
X-206612Y-170303D01*
X-208480Y-169530D01*
D02*
G37*
G36*
X-211020D02*
X-212888Y-170303D01*
X-214447Y-171862D01*
X-215220Y-173730D01*
X-211020D01*
Y-169530D01*
D02*
G37*
G36*
X-204280Y-176270D02*
X-208480D01*
Y-180470D01*
X-206612Y-179697D01*
X-205053Y-178138D01*
X-204280Y-176270D01*
D02*
G37*
G36*
X-211020D02*
X-215220D01*
X-214447Y-178138D01*
X-212888Y-179697D01*
X-211020Y-180470D01*
Y-176270D01*
D02*
G37*
G36*
X12270Y-187030D02*
Y-191230D01*
X16470D01*
X15697Y-189362D01*
X14138Y-187803D01*
X12270Y-187030D01*
D02*
G37*
G36*
X9730D02*
X7862Y-187803D01*
X6303Y-189362D01*
X5530Y-191230D01*
X9730D01*
Y-187030D01*
D02*
G37*
G36*
X16470Y-193770D02*
X12270D01*
Y-197970D01*
X14138Y-197197D01*
X15697Y-195638D01*
X16470Y-193770D01*
D02*
G37*
G36*
X9730D02*
X5530D01*
X6303Y-195638D01*
X7862Y-197197D01*
X9730Y-197970D01*
Y-193770D01*
D02*
G37*
G36*
X-91697Y-167250D02*
X-93803D01*
X-95838Y-167795D01*
X-97662Y-168848D01*
X-99152Y-170338D01*
X-100205Y-172162D01*
X-100750Y-174197D01*
Y-176303D01*
X-100315Y-177928D01*
Y-193822D01*
X-100750Y-195447D01*
Y-197553D01*
X-100205Y-199588D01*
X-99152Y-201412D01*
X-97662Y-202902D01*
X-95838Y-203955D01*
X-93803Y-204500D01*
X-91697D01*
X-89662Y-203955D01*
X-87838Y-202902D01*
X-86348Y-201412D01*
X-85295Y-199588D01*
X-84750Y-197553D01*
Y-195447D01*
X-85185Y-193822D01*
Y-177928D01*
X-84750Y-176303D01*
Y-174197D01*
X-85295Y-172162D01*
X-86348Y-170338D01*
X-87838Y-168848D01*
X-89662Y-167795D01*
X-91697Y-167250D01*
D02*
G37*
G36*
X152520Y-206530D02*
Y-210730D01*
X156720D01*
X155947Y-208862D01*
X154388Y-207303D01*
X152520Y-206530D01*
D02*
G37*
G36*
X149980D02*
X148112Y-207303D01*
X146553Y-208862D01*
X145780Y-210730D01*
X149980D01*
Y-206530D01*
D02*
G37*
G36*
X156720Y-213270D02*
X152520D01*
Y-217470D01*
X154388Y-216697D01*
X155947Y-215138D01*
X156720Y-213270D01*
D02*
G37*
G36*
X149980D02*
X145780D01*
X146553Y-215138D01*
X148112Y-216697D01*
X149980Y-217470D01*
Y-213270D01*
D02*
G37*
G36*
X73053Y-193000D02*
X70947D01*
X68912Y-193545D01*
X67088Y-194598D01*
X65598Y-196088D01*
X64545Y-197912D01*
X64000Y-199947D01*
Y-202053D01*
X64545Y-204088D01*
X65598Y-205912D01*
X67088Y-207402D01*
X68912Y-208455D01*
X68960Y-208468D01*
Y-209782D01*
X68912Y-209795D01*
X67088Y-210848D01*
X65598Y-212338D01*
X64545Y-214162D01*
X64000Y-216197D01*
Y-218303D01*
X64545Y-220338D01*
X65598Y-222162D01*
X67088Y-223652D01*
X68912Y-224705D01*
X70947Y-225250D01*
X73053D01*
X75088Y-224705D01*
X76912Y-223652D01*
X78402Y-222162D01*
X79455Y-220338D01*
X80000Y-218303D01*
Y-216197D01*
X79455Y-214162D01*
X78402Y-212338D01*
X76912Y-210848D01*
X75088Y-209795D01*
X75040Y-209782D01*
Y-208468D01*
X75088Y-208455D01*
X76912Y-207402D01*
X78402Y-205912D01*
X79455Y-204088D01*
X80000Y-202053D01*
Y-199947D01*
X79455Y-197912D01*
X78402Y-196088D01*
X76912Y-194598D01*
X75088Y-193545D01*
X73053Y-193000D01*
D02*
G37*
G36*
X-169980Y-226280D02*
Y-230480D01*
X-165780D01*
X-166553Y-228612D01*
X-168112Y-227053D01*
X-169980Y-226280D01*
D02*
G37*
G36*
X-172520D02*
X-174388Y-227053D01*
X-175947Y-228612D01*
X-176720Y-230480D01*
X-172520D01*
Y-226280D01*
D02*
G37*
G36*
X-165780Y-233020D02*
X-169980D01*
Y-237220D01*
X-168112Y-236447D01*
X-166553Y-234888D01*
X-165780Y-233020D01*
D02*
G37*
G36*
X-172520D02*
X-176720D01*
X-175947Y-234888D01*
X-174388Y-236447D01*
X-172520Y-237220D01*
Y-233020D01*
D02*
G37*
%LPD*%
G36*
X-75145Y57011D02*
X-73237Y56500D01*
X-72875D01*
X-72069Y55518D01*
X-72122Y55250D01*
Y35389D01*
X-75389Y32122D01*
X-88379D01*
X-88707Y32458D01*
X-88525Y33990D01*
X-88338Y34098D01*
X-86848Y35588D01*
X-85795Y37412D01*
X-85250Y39447D01*
Y41553D01*
X-85795Y43588D01*
X-86310Y44480D01*
X-85584Y45750D01*
X-85584D01*
Y48210D01*
X-83686D01*
Y53750D01*
X-82416D01*
Y55020D01*
X-77376D01*
Y56833D01*
X-76106Y57566D01*
X-75145Y57011D01*
D02*
G37*
G36*
X122637Y8250D02*
Y3750D01*
X123084Y1506D01*
X124354Y-395D01*
X125291Y-1021D01*
X125146Y-1750D01*
Y-2730D01*
X131250D01*
Y-5270D01*
X125146D01*
Y-5378D01*
X14000D01*
Y-4513D01*
X13566Y-2892D01*
X13994Y-2053D01*
X14388Y-1622D01*
X108000D01*
X110439Y-1137D01*
X112506Y244D01*
X120670Y8408D01*
X122508D01*
X122637Y8250D01*
D02*
G37*
G36*
Y-65500D02*
Y-70000D01*
X123084Y-72243D01*
X124354Y-74145D01*
X125291Y-74771D01*
X125146Y-75500D01*
Y-76480D01*
X131250D01*
Y-79020D01*
X125146D01*
Y-80000D01*
X124573Y-80698D01*
X85430D01*
X82991Y-81183D01*
X80924Y-82564D01*
X59861Y-103628D01*
X32374D01*
Y-100770D01*
X27334D01*
Y-98230D01*
X32374D01*
Y-93960D01*
X32285D01*
X31759Y-92690D01*
X32061Y-92388D01*
X32835Y-90520D01*
X27365D01*
Y-87980D01*
X32835D01*
X32178Y-86392D01*
X32731Y-85122D01*
X59750D01*
X62189Y-84637D01*
X64256Y-83256D01*
X82170Y-65342D01*
X122508D01*
X122637Y-65500D01*
D02*
G37*
G36*
X9348Y-86392D02*
X8865Y-88197D01*
Y-90303D01*
X9101Y-91186D01*
Y-99500D01*
X9166Y-99992D01*
Y-103628D01*
X3367D01*
X2666Y-102358D01*
X3220Y-101020D01*
X-7720D01*
X-7166Y-102358D01*
X-7867Y-103628D01*
X-10110D01*
X-15218Y-98520D01*
X-14692Y-97250D01*
X-14096D01*
X-12188Y-96739D01*
X-10478Y-95751D01*
X-9082Y-94355D01*
X-8094Y-92645D01*
X-7775Y-91454D01*
X-1444Y-85122D01*
X8729D01*
X9348Y-86392D01*
D02*
G37*
%LPC*%
G36*
X-77376Y52480D02*
X-81146D01*
Y48210D01*
X-77376D01*
Y52480D01*
D02*
G37*
G36*
X-980Y-94280D02*
Y-98480D01*
X3220D01*
X2447Y-96612D01*
X888Y-95053D01*
X-980Y-94280D01*
D02*
G37*
G36*
X-3520D02*
X-5388Y-95053D01*
X-6947Y-96612D01*
X-7720Y-98480D01*
X-3520D01*
Y-94280D01*
D02*
G37*
%LPD*%
D10*
X34500Y83000D02*
Y126500D01*
X-10000Y155750D02*
Y136250D01*
X-16000Y130250D01*
X-31250D01*
X-39000Y122500D01*
Y111750D01*
X-44500Y106250D01*
X-53000D01*
X-59000Y100250D01*
Y100250D01*
X-80500D01*
X-97000Y123750D02*
X-90250Y130500D01*
Y145000D01*
X-82250Y153000D01*
Y167250D01*
X-96250Y167750D02*
Y146000D01*
X-103250Y139000D01*
X-125000D01*
Y123750D02*
X-97000D01*
X-62250Y120500D02*
X-54000D01*
X-51500Y123000D01*
Y131250D01*
X-49320Y139090D02*
X-46490Y141920D01*
X-49320Y144750D01*
Y139090D02*
X-56472D01*
X-62250Y133312D01*
Y132500D01*
Y147500D02*
X-62170Y147580D01*
X-59500D01*
X-60000Y113000D02*
X-49500D01*
X-45750Y116750D01*
Y127250D01*
X-41750Y131250D01*
X-38000Y139090D02*
X-32090D01*
X-32000Y139000D01*
X-32000Y139000D01*
X-27750D01*
Y149000D02*
X-30500D01*
X-34750Y144750D01*
X-38000D01*
X-13750Y159500D02*
X-10000Y155750D01*
X-13750Y159500D02*
X-25375D01*
X-27750Y157125D01*
X-38000Y159000D02*
Y150410D01*
X-49320Y159000D02*
Y161180D01*
X-60000Y113000D02*
X-66426Y106574D01*
X-69926D01*
X-70500Y106000D01*
D11*
X163750Y-108250D02*
X164000Y-108000D01*
Y-97750D01*
X161520Y-95270D01*
Y-87070D01*
X161420Y-86970D01*
Y-80622D01*
X158548Y-77750D01*
X131250D01*
Y-67750D02*
X148951D01*
X152451Y-71250D01*
X161520D01*
Y-58970D01*
X166520D02*
Y-63150D01*
X166620Y-63250D01*
X203250D01*
X213000Y-53500D01*
Y-20750D01*
X213250Y-20500D01*
X222000Y-30000D02*
Y-56000D01*
X207000Y-71000D01*
X174040D01*
X166520Y-78520D01*
Y-87070D01*
X156620Y-58870D02*
Y-52522D01*
X159641Y-49500D01*
X180750D01*
X184750Y-53500D01*
X185750D01*
X179750Y-10250D02*
X166620D01*
X166520Y-10350D01*
Y-13320D01*
X161520D02*
X161420Y-13220D01*
Y-6872D01*
X158548Y-4000D01*
X131250D01*
X154000Y-34500D02*
Y-25000D01*
X156520Y-22480D01*
Y-13320D01*
X151520D02*
Y-11850D01*
X151420Y-11750D01*
X-4035D01*
X-5500Y-13214D01*
Y-17250D01*
X6500Y-5500D02*
Y500D01*
X10750Y4750D01*
X108000D01*
X118030Y14780D01*
X151520D01*
X156520D02*
X156620Y14880D01*
Y21229D01*
X159022Y23630D01*
X175870D01*
X184750Y14750D01*
X185750D01*
X165000Y39500D02*
X164500Y40000D01*
Y51000D01*
X161620Y53880D01*
Y60330D01*
X161520Y60430D01*
X161620Y60530D01*
Y66878D01*
X164021Y69280D01*
X207530D01*
X209000Y70750D01*
Y74381D01*
X209309Y74691D01*
X176750Y87000D02*
X176073D01*
X174543Y88530D01*
X166520D01*
X156520Y107230D02*
Y88530D01*
X151520D02*
Y79270D01*
X147250Y75000D01*
X140500D01*
Y60000D02*
X151420D01*
X151520Y60100D01*
Y60430D01*
X156520D02*
Y52020D01*
X154500Y50000D01*
Y40000D01*
X155000Y39500D01*
X148952Y6000D02*
X152201Y2750D01*
X161520D01*
Y14780D01*
X166520D02*
Y6730D01*
X173500Y-250D01*
X179750D01*
X179750Y-250D01*
X161520Y-13320D02*
Y-22520D01*
X164000Y-25000D01*
Y-34500D01*
X178573Y-33000D02*
X179250D01*
X156620Y-58870D02*
X156520Y-58970D01*
X151520D02*
X79530D01*
X59750Y-78750D01*
X-4083D01*
X-15083Y-89750D01*
X-12750Y-110000D02*
X62500D01*
X85430Y-87070D01*
X151520D01*
X156420Y-87170D02*
X156520Y-87070D01*
X156420Y-87170D02*
Y-94580D01*
X153250Y-97750D01*
Y-107750D01*
X153750Y-108250D01*
X148952Y6000D02*
X131250D01*
X99500Y12750D02*
X99625Y12875D01*
Y158501D01*
X99750Y158626D01*
X89000Y145250D02*
Y21750D01*
X62500Y38750D02*
X50000D01*
X45500Y43250D01*
Y126250D01*
Y126500D01*
X48250Y139500D02*
X58750Y150000D01*
Y222250D01*
X48250Y232750D01*
X-142000D01*
Y222250D02*
X39250D01*
X48000Y213500D01*
Y154250D01*
X42750Y149000D01*
X28750D01*
X17000Y137250D01*
Y99750D01*
X750Y83500D01*
Y65500D01*
Y65250D01*
X-15750Y68000D02*
Y112750D01*
X-10500Y118000D01*
X-2500D01*
X5000Y125500D01*
Y163500D01*
X8250Y166750D01*
X41500D01*
X36250Y139500D02*
X48250D01*
X36250D02*
X27250Y130500D01*
Y98000D01*
X9250Y80000D01*
Y65500D01*
X22000Y64834D02*
X22042Y64792D01*
X32708D02*
X32750Y64750D01*
X9875Y105625D02*
X10000Y105750D01*
X9875Y105625D02*
X-5125D01*
X-5250Y105500D01*
X-8250Y124500D02*
X-2500Y130250D01*
Y167000D01*
X-2250Y167250D01*
X-8250Y124500D02*
X-25500D01*
X-33000Y117000D01*
Y73000D01*
X-38926Y67073D01*
X-69177D01*
X-72250Y64000D01*
X-72750Y25750D02*
X-65750Y32750D01*
Y55250D01*
X-59250Y61750D01*
X-22000D01*
X-15750Y68000D01*
X-31940Y19910D02*
Y18710D01*
X-31440Y18210D01*
X-31214D01*
X-29750Y16746D01*
Y8250D01*
X-33210Y4790D01*
X-33750Y4250D01*
X-36750Y4250D01*
Y4250D02*
X-36997Y4245D01*
Y4245D02*
X-48500Y3750D01*
Y12250D02*
X-48400D01*
X-41940Y18710D01*
Y19910D01*
X-36940D02*
X-36845Y19815D01*
Y12345D01*
X-36750Y12250D01*
X-31940Y-21600D02*
Y-29310D01*
X-30760Y-30490D01*
Y-30531D01*
X-28541Y-32750D01*
X-25790D01*
X-25290Y-33250D01*
X-36830Y-32616D02*
X-36720Y-32506D01*
X-36830Y-32616D02*
Y-39790D01*
X-36940Y-39900D01*
Y-45440D01*
X-41000Y-49500D01*
X-78500D01*
X-83250Y-55500D02*
X-37000D01*
X-32440Y-50940D01*
Y-41600D01*
X-31940Y-41100D01*
Y-39900D01*
X-41940D02*
Y-41100D01*
X-44590Y-43750D01*
X-63750D01*
X-70500Y-38000D02*
X-48840D01*
X-48590Y-38250D01*
X-70500Y-38000D02*
Y7750D01*
X-56690Y21560D01*
X-48590D01*
X-48545Y-14545D02*
X-48500Y-14500D01*
X-48545Y-14545D02*
Y-23205D01*
X-48590Y-23250D01*
X-83250Y-55500D02*
X-86000Y-58250D01*
X-24750Y-89750D02*
Y-98000D01*
X-12750Y-110000D01*
X-145000Y-97187D02*
X-150563D01*
X-153310Y-94440D01*
Y-82680D01*
X-158310D02*
Y-74310D01*
X-156250Y-72250D01*
Y-63000D01*
X-157000Y-62250D01*
X-166250Y-62000D02*
X-166500Y-61750D01*
X-166250Y-62000D02*
Y-71750D01*
X-163410Y-74590D01*
Y-82580D01*
X-163310Y-82680D01*
X-163410Y-82780D01*
Y-89128D01*
X-165812Y-91530D01*
X-207495D01*
X-209080Y-93115D01*
Y-96080D01*
X-209750Y-96750D01*
X-178750Y-109000D02*
X-168410D01*
X-168310Y-109100D01*
Y-110780D01*
X-158310D02*
Y-126880D01*
X-157940Y-127250D01*
X-153310Y-111150D02*
Y-110780D01*
Y-111150D02*
X-153210Y-111250D01*
X-145000D01*
X-158310Y-82680D02*
X-158280Y-82650D01*
X-168310Y-82680D02*
Y-84150D01*
X-168410Y-84250D01*
X-179000D01*
X-55727Y36579D02*
X-48609D01*
X-48590Y36560D01*
X-55727Y36579D02*
X-55746Y36599D01*
X-72750Y25750D02*
X-93250D01*
X-111250Y49250D02*
Y100500D01*
X-105250Y106500D01*
X-80500D01*
X-70184Y116816D01*
Y139316D01*
X-111750Y152250D02*
Y168250D01*
Y152250D02*
X-117000Y147000D01*
X-146000D01*
X-150500Y142500D01*
Y124000D01*
X-154524Y119976D01*
X-158267D01*
X-159810Y118433D01*
X-111250Y49250D02*
X-120000Y40500D01*
X-137000Y168000D02*
X-137250Y168250D01*
X156500Y107250D02*
X156520Y107230D01*
D17*
X-41750Y131250D02*
X-40830Y132170D01*
Y141920D01*
Y147580D02*
X-40639Y147771D01*
X-39932D01*
X-39793Y147910D01*
X-36964D01*
X-27750Y157125D01*
X-43660Y150410D02*
X-49320D01*
Y159000D01*
X-46490Y147580D02*
X-59500D01*
X-51500Y131250D02*
X-43660Y139090D01*
D58*
X-80000Y-35334D02*
D03*
Y-24666D02*
D03*
X22000Y54166D02*
D03*
Y64834D02*
D03*
X73000Y60584D02*
D03*
Y49916D02*
D03*
D75*
X163750Y-108250D02*
D03*
X153750D02*
D03*
X164000Y-34500D02*
D03*
X154000D02*
D03*
X165000Y39500D02*
D03*
X155000D02*
D03*
X189750Y79000D02*
D03*
X199750D02*
D03*
X127500Y158500D02*
D03*
X117500D02*
D03*
X-38250Y167250D02*
D03*
X-48250D02*
D03*
X-39500Y53250D02*
D03*
X-29500D02*
D03*
Y-6000D02*
D03*
X-39500D02*
D03*
X-156500Y-61750D02*
D03*
X-166500D02*
D03*
X-188750Y-101250D02*
D03*
X-198750D02*
D03*
X-183500Y75000D02*
D03*
X-173500D02*
D03*
D84*
X-80000Y-1500D02*
D03*
Y11500D02*
D03*
D87*
X-171750Y-127250D02*
D03*
X-158750D02*
D03*
X-172250Y140500D02*
D03*
Y153750D02*
D03*
X-185250D02*
D03*
Y140500D02*
D03*
X156500Y107250D02*
D03*
X169500D02*
D03*
X185750Y14750D02*
D03*
X198750D02*
D03*
Y-53500D02*
D03*
X185750D02*
D03*
D90*
X16666Y-99500D02*
D03*
X27334D02*
D03*
X32584Y-49000D02*
D03*
X21916D02*
D03*
X-82416Y53750D02*
D03*
X-93084D02*
D03*
X-93834Y-99500D02*
D03*
X-83166D02*
D03*
D93*
X-92750Y-196500D02*
Y-175250D01*
X-93834Y-99500D02*
Y-99000D01*
X-93750Y-98916D01*
Y-89250D01*
X-82885D02*
Y-89521D01*
X-83166Y-89801D01*
Y-99500D01*
X-80000Y-35334D02*
X-92563D01*
X-92979Y-35750D01*
X-93250D01*
Y-24666D02*
X-80000D01*
X-80000Y-1500D02*
X-93250D01*
X-91000Y11500D02*
X-80000D01*
X-80000Y11500D01*
X-39750Y-5750D02*
X-39500Y-6000D01*
X1500Y-38250D02*
X2500Y-37250D01*
X4250Y-38750D02*
X4989Y-38011D01*
X12968D01*
X13729Y-37250D01*
X14000D01*
X21916Y-49000D02*
Y-58813D01*
X21500Y-59229D01*
Y-59500D01*
X16666Y-89449D02*
X16673Y-89456D01*
Y-89712D01*
X16666Y-89719D01*
Y-99500D01*
X27334D02*
Y-99000D01*
X27365Y-98969D01*
Y-89250D01*
X32115Y-59500D02*
Y-59229D01*
X32584Y-58760D01*
Y-49000D01*
X13729Y-24250D02*
X2500D01*
X1500Y-23250D01*
X13750Y20750D02*
X1750D01*
X13750Y35750D02*
X1750D01*
X22000Y54166D02*
X31813D01*
X32229Y53750D01*
X32500D01*
X32708Y64792D02*
X22042D01*
X62542Y60542D02*
X70958D01*
Y49874D02*
X63145D01*
X62729Y49458D01*
X62458D01*
X140750Y39500D02*
X155000D01*
X198750Y14750D02*
X199750D01*
X208500Y23500D01*
X213250D01*
X200250Y78000D02*
X199750Y78500D01*
Y79000D01*
X176559Y101191D02*
X170500Y107250D01*
X169500D01*
X176559Y101191D02*
Y98191D01*
X176750Y98000D01*
X133000Y145500D02*
X132809Y145691D01*
Y152691D01*
X127500Y158000D01*
Y158500D01*
X117500D02*
Y158000D01*
X111191Y151691D01*
Y145691D01*
X111000Y145500D01*
X-24750Y167250D02*
X-38250D01*
X-82385Y64000D02*
Y54281D01*
X-82416Y54250D01*
Y53750D01*
X-93084D02*
Y63834D01*
X-142000Y100250D02*
X-149817Y92433D01*
X-159810D01*
X-172309D01*
X-172809Y91933D01*
Y87433D01*
X-173500Y86742D01*
Y75000D01*
X-183500D02*
Y86622D01*
X-184311Y87433D01*
Y91933D01*
X-184811Y92433D01*
X-197310D01*
Y118433D01*
Y92433D02*
X-197744Y92000D01*
X-212000D01*
X-185250Y140500D02*
Y153750D01*
Y164500D01*
X-189250Y168500D01*
X-204750D01*
X-156500Y-61750D02*
X-145000D01*
X-156500D02*
X-157000Y-62250D01*
X-198750Y-101250D02*
X-198969Y-101031D01*
X-192500Y-127250D02*
X-171750D01*
X-171500Y-127250D02*
X-171500Y-127250D01*
X140750Y-34500D02*
X154000D01*
D94*
X189500Y-125250D02*
X166500D01*
X153750Y-112500D01*
Y-108250D01*
X163750D02*
X175250D01*
X198750Y-53500D02*
X200750Y-51500D01*
X202500D01*
X206250Y-47750D01*
X177073Y-34500D02*
X178573Y-33000D01*
X177073Y-34500D02*
X164000D01*
X166520Y60430D02*
X175139D01*
X176709Y62000D01*
X177250D01*
X189750Y79000D02*
X168500D01*
X165064Y75564D01*
X161820D01*
X161506Y75250D01*
Y88516D01*
X161520Y88530D01*
X161506Y75250D02*
X161492Y75236D01*
X200250Y78000D02*
X206000D01*
X209309Y74691D01*
X13750Y35750D02*
X14000Y35500D01*
X13750Y20750D02*
X14000Y20500D01*
X1750Y35750D02*
X1500Y36000D01*
X-14Y34486D01*
X-12514D01*
X-13750Y33250D01*
X-14250D02*
X-17560Y36560D01*
X-25290D01*
X-31690Y38460D02*
Y41560D01*
X-29500Y43750D01*
Y49500D01*
X-39962Y53500D02*
Y43538D01*
X-41940Y41560D01*
Y38210D01*
X-36940D02*
X-31940D01*
X-31690Y38460D01*
X-31940Y38210D02*
Y30105D01*
X-28645Y26810D01*
X-25540D01*
X-25290Y26560D01*
Y21560D01*
X-25207Y21477D02*
X-16023D01*
X-14250Y23250D01*
X-13750D02*
X-12625Y22125D01*
X375D01*
X1750Y20750D01*
X1500Y-23250D02*
X250Y-24500D01*
X-12500D01*
X-13750Y-25750D01*
X-14250D01*
X-16750Y-23250D01*
X-25290D01*
X-31690Y-21350D02*
Y-18183D01*
X-29500Y-15993D01*
Y-6000D01*
X-39500D02*
Y-16055D01*
X-41940Y-18495D01*
Y-21600D01*
X-36940D02*
X-31940D01*
X-31690Y-21350D01*
X-39750Y-5750D02*
X-48250D01*
X-25290Y-33250D02*
Y-38250D01*
X-16750D01*
X-14250Y-35750D01*
X-13750D01*
X-12500Y-37000D01*
X250D01*
X1500Y-38250D01*
X-39962Y53500D02*
X-47769D01*
X-80000Y122250D02*
Y142500D01*
X-75000Y147500D01*
X-62250D01*
X-27750Y149000D02*
X-24000D01*
X-15750D01*
X-15750Y149000D01*
X-38000Y159000D02*
Y167000D01*
X-38250Y167250D01*
X-27750Y139000D02*
X-24000D01*
X-49320Y161180D02*
Y166180D01*
X-48250Y167250D01*
X-80000Y122250D02*
X-87250Y115000D01*
X-134500D01*
X-157500Y143750D02*
Y156750D01*
X-153500Y160750D01*
X-125000D01*
X-137000Y168000D02*
X-112000D01*
X-137250Y168250D02*
X-143500Y174500D01*
X-167250D01*
X-172250Y169500D01*
Y153750D01*
X-172309Y140441D02*
X-172118Y140250D01*
X-161000D01*
X-157500Y143750D01*
X-172309Y140441D02*
Y118433D01*
X-198969Y-101031D02*
X-206493D01*
X-209176Y-98348D01*
Y-97324D01*
X-209750Y-96750D01*
X-188750Y-101250D02*
X-171250D01*
X-167414Y-97414D01*
X-163261D01*
X-163172Y-97325D01*
X-163034Y-97187D01*
X-163172Y-97325D02*
Y-110642D01*
X-163310Y-110780D01*
D100*
X222296Y-222878D02*
D03*
Y221872D02*
D03*
X-222704D02*
D03*
Y-222878D02*
D03*
D101*
X175250Y-108250D02*
D03*
X161520Y-71250D02*
D03*
X206250Y-47750D02*
D03*
X222000Y-30000D02*
D03*
X213250Y-20500D02*
D03*
Y9750D02*
D03*
Y23500D02*
D03*
X209309Y74691D02*
D03*
X206750Y126500D02*
D03*
X176750Y87000D02*
D03*
X161492Y75236D02*
D03*
X177250Y62000D02*
D03*
X140500Y75000D02*
D03*
Y60000D02*
D03*
X161520Y2750D02*
D03*
X179750Y-250D02*
D03*
Y-10250D02*
D03*
Y-33000D02*
D03*
X62500Y38750D02*
D03*
X32250Y-24250D02*
D03*
X22875D02*
D03*
X6500Y-5500D02*
D03*
X-5500Y-17250D02*
D03*
X-36750Y12250D02*
D03*
X-55746Y36599D02*
D03*
X-48500Y12250D02*
D03*
Y3750D02*
D03*
Y-5750D02*
D03*
Y-14500D02*
D03*
X-63750Y-43750D02*
D03*
X-70500Y-38000D02*
D03*
X-36720Y-32506D02*
D03*
X-24750Y-89750D02*
D03*
X-15083D02*
D03*
X-78500Y-49500D02*
D03*
X-86000Y-58250D02*
D03*
X-145000Y-97187D02*
D03*
Y-111250D02*
D03*
X-179000Y-84250D02*
D03*
X-178750Y-109000D02*
D03*
X-93250Y-1500D02*
D03*
Y11500D02*
D03*
Y25750D02*
D03*
X-48500Y53250D02*
D03*
X-72250Y64000D02*
D03*
X-120000Y40500D02*
D03*
X-70500Y106000D02*
D03*
X-62250Y120500D02*
D03*
X-32000Y139000D02*
D03*
X-15750Y149000D02*
D03*
X-2250Y167250D02*
D03*
X-24750D02*
D03*
X-62250Y132500D02*
D03*
X-70184Y139316D02*
D03*
X-82250Y167250D02*
D03*
X-96250Y167750D02*
D03*
X-111750Y168250D02*
D03*
X-125000Y160750D02*
D03*
X-137250Y168250D02*
D03*
X-125000Y139000D02*
D03*
Y123750D02*
D03*
X-134500Y115000D02*
D03*
X-80500Y100250D02*
D03*
X750Y65500D02*
D03*
X9250D02*
D03*
X34500Y83000D02*
D03*
Y126250D02*
D03*
X45500D02*
D03*
X41500Y166750D02*
D03*
X-142000Y232750D02*
D03*
Y222250D02*
D03*
X-204750Y168500D02*
D03*
X235250Y161000D02*
D03*
D102*
X151250Y-212000D02*
D03*
X164250Y-152000D02*
D03*
X189500Y-125250D02*
D03*
Y-108750D02*
D03*
Y-92750D02*
D03*
X212000Y-75500D02*
D03*
X235750Y-96500D02*
D03*
X240250Y-128750D02*
D03*
X235750Y-75250D02*
D03*
X175750Y-83750D02*
D03*
X140750Y-34500D02*
D03*
X99500Y12750D02*
D03*
X89000Y21750D02*
D03*
X140750Y39500D02*
D03*
X176750Y98000D02*
D03*
X133000Y145500D02*
D03*
X111000D02*
D03*
X99750Y158750D02*
D03*
X89000Y145250D02*
D03*
X72750Y174000D02*
D03*
X63750Y126250D02*
D03*
X10000Y105750D02*
D03*
X-5250Y105500D02*
D03*
X-26750Y99750D02*
D03*
X-82385Y64000D02*
D03*
X-93250D02*
D03*
Y40500D02*
D03*
Y-24500D02*
D03*
Y-35750D02*
D03*
X-93750Y-89250D02*
D03*
X-82885D02*
D03*
X-121250Y-137000D02*
D03*
X-92750Y-175250D02*
D03*
Y-196500D02*
D03*
X-171250Y-231750D02*
D03*
X-209750Y-175000D02*
D03*
X-192500Y-127250D02*
D03*
X-163034Y-97187D02*
D03*
X-145000Y-61750D02*
D03*
X-209750Y-96750D02*
D03*
X-212000Y57000D02*
D03*
Y92000D02*
D03*
Y141059D02*
D03*
X-142000Y85500D02*
D03*
Y100250D02*
D03*
X-62500Y210250D02*
D03*
X-87473D02*
D03*
X-175000D02*
D03*
X14000Y20500D02*
D03*
Y-24250D02*
D03*
Y-37250D02*
D03*
X21500Y-59500D02*
D03*
X16865Y-89250D02*
D03*
X27365D02*
D03*
X32115Y-59500D02*
D03*
X-2250Y-99750D02*
D03*
X50750Y-157250D02*
D03*
X72000Y-201000D02*
D03*
Y-217250D02*
D03*
X11000Y-192500D02*
D03*
X14000Y35500D02*
D03*
X32500Y53750D02*
D03*
Y64750D02*
D03*
X62458Y60458D02*
D03*
Y49458D02*
D03*
X193750Y196000D02*
D03*
X84250Y202250D02*
D03*
X40000Y210250D02*
D03*
X30000D02*
D03*
D103*
X131250Y-77750D02*
D03*
Y-67750D02*
D03*
Y-4000D02*
D03*
Y6000D02*
D03*
X-11500Y23250D02*
D03*
Y33250D02*
D03*
Y-25750D02*
D03*
Y-35750D02*
D03*
X-24000Y139000D02*
D03*
Y149000D02*
D03*
D104*
X-168310Y-110780D02*
D03*
X-163310D02*
D03*
X-158310D02*
D03*
X-153310D02*
D03*
Y-82680D02*
D03*
X-158310D02*
D03*
X-163310D02*
D03*
X-168310D02*
D03*
X151520Y-87070D02*
D03*
X156520D02*
D03*
X161520D02*
D03*
X166520D02*
D03*
Y-58970D02*
D03*
X161520D02*
D03*
X156520D02*
D03*
X151520D02*
D03*
X161520Y-13320D02*
D03*
X166520D02*
D03*
Y14780D02*
D03*
X161520D02*
D03*
X156520D02*
D03*
X151520D02*
D03*
Y-13320D02*
D03*
X156520D02*
D03*
X161520Y60430D02*
D03*
X166520D02*
D03*
Y88530D02*
D03*
X161520D02*
D03*
X156520D02*
D03*
X151520D02*
D03*
Y60430D02*
D03*
X156520D02*
D03*
D105*
X-172309Y92433D02*
D03*
X-159810D02*
D03*
Y118433D02*
D03*
X-172309D02*
D03*
X-184811D02*
D03*
X-197310D02*
D03*
Y92433D02*
D03*
X-184811D02*
D03*
D106*
X4250Y-38750D02*
D03*
Y-23750D02*
D03*
Y21000D02*
D03*
Y36000D02*
D03*
D107*
X-41940Y-39900D02*
D03*
X-36940D02*
D03*
X-31940D02*
D03*
Y-21600D02*
D03*
X-36940D02*
D03*
X-41940D02*
D03*
Y19910D02*
D03*
X-36940D02*
D03*
X-31940D02*
D03*
Y38210D02*
D03*
X-36940D02*
D03*
X-41940D02*
D03*
D108*
X-25290Y-38250D02*
D03*
Y-33250D02*
D03*
Y-28250D02*
D03*
Y-23250D02*
D03*
Y21560D02*
D03*
Y26560D02*
D03*
Y31560D02*
D03*
Y36560D02*
D03*
X-48590D02*
D03*
Y31560D02*
D03*
Y26560D02*
D03*
Y21560D02*
D03*
Y-23250D02*
D03*
Y-28250D02*
D03*
Y-33250D02*
D03*
Y-38250D02*
D03*
D109*
X-43660Y139090D02*
D03*
X-38000D02*
D03*
Y144750D02*
D03*
X-40830Y141920D02*
D03*
Y147580D02*
D03*
X-38000Y150410D02*
D03*
X-43660D02*
D03*
X-49320D02*
D03*
X-46490Y147580D02*
D03*
X-49320Y144750D02*
D03*
Y139090D02*
D03*
X-46490Y141920D02*
D03*
M02*
