M48
;Layer_Color=9474304
;FILE_FORMAT=4:4
METRIC,TZ
;TYPE=PLATED
T01F00S00C0.2500
T02F00S00C0.3000
T03F00S00C2.1001
%
T01
X-178750Y-109000
X-179000Y-84250
X-145000Y-97187
Y-111250
Y-66750
X-120000Y40500
X-125250Y123750
Y139000
X-134500Y115000
X-137250Y168250
X-149750Y168500
X-162250
X-111750Y168250
X-231750Y134000
Y117000
X-80500Y100250
X-70500Y106000
X-62250Y120500
Y132500
X-70184Y139316
X-33750Y142500
X-24750Y167250
X-250
X41500Y166750
X45500Y126250
X34500
Y83000
X62500Y38750
X62250Y-22500
Y-37500
X379Y-27308
X-36750Y-19500
X-55250Y-17750
X-48250Y-4750
X-48500Y12250
X-36750
X-55746Y36599
X-72250Y64000
X-93250Y25750
Y11500
Y-1500
X-78250Y-48000
X-86000Y-58250
X-64000Y-35250
X-500Y20500
X141500Y-6750
Y-20786
X177250Y-9000
X177500Y-33750
X212750Y-21250
Y64750
X177250Y77000
Y52250
X161992Y65018
X141000Y65000
Y50000
X206750Y126500
X235250Y161000
X-82250Y167250
X-96250Y167750
T02
X-171250Y-231750
X-212500Y-175000
Y-96750
X-163034Y-97187
X-121250Y-137000
X-142000Y85500
Y100250
X-212000Y57000
X-93250Y64000
X-82385
X-93250Y40500
Y-24500
Y-35750
X-70250Y-26250
X-82885Y-89250
X-93750
X-92750Y-175250
Y-196500
X11000Y-192500
X72000Y-201000
Y-217250
X50750Y-157250
X27365Y-89250
X16865
X-3000
X21500Y-59500
X32115
X-10750Y0
X-11000Y47250
X32500Y53750
Y64750
X62458Y60458
Y49458
X89000Y21750
X99750Y22250
X141000
Y82500
X133000Y145500
X111000
X89000Y145250
X99750Y158750
X63750Y126250
X20750Y105250
X-5250Y105500
X-26750Y99750
X162174Y-20786
X177500Y-51500
X181500Y-70500
X189500Y-92750
Y-109000
Y-125250
X164250Y-152000
X151250Y-212000
X240250Y-128750
X235750Y-96500
Y-75250
X212000Y-75500
X193750Y196000
X84250Y202250
X72750Y174000
X40000Y210250
X30000
X-62500
X-87473
X-175000
T03
X-222704Y-222878
X222296
Y221872
X-222704
M30
