G04*
G04 #@! TF.GenerationSoftware,Altium Limited,Altium Designer,23.7.1 (13)*
G04*
G04 Layer_Color=8388736*
%FSLAX44Y44*%
%MOMM*%
G71*
G04*
G04 #@! TF.SameCoordinates,04D04BC5-F765-4596-8717-98BD9A505975*
G04*
G04*
G04 #@! TF.FilePolarity,Negative*
G04*
G01*
G75*
%ADD20R,0.8000X0.7000*%
%ADD21R,1.6532X1.2032*%
%ADD22R,1.2032X1.7532*%
%ADD23R,0.9032X1.9532*%
%ADD24R,1.0032X1.7032*%
%ADD25R,1.0032X1.6032*%
%ADD26R,1.5032X1.7032*%
%ADD27R,1.7032X1.7032*%
%ADD28R,1.7532X0.8032*%
%ADD29R,2.0032X1.4032*%
%ADD30R,2.6032X3.5032*%
%ADD31R,2.6032X1.2032*%
%ADD32R,3.0032X1.2032*%
%ADD33R,1.9032X0.8032*%
%ADD34R,1.4605X0.5588*%
%ADD35R,2.5654X3.4544*%
%ADD36R,1.7032X1.5032*%
G04:AMPARAMS|DCode=37|XSize=1.7632mm|YSize=0.4832mm|CornerRadius=0.1366mm|HoleSize=0mm|Usage=FLASHONLY|Rotation=0.000|XOffset=0mm|YOffset=0mm|HoleType=Round|Shape=RoundedRectangle|*
%AMROUNDEDRECTD37*
21,1,1.7632,0.2100,0,0,0.0*
21,1,1.4900,0.4832,0,0,0.0*
1,1,0.2732,0.7450,-0.1050*
1,1,0.2732,-0.7450,-0.1050*
1,1,0.2732,-0.7450,0.1050*
1,1,0.2732,0.7450,0.1050*
%
%ADD37ROUNDEDRECTD37*%
G04:AMPARAMS|DCode=38|XSize=0.4832mm|YSize=1.7632mm|CornerRadius=0.1366mm|HoleSize=0mm|Usage=FLASHONLY|Rotation=0.000|XOffset=0mm|YOffset=0mm|HoleType=Round|Shape=RoundedRectangle|*
%AMROUNDEDRECTD38*
21,1,0.4832,1.4900,0,0,0.0*
21,1,0.2100,1.7632,0,0,0.0*
1,1,0.2732,0.1050,-0.7450*
1,1,0.2732,-0.1050,-0.7450*
1,1,0.2732,-0.1050,0.7450*
1,1,0.2732,0.1050,0.7450*
%
%ADD38ROUNDEDRECTD38*%
G04:AMPARAMS|DCode=39|XSize=0.8032mm|YSize=0.9032mm|CornerRadius=0.1766mm|HoleSize=0mm|Usage=FLASHONLY|Rotation=180.000|XOffset=0mm|YOffset=0mm|HoleType=Round|Shape=RoundedRectangle|*
%AMROUNDEDRECTD39*
21,1,0.8032,0.5500,0,0,180.0*
21,1,0.4500,0.9032,0,0,180.0*
1,1,0.3532,-0.2250,0.2750*
1,1,0.3532,0.2250,0.2750*
1,1,0.3532,0.2250,-0.2750*
1,1,0.3532,-0.2250,-0.2750*
%
%ADD39ROUNDEDRECTD39*%
%ADD40R,1.1032X0.9032*%
%ADD41R,0.9032X1.1032*%
%ADD42R,2.2032X2.1032*%
%ADD43R,1.6032X2.2032*%
%ADD44R,0.8032X1.9032*%
%ADD45R,1.2032X3.0032*%
%ADD46R,0.8032X1.7532*%
%ADD47R,1.4032X2.0032*%
%ADD48R,0.9000X1.1000*%
%ADD49R,2.7432X1.9812*%
%ADD50R,1.3000X1.2000*%
%ADD51R,1.1000X0.9000*%
%ADD52R,2.5032X2.5032*%
%ADD53R,1.8032X2.4032*%
%ADD54R,0.7000X0.8000*%
%ADD55R,1.2000X1.3000*%
%ADD56C,1.2032*%
%ADD57C,3.7033*%
D20*
X106945Y-140834D02*
D03*
Y-130166D02*
D03*
X123000D02*
D03*
Y-140834D02*
D03*
X90889D02*
D03*
Y-130166D02*
D03*
D21*
X77750Y217500D02*
D03*
D22*
X189750Y233250D02*
D03*
D23*
X166000Y125250D02*
D03*
X155000D02*
D03*
X144000D02*
D03*
X133000D02*
D03*
X122000D02*
D03*
X111000D02*
D03*
X100000D02*
D03*
X89000D02*
D03*
D24*
X74500Y202500D02*
D03*
D25*
X193750Y209000D02*
D03*
D26*
X77000Y126500D02*
D03*
D27*
X190500Y126500D02*
D03*
D28*
X195500Y-40250D02*
D03*
Y-30250D02*
D03*
Y-20250D02*
D03*
Y-10250D02*
D03*
Y-250D02*
D03*
Y9750D02*
D03*
D29*
X234250Y-53250D02*
D03*
Y22750D02*
D03*
D30*
X212000Y-107250D02*
D03*
D31*
X154000Y-130250D02*
D03*
X154000Y-107250D02*
D03*
X154000Y-84250D02*
D03*
D32*
X-228630Y-193769D02*
D03*
X-228627Y-144270D02*
D03*
X-228630Y-127691D02*
D03*
Y-65690D02*
D03*
Y110059D02*
D03*
Y172060D02*
D03*
X229250Y43690D02*
D03*
Y105691D02*
D03*
D33*
X-195128Y-175271D02*
D03*
Y-162774D02*
D03*
X-195130Y-109190D02*
D03*
Y-96691D02*
D03*
Y-84191D02*
D03*
Y128560D02*
D03*
Y141059D02*
D03*
Y153559D02*
D03*
X195750Y62191D02*
D03*
Y74691D02*
D03*
Y87190D02*
D03*
D34*
X-22508Y-175300D02*
D03*
Y-162600D02*
D03*
Y-149900D02*
D03*
Y-137200D02*
D03*
X-76992Y-137200D02*
D03*
X-76992Y-149900D02*
D03*
Y-162600D02*
D03*
Y-175300D02*
D03*
D35*
X-49750Y-156250D02*
D03*
D36*
X-171250Y-210750D02*
D03*
X-149250D02*
D03*
Y-191750D02*
D03*
X-171250D02*
D03*
X50750Y-145000D02*
D03*
X72750D02*
D03*
Y-126000D02*
D03*
X50750D02*
D03*
D37*
X46250Y-57500D02*
D03*
Y-52500D02*
D03*
Y-47500D02*
D03*
Y-42500D02*
D03*
Y-37500D02*
D03*
Y-32500D02*
D03*
Y-27500D02*
D03*
Y-22500D02*
D03*
Y-17500D02*
D03*
Y-12500D02*
D03*
Y-7500D02*
D03*
Y-2500D02*
D03*
Y2500D02*
D03*
Y7500D02*
D03*
Y12500D02*
D03*
Y17500D02*
D03*
Y22500D02*
D03*
Y27500D02*
D03*
Y32500D02*
D03*
Y37500D02*
D03*
Y42500D02*
D03*
Y47500D02*
D03*
Y52500D02*
D03*
Y57500D02*
D03*
Y62500D02*
D03*
X-107350D02*
D03*
Y57500D02*
D03*
Y52500D02*
D03*
Y47500D02*
D03*
Y42500D02*
D03*
Y37500D02*
D03*
Y32500D02*
D03*
Y27500D02*
D03*
Y22500D02*
D03*
Y17500D02*
D03*
Y12500D02*
D03*
Y7500D02*
D03*
Y2500D02*
D03*
Y-2500D02*
D03*
Y-7500D02*
D03*
Y-12500D02*
D03*
Y-17500D02*
D03*
Y-22500D02*
D03*
Y-27500D02*
D03*
Y-32500D02*
D03*
Y-37500D02*
D03*
Y-42500D02*
D03*
Y-47500D02*
D03*
Y-52500D02*
D03*
Y-57500D02*
D03*
D38*
X9450Y-74300D02*
D03*
X14450D02*
D03*
X19450D02*
D03*
X24450D02*
D03*
X29450D02*
D03*
X4450D02*
D03*
X-550D02*
D03*
X-5550D02*
D03*
X-10550D02*
D03*
X-15550D02*
D03*
X-20550D02*
D03*
X-25550D02*
D03*
X-30550D02*
D03*
X-35550D02*
D03*
X-40550D02*
D03*
X-45550D02*
D03*
X-50550D02*
D03*
X-55550D02*
D03*
X-60550D02*
D03*
X-65550D02*
D03*
X-70550D02*
D03*
X-75550D02*
D03*
X-80550D02*
D03*
X-85550D02*
D03*
X-90550D02*
D03*
X9450Y79300D02*
D03*
X14450D02*
D03*
X19450D02*
D03*
X24450D02*
D03*
X29450D02*
D03*
X4450D02*
D03*
X-550D02*
D03*
X-5550D02*
D03*
X-10550D02*
D03*
X-15550D02*
D03*
X-20550D02*
D03*
X-25550D02*
D03*
X-30550D02*
D03*
X-35550D02*
D03*
X-40550D02*
D03*
X-45550D02*
D03*
X-50550D02*
D03*
X-55550D02*
D03*
X-60550D02*
D03*
X-65550D02*
D03*
X-70550D02*
D03*
X-75550D02*
D03*
X-80550D02*
D03*
X-85550D02*
D03*
X-90550D02*
D03*
D39*
X-142000Y-40250D02*
D03*
X-152000D02*
D03*
X52000Y145500D02*
D03*
X62000D02*
D03*
Y159500D02*
D03*
Y174000D02*
D03*
X52000D02*
D03*
Y159500D02*
D03*
X209500Y147026D02*
D03*
X219500D02*
D03*
Y161138D02*
D03*
X209500D02*
D03*
Y175250D02*
D03*
X219500D02*
D03*
D40*
X10500Y-150000D02*
D03*
Y-137500D02*
D03*
Y-125000D02*
D03*
X10500Y-112500D02*
D03*
X-2500D02*
D03*
X-2500Y-125000D02*
D03*
Y-137500D02*
D03*
Y-150000D02*
D03*
D41*
X-121500Y-233000D02*
D03*
Y-220000D02*
D03*
Y-204500D02*
D03*
Y-191500D02*
D03*
X-95750Y-150000D02*
D03*
Y-137000D02*
D03*
X10500Y-166500D02*
D03*
Y-179500D02*
D03*
D42*
X-121812Y-162000D02*
D03*
X-165500D02*
D03*
D43*
X-214508Y-27750D02*
D03*
Y36250D02*
D03*
D44*
X163771Y-195627D02*
D03*
X151274D02*
D03*
X-62471Y195231D02*
D03*
X-74971D02*
D03*
X-87473D02*
D03*
X-99972D02*
D03*
X-112471D02*
D03*
X-124973D02*
D03*
X-137472D02*
D03*
X-149972D02*
D03*
X-162471D02*
D03*
X-174970D02*
D03*
D45*
X182269Y-229130D02*
D03*
X132770Y-229128D02*
D03*
X-43970Y228731D02*
D03*
X-193469Y228734D02*
D03*
D46*
X30000Y194984D02*
D03*
X40000D02*
D03*
X20000D02*
D03*
X10000D02*
D03*
X0D02*
D03*
X-10000D02*
D03*
D47*
X53000Y233734D02*
D03*
X-23000D02*
D03*
D48*
X214250Y-159000D02*
D03*
Y-146000D02*
D03*
X-142000Y28500D02*
D03*
Y15500D02*
D03*
X-142000Y-3250D02*
D03*
Y-16250D02*
D03*
D49*
X-171250Y-15590D02*
D03*
Y27590D02*
D03*
D50*
X-143992Y54750D02*
D03*
X-160992D02*
D03*
D51*
X-147750Y71250D02*
D03*
X-160750D02*
D03*
X-49500Y99750D02*
D03*
X-36500D02*
D03*
D52*
X-26750Y-227646D02*
D03*
X-71750D02*
D03*
D53*
X99250Y-207876D02*
D03*
X35250D02*
D03*
D54*
X-43416Y-196500D02*
D03*
X-54084D02*
D03*
D55*
X235250Y-159008D02*
D03*
Y-142008D02*
D03*
D56*
X189500Y-152500D02*
D03*
X144750D02*
D03*
D57*
X222296Y-222878D02*
D03*
Y221872D02*
D03*
X-222704D02*
D03*
Y-222878D02*
D03*
M02*
