G04*
G04 #@! TF.GenerationSoftware,Altium Limited,Altium Designer,23.7.1 (13)*
G04*
G04 Layer_Color=32896*
%FSLAX44Y44*%
%MOMM*%
G71*
G04*
G04 #@! TF.SameCoordinates,CA0AFEA4-99C7-4052-BA11-7F101D67CBD2*
G04*
G04*
G04 #@! TF.FilePolarity,Positive*
G04*
G01*
G75*
%ADD10C,0.2000*%
%ADD13C,0.1500*%
%ADD14C,0.1270*%
%ADD15C,0.1200*%
%ADD108C,0.1000*%
D10*
X-144000Y-144249D02*
X-143000D01*
Y-138251D01*
X-142001Y-139251D01*
X-140001D02*
Y-141250D01*
X-139002Y-142250D01*
X-136002D01*
Y-144249D02*
Y-138251D01*
X-139002D01*
X-140001Y-139251D01*
X-138002Y-142250D02*
X-140001Y-144249D01*
X-142001D02*
X-144000D01*
X-146999Y-141250D02*
X-150998D01*
X-149998Y-144249D02*
Y-138251D01*
X-146999Y-141250D01*
X-90498Y-115749D02*
X-89498Y-116749D01*
X-87499D01*
X-86499Y-115749D01*
Y-111751D01*
X-87499Y-110751D01*
X-89498D01*
X-90498Y-111751D01*
Y-115749D01*
X-83500Y-116749D02*
X-82500D01*
Y-110751D01*
X-81501Y-111751D01*
X-79501D02*
X-78502Y-110751D01*
X-76502D01*
X-75503Y-111751D01*
Y-115749D01*
X-76502Y-116749D01*
X-78502D01*
X-79501Y-115749D01*
X-81501Y-116749D02*
X-83500D01*
X-19498Y-41499D02*
X-18499Y-40499D01*
Y-36501D01*
X-19498Y-35501D01*
X-21498D01*
X-22497Y-36501D01*
Y-40499D01*
X-21498Y-41499D01*
X-19498D01*
X-16499D02*
X-12501D01*
X-16499Y-37500D01*
Y-36501D01*
X-15500Y-35501D01*
X-13500D01*
X-12501Y-36501D01*
X-10501D02*
X-9502Y-35501D01*
X-7502D01*
X-6503Y-36501D01*
Y-40499D01*
X-7502Y-41499D01*
X-9502D01*
X-10501Y-40499D01*
X26002Y-37999D02*
X27002D01*
Y-32001D01*
X28001Y-33001D01*
Y-37999D02*
X26002D01*
X31000D02*
X32000D01*
Y-32001D01*
X33000Y-33001D01*
X34999D02*
X35999Y-32001D01*
X37998D01*
X38998Y-33001D01*
Y-36999D01*
X37998Y-37999D01*
X35999D01*
X34999Y-36999D01*
X33000Y-37999D02*
X31000D01*
X-7003Y6751D02*
X-8002Y5751D01*
X-10002D01*
X-11001Y6751D01*
X-13001Y5751D02*
X-16999Y9750D01*
Y10749D01*
X-16000Y11749D01*
X-14000D01*
X-13001Y10749D01*
X-11001D02*
X-10002Y11749D01*
X-8002D01*
X-7003Y10749D01*
Y6751D01*
X-13001Y5751D02*
X-16999D01*
X-18999D02*
X-22997Y9750D01*
Y10749D01*
X-21998Y11749D01*
X-19998D01*
X-18999Y10749D01*
Y5751D02*
X-22997D01*
X4501Y47002D02*
Y49001D01*
X5501Y50001D01*
X9499D02*
X10499Y49001D01*
Y47002D01*
X9499Y46002D01*
X5501D01*
X4501Y47002D01*
X9499Y52000D02*
X10499Y53000D01*
X4501D01*
Y54000D01*
Y52000D01*
Y56999D02*
X8500Y60998D01*
X9499D01*
X10499Y59998D01*
Y57998D01*
X9499Y56999D01*
X4501D02*
Y60998D01*
X-40502Y51749D02*
Y46751D01*
X-41501Y45751D01*
X-43501D01*
X-44500Y46751D01*
Y51749D01*
X-46500Y48750D02*
Y46751D01*
X-47499Y45751D01*
X-49499D01*
X-50498Y46751D01*
Y47750D01*
X-49499Y48750D01*
X-46500D01*
X-48499Y50749D01*
X-50498Y51749D01*
X-75252Y42999D02*
X-74253Y41999D01*
Y38001D01*
X-75252Y37001D01*
X-77252D01*
X-78251Y38001D01*
X-80251Y37001D02*
X-82250D01*
X-81250D01*
Y42999D01*
X-80251Y41999D01*
X-78251D02*
X-77252Y42999D01*
X-75252D01*
X-86249D02*
X-88248D01*
X-89248Y41999D01*
Y41000D01*
X-88248Y40000D01*
X-87248D01*
X-88248D01*
X-89248Y39000D01*
Y38001D01*
X-88248Y37001D01*
X-86249D01*
X-85249Y38001D01*
Y41999D02*
X-86249Y42999D01*
X-57940Y21060D02*
X-55940D01*
X-57940D01*
X-63251Y8998D02*
X-64251Y9998D01*
X-68249D01*
X-69249Y8998D01*
Y6999D01*
X-68249Y5999D01*
X-64251D01*
X-63251Y6999D01*
Y8998D01*
Y2000D02*
X-64251Y1001D01*
Y-999D02*
X-66250D01*
X-67250Y-1998D01*
Y-4998D01*
X-69249D02*
X-63251D01*
Y-1998D01*
X-64251Y-999D01*
X-63251Y2000D02*
X-69249D01*
Y3000D01*
Y1001D01*
Y-999D02*
X-67250Y-2998D01*
X-57500Y-26500D02*
X-55500D01*
X-57500D01*
X-48999Y-36501D02*
X-46000Y-39500D01*
X-49998D01*
X-48999Y-42499D02*
Y-36501D01*
X-44000D02*
Y-41499D01*
X-43001Y-42499D01*
X-41001D01*
X-40002Y-41499D01*
Y-36501D01*
X20668Y-110251D02*
X22668Y-111251D01*
X24667Y-113250D01*
Y-115249D01*
X23668Y-116249D01*
X21668D01*
X20668Y-115249D01*
Y-114250D01*
X21668Y-113250D01*
X24667D01*
X27666Y-116249D02*
X28666D01*
Y-110251D01*
X29666Y-111251D01*
Y-116249D02*
X27666D01*
X32664D02*
X31665Y-115249D01*
X32664Y-116249D02*
X34664D01*
X35664Y-115249D01*
Y-111251D01*
X34664Y-110251D01*
X32664D01*
X31665Y-111251D01*
X166270Y-46520D02*
X168270D01*
X166270D01*
X183751Y-26998D02*
Y-24999D01*
X184751Y-23999D01*
Y-21999D02*
X183751Y-21000D01*
Y-19001D01*
X184751Y-18001D01*
X188749D01*
X189749Y-19001D01*
Y-21000D01*
X188749Y-21999D01*
X189749Y-23999D02*
X185750Y-27998D01*
X184751D01*
X183751Y-26998D01*
X189749Y-27998D02*
Y-23999D01*
Y-15002D02*
Y-13003D01*
Y-14002D01*
X183751D01*
Y-15002D01*
Y-13003D01*
X180998Y4251D02*
Y10249D01*
X177999D01*
X176999Y9249D01*
Y7250D01*
X177999Y6250D01*
X180998D01*
X178998D02*
X176999Y4251D01*
X175000D02*
X173000D01*
X174000D01*
Y10249D01*
X175000Y9249D01*
X170001D02*
X169002Y10249D01*
X167002D01*
X166002Y9249D01*
Y8250D01*
X167002Y7250D01*
X168002D01*
X167002D01*
X166002Y6250D01*
Y5251D01*
X167002Y4251D01*
X169002D01*
X170001Y5251D01*
X168020Y39230D02*
X166020D01*
X168020D01*
X183751Y59502D02*
X184751Y60501D01*
Y62501D02*
X183751Y63500D01*
Y65500D01*
X184751Y66500D01*
X188749D01*
X189749Y65500D01*
Y63500D01*
X188749Y62501D01*
X189749Y60501D02*
Y58502D01*
Y59502D01*
X183751D01*
Y69499D02*
Y70498D01*
X189749D01*
Y71498D01*
Y69499D01*
X183751D02*
Y71498D01*
X178748Y89751D02*
Y95749D01*
X175749D01*
X174749Y94749D01*
Y92750D01*
X175749Y91750D01*
X178748D01*
X176749D02*
X174749Y89751D01*
X172750D02*
X170750D01*
X171750D01*
Y95749D01*
X172750Y94749D01*
X167751D02*
X166752Y95749D01*
Y89751D01*
X165752D01*
X167751D01*
X89749Y56498D02*
Y52499D01*
X86750D01*
X87750Y54498D01*
Y55498D01*
X86750Y56498D01*
X84751D01*
X83751Y55498D01*
Y53499D01*
X84751Y52499D01*
X83751Y49500D02*
Y48500D01*
X89749D01*
X88749Y47501D01*
Y45501D02*
X89749Y44502D01*
Y42502D01*
X88749Y41502D01*
X84751D01*
X83751Y42502D01*
Y44502D01*
X84751Y45501D01*
X83751Y47501D02*
Y49500D01*
X-33003Y178501D02*
X-34002Y177501D01*
X-36002D01*
X-37001Y178501D01*
X-39001Y177501D02*
X-42999Y181500D01*
Y182499D01*
X-42000Y183499D01*
X-40000D01*
X-39001Y182499D01*
X-37001D02*
X-36002Y183499D01*
X-34002D01*
X-33003Y182499D01*
Y178501D01*
X-39001Y177501D02*
X-42999D01*
X-45998D02*
X-44999Y178501D01*
X-45998Y177501D02*
X-47998D01*
X-48997Y178501D01*
Y179500D01*
X-47998Y180500D01*
X-46998D01*
X-47998D01*
X-48997Y181500D01*
Y182499D01*
X-47998Y183499D01*
X-45998D01*
X-44999Y182499D01*
X-44248Y130499D02*
Y129499D01*
X-40250Y125501D01*
Y124501D01*
X-37251D02*
X-38250Y125501D01*
Y130499D01*
X-40250D02*
X-44248D01*
X-34252D02*
Y125501D01*
X-35251Y124501D01*
X-37251D01*
X-167310Y-71480D02*
X-169310D01*
X-167310D01*
X-183251Y-89752D02*
X-184251Y-88752D01*
X-185250D01*
X-186250Y-89752D01*
Y-90752D01*
Y-89752D01*
X-187250Y-88752D01*
X-188249D01*
X-189249Y-89752D01*
Y-91751D01*
X-188249Y-92751D01*
Y-94750D02*
X-189249Y-95750D01*
Y-97750D01*
X-188249Y-98749D01*
X-184251D01*
X-183251Y-97750D01*
Y-95750D01*
X-184251Y-94750D01*
Y-92751D02*
X-183251Y-91751D01*
Y-89752D01*
Y-101748D02*
Y-102748D01*
X-189249D01*
Y-103748D01*
Y-101748D01*
X-183251D02*
Y-103748D01*
D13*
X-45992Y-167500D02*
X-49324Y-164168D01*
Y-163335D01*
X-48491Y-162502D01*
X-46825D01*
X-45992Y-163335D01*
Y-167500D02*
X-49324D01*
X-51823D02*
X-50990Y-166667D01*
Y-163335D01*
X-51823Y-162502D01*
X-53489D01*
X-54322Y-163335D01*
Y-166667D01*
X-53489Y-167500D01*
X-51823D01*
X-55988D02*
X-59321Y-164168D01*
Y-163335D01*
X-58488Y-162502D01*
X-56822D01*
X-55988Y-163335D01*
Y-167500D02*
X-59321D01*
X-60987Y-166667D02*
X-61820Y-167500D01*
X-63486D01*
X-64319Y-166667D01*
Y-165834D01*
X-63486Y-165001D01*
X-60987D01*
Y-166667D01*
Y-165001D02*
X-62653Y-163335D01*
X-64319Y-162502D01*
X-60987Y-156463D02*
Y-155630D01*
X-64319Y-152298D01*
Y-151465D01*
X-60987D01*
X-59321D02*
X-55988D01*
Y-153964D01*
X-57655Y-153131D01*
X-58488D01*
X-59321Y-153964D01*
Y-155630D01*
X-58488Y-156463D01*
X-56822D01*
X-55988Y-155630D01*
X-54322Y-156463D02*
X-51823Y-153964D01*
X-54322Y-151465D01*
X-50990Y-154797D01*
Y-156463D01*
Y-151465D01*
Y-145426D02*
X-52656D01*
X-51823D01*
Y-142094D01*
X-50990D01*
X-49324Y-140428D02*
X-47658D01*
Y-145426D01*
X-49324Y-140428D02*
X-45992D01*
X-38494Y-142094D02*
X-39327Y-142927D01*
Y-145426D01*
X-35995D02*
Y-142094D01*
X-38494D01*
X-33496D02*
X-34329Y-142927D01*
Y-145426D01*
X-31830D01*
X-30997Y-144593D01*
X-31830Y-143760D01*
X-34329D01*
X-33496Y-142094D02*
X-31830D01*
X-28498D02*
X-27664D01*
X-26831Y-142927D01*
X-25998Y-143760D01*
Y-145426D01*
Y-142094D01*
X-24332Y-140428D02*
X-22666D01*
Y-145426D01*
Y-151465D02*
Y-156463D01*
X-25998D02*
X-29331D01*
X-30997D02*
Y-151465D01*
X-33496D01*
X-34329Y-152298D01*
Y-153964D01*
X-33496Y-154797D01*
X-30997D01*
X-35995D02*
X-39327Y-151465D01*
X-36828Y-153964D01*
X-39327Y-156463D01*
X-40993D02*
X-44326Y-153131D01*
Y-152298D01*
X-43493Y-151465D01*
X-41827D01*
X-40993Y-152298D01*
X-35995Y-151465D02*
Y-156463D01*
Y-154797D01*
X-25998Y-151465D02*
Y-156463D01*
Y-163335D02*
Y-166667D01*
X-26831Y-167500D01*
X-28498D01*
X-29331Y-166667D01*
X-30997Y-165834D02*
X-34329Y-162502D01*
X-31830Y-165001D01*
X-34329Y-167500D01*
X-35995D02*
Y-165001D01*
X-39327D01*
Y-162502D01*
Y-167500D01*
X-35995D02*
Y-162502D01*
X-30997D02*
Y-167500D01*
Y-165834D01*
X-29331Y-163335D02*
X-28498Y-162502D01*
X-26831D01*
X-25998Y-163335D01*
X-24332Y-162502D02*
Y-167500D01*
X-21000Y-162502D01*
Y-167500D01*
X-40993Y-156463D02*
X-44326D01*
X-24332Y-151465D02*
X-22666D01*
X-21000D02*
X-24332D01*
Y-140428D02*
X-21000D01*
X-55156Y-142927D02*
X-55989Y-142094D01*
X-57655D01*
X-58488Y-142927D01*
Y-143760D01*
X-55156D01*
Y-144593D02*
Y-142927D01*
Y-144593D02*
X-55989Y-145426D01*
X-57655D01*
X-60154D02*
Y-142094D01*
X-62653D01*
X-63486Y-142927D01*
Y-145426D01*
X-70151D02*
X-72650D01*
X-73483Y-144593D01*
Y-141261D01*
X-72650Y-140428D01*
X-70151D01*
Y-145426D01*
X-75149Y-144593D02*
X-75982Y-145426D01*
X-78481D01*
Y-142094D01*
X-80147D02*
X-82647D01*
X-83480Y-142927D01*
Y-145426D01*
X-85146Y-144593D02*
X-85979Y-145426D01*
X-88478D01*
Y-146259D02*
Y-142094D01*
X-85979D01*
X-85146Y-142927D01*
Y-144593D01*
X-86812Y-147092D02*
X-87645D01*
X-88478Y-146259D01*
X-80147Y-145426D02*
Y-142094D01*
X-75149D02*
Y-144593D01*
X-57060Y139100D02*
X-55560D01*
X-57060D01*
D14*
X-172860Y-108230D02*
Y-85230D01*
X-148760D02*
Y-108230D01*
X-51500Y-31000D02*
X-46400D01*
X-26600D02*
X-21500D01*
X-15512Y-20528D02*
X-5988D01*
Y-16972D02*
X-15512D01*
X-21940Y16560D02*
X-27040D01*
X-26600Y-6000D02*
X-21500D01*
X-46840Y16560D02*
X-51940D01*
X-51500Y-6000D02*
X-46400D01*
X-15762Y27222D02*
X-6238D01*
Y30778D02*
X-15762D01*
X-21940Y41560D02*
X-27040D01*
X-46840D02*
X-51940D01*
X-37110Y134890D02*
X-33100D01*
Y138900D01*
Y151300D02*
Y155310D01*
X-37110D01*
X-42222Y162988D02*
Y172512D01*
X-45778D02*
Y162988D01*
X-49510Y155310D02*
X-53520D01*
Y151300D01*
Y138900D02*
Y134890D01*
X-49510D01*
X147720Y-32770D02*
Y-9770D01*
X171820Y-32770D02*
Y-9770D01*
X171570Y52980D02*
Y75980D01*
X147470D02*
Y52980D01*
D15*
X-134650Y-134100D02*
Y-120900D01*
X-162850D01*
Y-134100D01*
X-134650D01*
X-102600Y-106100D02*
Y-92900D01*
X-94500D01*
X-82500D02*
X-74400D01*
Y-106100D01*
X-82500D01*
X-94500D02*
X-102600D01*
X-85850Y-44100D02*
X-72650D01*
Y-36000D01*
X-85850D02*
Y-44100D01*
Y-24000D02*
Y-15900D01*
X-72650D01*
Y-24000D01*
X-73400Y-9100D02*
Y19100D01*
X-86600D01*
Y-9100D01*
X-73400D01*
X-73650Y47150D02*
Y60350D01*
X-81750D01*
X-93750D02*
X-101850D01*
Y47150D01*
X-93750D01*
X-81750D02*
X-73650D01*
X13150Y-55600D02*
X21250D01*
X13150D02*
Y-42400D01*
X21250D01*
X33250Y-55600D02*
X41350D01*
Y-42400D01*
X33250D01*
X28000Y-92900D02*
X36100D01*
Y-106100D01*
X28000D01*
X16000D02*
X7900D01*
Y-92900D01*
X16000D01*
X133650Y4150D02*
Y17350D01*
X161850D01*
Y4150D01*
X133650D01*
X161600Y89650D02*
Y102850D01*
X133400D01*
Y89650D01*
X161600D01*
X79600Y69350D02*
Y61250D01*
Y69350D02*
X66400D01*
Y61250D01*
Y49250D02*
Y41150D01*
X79600D01*
Y49250D01*
X28600Y73600D02*
X15400D01*
Y65500D01*
Y53500D02*
Y45400D01*
X28600D01*
Y53500D01*
Y65500D02*
Y73600D01*
D108*
X4750Y-10000D02*
Y-8500D01*
X5749Y-7501D01*
Y-7001D01*
X4750Y-8500D02*
X3750Y-7501D01*
Y-7001D01*
X0Y-10000D02*
Y0D01*
X10000D01*
X9999Y3750D02*
X8000Y6749D01*
X9999D02*
X8000Y3750D01*
X-57500Y149750D02*
Y159750D01*
X-47500D01*
M02*
