G04*
G04 #@! TF.GenerationSoftware,Altium Limited,Altium Designer,23.7.1 (13)*
G04*
G04 Layer_Physical_Order=1*
G04 Layer_Color=255*
%FSLAX44Y44*%
%MOMM*%
G71*
G04*
G04 #@! TF.SameCoordinates,CA0AFEA4-99C7-4052-BA11-7F101D67CBD2*
G04*
G04*
G04 #@! TF.FilePolarity,Positive*
G04*
G01*
G75*
%ADD10C,0.2000*%
%ADD12C,0.2500*%
%ADD51R,2.5654X3.4544*%
%ADD52R,1.4605X0.5588*%
%ADD59R,0.9000X0.7000*%
G04:AMPARAMS|DCode=60|XSize=1.56mm|YSize=0.28mm|CornerRadius=0.035mm|HoleSize=0mm|Usage=FLASHONLY|Rotation=0.000|XOffset=0mm|YOffset=0mm|HoleType=Round|Shape=RoundedRectangle|*
%AMROUNDEDRECTD60*
21,1,1.5600,0.2100,0,0,0.0*
21,1,1.4900,0.2800,0,0,0.0*
1,1,0.0700,0.7450,-0.1050*
1,1,0.0700,-0.7450,-0.1050*
1,1,0.0700,-0.7450,0.1050*
1,1,0.0700,0.7450,0.1050*
%
%ADD60ROUNDEDRECTD60*%
G04:AMPARAMS|DCode=61|XSize=0.28mm|YSize=1.56mm|CornerRadius=0.035mm|HoleSize=0mm|Usage=FLASHONLY|Rotation=0.000|XOffset=0mm|YOffset=0mm|HoleType=Round|Shape=RoundedRectangle|*
%AMROUNDEDRECTD61*
21,1,0.2800,1.4900,0,0,0.0*
21,1,0.2100,1.5600,0,0,0.0*
1,1,0.0700,0.1050,-0.7450*
1,1,0.0700,-0.1050,-0.7450*
1,1,0.0700,-0.1050,0.7450*
1,1,0.0700,0.1050,0.7450*
%
%ADD61ROUNDEDRECTD61*%
%ADD62R,1.4500X1.0000*%
%ADD63R,1.0000X1.5500*%
%ADD64R,0.7000X1.7500*%
%ADD65R,0.8000X1.5000*%
%ADD66R,0.8000X1.4000*%
%ADD67R,1.3000X1.5000*%
%ADD68R,1.5000X1.5000*%
%ADD69R,0.7000X0.9000*%
%ADD70R,1.5000X1.3000*%
%ADD71R,2.8000X1.0000*%
%ADD72R,1.7000X0.6000*%
%ADD73R,2.0000X1.9000*%
%ADD74R,0.9000X0.7000*%
%ADD75R,1.4000X2.0000*%
%ADD76R,0.6000X1.7000*%
%ADD77R,1.0000X2.8000*%
%ADD78R,0.6000X1.5500*%
%ADD79R,1.2000X1.8000*%
%ADD80R,0.7000X0.9000*%
%ADD81R,2.5400X1.7780*%
%ADD82R,1.1000X1.0000*%
%ADD83R,1.5000X0.6000*%
G04:AMPARAMS|DCode=84|XSize=1mm|YSize=0.9mm|CornerRadius=0.1125mm|HoleSize=0mm|Usage=FLASHONLY|Rotation=0.000|XOffset=0mm|YOffset=0mm|HoleType=Round|Shape=RoundedRectangle|*
%AMROUNDEDRECTD84*
21,1,1.0000,0.6750,0,0,0.0*
21,1,0.7750,0.9000,0,0,0.0*
1,1,0.2250,0.3875,-0.3375*
1,1,0.2250,-0.3875,-0.3375*
1,1,0.2250,-0.3875,0.3375*
1,1,0.2250,0.3875,0.3375*
%
%ADD84ROUNDEDRECTD84*%
G04:AMPARAMS|DCode=85|XSize=0.6mm|YSize=0.7mm|CornerRadius=0.075mm|HoleSize=0mm|Usage=FLASHONLY|Rotation=180.000|XOffset=0mm|YOffset=0mm|HoleType=Round|Shape=RoundedRectangle|*
%AMROUNDEDRECTD85*
21,1,0.6000,0.5500,0,0,180.0*
21,1,0.4500,0.7000,0,0,180.0*
1,1,0.1500,-0.2250,0.2750*
1,1,0.1500,0.2250,0.2750*
1,1,0.1500,0.2250,-0.2750*
1,1,0.1500,-0.2250,-0.2750*
%
%ADD85ROUNDEDRECTD85*%
%ADD86R,2.4000X1.0000*%
%ADD87R,2.4000X3.3000*%
%ADD88R,2.3000X2.3000*%
%ADD89R,1.6000X2.2000*%
%ADD90R,0.5000X0.6000*%
%ADD91R,0.6000X0.5000*%
%ADD92R,1.0000X1.1000*%
%ADD93C,1.0000*%
%ADD94C,0.7000*%
%ADD95C,0.5000*%
%ADD96C,0.3000*%
%ADD97C,1.0000*%
%ADD98C,0.6000*%
%ADD99C,0.5500*%
%ADD100C,3.5001*%
%ADD101C,0.6000*%
%ADD102C,0.5000*%
G36*
X247500Y-247500D02*
X-247500D01*
Y247500D01*
X247500D01*
Y-247500D01*
D02*
G37*
%LPC*%
G36*
X61000Y244734D02*
X45000D01*
Y222734D01*
X61000D01*
Y244734D01*
D02*
G37*
G36*
X-15000D02*
X-31000D01*
Y222734D01*
X-15000D01*
Y244734D01*
D02*
G37*
G36*
X196750Y243000D02*
X182750D01*
Y236565D01*
X179722D01*
X177868Y236196D01*
X176297Y235146D01*
X157244Y216093D01*
X141539D01*
Y236000D01*
X141384Y236780D01*
X140942Y237442D01*
X140280Y237884D01*
X139500Y238039D01*
X114500D01*
X113720Y237884D01*
X113058Y237442D01*
X112616Y236780D01*
X112461Y236000D01*
Y219298D01*
X111287Y218812D01*
X109175Y220925D01*
X107603Y221974D01*
X105750Y222343D01*
X87000D01*
Y224500D01*
X68500D01*
Y222815D01*
X65472D01*
X65472Y222815D01*
X63618Y222446D01*
X62047Y221397D01*
X48575Y207925D01*
X47526Y206353D01*
X47157Y204500D01*
Y177810D01*
X46946Y176750D01*
Y173132D01*
X45053Y171239D01*
X44049Y170565D01*
X42395Y171250D01*
X40605D01*
X38951Y170565D01*
X37685Y169299D01*
X37000Y167645D01*
Y165855D01*
X37685Y164201D01*
X38951Y162935D01*
X40605Y162250D01*
X42395D01*
X44049Y162935D01*
X45029Y163915D01*
X45728D01*
X46095Y163988D01*
X46351Y163828D01*
X47064Y162925D01*
X47073Y162887D01*
X46946Y162250D01*
Y156750D01*
X47160Y155677D01*
X47412Y155299D01*
Y149700D01*
X47160Y149323D01*
X46946Y148250D01*
Y142750D01*
X47160Y141677D01*
X47767Y140767D01*
X48677Y140160D01*
X49750Y139946D01*
X54250D01*
X55323Y140160D01*
X56233Y140767D01*
X56236Y140773D01*
X57764D01*
X57767Y140767D01*
X58677Y140160D01*
X59750Y139946D01*
X61226D01*
X62125Y139767D01*
X83392D01*
Y125250D01*
X83500Y124708D01*
Y115314D01*
X14250D01*
X12982Y115061D01*
X11907Y114343D01*
X7257Y109693D01*
X6539Y108618D01*
X6286Y107350D01*
Y89791D01*
X5500Y89146D01*
X3400D01*
X2483Y88964D01*
X1950Y88607D01*
X1417Y88964D01*
X500Y89146D01*
X-1600D01*
X-2236Y89668D01*
Y101443D01*
X-1011Y102668D01*
X-250Y104505D01*
Y106495D01*
X-1011Y108332D01*
X-2418Y109739D01*
X-4255Y110500D01*
X-6245D01*
X-8082Y109739D01*
X-9489Y108332D01*
X-10250Y106495D01*
Y104505D01*
X-9489Y102668D01*
X-8864Y102043D01*
Y89668D01*
X-9500Y89146D01*
X-11600D01*
X-12517Y88964D01*
X-13050Y88607D01*
X-13583Y88964D01*
X-14500Y89146D01*
X-16600D01*
X-17517Y88964D01*
X-18050Y88608D01*
X-18583Y88964D01*
X-19500Y89146D01*
X-21600D01*
X-22517Y88964D01*
X-23050Y88607D01*
X-23583Y88964D01*
X-24500Y89146D01*
X-26600D01*
X-27517Y88964D01*
X-28050Y88608D01*
X-28583Y88964D01*
X-29500Y89146D01*
X-31600D01*
X-32517Y88964D01*
X-33050Y88608D01*
X-33583Y88964D01*
X-34500Y89146D01*
X-36600D01*
X-37517Y88964D01*
X-38050Y88607D01*
X-38583Y88964D01*
X-39500Y89146D01*
X-41600D01*
X-42517Y88964D01*
X-43050Y88608D01*
X-43583Y88964D01*
X-44500Y89146D01*
X-46600D01*
X-47517Y88964D01*
X-48050Y88607D01*
X-48583Y88964D01*
X-49500Y89146D01*
X-51600D01*
X-52517Y88964D01*
X-52597Y88910D01*
X-53637Y89336D01*
X-53946Y90617D01*
X-50407Y94157D01*
X-50345Y94250D01*
X-43000D01*
Y105250D01*
X-56000D01*
Y97936D01*
X-57666Y96270D01*
X-58936Y96796D01*
Y117450D01*
X-58435Y117951D01*
X-57750Y119605D01*
Y121395D01*
X-58435Y123049D01*
X-59701Y124315D01*
X-61355Y125000D01*
X-61564D01*
X-63390Y126827D01*
X-63382Y126866D01*
X-62768Y128000D01*
X-61355D01*
X-59701Y128685D01*
X-58435Y129951D01*
X-57750Y131605D01*
Y133395D01*
X-58435Y135049D01*
X-59701Y136315D01*
X-61355Y137000D01*
X-63145D01*
X-64799Y136315D01*
X-66065Y135049D01*
X-66750Y133395D01*
Y131982D01*
X-67884Y131368D01*
X-67923Y131360D01*
X-70110Y133546D01*
X-69584Y134816D01*
X-69289D01*
X-67635Y135501D01*
X-66369Y136767D01*
X-65684Y138421D01*
Y140211D01*
X-66369Y141865D01*
X-67186Y142682D01*
Y177250D01*
X-67439Y178518D01*
X-68157Y179593D01*
X-71657Y183093D01*
Y184732D01*
X-69971D01*
Y205731D01*
X-79971D01*
Y184732D01*
X-78284D01*
Y181721D01*
X-78032Y180453D01*
X-77314Y179378D01*
X-73814Y175877D01*
Y142050D01*
X-73999Y141865D01*
X-74684Y140211D01*
Y139916D01*
X-75954Y139390D01*
X-99533Y162969D01*
X-98799Y163935D01*
X-97145Y163250D01*
X-95355D01*
X-93701Y163935D01*
X-92435Y165201D01*
X-91750Y166855D01*
Y168645D01*
X-92435Y170299D01*
X-93701Y171565D01*
X-95355Y172250D01*
X-96424D01*
X-107891Y183717D01*
X-107471Y184732D01*
X-107471D01*
Y205731D01*
X-117471D01*
Y184732D01*
X-116433D01*
X-115530Y183971D01*
X-115297Y182801D01*
X-114634Y181808D01*
X-100750Y167924D01*
Y166855D01*
X-100065Y165201D01*
X-101031Y164467D01*
X-106679Y170115D01*
X-107754Y170833D01*
X-108023Y170887D01*
X-109201Y172065D01*
X-110855Y172750D01*
X-112645D01*
X-114299Y172065D01*
X-115565Y170799D01*
X-116250Y169145D01*
Y167355D01*
X-115565Y165701D01*
X-114299Y164435D01*
X-112645Y163750D01*
X-110855D01*
X-110028Y164092D01*
X-66750Y120814D01*
Y119605D01*
X-66065Y117951D01*
X-65564Y117450D01*
Y109087D01*
X-66134Y108813D01*
X-66834Y108698D01*
X-67951Y109815D01*
X-69605Y110500D01*
X-69864D01*
X-114680Y155316D01*
X-115755Y156034D01*
X-117023Y156287D01*
X-121405D01*
Y184732D01*
X-119973D01*
Y205731D01*
X-129973D01*
Y184732D01*
X-128542D01*
Y153505D01*
X-146728Y135319D01*
X-149250D01*
Y138250D01*
X-160250D01*
Y136484D01*
X-166237D01*
Y137041D01*
X-185237D01*
Y127041D01*
X-166237D01*
Y127307D01*
X-161148D01*
X-160250Y126409D01*
X-160250Y125250D01*
X-160250Y123980D01*
Y112250D01*
X-155739D01*
X-146779Y103291D01*
Y102941D01*
X-146623Y102155D01*
X-147000Y101245D01*
Y99255D01*
X-146239Y97418D01*
X-144832Y96011D01*
X-142995Y95250D01*
X-141005D01*
X-139339Y95940D01*
X-138069Y95451D01*
Y61750D01*
X-151492D01*
Y47750D01*
X-141539D01*
X-138766Y44977D01*
X-137608Y44203D01*
X-136243Y43931D01*
X-134961Y44186D01*
X-124337D01*
X-123870Y42916D01*
X-124500Y41395D01*
Y39605D01*
X-123815Y37951D01*
X-122549Y36685D01*
X-120895Y36000D01*
X-119105D01*
X-118716Y36161D01*
X-117458Y35590D01*
X-117014Y34467D01*
X-117196Y33550D01*
Y31450D01*
X-117014Y30533D01*
X-116657Y30000D01*
X-117014Y29467D01*
X-117196Y28550D01*
Y26450D01*
X-117014Y25533D01*
X-116657Y25000D01*
X-117014Y24467D01*
X-117196Y23550D01*
Y21450D01*
X-117014Y20533D01*
X-116494Y19756D01*
X-115717Y19236D01*
X-114800Y19054D01*
X-99900D01*
X-98983Y19236D01*
X-98206Y19756D01*
X-97686Y20533D01*
X-97504Y21450D01*
Y21844D01*
X-96234Y22370D01*
X-95799Y21935D01*
X-94145Y21250D01*
X-92355D01*
X-90701Y21935D01*
X-89435Y23201D01*
X-88750Y24855D01*
Y26645D01*
X-89435Y28299D01*
X-89949Y28813D01*
X-90189Y30018D01*
X-90907Y31093D01*
X-94044Y34230D01*
X-93518Y35500D01*
X-92255D01*
X-90418Y36261D01*
X-89011Y37668D01*
X-88250Y39505D01*
Y41495D01*
X-89011Y43332D01*
X-90418Y44739D01*
X-92255Y45500D01*
X-94244D01*
X-96082Y44739D01*
X-97372Y45121D01*
X-97686Y45533D01*
X-97504Y46450D01*
Y48550D01*
X-97686Y49467D01*
X-98042Y50000D01*
X-97686Y50533D01*
X-97504Y51450D01*
Y53550D01*
X-97686Y54467D01*
X-98042Y55000D01*
X-97686Y55533D01*
X-97504Y56450D01*
Y58550D01*
X-97570Y58884D01*
X-97354Y59237D01*
X-96082Y59761D01*
X-94244Y59000D01*
X-92255D01*
X-90418Y59761D01*
X-89011Y61168D01*
X-88250Y63005D01*
Y64995D01*
X-88328Y65183D01*
X-88207Y65304D01*
X-87489Y66379D01*
X-87236Y67647D01*
Y71185D01*
X-87104Y71850D01*
Y86750D01*
X-87286Y87667D01*
X-87806Y88444D01*
X-88583Y88964D01*
X-89500Y89146D01*
X-91600D01*
X-92517Y88964D01*
X-93294Y88444D01*
X-93814Y87667D01*
X-93996Y86750D01*
Y71850D01*
X-93864Y71185D01*
Y69020D01*
X-93883Y69000D01*
X-94244D01*
X-96082Y68239D01*
X-97489Y66832D01*
X-97664Y66410D01*
X-98983Y65764D01*
X-99900Y65946D01*
X-111941D01*
Y128750D01*
X-111941Y128750D01*
X-112174Y129921D01*
X-112837Y130913D01*
X-120750Y138826D01*
Y139895D01*
X-121435Y141549D01*
X-122701Y142815D01*
X-124355Y143500D01*
X-126145D01*
X-127019Y143138D01*
X-127739Y144214D01*
X-122450Y149503D01*
X-122346Y149660D01*
X-118396D01*
X-75000Y106264D01*
Y105105D01*
X-74315Y103451D01*
X-73839Y102975D01*
Y89689D01*
X-74500Y89146D01*
X-76600D01*
X-77466Y89857D01*
Y96920D01*
X-76685Y97701D01*
X-76000Y99355D01*
Y101145D01*
X-76685Y102799D01*
X-77951Y104065D01*
X-79605Y104750D01*
X-81395D01*
X-83049Y104065D01*
X-84315Y102799D01*
X-85000Y101145D01*
Y99355D01*
X-84315Y97701D01*
X-83584Y96970D01*
Y88011D01*
X-83814Y87667D01*
X-83996Y86750D01*
Y71850D01*
X-83814Y70933D01*
X-83294Y70156D01*
X-82517Y69636D01*
X-81600Y69454D01*
X-79500D01*
X-78583Y69636D01*
X-78050Y69992D01*
X-77517Y69636D01*
X-76600Y69454D01*
X-74500D01*
X-73847Y69584D01*
X-73477Y68363D01*
X-74799Y67815D01*
X-76065Y66549D01*
X-76750Y64895D01*
Y64186D01*
X-78843Y62093D01*
X-79561Y61018D01*
X-79814Y59750D01*
Y16623D01*
X-93436Y3000D01*
X-94145D01*
X-95799Y2315D01*
X-96234Y1880D01*
X-97504Y2406D01*
Y3550D01*
X-97686Y4467D01*
X-98042Y5000D01*
X-97686Y5533D01*
X-97504Y6450D01*
Y7594D01*
X-96234Y8120D01*
X-95799Y7685D01*
X-94145Y7000D01*
X-92355D01*
X-90701Y7685D01*
X-89435Y8951D01*
X-88750Y10605D01*
Y12395D01*
X-89435Y14049D01*
X-90701Y15315D01*
X-92355Y16000D01*
X-94145D01*
X-94703Y15769D01*
X-94927Y15814D01*
X-99235D01*
X-99900Y15946D01*
X-114800D01*
X-115717Y15764D01*
X-116494Y15244D01*
X-117014Y14467D01*
X-117196Y13550D01*
Y11450D01*
X-117718Y10814D01*
X-124002D01*
X-124248Y11180D01*
X-124511Y12506D01*
X-125056Y13320D01*
X-125319Y14646D01*
X-126535Y16465D01*
X-129360Y19291D01*
X-131179Y20506D01*
X-133325Y20933D01*
X-136500D01*
Y22000D01*
X-139401D01*
X-140173Y22320D01*
X-142000Y22560D01*
X-152425D01*
X-156550Y26685D01*
Y38480D01*
X-185950D01*
Y16700D01*
X-166535D01*
X-160342Y10508D01*
X-158880Y9385D01*
X-157177Y8680D01*
X-155350Y8440D01*
X-142000D01*
X-140173Y8680D01*
X-139401Y9000D01*
X-136500D01*
Y9000D01*
X-135230Y9299D01*
X-134465Y8535D01*
X-132646Y7319D01*
X-131320Y7056D01*
X-130506Y6511D01*
X-129180Y6247D01*
X-128583Y5848D01*
X-128532Y5779D01*
X-128201Y4644D01*
X-128563Y4123D01*
X-128687Y3999D01*
X-129430Y3503D01*
X-130756Y3239D01*
X-131571Y2695D01*
X-132896Y2431D01*
X-133005Y2358D01*
X-136500D01*
Y3250D01*
X-139401D01*
X-140173Y3570D01*
X-142000Y3810D01*
X-155100D01*
X-156927Y3570D01*
X-158630Y2864D01*
X-160092Y1742D01*
X-166535Y-4700D01*
X-185950D01*
Y-26480D01*
X-156550D01*
Y-14685D01*
X-152176Y-10310D01*
X-142000D01*
X-140173Y-10070D01*
X-139401Y-9750D01*
X-136500D01*
Y-8858D01*
X-131340D01*
X-131106Y-9128D01*
X-130656Y-9970D01*
X-131433Y-10746D01*
X-132151Y-11821D01*
X-132403Y-13089D01*
Y-14418D01*
X-132566Y-15237D01*
X-133239Y-16244D01*
X-133437Y-17241D01*
X-134181Y-18354D01*
X-134608Y-20500D01*
Y-44177D01*
X-136323Y-45892D01*
X-148600D01*
X-149500Y-45000D01*
Y-34000D01*
X-155458D01*
X-156000Y-33892D01*
X-203435D01*
X-205508Y-31820D01*
Y-15750D01*
X-223508D01*
Y-39750D01*
X-213438D01*
X-209723Y-43465D01*
X-207904Y-44681D01*
X-205758Y-45108D01*
X-161885D01*
Y-47222D01*
X-161458Y-49369D01*
X-160243Y-51188D01*
X-155965Y-55465D01*
X-154146Y-56681D01*
X-152000Y-57108D01*
X-134000D01*
X-131854Y-56681D01*
X-130035Y-55465D01*
X-125035Y-50465D01*
X-123819Y-48646D01*
X-123392Y-46500D01*
Y-20500D01*
X-123819Y-18354D01*
X-124563Y-17241D01*
X-124761Y-16244D01*
X-125434Y-15237D01*
X-125619Y-14305D01*
X-118466Y-7152D01*
X-117196Y-7678D01*
Y-8550D01*
X-117014Y-9467D01*
X-116657Y-10000D01*
X-117014Y-10533D01*
X-117196Y-11450D01*
Y-13550D01*
X-117014Y-14467D01*
X-116657Y-15000D01*
X-117014Y-15533D01*
X-117196Y-16450D01*
Y-18550D01*
X-117014Y-19467D01*
X-116657Y-20000D01*
X-117014Y-20533D01*
X-117196Y-21450D01*
Y-23550D01*
X-117014Y-24467D01*
X-116494Y-25244D01*
X-115717Y-25764D01*
X-114800Y-25946D01*
X-99900D01*
X-98983Y-25764D01*
X-98206Y-25244D01*
X-97686Y-24467D01*
X-97504Y-23550D01*
Y-21450D01*
X-97686Y-20533D01*
X-98042Y-20000D01*
X-97686Y-19467D01*
X-97504Y-18550D01*
Y-16450D01*
X-97686Y-15533D01*
X-98042Y-15000D01*
X-97686Y-14467D01*
X-97504Y-13550D01*
Y-11450D01*
X-97686Y-10533D01*
X-98042Y-10000D01*
X-97686Y-9467D01*
X-97504Y-8550D01*
Y-6450D01*
X-96859Y-5664D01*
X-94957D01*
X-94145Y-6000D01*
X-92355D01*
X-90701Y-5315D01*
X-89435Y-4049D01*
X-88750Y-2395D01*
Y-1686D01*
X-74157Y12907D01*
X-73439Y13982D01*
X-73186Y15250D01*
Y58377D01*
X-72064Y59500D01*
X-71355D01*
X-69701Y60185D01*
X-68435Y61451D01*
X-67750Y63105D01*
Y64895D01*
X-68435Y66549D01*
X-69701Y67815D01*
X-70592Y68184D01*
X-70339Y69454D01*
X-69500D01*
X-68583Y69636D01*
X-68050Y69992D01*
X-67517Y69636D01*
X-66600Y69454D01*
X-64500D01*
X-63583Y69636D01*
X-63050Y69992D01*
X-62517Y69636D01*
X-61600Y69454D01*
X-59500D01*
X-58583Y69636D01*
X-58050Y69992D01*
X-57517Y69636D01*
X-56600Y69454D01*
X-54500D01*
X-53583Y69636D01*
X-53050Y69992D01*
X-52517Y69636D01*
X-51600Y69454D01*
X-49500D01*
X-48583Y69636D01*
X-48050Y69992D01*
X-47517Y69636D01*
X-46600Y69454D01*
X-44500D01*
X-43583Y69636D01*
X-43050Y69992D01*
X-42517Y69636D01*
X-41600Y69454D01*
X-39500D01*
X-38583Y69636D01*
X-38050Y69992D01*
X-37517Y69636D01*
X-36600Y69454D01*
X-34500D01*
X-33583Y69636D01*
X-33050Y69992D01*
X-32517Y69636D01*
X-31600Y69454D01*
X-29500D01*
X-28583Y69636D01*
X-28050Y69992D01*
X-27517Y69636D01*
X-26600Y69454D01*
X-24500D01*
X-23583Y69636D01*
X-23050Y69992D01*
X-22517Y69636D01*
X-21600Y69454D01*
X-19500D01*
X-18583Y69636D01*
X-18050Y69992D01*
X-17517Y69636D01*
X-16600Y69454D01*
X-14500D01*
X-13583Y69636D01*
X-13050Y69992D01*
X-12517Y69636D01*
X-11600Y69454D01*
X-9500D01*
X-8583Y69636D01*
X-8050Y69992D01*
X-7517Y69636D01*
X-6600Y69454D01*
X-4500D01*
X-3583Y69636D01*
X-3050Y69992D01*
X-2517Y69636D01*
X-1600Y69454D01*
X500D01*
X1417Y69636D01*
X1950Y69992D01*
X2483Y69636D01*
X3400Y69454D01*
X5500D01*
X6417Y69636D01*
X6950Y69992D01*
X7483Y69636D01*
X8400Y69454D01*
X10500D01*
X11417Y69636D01*
X11950Y69992D01*
X12483Y69636D01*
X13400Y69454D01*
X15500D01*
X16417Y69636D01*
X16950Y69992D01*
X17483Y69636D01*
X18400Y69454D01*
X20500D01*
X21417Y69636D01*
X21950Y69992D01*
X22483Y69636D01*
X23400Y69454D01*
X25500D01*
X26417Y69636D01*
X26950Y69992D01*
X27483Y69636D01*
X28347Y69465D01*
X28454Y69306D01*
X28863Y68184D01*
X28261Y67582D01*
X27500Y65745D01*
Y63755D01*
X28261Y61918D01*
X29668Y60511D01*
X31505Y59750D01*
X33495D01*
X33867Y59904D01*
X34563Y59439D01*
X35831Y59186D01*
X38135D01*
X38800Y59054D01*
X53700D01*
X54617Y59236D01*
X55394Y59756D01*
X55914Y60533D01*
X56096Y61450D01*
Y63550D01*
X55914Y64467D01*
X55394Y65244D01*
X54617Y65764D01*
X53700Y65946D01*
X38800D01*
X38135Y65814D01*
X37471D01*
X36739Y67582D01*
X35332Y68989D01*
X33495Y69750D01*
X33451D01*
X32736Y70898D01*
X32731Y71020D01*
X32896Y71850D01*
Y78412D01*
X34500D01*
X34943Y78500D01*
X35395D01*
X35813Y78673D01*
X36256Y78761D01*
X36632Y79012D01*
X37049Y79185D01*
X37369Y79505D01*
X37744Y79756D01*
X37995Y80132D01*
X38315Y80451D01*
X38488Y80868D01*
X38739Y81244D01*
X38827Y81687D01*
X39000Y82105D01*
Y82557D01*
X39088Y83000D01*
X39000Y83443D01*
Y83895D01*
X38827Y84313D01*
X38739Y84756D01*
X38488Y85132D01*
X38315Y85549D01*
X37995Y85869D01*
X37744Y86244D01*
X37369Y86495D01*
X37049Y86815D01*
X36632Y86988D01*
X36256Y87239D01*
X35813Y87327D01*
X35395Y87500D01*
X34943D01*
X34500Y87588D01*
X33805D01*
X33605Y87916D01*
X34316Y89186D01*
X149750D01*
X151018Y89439D01*
X152093Y90157D01*
X168343Y106407D01*
X169062Y107482D01*
X169314Y108750D01*
Y114500D01*
X171500D01*
Y131314D01*
X183899Y143712D01*
X204558D01*
X204660Y143203D01*
X205267Y142293D01*
X206177Y141686D01*
X207250Y141472D01*
X211750D01*
X212959Y141001D01*
X212960Y141000D01*
X213053Y140535D01*
X213116Y140220D01*
X213558Y139558D01*
X216808Y136308D01*
X217470Y135866D01*
X218250Y135711D01*
X238500D01*
X239280Y135866D01*
X239942Y136308D01*
X243692Y140058D01*
X244134Y140720D01*
X244289Y141500D01*
Y181500D01*
X244134Y182280D01*
X243692Y182942D01*
X243692Y182942D01*
X239442Y187192D01*
X238780Y187634D01*
X238000Y187789D01*
X219500D01*
X218720Y187634D01*
X218058Y187192D01*
X213558Y182692D01*
X213116Y182030D01*
X213077Y181832D01*
X211981Y180889D01*
X211750Y180804D01*
X207250D01*
X206177Y180590D01*
X205267Y179983D01*
X204660Y179073D01*
X204558Y178564D01*
X180750D01*
X179482Y178311D01*
X178407Y177593D01*
X141657Y140843D01*
X140939Y139768D01*
X140686Y138500D01*
Y136000D01*
X138608D01*
Y145500D01*
X138181Y147646D01*
X136965Y149465D01*
X136965Y149465D01*
X135146Y150681D01*
X133000Y151108D01*
X130854Y150681D01*
X129035Y149465D01*
X127819Y147646D01*
X127392Y145500D01*
X127392Y145500D01*
Y136000D01*
X116500D01*
Y115314D01*
X105500D01*
Y136000D01*
X105483D01*
Y158625D01*
X105056Y160771D01*
X103840Y162590D01*
X103541Y162791D01*
X103340Y163090D01*
X101521Y164306D01*
X99375Y164733D01*
X65484D01*
X65323Y164840D01*
X64250Y165054D01*
X62010D01*
X61524Y166227D01*
X63023Y167727D01*
X63504Y168446D01*
X64250D01*
X65323Y168660D01*
X66233Y169267D01*
X66329Y169412D01*
X70761D01*
X71755Y169000D01*
X73745D01*
X75582Y169761D01*
X76989Y171168D01*
X77750Y173006D01*
Y174995D01*
X76989Y176832D01*
X75582Y178239D01*
X73745Y179000D01*
X71755D01*
X70761Y178588D01*
X66329D01*
X66233Y178733D01*
X65323Y179340D01*
X64250Y179554D01*
X59750D01*
X58677Y179340D01*
X58113Y178964D01*
X56982Y179407D01*
X56843Y179526D01*
Y202494D01*
X67230Y212881D01*
X68500Y212530D01*
Y210500D01*
X87000D01*
Y212657D01*
X103744D01*
X108575Y207825D01*
X110147Y206776D01*
X112000Y206407D01*
X159250D01*
X161103Y206776D01*
X162675Y207825D01*
X181480Y226631D01*
X182750Y226280D01*
Y223500D01*
X196750D01*
Y243000D01*
D02*
G37*
G36*
X-186469Y244734D02*
X-200469D01*
Y212734D01*
X-186469D01*
Y244734D01*
D02*
G37*
G36*
X-36970Y244732D02*
X-50970D01*
Y212732D01*
X-36970D01*
Y244732D01*
D02*
G37*
G36*
X5000Y204734D02*
X3730Y204734D01*
X-3730D01*
X-5000Y204734D01*
X-6270Y204734D01*
X-15000D01*
Y185234D01*
X-4462Y185234D01*
X-3564Y184336D01*
Y170300D01*
X-4065Y169799D01*
X-4750Y168145D01*
Y166355D01*
X-4065Y164701D01*
X-2799Y163435D01*
X-1145Y162750D01*
X645D01*
X2299Y163435D01*
X3565Y164701D01*
X4250Y166355D01*
Y168145D01*
X3565Y169799D01*
X3064Y170300D01*
Y184336D01*
X3962Y185234D01*
X5533Y185234D01*
X6431Y184336D01*
Y151000D01*
X6703Y149634D01*
X7477Y148477D01*
X30000Y125953D01*
Y125355D01*
X30685Y123701D01*
X31951Y122435D01*
X33605Y121750D01*
X35395D01*
X37049Y122435D01*
X38315Y123701D01*
X39000Y125355D01*
Y125918D01*
X40160Y126424D01*
X41000Y125754D01*
Y125355D01*
X41685Y123701D01*
X42951Y122435D01*
X44605Y121750D01*
X46395D01*
X48049Y122435D01*
X49315Y123701D01*
X50000Y125355D01*
Y127145D01*
X49315Y128799D01*
X48049Y130065D01*
X46395Y130750D01*
X46297D01*
X23569Y153478D01*
Y185234D01*
X25000D01*
Y204734D01*
X6270D01*
X5000Y204734D01*
D02*
G37*
G36*
X224216Y241372D02*
X220375D01*
X216607Y240623D01*
X213059Y239153D01*
X209865Y237019D01*
X207148Y234303D01*
X205014Y231109D01*
X203544Y227560D01*
X202795Y223792D01*
Y219951D01*
X203544Y216183D01*
X205014Y212635D01*
X207148Y209441D01*
X209865Y206724D01*
X213059Y204590D01*
X216607Y203120D01*
X220375Y202371D01*
X224216D01*
X227984Y203120D01*
X231533Y204590D01*
X234727Y206724D01*
X237443Y209441D01*
X239577Y212635D01*
X241047Y216183D01*
X241796Y219951D01*
Y223792D01*
X241047Y227560D01*
X239577Y231109D01*
X237443Y234303D01*
X234727Y237019D01*
X231533Y239153D01*
X227984Y240623D01*
X224216Y241372D01*
D02*
G37*
G36*
X-220784D02*
X-224625D01*
X-228393Y240623D01*
X-231941Y239153D01*
X-235135Y237019D01*
X-237852Y234303D01*
X-239986Y231109D01*
X-241456Y227560D01*
X-242205Y223792D01*
Y219951D01*
X-241456Y216183D01*
X-239986Y212635D01*
X-237852Y209441D01*
X-235135Y206724D01*
X-231941Y204590D01*
X-228393Y203120D01*
X-224625Y202371D01*
X-220784D01*
X-217016Y203120D01*
X-213467Y204590D01*
X-210273Y206724D01*
X-207557Y209441D01*
X-205423Y212635D01*
X-203953Y216183D01*
X-203204Y219951D01*
Y223792D01*
X-203953Y227560D01*
X-205423Y231109D01*
X-207557Y234303D01*
X-210273Y237019D01*
X-213467Y239153D01*
X-217016Y240623D01*
X-220784Y241372D01*
D02*
G37*
G36*
X40995Y215250D02*
X39005D01*
X37168Y214489D01*
X35761Y213082D01*
X35000Y211245D01*
Y209255D01*
X35412Y208261D01*
Y204734D01*
X35000D01*
Y185234D01*
X45000D01*
Y204734D01*
X44588D01*
Y208261D01*
X45000Y209255D01*
Y211245D01*
X44239Y213082D01*
X42832Y214489D01*
X40995Y215250D01*
D02*
G37*
G36*
X-86478D02*
X-88467D01*
X-90305Y214489D01*
X-91711Y213082D01*
X-92473Y211245D01*
Y209255D01*
X-92061Y208261D01*
Y205731D01*
X-92473D01*
Y184732D01*
X-82473D01*
Y205731D01*
X-82884D01*
Y208261D01*
X-82473Y209255D01*
Y211245D01*
X-83234Y213082D01*
X-84640Y214489D01*
X-86478Y215250D01*
D02*
G37*
G36*
X-175000Y215858D02*
X-177146Y215431D01*
X-178965Y214215D01*
X-180181Y212396D01*
X-180608Y210250D01*
X-180578Y210102D01*
Y195231D01*
X-180151Y193085D01*
X-179970Y192815D01*
Y184732D01*
X-169970D01*
Y192815D01*
X-169790Y193085D01*
X-169363Y195231D01*
Y210221D01*
X-169790Y212367D01*
X-171005Y214186D01*
X-171035Y214215D01*
X-172854Y215431D01*
X-175000Y215858D01*
D02*
G37*
G36*
X170000Y196039D02*
X85000D01*
X84220Y195884D01*
X83558Y195442D01*
X83116Y194780D01*
X82961Y194000D01*
Y174000D01*
X83116Y173220D01*
X83558Y172558D01*
X84220Y172116D01*
X85000Y171961D01*
X170000D01*
X170780Y172116D01*
X171442Y172558D01*
X171884Y173220D01*
X172039Y174000D01*
Y194000D01*
X171884Y194780D01*
X171442Y195442D01*
X170780Y195884D01*
X170000Y196039D01*
D02*
G37*
G36*
X-144972Y205731D02*
X-154972D01*
Y184732D01*
X-153174D01*
Y171439D01*
X-153565Y171049D01*
X-154250Y169395D01*
Y167605D01*
X-153565Y165951D01*
X-152299Y164685D01*
X-150645Y164000D01*
X-148855D01*
X-147201Y164685D01*
X-145935Y165951D01*
X-145250Y167605D01*
Y169395D01*
X-145935Y171049D01*
X-146547Y171661D01*
Y184732D01*
X-144972D01*
Y205731D01*
D02*
G37*
G36*
X-157471D02*
X-167471D01*
Y184732D01*
X-165785D01*
Y171329D01*
X-166065Y171049D01*
X-166750Y169395D01*
Y167605D01*
X-166065Y165951D01*
X-164799Y164685D01*
X-163145Y164000D01*
X-161355D01*
X-159701Y164685D01*
X-158435Y165951D01*
X-157750Y167605D01*
Y169395D01*
X-158435Y171049D01*
X-159157Y171771D01*
Y184732D01*
X-157471D01*
Y205731D01*
D02*
G37*
G36*
X-23855Y171750D02*
X-25645D01*
X-27299Y171065D01*
X-28565Y169799D01*
X-29250Y168145D01*
Y166355D01*
X-28565Y164701D01*
X-27299Y163435D01*
X-25645Y162750D01*
X-23855D01*
X-22201Y163435D01*
X-20935Y164701D01*
X-20250Y166355D01*
Y168145D01*
X-20935Y169799D01*
X-22201Y171065D01*
X-23855Y171750D01*
D02*
G37*
G36*
X-94972Y205731D02*
X-104972D01*
Y184732D01*
X-102983D01*
X-102798Y183801D01*
X-102135Y182809D01*
X-86750Y167424D01*
Y166355D01*
X-86065Y164701D01*
X-84799Y163435D01*
X-83145Y162750D01*
X-81355D01*
X-79701Y163435D01*
X-78435Y164701D01*
X-77750Y166355D01*
Y168145D01*
X-78435Y169799D01*
X-79701Y171065D01*
X-81355Y171750D01*
X-82424D01*
X-94385Y183711D01*
X-94972Y184732D01*
X-94972D01*
X-94972Y184732D01*
Y205731D01*
D02*
G37*
G36*
X-132472D02*
X-142472D01*
Y184732D01*
X-141041D01*
Y170823D01*
X-141065Y170799D01*
X-141750Y169145D01*
Y167355D01*
X-141065Y165701D01*
X-141041Y165677D01*
Y162756D01*
X-155688Y148109D01*
X-166237D01*
Y149540D01*
X-178748D01*
X-196203Y166994D01*
X-197691Y167989D01*
X-199447Y168338D01*
X-214750D01*
Y170250D01*
X-225750D01*
Y158520D01*
X-225750Y157250D01*
X-225750Y155980D01*
Y144250D01*
X-224713D01*
Y140394D01*
X-225094Y140319D01*
X-226128Y139628D01*
X-226819Y138594D01*
X-226820Y138588D01*
X-231750D01*
X-231750Y138588D01*
X-232193Y138500D01*
X-232645D01*
X-233063Y138327D01*
X-233506Y138239D01*
X-233882Y137988D01*
X-234299Y137815D01*
X-234619Y137495D01*
X-234994Y137244D01*
X-235245Y136869D01*
X-235565Y136549D01*
X-235738Y136132D01*
X-235989Y135756D01*
X-236077Y135313D01*
X-236250Y134895D01*
Y134443D01*
X-236338Y134000D01*
X-236250Y133557D01*
Y133105D01*
X-236077Y132688D01*
X-235989Y132244D01*
X-235738Y131868D01*
X-235565Y131451D01*
X-235245Y131131D01*
X-234994Y130756D01*
X-234618Y130505D01*
X-234299Y130185D01*
X-233882Y130012D01*
X-233506Y129761D01*
X-233062Y129673D01*
X-232645Y129500D01*
X-232193D01*
X-231750Y129412D01*
X-227000D01*
Y121500D01*
X-225000Y119500D01*
X-215000D01*
X-213000Y121500D01*
Y127953D01*
X-211237D01*
Y127041D01*
X-192237D01*
Y137041D01*
X-197148D01*
Y139540D01*
X-192237D01*
Y148255D01*
X-190967Y148781D01*
X-185237Y143052D01*
Y139540D01*
X-166237D01*
Y140972D01*
X-154210D01*
X-152844Y141243D01*
X-151686Y142017D01*
X-134949Y158754D01*
X-134176Y159912D01*
X-133904Y161278D01*
Y165232D01*
X-133435Y165701D01*
X-132750Y167355D01*
Y169145D01*
X-133435Y170799D01*
X-133904Y171268D01*
Y184732D01*
X-132472D01*
Y205731D01*
D02*
G37*
G36*
X-33054Y146000D02*
X-34446D01*
X-35733Y145467D01*
X-36717Y144483D01*
X-37250Y143196D01*
Y141804D01*
X-36717Y140517D01*
X-35733Y139533D01*
X-34446Y139000D01*
X-33054D01*
X-31767Y139533D01*
X-30783Y140517D01*
X-30250Y141804D01*
Y143196D01*
X-30783Y144483D01*
X-31767Y145467D01*
X-33054Y146000D01*
D02*
G37*
G36*
X-166237Y124539D02*
X-185237D01*
Y114539D01*
X-166237D01*
Y124539D01*
D02*
G37*
G36*
X244130Y102691D02*
X212130D01*
Y88691D01*
X244130D01*
Y102691D01*
D02*
G37*
G36*
X141995Y87500D02*
X140005D01*
X138168Y86739D01*
X136761Y85332D01*
X136000Y83495D01*
Y81505D01*
X136761Y79668D01*
X138168Y78261D01*
X140005Y77500D01*
X141995D01*
X143832Y78261D01*
X145239Y79668D01*
X146000Y81505D01*
Y83495D01*
X145239Y85332D01*
X143832Y86739D01*
X141995Y87500D01*
D02*
G37*
G36*
X205130Y82190D02*
X184130D01*
Y81778D01*
X177440D01*
X175684Y81429D01*
X174870Y80885D01*
X174701Y80815D01*
X174571Y80686D01*
X174196Y80434D01*
X174006Y80244D01*
X173755Y79868D01*
X173435Y79549D01*
X173262Y79132D01*
X173011Y78756D01*
X172923Y78313D01*
X172750Y77895D01*
Y77443D01*
X172662Y77000D01*
X172750Y76557D01*
Y76105D01*
X172923Y75687D01*
X173011Y75244D01*
X173262Y74868D01*
X173435Y74451D01*
X173755Y74131D01*
X174006Y73756D01*
X174381Y73505D01*
X174701Y73185D01*
X175118Y73012D01*
X175494Y72761D01*
X175937Y72673D01*
X176355Y72500D01*
X176807D01*
X177250Y72412D01*
X177693Y72500D01*
X178145D01*
X178391Y72602D01*
X184130D01*
Y72190D01*
X205130D01*
Y82190D01*
D02*
G37*
G36*
X162887Y69518D02*
X161097D01*
X159443Y68833D01*
X158177Y67567D01*
X157492Y65913D01*
Y64123D01*
X158177Y62469D01*
X159443Y61203D01*
X161097Y60518D01*
X162887D01*
X164541Y61203D01*
X165807Y62469D01*
X166492Y64123D01*
Y65913D01*
X165807Y67567D01*
X164541Y68833D01*
X162887Y69518D01*
D02*
G37*
G36*
X141895Y69500D02*
X140105D01*
X138451Y68815D01*
X137950Y68314D01*
X122250D01*
X120982Y68061D01*
X119907Y67343D01*
X104377Y51814D01*
X81750D01*
X80482Y51561D01*
X79407Y50843D01*
X68173Y39609D01*
X66828Y40060D01*
X66315Y41299D01*
X65049Y42565D01*
X64048Y42980D01*
X63743Y43285D01*
X64098Y44725D01*
X65290Y45219D01*
X66697Y46626D01*
X67458Y48463D01*
Y50453D01*
X66697Y52290D01*
X65290Y53697D01*
X63453Y54458D01*
X61463D01*
X60627Y54112D01*
X60046Y54693D01*
X58971Y55411D01*
X57703Y55664D01*
X54767D01*
X54617Y55764D01*
X53700Y55946D01*
X38800D01*
X37883Y55764D01*
X37106Y55244D01*
X36586Y54467D01*
X36404Y53550D01*
Y51450D01*
X36586Y50533D01*
X36943Y50000D01*
X36586Y49467D01*
X36404Y48550D01*
Y46450D01*
X36586Y45533D01*
X36943Y45000D01*
X36586Y44467D01*
X36404Y43550D01*
Y41450D01*
X36586Y40533D01*
X36943Y40000D01*
X36586Y39467D01*
X36404Y38550D01*
Y36450D01*
X36586Y35533D01*
X36943Y35000D01*
X36586Y34467D01*
X36404Y33550D01*
Y31450D01*
X36586Y30533D01*
X36943Y30000D01*
X36586Y29467D01*
X36404Y28550D01*
Y26450D01*
X36586Y25533D01*
X36943Y25000D01*
X36586Y24467D01*
X36404Y23550D01*
Y21450D01*
X36586Y20533D01*
X36943Y20000D01*
X36586Y19467D01*
X36404Y18550D01*
Y16450D01*
X36586Y15533D01*
X36943Y15000D01*
X36586Y14467D01*
X36404Y13550D01*
Y11450D01*
X36586Y10533D01*
X36943Y10000D01*
X36586Y9467D01*
X36404Y8550D01*
Y6450D01*
X36586Y5533D01*
X36943Y5000D01*
X36586Y4467D01*
X36404Y3550D01*
Y1450D01*
X36586Y533D01*
X36943Y0D01*
X36586Y-533D01*
X36404Y-1450D01*
Y-3550D01*
X36586Y-4467D01*
X36943Y-5000D01*
X36586Y-5533D01*
X36404Y-6450D01*
Y-8550D01*
X36586Y-9467D01*
X36943Y-10000D01*
X36586Y-10533D01*
X36404Y-11450D01*
Y-13550D01*
X36586Y-14467D01*
X36943Y-15000D01*
X36586Y-15533D01*
X36404Y-16450D01*
Y-18550D01*
X36586Y-19467D01*
X36943Y-20000D01*
X36586Y-20533D01*
X36404Y-21450D01*
Y-23550D01*
X36586Y-24467D01*
X36943Y-25000D01*
X36586Y-25533D01*
X36404Y-26450D01*
Y-28550D01*
X36586Y-29467D01*
X36943Y-30000D01*
X36586Y-30533D01*
X36404Y-31450D01*
Y-33550D01*
X36586Y-34467D01*
X36943Y-35000D01*
X36586Y-35533D01*
X36404Y-36450D01*
Y-38550D01*
X36586Y-39467D01*
X36943Y-40000D01*
X36586Y-40533D01*
X36404Y-41450D01*
Y-43550D01*
X36586Y-44467D01*
X36943Y-45000D01*
X36586Y-45533D01*
X36404Y-46450D01*
Y-48550D01*
X36586Y-49467D01*
X36943Y-50000D01*
X36586Y-50533D01*
X36404Y-51450D01*
Y-53550D01*
X36586Y-54467D01*
X36264Y-54905D01*
X34947Y-55261D01*
X33109Y-54500D01*
X31120D01*
X29282Y-55261D01*
X27876Y-56668D01*
X27115Y-58505D01*
Y-60399D01*
X27107Y-60407D01*
X26389Y-61482D01*
X26136Y-62750D01*
Y-66185D01*
X26004Y-66850D01*
Y-81750D01*
X26186Y-82667D01*
X26706Y-83444D01*
X27483Y-83964D01*
X28400Y-84146D01*
X30500D01*
X31417Y-83964D01*
X32194Y-83444D01*
X32714Y-82667D01*
X32896Y-81750D01*
Y-66850D01*
X32764Y-66185D01*
Y-64500D01*
X33109D01*
X34947Y-63739D01*
X36353Y-62332D01*
X36698Y-61500D01*
X37883Y-60764D01*
X38800Y-60946D01*
X53700D01*
X54617Y-60764D01*
X55394Y-60244D01*
X55914Y-59467D01*
X56096Y-58550D01*
Y-56450D01*
X55914Y-55533D01*
X55557Y-55000D01*
X55914Y-54467D01*
X56096Y-53550D01*
Y-51450D01*
X55914Y-50533D01*
X55557Y-50000D01*
X55914Y-49467D01*
X56096Y-48550D01*
Y-46450D01*
X55914Y-45533D01*
X55557Y-45000D01*
X55914Y-44467D01*
X56096Y-43550D01*
Y-41450D01*
X55914Y-40533D01*
X55557Y-40000D01*
X55914Y-39467D01*
X56096Y-38550D01*
Y-38383D01*
X57366Y-37709D01*
X57750Y-37968D01*
Y-38395D01*
X58435Y-40049D01*
X59701Y-41315D01*
X61355Y-42000D01*
X63145D01*
X64799Y-41315D01*
X66065Y-40049D01*
X66750Y-38395D01*
Y-36605D01*
X66065Y-34951D01*
X64799Y-33685D01*
X63145Y-33000D01*
X62986D01*
X60609Y-30623D01*
X60430Y-29006D01*
X62436Y-27000D01*
X63145D01*
X64799Y-26315D01*
X66065Y-25049D01*
X66750Y-23395D01*
Y-21605D01*
X66065Y-19951D01*
X64799Y-18685D01*
X63145Y-18000D01*
X61355D01*
X59701Y-18685D01*
X58435Y-19951D01*
X57750Y-21605D01*
X57366Y-21827D01*
X56815Y-21663D01*
X56033Y-21131D01*
X55914Y-20533D01*
X55557Y-20000D01*
X55914Y-19467D01*
X56096Y-18550D01*
Y-16450D01*
X55914Y-15533D01*
X55557Y-15000D01*
X55914Y-14467D01*
X56096Y-13550D01*
Y-11450D01*
X55914Y-10533D01*
X55557Y-10000D01*
X55914Y-9467D01*
X56096Y-8550D01*
Y-6450D01*
X55914Y-5533D01*
X55557Y-5000D01*
X55914Y-4467D01*
X56096Y-3550D01*
Y-3331D01*
X57269Y-2845D01*
X63587Y-9163D01*
X63587Y-9163D01*
X64579Y-9826D01*
X65750Y-10059D01*
X127233D01*
X137019Y-19845D01*
X137000Y-19891D01*
Y-21681D01*
X137685Y-23335D01*
X138951Y-24601D01*
X140605Y-25286D01*
X142395D01*
X144049Y-24601D01*
X145315Y-23335D01*
X146000Y-21681D01*
Y-19891D01*
X145315Y-18237D01*
X144049Y-16971D01*
X142395Y-16286D01*
X142111D01*
X130663Y-4837D01*
X129671Y-4174D01*
X128500Y-3941D01*
X128500Y-3941D01*
X67017D01*
X60208Y2868D01*
X60694Y4041D01*
X64133D01*
X68587Y-413D01*
X68587Y-413D01*
X69579Y-1076D01*
X70750Y-1309D01*
X131733D01*
X137000Y-6576D01*
Y-7645D01*
X137685Y-9299D01*
X138951Y-10565D01*
X140605Y-11250D01*
X142395D01*
X144049Y-10565D01*
X145315Y-9299D01*
X146000Y-7645D01*
Y-5855D01*
X145315Y-4201D01*
X144049Y-2935D01*
X142395Y-2250D01*
X141326D01*
X135163Y3913D01*
X134171Y4576D01*
X133000Y4809D01*
X133000Y4809D01*
X72017D01*
X68813Y8013D01*
X69299Y9186D01*
X90000D01*
X91268Y9439D01*
X92343Y10157D01*
X99436Y17250D01*
X100745D01*
X102582Y18011D01*
X103989Y19418D01*
X104750Y21255D01*
Y23245D01*
X103989Y25082D01*
X102582Y26489D01*
X100745Y27250D01*
X98755D01*
X96918Y26489D01*
X95511Y25082D01*
X94959Y23749D01*
X93584D01*
X93239Y24582D01*
X91832Y25989D01*
X89995Y26750D01*
X88005D01*
X86168Y25989D01*
X85243Y25064D01*
X76686D01*
X76159Y26334D01*
X86017Y36191D01*
X109750D01*
X109750Y36191D01*
X110921Y36424D01*
X111913Y37087D01*
X121767Y46941D01*
X137695D01*
X138451Y46185D01*
X140105Y45500D01*
X141895D01*
X143549Y46185D01*
X144815Y47451D01*
X145500Y49105D01*
Y50895D01*
X144815Y52549D01*
X143549Y53815D01*
X141895Y54500D01*
X140105D01*
X138451Y53815D01*
X137695Y53059D01*
X120500D01*
X120500Y53059D01*
X119330Y52826D01*
X118337Y52163D01*
X118337Y52163D01*
X108483Y42309D01*
X84750D01*
X84750Y42309D01*
X83580Y42076D01*
X82587Y41413D01*
X82587Y41413D01*
X71733Y30559D01*
X70154D01*
X69668Y31732D01*
X83123Y45186D01*
X105750D01*
X107018Y45439D01*
X108093Y46157D01*
X123623Y61686D01*
X137950D01*
X138451Y61185D01*
X140105Y60500D01*
X141895D01*
X143549Y61185D01*
X144815Y62451D01*
X145500Y64105D01*
Y65895D01*
X144815Y67549D01*
X143549Y68815D01*
X141895Y69500D01*
D02*
G37*
G36*
X205130Y57191D02*
X184130D01*
Y56779D01*
X177545D01*
X177250Y56838D01*
X176807Y56750D01*
X176355D01*
X175937Y56577D01*
X175494Y56489D01*
X175118Y56238D01*
X174701Y56065D01*
X174381Y55745D01*
X174006Y55494D01*
X173755Y55119D01*
X173435Y54799D01*
X173262Y54382D01*
X173011Y54006D01*
X172923Y53563D01*
X172750Y53145D01*
Y52693D01*
X172662Y52250D01*
X172750Y51807D01*
Y51355D01*
X172923Y50938D01*
X173011Y50494D01*
X173262Y50118D01*
X173435Y49701D01*
X173755Y49381D01*
X174006Y49006D01*
X174064Y48947D01*
X174440Y48696D01*
X174701Y48435D01*
X175042Y48294D01*
X175553Y47952D01*
X176156Y47833D01*
X176355Y47750D01*
X176571D01*
X177309Y47603D01*
X184130D01*
Y47191D01*
X205130D01*
Y57191D01*
D02*
G37*
G36*
X-160750Y76858D02*
X-160992D01*
X-161534Y76750D01*
X-167250D01*
Y65750D01*
X-166600D01*
Y61750D01*
X-168492D01*
Y47750D01*
X-153492D01*
Y61750D01*
X-155385D01*
Y65750D01*
X-154250D01*
Y76750D01*
X-160208D01*
X-160750Y76858D01*
D02*
G37*
G36*
X-10005Y52250D02*
X-11995D01*
X-13832Y51489D01*
X-15239Y50082D01*
X-16000Y48245D01*
Y46255D01*
X-15239Y44418D01*
X-13832Y43011D01*
X-11995Y42250D01*
X-10005D01*
X-8168Y43011D01*
X-6761Y44418D01*
X-6000Y46255D01*
Y48245D01*
X-6761Y50082D01*
X-8168Y51489D01*
X-10005Y52250D01*
D02*
G37*
G36*
X244130Y40690D02*
X212130D01*
Y26690D01*
X244130D01*
Y40690D01*
D02*
G37*
G36*
X141995Y27250D02*
X140005D01*
X138168Y26489D01*
X136761Y25082D01*
X136000Y23245D01*
Y21255D01*
X136761Y19418D01*
X138168Y18011D01*
X140005Y17250D01*
X141995D01*
X143832Y18011D01*
X145239Y19418D01*
X146000Y21255D01*
Y23245D01*
X145239Y25082D01*
X143832Y26489D01*
X141995Y27250D01*
D02*
G37*
G36*
X243630Y16750D02*
X211630D01*
Y2750D01*
X243630D01*
Y16750D01*
D02*
G37*
G36*
X-9755Y5000D02*
X-11745D01*
X-13582Y4239D01*
X-14989Y2832D01*
X-15750Y995D01*
Y-995D01*
X-14989Y-2832D01*
X-13582Y-4239D01*
X-11745Y-5000D01*
X-9755D01*
X-7918Y-4239D01*
X-6511Y-2832D01*
X-5750Y-995D01*
Y995D01*
X-6511Y2832D01*
X-7918Y4239D01*
X-9755Y5000D01*
D02*
G37*
G36*
X204630Y-3751D02*
X183630D01*
Y-4412D01*
X177250D01*
X176807Y-4500D01*
X176355D01*
X175937Y-4673D01*
X175494Y-4761D01*
X175118Y-5012D01*
X174701Y-5185D01*
X174381Y-5505D01*
X174006Y-5756D01*
X173755Y-6132D01*
X173435Y-6451D01*
X173262Y-6868D01*
X173011Y-7244D01*
X172923Y-7687D01*
X172750Y-8105D01*
Y-8557D01*
X172662Y-9000D01*
X172750Y-9443D01*
Y-9895D01*
X172923Y-10313D01*
X173011Y-10756D01*
X173262Y-11132D01*
X173435Y-11549D01*
X173755Y-11869D01*
X174006Y-12244D01*
X174381Y-12495D01*
X174701Y-12815D01*
X175118Y-12988D01*
X175494Y-13239D01*
X175937Y-13327D01*
X176355Y-13500D01*
X176807D01*
X177250Y-13588D01*
X183630D01*
Y-13751D01*
X204630D01*
Y-3751D01*
D02*
G37*
G36*
X-54851Y41099D02*
X-56641D01*
X-58295Y40414D01*
X-59561Y39148D01*
X-60246Y37494D01*
Y35704D01*
X-59561Y34050D01*
X-59060Y33549D01*
Y27746D01*
X-58808Y26478D01*
X-58089Y25403D01*
X-50232Y17546D01*
X-50480Y16301D01*
X-51049Y16065D01*
X-52315Y14799D01*
X-53000Y13145D01*
Y12186D01*
X-66093Y-907D01*
X-66811Y-1982D01*
X-67064Y-3250D01*
Y-20783D01*
X-68334Y-21632D01*
X-69255Y-21250D01*
X-71245D01*
X-73082Y-22011D01*
X-74489Y-23418D01*
X-75250Y-25255D01*
Y-27245D01*
X-74489Y-29082D01*
X-73714Y-29857D01*
Y-44376D01*
X-74984Y-44902D01*
X-75701Y-44185D01*
X-77355Y-43500D01*
X-79145D01*
X-80799Y-44185D01*
X-82065Y-45451D01*
X-82750Y-47105D01*
Y-48895D01*
X-82065Y-50549D01*
X-81564Y-51050D01*
Y-52250D01*
X-81311Y-53518D01*
X-80593Y-54593D01*
X-79014Y-56172D01*
Y-58891D01*
X-80187Y-59377D01*
X-81500Y-58064D01*
Y-57355D01*
X-82185Y-55701D01*
X-83451Y-54435D01*
X-85105Y-53750D01*
X-86895D01*
X-88549Y-54435D01*
X-89815Y-55701D01*
X-90500Y-57355D01*
Y-59145D01*
X-89815Y-60799D01*
X-88549Y-62065D01*
X-86895Y-62750D01*
X-86605Y-63186D01*
X-86604Y-63373D01*
X-87207Y-64575D01*
X-87517Y-64636D01*
X-88294Y-65156D01*
X-88814Y-65933D01*
X-88996Y-66850D01*
Y-81750D01*
X-88864Y-82416D01*
Y-85850D01*
X-88611Y-87118D01*
X-87893Y-88193D01*
X-87869Y-88217D01*
X-87885Y-88255D01*
Y-90245D01*
X-87124Y-92082D01*
X-86040Y-93166D01*
X-86496Y-94436D01*
X-141386D01*
X-142451Y-93372D01*
X-144105Y-92687D01*
X-145895D01*
X-147549Y-93372D01*
X-148815Y-94638D01*
X-149500Y-96292D01*
Y-98082D01*
X-148815Y-99736D01*
X-147549Y-101002D01*
X-145895Y-101687D01*
X-144105D01*
X-142601Y-101064D01*
X-50409D01*
X-49141Y-100811D01*
X-48066Y-100093D01*
X-35037Y-87064D01*
X-33864Y-87550D01*
Y-90427D01*
X-51372Y-107936D01*
X-141950D01*
X-142451Y-107435D01*
X-144105Y-106750D01*
X-145895D01*
X-147549Y-107435D01*
X-148815Y-108701D01*
X-149500Y-110355D01*
Y-112145D01*
X-148815Y-113799D01*
X-147549Y-115065D01*
X-145895Y-115750D01*
X-144105D01*
X-142451Y-115065D01*
X-141950Y-114564D01*
X-50000D01*
X-48732Y-114311D01*
X-47657Y-113593D01*
X-28207Y-94143D01*
X-27489Y-93068D01*
X-27236Y-91800D01*
Y-84668D01*
X-26600Y-84146D01*
X-24500D01*
X-23583Y-83964D01*
X-23050Y-83608D01*
X-22517Y-83964D01*
X-21600Y-84146D01*
X-19500D01*
X-18583Y-83964D01*
X-18050Y-83608D01*
X-17517Y-83964D01*
X-16600Y-84146D01*
X-14500D01*
X-13583Y-83964D01*
X-13050Y-83608D01*
X-12517Y-83964D01*
X-11600Y-84146D01*
X-9500D01*
X-8583Y-83964D01*
X-8050Y-83608D01*
X-7517Y-83964D01*
X-6600Y-84146D01*
X-4500D01*
X-3583Y-83964D01*
X-3050Y-83608D01*
X-2517Y-83964D01*
X-1600Y-84146D01*
X500D01*
X1417Y-83964D01*
X1950Y-83608D01*
X2483Y-83964D01*
X3400Y-84146D01*
X5500D01*
X6417Y-83964D01*
X6950Y-83608D01*
X7483Y-83964D01*
X8400Y-84146D01*
X10500D01*
X11417Y-83964D01*
X11950Y-83608D01*
X12483Y-83964D01*
X13167Y-84100D01*
X13509Y-84756D01*
X13628Y-85416D01*
X12626Y-86418D01*
X11865Y-88255D01*
Y-90245D01*
X12626Y-92082D01*
X14032Y-93489D01*
X15870Y-94250D01*
X17859D01*
X19697Y-93489D01*
X21103Y-92082D01*
X21865Y-90245D01*
Y-88704D01*
X22511Y-87736D01*
X22764Y-86468D01*
Y-82416D01*
X22896Y-81750D01*
Y-66850D01*
X22714Y-65933D01*
X22194Y-65156D01*
X21417Y-64636D01*
X20500Y-64454D01*
X18400D01*
X17483Y-64636D01*
X16950Y-64992D01*
X16417Y-64636D01*
X15500Y-64454D01*
X13400D01*
X12483Y-64636D01*
X11950Y-64993D01*
X11417Y-64636D01*
X10500Y-64454D01*
X8400D01*
X7483Y-64636D01*
X6950Y-64992D01*
X6417Y-64636D01*
X5500Y-64454D01*
X3400D01*
X2483Y-64636D01*
X1950Y-64993D01*
X1417Y-64636D01*
X500Y-64454D01*
X-1600D01*
X-2517Y-64636D01*
X-3050Y-64992D01*
X-3583Y-64636D01*
X-4500Y-64454D01*
X-6600D01*
X-7517Y-64636D01*
X-8050Y-64992D01*
X-8583Y-64636D01*
X-9500Y-64454D01*
X-11600D01*
X-12517Y-64636D01*
X-13050Y-64993D01*
X-13583Y-64636D01*
X-14500Y-64454D01*
X-16600D01*
X-17517Y-64636D01*
X-18050Y-64992D01*
X-18583Y-64636D01*
X-19500Y-64454D01*
X-21600D01*
X-22517Y-64636D01*
X-23050Y-64993D01*
X-23583Y-64636D01*
X-24500Y-64454D01*
X-26600D01*
X-27517Y-64636D01*
X-28050Y-64992D01*
X-28583Y-64636D01*
X-29500Y-64454D01*
X-31600D01*
X-32517Y-64636D01*
X-33050Y-64992D01*
X-33583Y-64636D01*
X-34500Y-64454D01*
X-36600D01*
X-37517Y-64636D01*
X-38050Y-64993D01*
X-38583Y-64636D01*
X-39500Y-64454D01*
X-40222D01*
X-40748Y-63184D01*
X-40157Y-62593D01*
X-39439Y-61518D01*
X-39186Y-60250D01*
Y-24505D01*
X-38130Y-23799D01*
X-37645Y-24000D01*
X-35855D01*
X-34201Y-23315D01*
X-32935Y-22049D01*
X-32250Y-20395D01*
Y-18605D01*
X-32935Y-16951D01*
X-33561Y-16325D01*
Y9075D01*
X-32935Y9701D01*
X-32250Y11355D01*
Y13145D01*
X-32935Y14799D01*
X-34201Y16065D01*
X-35855Y16750D01*
X-37645D01*
X-39299Y16065D01*
X-39661Y16100D01*
X-40157Y16843D01*
X-52432Y29119D01*
Y33549D01*
X-51931Y34050D01*
X-51246Y35704D01*
Y37494D01*
X-51931Y39148D01*
X-53197Y40414D01*
X-54851Y41099D01*
D02*
G37*
G36*
X163168Y-15786D02*
X161179D01*
X159341Y-16547D01*
X157935Y-17953D01*
X157174Y-19791D01*
Y-21780D01*
X157935Y-23618D01*
X159341Y-25024D01*
X161179Y-25786D01*
X163168D01*
X165006Y-25024D01*
X166412Y-23618D01*
X167174Y-21780D01*
Y-19791D01*
X166412Y-17953D01*
X165006Y-16547D01*
X163168Y-15786D01*
D02*
G37*
G36*
X204630Y-28750D02*
X183630D01*
Y-29162D01*
X177500D01*
X177500Y-29162D01*
X177057Y-29250D01*
X176605D01*
X176187Y-29423D01*
X175744Y-29511D01*
X175368Y-29762D01*
X174951Y-29935D01*
X174632Y-30255D01*
X174256Y-30506D01*
X174005Y-30881D01*
X173685Y-31201D01*
X173512Y-31618D01*
X173261Y-31994D01*
X173173Y-32438D01*
X173000Y-32855D01*
Y-33307D01*
X172912Y-33750D01*
X173000Y-34193D01*
Y-34645D01*
X173173Y-35062D01*
X173261Y-35506D01*
X173512Y-35882D01*
X173685Y-36299D01*
X174005Y-36618D01*
X174256Y-36994D01*
X174632Y-37245D01*
X174951Y-37565D01*
X175368Y-37738D01*
X175744Y-37989D01*
X176187Y-38077D01*
X176605Y-38250D01*
X177057D01*
X177500Y-38338D01*
X183630D01*
Y-38750D01*
X204630D01*
Y-28750D01*
D02*
G37*
G36*
X178495Y-46500D02*
X176505D01*
X174668Y-47261D01*
X173261Y-48668D01*
X172500Y-50505D01*
Y-52495D01*
X173261Y-54332D01*
X174668Y-55739D01*
X176505Y-56500D01*
X178495D01*
X180332Y-55739D01*
X181739Y-54332D01*
X182500Y-52495D01*
Y-50505D01*
X181739Y-48668D01*
X180332Y-47261D01*
X178495Y-46500D01*
D02*
G37*
G36*
X243630Y-45251D02*
X211630D01*
Y-59251D01*
X243630D01*
Y-45251D01*
D02*
G37*
G36*
X-99900Y-29054D02*
X-114800D01*
X-115717Y-29236D01*
X-116494Y-29756D01*
X-117014Y-30533D01*
X-117196Y-31450D01*
Y-33550D01*
X-117014Y-34467D01*
X-116657Y-35000D01*
X-117014Y-35533D01*
X-117196Y-36450D01*
Y-38550D01*
X-117014Y-39467D01*
X-116657Y-40000D01*
X-117014Y-40533D01*
X-117196Y-41450D01*
Y-43550D01*
X-117014Y-44467D01*
X-116657Y-45000D01*
X-117014Y-45533D01*
X-117196Y-46450D01*
Y-48550D01*
X-117014Y-49467D01*
X-116657Y-50000D01*
X-117014Y-50533D01*
X-117196Y-51450D01*
Y-53550D01*
X-117014Y-54467D01*
X-116657Y-55000D01*
X-117014Y-55533D01*
X-117196Y-56450D01*
Y-58550D01*
X-117014Y-59467D01*
X-116494Y-60244D01*
X-115717Y-60764D01*
X-114800Y-60946D01*
X-99900D01*
X-98983Y-60764D01*
X-98206Y-60244D01*
X-97686Y-59467D01*
X-97504Y-58550D01*
Y-56450D01*
X-97686Y-55533D01*
X-98042Y-55000D01*
X-97686Y-54467D01*
X-97504Y-53550D01*
Y-51450D01*
X-97686Y-50533D01*
X-98042Y-50000D01*
X-97686Y-49467D01*
X-97504Y-48550D01*
Y-46450D01*
X-97686Y-45533D01*
X-98042Y-45000D01*
X-97686Y-44467D01*
X-97504Y-43550D01*
Y-41450D01*
X-96982Y-40814D01*
X-93250D01*
X-92930Y-40750D01*
X-92255D01*
X-90418Y-39989D01*
X-89011Y-38582D01*
X-88250Y-36745D01*
Y-34755D01*
X-89011Y-32918D01*
X-90418Y-31511D01*
X-92255Y-30750D01*
X-93395D01*
X-93988Y-30157D01*
X-95063Y-29439D01*
X-96331Y-29186D01*
X-99235D01*
X-99900Y-29054D01*
D02*
G37*
G36*
X-144105Y-62250D02*
X-145895D01*
X-147549Y-62935D01*
X-148815Y-64201D01*
X-149500Y-65855D01*
Y-67645D01*
X-148815Y-69299D01*
X-147549Y-70565D01*
X-145895Y-71250D01*
X-144105D01*
X-142451Y-70565D01*
X-141185Y-69299D01*
X-140500Y-67645D01*
Y-65855D01*
X-141185Y-64201D01*
X-142451Y-62935D01*
X-144105Y-62250D01*
D02*
G37*
G36*
X-212630Y-58690D02*
X-244630D01*
Y-72690D01*
X-212630D01*
Y-58690D01*
D02*
G37*
G36*
X-184630Y-79191D02*
X-205630D01*
Y-89191D01*
X-184630D01*
Y-88779D01*
X-179295D01*
X-179000Y-88838D01*
X-178557Y-88750D01*
X-178105D01*
X-177687Y-88577D01*
X-177244Y-88489D01*
X-176868Y-88238D01*
X-176451Y-88065D01*
X-176131Y-87745D01*
X-175756Y-87494D01*
X-175505Y-87119D01*
X-175185Y-86799D01*
X-175012Y-86382D01*
X-174761Y-86006D01*
X-174673Y-85563D01*
X-174500Y-85145D01*
Y-84693D01*
X-174412Y-84250D01*
X-174500Y-83807D01*
Y-83355D01*
X-174673Y-82937D01*
X-174761Y-82494D01*
X-175012Y-82118D01*
X-175185Y-81701D01*
X-175505Y-81381D01*
X-175756Y-81006D01*
X-175814Y-80947D01*
X-176190Y-80696D01*
X-176451Y-80435D01*
X-176792Y-80294D01*
X-177303Y-79952D01*
X-177906Y-79833D01*
X-178105Y-79750D01*
X-178321D01*
X-179059Y-79603D01*
X-184630D01*
Y-79191D01*
D02*
G37*
G36*
X207500Y-61961D02*
X206720Y-62116D01*
X206058Y-62558D01*
X206058Y-62558D01*
X171905Y-96711D01*
X140250D01*
X140250Y-96711D01*
X139470Y-96866D01*
X138808Y-97308D01*
X135308Y-100808D01*
X134866Y-101470D01*
X134711Y-102250D01*
Y-112250D01*
X134866Y-113030D01*
X135308Y-113692D01*
X135308Y-113692D01*
X137558Y-115942D01*
X138220Y-116384D01*
X139000Y-116539D01*
X171905D01*
X175711Y-120345D01*
Y-161500D01*
X175711Y-161500D01*
X175866Y-162280D01*
X176308Y-162942D01*
X183058Y-169692D01*
X183720Y-170134D01*
X184500Y-170289D01*
X196250D01*
X196250Y-170289D01*
X197030Y-170134D01*
X197692Y-169692D01*
X202692Y-164692D01*
X203134Y-164030D01*
X203289Y-163250D01*
Y-155095D01*
X204345Y-154039D01*
X208750D01*
Y-165500D01*
X219750D01*
Y-163592D01*
X228250D01*
Y-166508D01*
X242250D01*
Y-151508D01*
X228250D01*
Y-154416D01*
X221452D01*
X221374Y-154315D01*
X220988Y-153146D01*
X223442Y-150692D01*
X223884Y-150030D01*
X224039Y-149250D01*
Y-133845D01*
X244942Y-112942D01*
X245384Y-112280D01*
X245539Y-111500D01*
Y-64000D01*
X245384Y-63220D01*
X244942Y-62558D01*
X244280Y-62116D01*
X243500Y-61961D01*
X207500D01*
X207500Y-61961D01*
D02*
G37*
G36*
X-162040Y-92187D02*
X-164029D01*
X-165867Y-92948D01*
X-167273Y-94354D01*
X-168034Y-96192D01*
Y-98181D01*
X-167273Y-100019D01*
X-165867Y-101426D01*
X-164029Y-102187D01*
X-162040D01*
X-160202Y-101426D01*
X-158795Y-100019D01*
X-158034Y-98181D01*
Y-96192D01*
X-158795Y-94354D01*
X-160202Y-92948D01*
X-162040Y-92187D01*
D02*
G37*
G36*
X-184630Y-104190D02*
X-205630D01*
Y-114190D01*
X-184630D01*
Y-113778D01*
X-178940D01*
X-177184Y-113429D01*
X-176370Y-112885D01*
X-176201Y-112815D01*
X-176071Y-112685D01*
X-175696Y-112434D01*
X-175506Y-112244D01*
X-175255Y-111868D01*
X-174935Y-111549D01*
X-174762Y-111132D01*
X-174511Y-110756D01*
X-174423Y-110312D01*
X-174250Y-109895D01*
Y-109443D01*
X-174162Y-109000D01*
X-174250Y-108557D01*
Y-108105D01*
X-174423Y-107687D01*
X-174511Y-107244D01*
X-174762Y-106868D01*
X-174935Y-106451D01*
X-175255Y-106131D01*
X-175506Y-105756D01*
X-175882Y-105505D01*
X-176201Y-105185D01*
X-176618Y-105012D01*
X-176994Y-104761D01*
X-177437Y-104673D01*
X-177855Y-104500D01*
X-178307D01*
X-178750Y-104412D01*
X-179193Y-104500D01*
X-179645D01*
X-179891Y-104602D01*
X-184630D01*
Y-104190D01*
D02*
G37*
G36*
X10500Y-106892D02*
X9958Y-107000D01*
X4000D01*
Y-118000D01*
X4000D01*
X4045Y-118249D01*
X2982Y-119500D01*
X-1958D01*
X-2500Y-119392D01*
X-3042Y-119500D01*
X-9000D01*
Y-130500D01*
X-8108D01*
Y-132000D01*
X-9000D01*
Y-132252D01*
X-22359D01*
X-23132Y-132406D01*
X-31811D01*
Y-141994D01*
X-24408D01*
X-24309Y-142060D01*
X-22359Y-142448D01*
X-9000D01*
Y-143000D01*
X-3042D01*
X-2500Y-143108D01*
X-1958Y-143000D01*
X4000Y-143000D01*
X5270Y-143000D01*
X9958D01*
X10500Y-143108D01*
X25750D01*
X27896Y-142681D01*
X29715Y-141465D01*
X35141Y-136039D01*
X127155D01*
X130211Y-139095D01*
Y-158155D01*
X106405Y-181961D01*
X59750Y-181961D01*
X58970Y-182116D01*
X58308Y-182558D01*
X58308Y-182558D01*
X55058Y-185808D01*
X54616Y-186470D01*
X54461Y-187250D01*
Y-230000D01*
X54616Y-230780D01*
X55058Y-231442D01*
X58058Y-234442D01*
X58058Y-234442D01*
X58720Y-234884D01*
X59500Y-235039D01*
X110500D01*
X111280Y-234884D01*
X111942Y-234442D01*
X111942Y-234442D01*
X120942Y-225442D01*
X121384Y-224780D01*
X121539Y-224000D01*
Y-189095D01*
X143595Y-167039D01*
X156711D01*
Y-206750D01*
X156711Y-206750D01*
X156866Y-207530D01*
X157308Y-208192D01*
X157308Y-208192D01*
X158308Y-209192D01*
X158970Y-209634D01*
X159750Y-209789D01*
X168250D01*
X169030Y-209634D01*
X169692Y-209192D01*
X169692Y-209192D01*
X172942Y-205942D01*
X173384Y-205280D01*
X173539Y-204500D01*
Y-124500D01*
X173539Y-124500D01*
X173384Y-123720D01*
X172942Y-123058D01*
X172942Y-123058D01*
X168442Y-118558D01*
X167780Y-118116D01*
X167000Y-117961D01*
X90345D01*
X82942Y-110558D01*
X82280Y-110116D01*
X81500Y-109961D01*
X46250D01*
X45470Y-110116D01*
X44808Y-110558D01*
X44808Y-110558D01*
X33026Y-122340D01*
X32885Y-122434D01*
X23427Y-131892D01*
X10500D01*
X9958Y-132000D01*
X4804Y-132000D01*
X4367Y-131250D01*
X4804Y-130500D01*
X9958D01*
X10500Y-130608D01*
X11042Y-130500D01*
X17000D01*
Y-119500D01*
X16108D01*
Y-118000D01*
X17000D01*
Y-107000D01*
X11042D01*
X10500Y-106892D01*
D02*
G37*
G36*
X-212630Y-120691D02*
X-244630D01*
Y-134691D01*
X-212630D01*
Y-120691D01*
D02*
G37*
G36*
X10500Y-144392D02*
X9958Y-144500D01*
X4000Y-144500D01*
X2730Y-144500D01*
X-9000D01*
Y-144852D01*
X-22257D01*
X-22508Y-144802D01*
X-24037Y-145106D01*
X-31811D01*
Y-154694D01*
X-24238D01*
X-22459Y-155048D01*
X-9000D01*
Y-155500D01*
X2730D01*
X4000Y-155500D01*
X4892Y-156400D01*
Y-166500D01*
X5000Y-167042D01*
Y-173000D01*
X16000D01*
Y-167042D01*
X16108Y-166500D01*
Y-155500D01*
X17000D01*
Y-144500D01*
X11042D01*
X10500Y-144392D01*
D02*
G37*
G36*
X-212628Y-136770D02*
X-244627D01*
Y-150770D01*
X-212628D01*
Y-136770D01*
D02*
G37*
G36*
X-34923Y-136978D02*
X-64577D01*
Y-175522D01*
X-38754D01*
X-38228Y-176792D01*
X-45373Y-183936D01*
X-100500D01*
X-101768Y-184189D01*
X-102843Y-184907D01*
X-110441Y-192505D01*
X-111711Y-191978D01*
Y-176345D01*
X-103905Y-168539D01*
X-69500D01*
X-68720Y-168384D01*
X-68058Y-167942D01*
X-68058Y-167942D01*
X-66558Y-166442D01*
X-66116Y-165780D01*
X-65961Y-165000D01*
Y-160000D01*
X-66116Y-159220D01*
X-66558Y-158558D01*
X-66558Y-158558D01*
X-68308Y-156808D01*
X-68970Y-156366D01*
X-69750Y-156211D01*
X-90250D01*
Y-154538D01*
X-86294D01*
Y-154694D01*
X-67689D01*
Y-145106D01*
X-86294D01*
Y-145362D01*
X-90250D01*
Y-143500D01*
X-101250D01*
Y-156211D01*
X-104155D01*
X-109812Y-150554D01*
Y-150500D01*
X-109866D01*
X-112558Y-147808D01*
X-113220Y-147366D01*
X-114000Y-147211D01*
X-131000D01*
X-131000Y-147211D01*
X-131780Y-147366D01*
X-132442Y-147808D01*
X-138192Y-153558D01*
X-138634Y-154220D01*
X-138789Y-155000D01*
Y-175655D01*
X-144095Y-180961D01*
X-181750D01*
X-181750Y-180961D01*
X-182530Y-181116D01*
X-183192Y-181558D01*
X-183192Y-181558D01*
X-184442Y-182808D01*
X-184884Y-183470D01*
X-185039Y-184250D01*
Y-197500D01*
X-185039Y-197500D01*
X-184884Y-198280D01*
X-184442Y-198942D01*
X-182692Y-200692D01*
X-182692Y-200692D01*
X-182030Y-201134D01*
X-181250Y-201289D01*
X-136250Y-201289D01*
X-135470Y-201134D01*
X-134808Y-200692D01*
X-133405Y-199289D01*
X-127000D01*
Y-203958D01*
X-127108Y-204500D01*
Y-220000D01*
X-127000Y-220542D01*
Y-226500D01*
X-116000D01*
Y-220542D01*
X-115892Y-220000D01*
Y-205778D01*
X-115715D01*
X-114446Y-205526D01*
X-113371Y-204808D01*
X-99127Y-190564D01*
X-94803D01*
X-94550Y-191834D01*
X-95582Y-192261D01*
X-96989Y-193668D01*
X-97750Y-195505D01*
Y-197495D01*
X-96989Y-199332D01*
X-95582Y-200739D01*
X-93745Y-201500D01*
X-91755D01*
X-90761Y-201088D01*
X-58584D01*
Y-201500D01*
X-49584D01*
Y-196943D01*
X-49496Y-196500D01*
X-49584Y-196057D01*
Y-192766D01*
X-48452Y-191500D01*
X-47924D01*
X-47916Y-191509D01*
Y-196057D01*
X-48004Y-196500D01*
Y-211084D01*
X-47655Y-212840D01*
X-46660Y-214328D01*
X-46389Y-214600D01*
X-46181Y-215646D01*
X-45778Y-216250D01*
X-45570Y-217827D01*
X-44865Y-219530D01*
X-43742Y-220992D01*
X-42280Y-222115D01*
X-42257Y-222124D01*
X-40250Y-224131D01*
Y-241146D01*
X-13250D01*
Y-236560D01*
X26392D01*
X28219Y-236320D01*
X29922Y-235614D01*
X31384Y-234492D01*
X37242Y-228635D01*
X38364Y-227172D01*
X39070Y-225469D01*
X39310Y-223642D01*
Y-220876D01*
X45250D01*
Y-194876D01*
X25250D01*
Y-210417D01*
X25190Y-210876D01*
Y-220718D01*
X23468Y-222440D01*
X-13250D01*
Y-214146D01*
X-30265D01*
X-33403Y-211008D01*
X-34866Y-209886D01*
X-36569Y-209180D01*
X-37810Y-209017D01*
X-38828Y-208337D01*
Y-201088D01*
X-36250D01*
X-34494Y-200739D01*
X-33006Y-199744D01*
X-19264Y-186003D01*
X-18270Y-184514D01*
X-17920Y-182759D01*
Y-180094D01*
X-13206D01*
Y-170506D01*
X-28577D01*
X-29063Y-169333D01*
X-27125Y-167394D01*
X-13206D01*
Y-157806D01*
X-31811D01*
Y-162708D01*
X-33750Y-164646D01*
X-34923Y-164160D01*
Y-136978D01*
D02*
G37*
G36*
X-152451Y-144961D02*
X-176799D01*
X-176996Y-145000D01*
X-177197D01*
X-177383Y-145037D01*
X-177568Y-145114D01*
X-177579Y-145116D01*
X-177589Y-145122D01*
X-177911Y-145256D01*
X-177922Y-145258D01*
X-177932Y-145265D01*
X-178118Y-145341D01*
X-178275Y-145446D01*
X-178417Y-145588D01*
X-178584Y-145700D01*
X-184845Y-151961D01*
X-184845Y-151961D01*
X-188095Y-155211D01*
X-209750D01*
X-209750Y-155211D01*
X-210530Y-155366D01*
X-211192Y-155808D01*
X-212050Y-156666D01*
X-212162Y-156833D01*
X-212304Y-156975D01*
X-212409Y-157132D01*
X-212486Y-157318D01*
X-212492Y-157328D01*
X-212494Y-157339D01*
X-212628Y-157661D01*
X-212634Y-157670D01*
X-212636Y-157682D01*
X-212713Y-157867D01*
X-212750Y-158053D01*
Y-158254D01*
X-212789Y-158451D01*
X-212789Y-165326D01*
X-212754Y-165505D01*
X-212757Y-165524D01*
X-212756Y-165548D01*
X-212742Y-165608D01*
X-212737Y-165784D01*
X-212706Y-165920D01*
X-212644Y-166058D01*
X-212634Y-166106D01*
X-212634Y-166107D01*
X-212602Y-166266D01*
X-212584Y-166293D01*
X-212577Y-166324D01*
X-212483Y-166456D01*
X-212482Y-166457D01*
X-212454Y-166496D01*
X-212396Y-166636D01*
X-212319Y-166752D01*
X-212194Y-166877D01*
X-212160Y-166928D01*
X-212143Y-166945D01*
X-212126Y-166956D01*
X-212021Y-167104D01*
X-210819Y-168235D01*
X-210508Y-168430D01*
X-210202Y-168634D01*
X-210171Y-168640D01*
X-210145Y-168657D01*
X-209782Y-168718D01*
X-209422Y-168789D01*
X-187707D01*
X-185135Y-171539D01*
X-185135Y-171539D01*
X-178607Y-178517D01*
X-178475Y-178612D01*
X-178475Y-178612D01*
X-178460Y-178623D01*
X-178448Y-178641D01*
X-178428Y-178660D01*
X-178373Y-178697D01*
X-178250Y-178820D01*
X-178139Y-178895D01*
X-178003Y-178951D01*
X-177960Y-178981D01*
X-177960Y-178981D01*
X-177829Y-179076D01*
X-177795Y-179083D01*
X-177767Y-179102D01*
X-177557Y-179144D01*
X-177423Y-179205D01*
X-177292Y-179236D01*
X-177119Y-179241D01*
X-177054Y-179257D01*
X-177026Y-179258D01*
X-177005Y-179254D01*
X-176986Y-179258D01*
X-176986D01*
X-176828Y-179289D01*
X-152701Y-179289D01*
X-152504Y-179250D01*
X-152303Y-179250D01*
X-152117Y-179213D01*
X-151932Y-179136D01*
X-151920Y-179134D01*
X-151911Y-179128D01*
X-151589Y-178994D01*
X-151578Y-178992D01*
X-151568Y-178986D01*
X-151382Y-178909D01*
X-151225Y-178804D01*
X-151083Y-178662D01*
X-150916Y-178550D01*
X-146200Y-173834D01*
X-146088Y-173667D01*
X-145946Y-173525D01*
X-145841Y-173368D01*
X-145765Y-173182D01*
X-145758Y-173172D01*
X-145756Y-173161D01*
X-145623Y-172839D01*
X-145616Y-172830D01*
X-145614Y-172818D01*
X-145537Y-172633D01*
X-145500Y-172447D01*
Y-172246D01*
X-145461Y-172049D01*
Y-151951D01*
X-145500Y-151754D01*
X-145500Y-151553D01*
X-145537Y-151367D01*
X-145614Y-151182D01*
X-145616Y-151170D01*
X-145623Y-151161D01*
X-145756Y-150839D01*
X-145758Y-150828D01*
X-145765Y-150818D01*
X-145841Y-150632D01*
X-145946Y-150475D01*
X-146088Y-150333D01*
X-146200Y-150166D01*
X-147818Y-148548D01*
X-147818Y-148548D01*
X-150666Y-145700D01*
X-150833Y-145588D01*
X-150975Y-145446D01*
X-151132Y-145341D01*
X-151318Y-145265D01*
X-151328Y-145258D01*
X-151339Y-145256D01*
X-151661Y-145122D01*
X-151670Y-145116D01*
X-151682Y-145114D01*
X-151867Y-145037D01*
X-152053Y-145000D01*
X-152254D01*
X-152451Y-144961D01*
D02*
G37*
G36*
X-91755Y-170250D02*
X-93745D01*
X-95582Y-171011D01*
X-96989Y-172418D01*
X-97750Y-174255D01*
Y-176245D01*
X-96989Y-178082D01*
X-95582Y-179489D01*
X-93745Y-180250D01*
X-91755D01*
X-90882Y-179888D01*
X-86294D01*
Y-180094D01*
X-67689D01*
Y-170506D01*
X-86294D01*
Y-170712D01*
X-90640D01*
X-91755Y-170250D01*
D02*
G37*
G36*
X-212630Y-186269D02*
X-244630D01*
Y-200270D01*
X-212630D01*
Y-186269D01*
D02*
G37*
G36*
X224216Y-203378D02*
X220375D01*
X216607Y-204127D01*
X213059Y-205597D01*
X209865Y-207731D01*
X207148Y-210448D01*
X205014Y-213641D01*
X203544Y-217190D01*
X202795Y-220958D01*
Y-224799D01*
X203544Y-228566D01*
X205014Y-232115D01*
X207148Y-235309D01*
X209865Y-238025D01*
X213059Y-240160D01*
X216607Y-241630D01*
X220375Y-242379D01*
X224216D01*
X227984Y-241630D01*
X231533Y-240160D01*
X234727Y-238025D01*
X237443Y-235309D01*
X239577Y-232115D01*
X241047Y-228566D01*
X241796Y-224799D01*
Y-220958D01*
X241047Y-217190D01*
X239577Y-213641D01*
X237443Y-210448D01*
X234727Y-207731D01*
X231533Y-205597D01*
X227984Y-204127D01*
X224216Y-203378D01*
D02*
G37*
G36*
X-220784D02*
X-224625D01*
X-228393Y-204127D01*
X-231941Y-205597D01*
X-235135Y-207731D01*
X-237852Y-210448D01*
X-239986Y-213641D01*
X-241456Y-217190D01*
X-242205Y-220958D01*
Y-224799D01*
X-241456Y-228566D01*
X-239986Y-232115D01*
X-237852Y-235309D01*
X-235135Y-238025D01*
X-231941Y-240160D01*
X-228393Y-241630D01*
X-224625Y-242379D01*
X-220784D01*
X-217016Y-241630D01*
X-213467Y-240160D01*
X-210273Y-238025D01*
X-207557Y-235309D01*
X-205423Y-232115D01*
X-203953Y-228566D01*
X-203204Y-224799D01*
Y-220958D01*
X-203953Y-217190D01*
X-205423Y-213641D01*
X-207557Y-210448D01*
X-210273Y-207731D01*
X-213467Y-205597D01*
X-217016Y-204127D01*
X-220784Y-203378D01*
D02*
G37*
G36*
X139770Y-213127D02*
X125770D01*
Y-245127D01*
X139770D01*
Y-213127D01*
D02*
G37*
G36*
X189270Y-213130D02*
X175270D01*
Y-245130D01*
X189270D01*
Y-213130D01*
D02*
G37*
%LPD*%
G36*
X242250Y181500D02*
Y141500D01*
X238500Y137750D01*
X218250D01*
X215000Y141000D01*
Y181250D01*
X219500Y185750D01*
X238000D01*
X242250Y181500D01*
D02*
G37*
G36*
X243500Y-111500D02*
X222000Y-133000D01*
Y-149250D01*
X219250Y-152000D01*
X203500D01*
X201250Y-154250D01*
Y-163250D01*
X196250Y-168250D01*
X184500D01*
X177750Y-161500D01*
Y-119500D01*
X172750Y-114500D01*
X139000D01*
X136750Y-112250D01*
Y-107000D01*
Y-102250D01*
X140250Y-98750D01*
X172750D01*
X207500Y-64000D01*
X243500D01*
Y-111500D01*
D02*
G37*
G36*
X89500Y-120000D02*
X167000D01*
X171500Y-124500D01*
Y-204500D01*
X168250Y-207750D01*
X159750D01*
X158750Y-206750D01*
Y-165000D01*
X142750D01*
X119500Y-188250D01*
Y-224000D01*
X110500Y-233000D01*
X59500D01*
X56500Y-230000D01*
Y-187250D01*
X59750Y-184000D01*
X107250Y-184000D01*
X132250Y-159000D01*
Y-138250D01*
X128000Y-134000D01*
X33750D01*
Y-124500D01*
X46250Y-112000D01*
X81500D01*
X89500Y-120000D01*
D02*
G37*
G36*
X-105250Y-158000D02*
Y-158250D01*
X-69750D01*
X-68000Y-160000D01*
Y-165000D01*
X-69500Y-166500D01*
X-104750D01*
X-113750Y-175500D01*
Y-193750D01*
X-117250Y-197250D01*
X-134250D01*
X-136250Y-199250D01*
X-181250Y-199250D01*
X-183000Y-197500D01*
Y-184250D01*
X-181750Y-183000D01*
X-143250D01*
X-136750Y-176500D01*
Y-155000D01*
X-131000Y-149250D01*
X-114000D01*
X-105250Y-158000D01*
D02*
G37*
G36*
X-152265Y-147037D02*
X-152108Y-147142D01*
X-149260Y-149990D01*
X-147642Y-151608D01*
X-147537Y-151765D01*
X-147500Y-151951D01*
Y-172049D01*
X-147537Y-172235D01*
X-147642Y-172392D01*
X-152358Y-177108D01*
X-152515Y-177213D01*
X-152701Y-177250D01*
X-176828Y-177250D01*
X-176959Y-177219D01*
X-176986Y-177218D01*
X-177006Y-177199D01*
X-177118Y-177124D01*
X-183646Y-170146D01*
X-183646Y-170146D01*
X-186823Y-166750D01*
X-209422D01*
X-210623Y-165620D01*
X-210701Y-165503D01*
X-210718Y-165486D01*
X-210719Y-165462D01*
X-210750Y-165326D01*
Y-164750D01*
X-210750Y-158451D01*
X-210713Y-158265D01*
X-210608Y-158108D01*
X-209750Y-157250D01*
X-187250D01*
X-183403Y-153403D01*
X-183403Y-153403D01*
X-177142Y-147142D01*
X-176985Y-147037D01*
X-176799Y-147000D01*
X-152451D01*
X-152265Y-147037D01*
D02*
G37*
D10*
X142000Y-20500D02*
X128500Y-7000D01*
X65750D01*
X56250Y2500D01*
X46250D01*
X46650Y7100D02*
X65400D01*
X70750Y1750D01*
X133000D01*
X141500Y-6750D01*
X109750Y39250D02*
X120500Y50000D01*
X141000D01*
X109750Y39250D02*
X84750D01*
X73000Y27500D01*
X46250D01*
Y7500D02*
X46650Y7100D01*
X-80525Y98725D02*
X-80500Y98750D01*
X-80525Y98725D02*
Y79325D01*
X-80550Y79300D01*
X-107350Y62500D02*
X-113750D01*
X-115000Y63750D01*
Y128750D01*
X-125250Y139000D01*
X-125500Y123750D02*
Y59750D01*
X-123250Y57500D01*
X-107350D01*
X-107350Y57500D01*
X-96250Y167750D02*
X-112471Y183971D01*
Y195231D01*
X-99972D02*
Y184972D01*
X-82250Y167250D01*
D12*
X-44000Y-187250D02*
X-33673Y-176923D01*
Y-169256D01*
X-27017Y-162600D01*
X-22508D01*
X-44000Y-187250D02*
X-100500D01*
X-115715Y-202465D01*
X-119465D01*
X-121500Y-204500D01*
X-50000Y-111250D02*
X-30550Y-91800D01*
Y-74300D01*
X-35550D02*
X-35700Y-74450D01*
Y-83041D01*
X-50409Y-97750D01*
X-145000D01*
Y-111250D02*
X-50000D01*
X-82885Y-89250D02*
Y-88515D01*
X-85550Y-85850D01*
Y-74300D01*
X-80550D02*
Y-63700D01*
X-86000Y-58250D01*
X-75700Y-54800D02*
X-78250Y-52250D01*
Y-48000D01*
X-93250Y-37500D02*
X-92375Y-36625D01*
X-93250Y-35750D02*
Y-35581D01*
X-96331Y-32500D01*
X-107350D01*
Y-37500D02*
X-93250D01*
X-75700Y-54800D02*
Y-74150D01*
X-75550Y-74300D01*
X-90550D02*
X-90700Y-74450D01*
Y-85253D01*
X-93750Y-88303D01*
Y-89250D01*
X-70550Y-74300D02*
X-70400Y-74150D01*
Y-26400D01*
X-70250Y-26250D01*
X-55250Y-17750D02*
Y-55864D01*
X-60550Y-61164D01*
Y-74300D01*
X-65550D02*
Y-59800D01*
X-63750Y-58000D01*
Y-35500D01*
Y-3250D01*
X-48500Y12000D01*
Y12250D01*
X-48250Y-4750D02*
Y-41250D01*
X-50500Y-43500D01*
Y-74250D01*
X-50550Y-74300D01*
X-45550D02*
Y-63300D01*
X-42500Y-60250D01*
Y14500D01*
X-55746Y27746D01*
Y36599D01*
X-36875Y12125D02*
X-36750Y12250D01*
X-36875Y12125D02*
Y-19375D01*
X-36750Y-19500D01*
X-64000Y-35250D02*
X-63750Y-35500D01*
X-96250Y-27500D02*
X-93250Y-24500D01*
X-96250Y-27500D02*
X-107350D01*
X-94776Y-2350D02*
X-93926Y-1500D01*
X-93250D01*
X-76500Y15250D01*
Y59750D01*
X-72250Y64000D01*
X-82385D02*
Y64585D01*
X-85550Y67750D01*
Y79300D01*
X-90550D02*
Y67647D01*
X-93250Y64947D01*
Y64000D01*
Y40500D02*
X-93920Y39830D01*
X-96428D01*
X-98609Y37650D01*
X-107200D01*
X-107350Y37500D01*
Y42500D02*
X-117324D01*
X-119324Y40500D01*
X-120000D01*
X-118750Y47500D02*
X-107350D01*
X-118750D02*
X-136243D01*
X-132000Y28250D02*
X-128000D01*
X-117400Y17650D01*
X-107500D01*
X-107350Y17500D01*
Y12500D02*
X-94927D01*
X-93926Y11500D01*
X-93250D01*
X-94776Y-2350D02*
X-107200D01*
X-107350Y-2500D01*
X-118500D01*
X-129089Y-13089D01*
Y-15160D01*
X-129000Y-15250D01*
X-107350Y2500D02*
X-125500D01*
X-127250Y750D01*
X-127000Y9000D02*
X-125500Y7500D01*
X-107350D01*
X-93250Y25750D02*
X-93250Y25750D01*
X-93250Y25750D02*
Y28750D01*
X-97000Y32500D01*
X-107350D01*
X-70550Y79300D02*
X-70525Y79325D01*
Y106475D01*
X-117023Y152973D01*
X-124973D01*
X-137250Y168250D02*
Y168778D01*
X-137472Y169000D01*
X-111728Y167772D02*
X-109022D01*
X-61750Y120500D01*
X-62250D02*
Y95750D01*
X-65550Y92450D01*
Y79300D01*
X-60550D02*
X-60400Y79450D01*
Y88850D01*
X-52750Y96500D01*
Y97500D01*
X-50500Y99750D01*
X-49500D01*
X-70184Y139316D02*
X-70500Y139632D01*
Y177250D01*
X-74971Y181721D01*
Y195231D01*
X-124973D02*
Y189732D01*
X-149861Y195121D02*
X-149972Y195231D01*
X-149861Y195121D02*
Y168611D01*
X-149750Y168500D01*
X-162250D02*
X-162471Y168721D01*
Y195231D01*
X-175737Y107040D02*
X-175697Y107000D01*
X-5550Y79300D02*
Y105200D01*
X-5250Y105500D01*
X14600Y92850D02*
X20750Y99000D01*
X140500D01*
X155000Y113500D01*
Y125250D01*
Y136500D01*
X179638Y161138D01*
X209500D01*
Y147026D02*
X182526D01*
X166000Y130500D01*
Y108750D01*
X149750Y92500D01*
X24059D01*
X19600Y88041D01*
Y79450D01*
X19450Y79300D01*
X14600Y79450D02*
Y92850D01*
Y79450D02*
X14450Y79300D01*
X9600Y79450D02*
Y107350D01*
X14250Y112000D01*
X120535D01*
X122000Y113464D01*
Y125250D01*
X135500Y105250D02*
X144000Y113750D01*
Y138500D01*
X180750Y175250D01*
X209500D01*
X135500Y105250D02*
X20750D01*
X9600Y79450D02*
X9450Y79300D01*
X32750Y64750D02*
X33581D01*
X35831Y62500D01*
X46250D01*
Y57500D02*
X59053D01*
X61303Y59750D01*
X62250D01*
Y48750D02*
X61303D01*
X57703Y52350D01*
X46400D01*
X46250Y52500D01*
X46100Y57350D02*
X46250Y57500D01*
X46100Y57350D02*
X37047D01*
X33447Y53750D01*
X32500D01*
X46250Y47500D02*
X46400Y47350D01*
X54991D01*
X62022Y40319D01*
Y39228D01*
X62500Y38750D01*
X65750Y32500D02*
X81750Y48500D01*
X105750D01*
X122250Y65000D01*
X141000D01*
X99750Y22250D02*
X90000Y12500D01*
X46250D01*
Y17500D02*
X64000D01*
X68250Y21750D01*
X89000D01*
X65750Y32500D02*
X46250D01*
Y-27500D02*
X57250D01*
X62250Y-22500D01*
X57800Y-32500D02*
X61772Y-36472D01*
Y-37272D01*
X62250Y-37750D01*
X57800Y-32500D02*
X46250D01*
X32115Y-59500D02*
Y-60085D01*
X29450Y-62750D01*
Y-74300D01*
X24450D02*
Y-62750D01*
X21500Y-59800D01*
Y-59500D01*
X19450Y-74300D02*
Y-86468D01*
X17615Y-88303D01*
Y-89250D01*
X24450Y-85585D02*
X28115Y-89250D01*
X24450Y-85585D02*
Y-74300D01*
X99875Y125375D02*
X100000Y125250D01*
X99875Y158625D02*
X99750Y158750D01*
X99375Y159125D01*
X62375D02*
X62000Y159500D01*
X72750Y174000D02*
X72750Y174000D01*
X52000Y174000D02*
Y173500D01*
X45728Y167228D01*
X41978D01*
X41500Y166750D01*
X-250Y194734D02*
X0Y194984D01*
X-250Y194734D02*
Y167250D01*
D51*
X-49750Y-156250D02*
D03*
D52*
X-22508Y-175300D02*
D03*
Y-162600D02*
D03*
Y-149900D02*
D03*
Y-137200D02*
D03*
X-76992Y-137200D02*
D03*
X-76992Y-149900D02*
D03*
Y-162600D02*
D03*
Y-175300D02*
D03*
D59*
X10500Y-150000D02*
D03*
Y-137500D02*
D03*
Y-125000D02*
D03*
X10500Y-112500D02*
D03*
X-2500D02*
D03*
X-2500Y-125000D02*
D03*
Y-137500D02*
D03*
Y-150000D02*
D03*
D60*
X46250Y-57500D02*
D03*
Y-52500D02*
D03*
Y-47500D02*
D03*
Y-42500D02*
D03*
Y-37500D02*
D03*
Y-32500D02*
D03*
Y-27500D02*
D03*
Y-22500D02*
D03*
Y-17500D02*
D03*
Y-12500D02*
D03*
Y-7500D02*
D03*
Y-2500D02*
D03*
Y2500D02*
D03*
Y7500D02*
D03*
Y12500D02*
D03*
Y17500D02*
D03*
Y22500D02*
D03*
Y27500D02*
D03*
Y32500D02*
D03*
Y37500D02*
D03*
Y42500D02*
D03*
Y47500D02*
D03*
Y52500D02*
D03*
Y57500D02*
D03*
Y62500D02*
D03*
X-107350D02*
D03*
Y57500D02*
D03*
Y52500D02*
D03*
Y47500D02*
D03*
Y42500D02*
D03*
Y37500D02*
D03*
Y32500D02*
D03*
Y27500D02*
D03*
Y22500D02*
D03*
Y17500D02*
D03*
Y12500D02*
D03*
Y7500D02*
D03*
Y2500D02*
D03*
Y-2500D02*
D03*
Y-7500D02*
D03*
Y-12500D02*
D03*
Y-17500D02*
D03*
Y-22500D02*
D03*
Y-27500D02*
D03*
Y-32500D02*
D03*
Y-37500D02*
D03*
Y-42500D02*
D03*
Y-47500D02*
D03*
Y-52500D02*
D03*
Y-57500D02*
D03*
D61*
X9450Y-74300D02*
D03*
X14450D02*
D03*
X19450D02*
D03*
X24450D02*
D03*
X29450D02*
D03*
X4450D02*
D03*
X-550D02*
D03*
X-5550D02*
D03*
X-10550D02*
D03*
X-15550D02*
D03*
X-20550D02*
D03*
X-25550D02*
D03*
X-30550D02*
D03*
X-35550D02*
D03*
X-40550D02*
D03*
X-45550D02*
D03*
X-50550D02*
D03*
X-55550D02*
D03*
X-60550D02*
D03*
X-65550D02*
D03*
X-70550D02*
D03*
X-75550D02*
D03*
X-80550D02*
D03*
X-85550D02*
D03*
X-90550D02*
D03*
X9450Y79300D02*
D03*
X14450D02*
D03*
X19450D02*
D03*
X24450D02*
D03*
X29450D02*
D03*
X4450D02*
D03*
X-550D02*
D03*
X-5550D02*
D03*
X-10550D02*
D03*
X-15550D02*
D03*
X-20550D02*
D03*
X-25550D02*
D03*
X-30550D02*
D03*
X-35550D02*
D03*
X-40550D02*
D03*
X-45550D02*
D03*
X-50550D02*
D03*
X-55550D02*
D03*
X-60550D02*
D03*
X-65550D02*
D03*
X-70550D02*
D03*
X-75550D02*
D03*
X-80550D02*
D03*
X-85550D02*
D03*
X-90550D02*
D03*
D62*
X77750Y217500D02*
D03*
D63*
X189750Y233250D02*
D03*
D64*
X166000Y125250D02*
D03*
X155000D02*
D03*
X144000D02*
D03*
X133000D02*
D03*
X122000D02*
D03*
X111000D02*
D03*
X100000D02*
D03*
X89000D02*
D03*
D65*
X74500Y202500D02*
D03*
D66*
X193750Y209000D02*
D03*
D67*
X77000Y126500D02*
D03*
D68*
X190500Y126500D02*
D03*
D69*
X-121500Y-233000D02*
D03*
Y-220000D02*
D03*
Y-204500D02*
D03*
Y-191500D02*
D03*
X-95750Y-150000D02*
D03*
Y-137000D02*
D03*
X10500Y-166500D02*
D03*
Y-179500D02*
D03*
D70*
X-171250Y-210750D02*
D03*
X-149250D02*
D03*
Y-191750D02*
D03*
X-171250D02*
D03*
X50750Y-145000D02*
D03*
X72750D02*
D03*
Y-126000D02*
D03*
X50750D02*
D03*
D71*
X-228630Y-193270D02*
D03*
X-228627Y-143770D02*
D03*
X-228630Y-127691D02*
D03*
Y-65690D02*
D03*
X227630Y-52251D02*
D03*
Y9750D02*
D03*
X228130Y33690D02*
D03*
Y95691D02*
D03*
D72*
X-195127Y-174771D02*
D03*
Y-162274D02*
D03*
X-195130Y-109190D02*
D03*
Y-96691D02*
D03*
Y-84191D02*
D03*
X194130Y-33750D02*
D03*
Y-21251D02*
D03*
Y-8751D02*
D03*
X194630Y52191D02*
D03*
Y64691D02*
D03*
Y77190D02*
D03*
D73*
X-121812Y-162000D02*
D03*
X-165500D02*
D03*
D74*
X-143000Y-39500D02*
D03*
X-156000D02*
D03*
X-147750Y71250D02*
D03*
X-160750D02*
D03*
X-49500Y99750D02*
D03*
X-36500D02*
D03*
D75*
X-214508Y-27750D02*
D03*
Y36250D02*
D03*
D76*
X163771Y-195627D02*
D03*
X151274D02*
D03*
X-62471Y195231D02*
D03*
X-74971D02*
D03*
X-87473D02*
D03*
X-99972D02*
D03*
X-112471D02*
D03*
X-124973D02*
D03*
X-137472D02*
D03*
X-149972D02*
D03*
X-162471D02*
D03*
X-174970D02*
D03*
D77*
X182269Y-229130D02*
D03*
X132770Y-229128D02*
D03*
X-43970Y228731D02*
D03*
X-193469Y228734D02*
D03*
D78*
X30000Y194984D02*
D03*
X40000D02*
D03*
X20000D02*
D03*
X10000D02*
D03*
X0D02*
D03*
X-10000D02*
D03*
D79*
X53000Y233734D02*
D03*
X-23000D02*
D03*
D80*
X214250Y-159000D02*
D03*
Y-146000D02*
D03*
X-142000Y28500D02*
D03*
Y15500D02*
D03*
X-142000Y-3250D02*
D03*
Y-16250D02*
D03*
X-154750Y118750D02*
D03*
Y131750D02*
D03*
X-220250Y150750D02*
D03*
Y163750D02*
D03*
D81*
X-171250Y-15590D02*
D03*
Y27590D02*
D03*
D82*
X-143992Y54750D02*
D03*
X-160992D02*
D03*
D83*
X-175737Y107040D02*
D03*
Y119539D02*
D03*
Y132041D02*
D03*
Y144540D02*
D03*
X-201737D02*
D03*
Y132041D02*
D03*
Y119539D02*
D03*
Y107040D02*
D03*
D84*
X-220000Y117000D02*
D03*
Y134000D02*
D03*
D85*
X209500Y147026D02*
D03*
X219500D02*
D03*
Y161138D02*
D03*
X209500D02*
D03*
Y175250D02*
D03*
X219500D02*
D03*
X62000Y174000D02*
D03*
Y159500D02*
D03*
Y145500D02*
D03*
X52000Y159500D02*
D03*
Y174000D02*
D03*
Y145500D02*
D03*
D86*
X154000Y-130250D02*
D03*
X154000Y-107250D02*
D03*
X154000Y-84250D02*
D03*
D87*
X212000Y-107250D02*
D03*
D88*
X-26750Y-227646D02*
D03*
X-71750D02*
D03*
D89*
X99250Y-207876D02*
D03*
X35250D02*
D03*
D90*
X-43416Y-196500D02*
D03*
X-54084D02*
D03*
D91*
X106945Y-140834D02*
D03*
Y-130166D02*
D03*
X123000D02*
D03*
Y-140834D02*
D03*
X90889D02*
D03*
Y-130166D02*
D03*
D92*
X235250Y-159008D02*
D03*
Y-142008D02*
D03*
D93*
X189500Y-152500D02*
D03*
X144750D02*
D03*
D94*
X-77104Y-233000D02*
X-71750Y-227646D01*
X-38750Y-216000D02*
Y-215750D01*
X-41000Y-213500D01*
X10500Y-166500D02*
Y-150000D01*
X10500Y-137500D02*
X25750D01*
X36851Y-126400D01*
X50350D01*
X50750Y-126000D01*
X10500Y-125000D02*
Y-112500D01*
X10500Y-112500D01*
X-2500Y-125000D02*
Y-137500D01*
X-77104Y-233000D02*
X-121500D01*
X-142250D01*
X-149250Y-226000D01*
Y-210750D01*
X-171250D02*
X-187500D01*
X-195127Y-203123D01*
X-165774Y-162274D02*
X-195127D01*
X-121500Y-220000D02*
Y-204500D01*
X-134000Y-51500D02*
X-129000Y-46500D01*
Y-20500D01*
X-142000Y-16250D02*
Y-30000D01*
Y-39500D01*
X-143000D01*
X-134000Y-51500D02*
X-152000D01*
X-156278Y-47222D01*
Y-39500D01*
X-156000D01*
X-156278D02*
X-205758D01*
X-214508Y-30750D01*
Y-27750D01*
X-199750Y-4750D02*
Y250D01*
X-214508Y36250D02*
Y54492D01*
X-212000Y57000D01*
X-148250Y35750D02*
X-148250D01*
X-142000Y29500D01*
Y28500D01*
Y28250D01*
X-135500D01*
X-133325Y15325D02*
X-130500Y12500D01*
X-133325Y15325D02*
X-142000D01*
Y15500D01*
X-130750Y-2750D02*
X-131250Y-3250D01*
X-142000D01*
X-160992Y54750D02*
Y71250D01*
X-160750D01*
X-36500Y99750D02*
X-26750D01*
X63750Y126250D02*
X76750D01*
X77000Y126500D01*
X62125Y145375D02*
X88875D01*
X89000Y145250D01*
Y125250D01*
X89000Y125250D01*
X99875Y125375D02*
Y158625D01*
X99375Y159125D02*
X62375D01*
X62000Y145500D02*
X62125Y145375D01*
X111000Y145500D02*
Y125250D01*
X133000Y125250D02*
Y145500D01*
X133000Y145500D01*
X190500Y126500D02*
X206750D01*
X193750Y196000D02*
Y209000D01*
X193750Y209000D01*
X84250Y202250D02*
X74750D01*
X74500Y202500D01*
X-174970Y210221D02*
X-175000Y210250D01*
X-174970Y210221D02*
Y195231D01*
D95*
X151250Y-212000D02*
X151274Y-211976D01*
Y-195627D01*
X123000Y-140834D02*
X106945D01*
X90889D01*
X90389D01*
X85723Y-145500D01*
X73250D01*
X72750Y-145000D01*
X50750D01*
Y-157250D01*
X10500Y-150000D02*
X10500Y-150000D01*
X10500Y-179500D02*
X10809Y-179809D01*
Y-192309D01*
X11000Y-192500D01*
X-2500Y-137500D02*
X-2650Y-137350D01*
X-3000Y-112000D02*
Y-89250D01*
X-22508Y-137200D02*
X-22359Y-137350D01*
X-22508Y-175300D02*
Y-182759D01*
X-36250Y-196500D01*
X-43416D01*
Y-211084D01*
X-41000Y-213500D01*
X-54084Y-196500D02*
X-92750D01*
Y-175250D02*
X-92700Y-175300D01*
X-76992D01*
X-77042Y-149950D02*
X-76992Y-149900D01*
X-77042Y-149950D02*
X-95700D01*
X-95750Y-150000D01*
X-95650Y-137100D02*
X-77091D01*
X-76992Y-137200D01*
X-95650Y-137100D02*
X-95750Y-137000D01*
X-121250D01*
X-121500Y-162312D02*
X-121212Y-162600D01*
X-121500Y-162312D02*
X-121812Y-162000D01*
X-121500Y-162312D02*
Y-191500D01*
X-121625Y-191625D01*
X-149125D01*
X-165774Y-162274D02*
X-165500Y-162000D01*
X-195127Y-174771D02*
Y-203123D01*
X-195357Y-175000D02*
X-212500D01*
X-195130Y-109190D02*
X-178940D01*
X-178750Y-109000D01*
X-179000Y-84250D02*
X-179059Y-84191D01*
X-195130D01*
Y-96691D02*
X-195160Y-96720D01*
X-212470D01*
X-212500Y-96750D01*
X-193000Y-30000D02*
X-142000D01*
X-129000Y-20500D02*
Y-18000D01*
X-130750Y-2750D02*
X-129000Y-1000D01*
X-128750Y10750D02*
X-130500Y12500D01*
X-134000Y28250D02*
X-135500D01*
X-146750Y71250D02*
X-145750Y72250D01*
Y73250D01*
X-142000Y77000D01*
Y85500D01*
X-146750Y71250D02*
X-147750D01*
X-151500Y39000D02*
X-148250Y35750D01*
X-199750Y-4750D02*
Y-23250D01*
X-193000Y-30000D01*
X-142191Y102941D02*
Y105191D01*
X-153750Y116750D01*
Y117750D01*
X-154750Y118750D01*
X-142191Y102941D02*
X-142000Y102750D01*
X-154750Y131750D02*
X-154895Y131896D01*
X-175592D01*
X-175737Y132041D01*
Y144540D02*
X-180237D01*
X-199447Y163750D01*
X-220250D01*
Y150750D02*
X-220125Y150625D01*
Y134125D01*
X-220000Y134000D01*
X-218541Y132541D01*
X-202237D01*
X-201737Y132041D01*
Y144540D01*
X-220000Y134000D02*
X-231750D01*
X-231750Y134000D01*
X-231500Y117000D02*
X-220000D01*
X-219500D01*
X-216961Y119539D01*
X-201737D01*
Y107040D01*
X-175737D01*
X-87473Y195231D02*
Y210250D01*
X-62471Y195231D02*
Y210221D01*
X-62500Y210250D01*
X52000Y145500D02*
Y159500D01*
X62000Y174000D02*
X72750D01*
X40000Y194984D02*
Y210000D01*
X40000Y210000D01*
X30000Y210250D02*
Y194984D01*
X111000Y125250D02*
X111000Y125250D01*
X177250Y77000D02*
X177440Y77190D01*
X194630D01*
Y64691D02*
X212691D01*
X212750Y64750D01*
X194630Y52191D02*
X177309D01*
X177250Y52250D01*
Y-9000D02*
X193881D01*
X194130Y-21251D02*
X211249D01*
X194130Y-33750D02*
X177500D01*
X177500Y-33750D01*
X181500Y-70500D02*
X167750Y-84250D01*
X154000D01*
X214250Y-159000D02*
X214254Y-159004D01*
X235246D01*
X235250Y-159008D01*
Y-142008D02*
X236810Y-140448D01*
Y-132461D01*
X240250Y-129021D01*
Y-128750D01*
X34500Y83000D02*
X30515D01*
X30350Y83165D01*
D96*
X-3000Y-112000D02*
X-2500Y-112500D01*
X-129000Y-1000D02*
Y-1000D01*
X-127250Y750D01*
X-127000Y9000D02*
X-128750Y10750D01*
X-128750D01*
X-129000Y-15250D02*
Y-18000D01*
X-132000Y28250D02*
X-134000D01*
X-136243Y47500D02*
X-139992Y51250D01*
X-143492Y54750D01*
X-134500Y58500D02*
Y115000D01*
X-145250Y131750D02*
X-124973Y152027D01*
Y189732D01*
X-137472Y195231D02*
Y169000D01*
Y161278D01*
X-154210Y144540D01*
X-175737D01*
X-154750Y131750D02*
X-145250D01*
X-134500Y58500D02*
X-128500Y52500D01*
X-107350D01*
X-155000Y42500D02*
X-151500Y39000D01*
X-155000Y42500D02*
X-194750D01*
X-200000Y37250D01*
X-213508D01*
X-214508Y36250D01*
X10000Y151000D02*
X34500Y126500D01*
X45500D02*
X20000Y152000D01*
Y194984D01*
X10000D02*
Y151000D01*
X52000Y159500D02*
X53500Y161000D01*
Y163250D01*
X60500Y170250D01*
Y172500D01*
X62000Y174000D01*
D97*
X32250Y-223642D02*
Y-210876D01*
X35250Y-207876D01*
X32250Y-223642D02*
X26392Y-229500D01*
X-24896D01*
X-38396Y-216000D01*
X-38750D01*
X-149250Y-191750D02*
X-149125Y-191625D01*
X-149250Y-191750D02*
X-171250D01*
Y-210750D02*
X-149250D01*
X-171250D02*
Y-231750D01*
X-142000Y-3250D02*
X-155100D01*
X-167440Y-15590D01*
X-171250D01*
X-142000Y15500D02*
X-155350D01*
X-167440Y27590D01*
X-171250D01*
X-214508Y33250D02*
Y36250D01*
Y33250D02*
X-199750Y18492D01*
Y250D01*
D98*
X-76992Y-162600D02*
X-121212D01*
X-22459Y-149950D02*
X-2550D01*
X-2500Y-150000D01*
X-2650Y-137350D02*
X-22359D01*
X-22508Y-149900D02*
X-22459Y-149950D01*
D99*
X52000Y174000D02*
Y204500D01*
X65472Y217972D01*
X77278D01*
X77750Y217500D01*
X105750D01*
X112000Y211250D01*
X159250D01*
X179722Y231722D01*
X188222D01*
X189750Y233250D01*
D100*
X222296Y-222878D02*
D03*
Y221872D02*
D03*
X-222704D02*
D03*
Y-222878D02*
D03*
D101*
X151250Y-212000D02*
D03*
X164250Y-152000D02*
D03*
X189500Y-125250D02*
D03*
Y-109000D02*
D03*
Y-92750D02*
D03*
X212000Y-75500D02*
D03*
X235750Y-96500D02*
D03*
X240250Y-128750D02*
D03*
X235750Y-75250D02*
D03*
X162174Y-20786D02*
D03*
X177500Y-51500D02*
D03*
X181500Y-70500D02*
D03*
X141000Y22250D02*
D03*
X99750D02*
D03*
X89000Y21750D02*
D03*
X62458Y49458D02*
D03*
Y60458D02*
D03*
X32500Y64750D02*
D03*
Y53750D02*
D03*
X20750Y105250D02*
D03*
X-5250Y105500D02*
D03*
X-26750Y99750D02*
D03*
X-82385Y64000D02*
D03*
X-93250D02*
D03*
Y40500D02*
D03*
Y-24500D02*
D03*
Y-35750D02*
D03*
X-70250Y-26250D02*
D03*
X-10750Y0D02*
D03*
X-11000Y47250D02*
D03*
X21500Y-59500D02*
D03*
X16865Y-89250D02*
D03*
X27365D02*
D03*
X32115Y-59500D02*
D03*
X-3000Y-89250D02*
D03*
X50750Y-157250D02*
D03*
X72000Y-201000D02*
D03*
Y-217250D02*
D03*
X11000Y-192500D02*
D03*
X-82885Y-89250D02*
D03*
X-93750D02*
D03*
X-121250Y-137000D02*
D03*
X-92750Y-175250D02*
D03*
Y-196500D02*
D03*
X-171250Y-231750D02*
D03*
X-212500Y-175000D02*
D03*
X-163034Y-97187D02*
D03*
X-212500Y-96750D02*
D03*
X-212000Y57000D02*
D03*
X-142000Y85500D02*
D03*
Y100250D02*
D03*
X-62500Y210250D02*
D03*
X-87473D02*
D03*
X-175000D02*
D03*
X30000D02*
D03*
X40000D02*
D03*
X72750Y174000D02*
D03*
X63750Y126250D02*
D03*
X89000Y145250D02*
D03*
X111000Y145500D02*
D03*
X133000D02*
D03*
X141000Y82500D02*
D03*
X99750Y158750D02*
D03*
X84250Y202250D02*
D03*
X193750Y196000D02*
D03*
D102*
X-145000Y-111250D02*
D03*
Y-97187D02*
D03*
Y-66750D02*
D03*
X-86000Y-58250D02*
D03*
X-64000Y-35250D02*
D03*
X-36750Y-19500D02*
D03*
X379Y-27308D02*
D03*
X-500Y20500D02*
D03*
X-36750Y12250D02*
D03*
X-55746Y36599D02*
D03*
X-48500Y12250D02*
D03*
X-48250Y-4750D02*
D03*
X-55250Y-17750D02*
D03*
X-93250Y-1500D02*
D03*
Y11500D02*
D03*
Y25750D02*
D03*
X-72250Y64000D02*
D03*
X-120000Y40500D02*
D03*
X-78250Y-48000D02*
D03*
X-179000Y-84250D02*
D03*
X-178750Y-109000D02*
D03*
X34500Y83000D02*
D03*
X62500Y38750D02*
D03*
X62250Y-22500D02*
D03*
Y-37500D02*
D03*
X141500Y-20786D02*
D03*
Y-6750D02*
D03*
X177500Y-33750D02*
D03*
X177250Y-9000D02*
D03*
X212750Y-21250D02*
D03*
Y64750D02*
D03*
X177250Y77000D02*
D03*
Y52250D02*
D03*
X161992Y65018D02*
D03*
X141000Y65000D02*
D03*
Y50000D02*
D03*
X206750Y126500D02*
D03*
X235250Y161000D02*
D03*
X41500Y166750D02*
D03*
X45500Y126250D02*
D03*
X34500D02*
D03*
X-250Y167250D02*
D03*
X-24750D02*
D03*
X-33750Y142500D02*
D03*
X-62250Y132500D02*
D03*
X-70184Y139316D02*
D03*
X-62250Y120500D02*
D03*
X-70500Y106000D02*
D03*
X-80500Y100250D02*
D03*
X-82250Y167250D02*
D03*
X-96250Y167750D02*
D03*
X-111750Y168250D02*
D03*
X-137250D02*
D03*
X-125250Y139000D02*
D03*
Y123750D02*
D03*
X-134500Y115000D02*
D03*
X-149750Y168500D02*
D03*
X-162250D02*
D03*
X-231750Y134000D02*
D03*
Y117000D02*
D03*
M02*
