G04*
G04 #@! TF.GenerationSoftware,Altium Limited,Altium Designer,23.7.1 (13)*
G04*
G04 Layer_Color=65535*
%FSLAX44Y44*%
%MOMM*%
G71*
G04*
G04 #@! TF.SameCoordinates,CA0AFEA4-99C7-4052-BA11-7F101D67CBD2*
G04*
G04*
G04 #@! TF.FilePolarity,Positive*
G04*
G01*
G75*
%ADD10C,0.2000*%
%ADD11C,0.2540*%
%ADD12C,0.2500*%
%ADD13C,0.1500*%
%ADD14C,0.1270*%
%ADD15C,0.1200*%
%ADD16C,0.1524*%
%ADD17C,0.0762*%
%ADD18R,1.2700X2.5400*%
G36*
X-171719Y215483D02*
X-177719D01*
X-174719Y206484D01*
X-171719Y215483D01*
D01*
D02*
G37*
D10*
X-12750Y-243146D02*
X-8250Y-238646D01*
Y-216646D01*
X-12750Y-212146D01*
X-37250D01*
Y-243146D02*
X-12750D01*
X-2249Y-184248D02*
Y-181249D01*
X-1249Y-180250D01*
X750D01*
X1750Y-181249D01*
Y-184248D01*
X3749D02*
X-2249D01*
X1750Y-182249D02*
X3749Y-180250D01*
Y-177251D02*
X2749Y-178250D01*
X3749Y-177251D02*
Y-175251D01*
X2749Y-174252D01*
X750D01*
X-250Y-175251D01*
Y-176251D01*
X750Y-178250D01*
X-2249D01*
Y-174252D01*
X18502Y-152249D02*
X19501Y-153249D01*
X21501D01*
X22500Y-152249D01*
X24500D02*
X25499Y-153249D01*
X27499D01*
X28498Y-152249D01*
Y-148251D01*
X27499Y-147251D01*
X25499D01*
X24500Y-148251D01*
Y-149250D01*
X25499Y-150250D01*
X28498D01*
X22500Y-148251D02*
X21501Y-147251D01*
X19501D01*
X18502Y-148251D01*
Y-152249D01*
X18252Y-140749D02*
Y-134751D01*
X21251D01*
X22250Y-135751D01*
Y-137750D01*
X21251Y-138750D01*
X18252D01*
X20251D02*
X22250Y-140749D01*
X25249D02*
X24250Y-139749D01*
X25249Y-140749D02*
X27249D01*
X28248Y-139749D01*
Y-138750D01*
X27249Y-137750D01*
X26249D01*
X27249D01*
X28248Y-136750D01*
Y-135751D01*
X27249Y-134751D01*
X25249D01*
X24250Y-135751D01*
X32001Y-161877D02*
Y-167875D01*
X36000D01*
X37999D02*
X39999D01*
X38999D01*
Y-161877D01*
X37999Y-162877D01*
X85252Y-114999D02*
X86251Y-115999D01*
X88251D01*
X89250Y-114999D01*
X91250D02*
X92249Y-115999D01*
X94249D01*
X95248Y-114999D01*
Y-114000D01*
X94249Y-113000D01*
X91250D01*
Y-114999D01*
Y-113000D02*
X93249Y-111001D01*
X95248Y-110001D01*
X88251D02*
X86251D01*
X85252Y-111001D01*
Y-114999D01*
X89250Y-111001D02*
X88251Y-110001D01*
X102251Y-110251D02*
X101252Y-111251D01*
Y-115249D01*
X102251Y-116249D01*
X104251D01*
X105250Y-115249D01*
Y-111251D02*
X104251Y-110251D01*
X102251D01*
X107250D02*
X111248D01*
Y-111251D01*
X107250Y-115249D01*
Y-116249D01*
X117002Y-115249D02*
X118001Y-116249D01*
X120001D01*
X121000Y-115249D01*
X123000D02*
Y-114250D01*
X123999Y-113250D01*
X123000Y-112250D01*
Y-111251D01*
X123999Y-110251D01*
X125999D01*
X126998Y-111251D01*
Y-112250D01*
X125999Y-113250D01*
X126998Y-114250D01*
Y-115249D01*
X125999Y-116249D01*
X123999D01*
X123000Y-115249D01*
X123999Y-113250D02*
X125999D01*
X121000Y-111251D02*
X120001Y-110251D01*
X118001D01*
X117002Y-111251D01*
Y-115249D01*
X137752Y-165751D02*
X141751D01*
X139752D01*
Y-171749D01*
X143750D02*
Y-165751D01*
X146749D01*
X147749Y-166751D01*
Y-168750D01*
X146749Y-169750D01*
X143750D01*
X149748Y-171749D02*
X151748D01*
X150748D01*
Y-165751D01*
X149748Y-166751D01*
X140498Y-185751D02*
X139498Y-186751D01*
X137499D02*
Y-188750D01*
X136499Y-189750D01*
X133500D01*
Y-191749D02*
Y-185751D01*
X136499D01*
X137499Y-186751D01*
X140498Y-185751D02*
Y-191749D01*
X141498D01*
X139498D01*
X181003Y-164501D02*
X185001D01*
X183002D01*
Y-170499D01*
X187001D02*
Y-164501D01*
X190000D01*
X190999Y-165501D01*
Y-167500D01*
X190000Y-168500D01*
X187001D01*
X192999Y-170499D02*
X196997Y-166500D01*
Y-165501D01*
X195998Y-164501D01*
X193998D01*
X192999Y-165501D01*
Y-170499D02*
X196997D01*
X213751Y-182248D02*
Y-179249D01*
X214751Y-178250D01*
X216750D01*
X217750Y-179249D01*
Y-182248D01*
X219749D02*
X213751D01*
X235251D02*
X241249D01*
Y-179249D01*
X240249Y-178250D01*
X236251D01*
X235251Y-179249D01*
Y-182248D01*
Y-175251D02*
Y-173251D01*
X236251Y-172252D01*
X237250D01*
X238250Y-173251D01*
Y-174251D01*
Y-173251D01*
X239250Y-172252D01*
X240249D01*
X241249Y-173251D01*
Y-175251D01*
X240249Y-176250D01*
X236251D02*
X235251Y-175251D01*
X219749D02*
X218749Y-176250D01*
X217750D01*
X216750Y-175251D01*
X215750Y-176250D01*
X214751D01*
X213751Y-175251D01*
Y-173251D01*
X214751Y-172252D01*
X215750D01*
X216750Y-173251D01*
X217750Y-172252D01*
X218749D01*
X219749Y-173251D01*
Y-175251D01*
X216750D02*
Y-173251D01*
X217750Y-180249D02*
X219749Y-178250D01*
X197000Y-140750D02*
Y-73750D01*
X169000D01*
Y-140750D01*
X197000D01*
X176248Y-68749D02*
X172250D01*
X176248Y-64750D01*
Y-63751D01*
X175249Y-62751D01*
X173249D01*
X172250Y-63751D01*
X170250Y-62751D02*
Y-67749D01*
X169251Y-68749D01*
X167251D01*
X166252Y-67749D01*
Y-62751D01*
X189428Y-42551D02*
X191430D01*
X189428D01*
X188882Y2810D02*
Y5809D01*
X187883Y6809D01*
X185883D01*
X184883Y5809D01*
Y2810D01*
X190882D01*
Y11807D02*
X184883D01*
X187883Y8808D01*
Y12807D01*
X189928Y43390D02*
X191930D01*
X189928D01*
X190882Y86252D02*
X184883D01*
Y89251D01*
X185883Y90250D01*
X187883D01*
X188882Y89251D01*
Y86252D01*
X189882Y92250D02*
X190882Y93249D01*
Y95249D01*
X189882Y96248D01*
X188882D01*
X187883Y95249D01*
Y94249D01*
Y95249D01*
X186883Y96248D01*
X185883D01*
X184883Y95249D01*
Y93249D01*
X185883Y92250D01*
X184000Y105001D02*
X187998Y109000D01*
Y109999D01*
X186999Y110999D01*
X184999D01*
X184000Y109999D01*
Y105001D02*
X187998D01*
X226253Y145277D02*
Y151275D01*
X229252D01*
X230251Y150275D01*
Y148276D01*
X229252Y147276D01*
X226253D01*
X228252D02*
X230251Y145277D01*
X232251D02*
X236249Y149276D01*
Y150275D01*
X235250Y151275D01*
X233250D01*
X232251Y150275D01*
X232750Y159001D02*
X234750D01*
X233750D01*
Y164999D01*
X232750Y163999D01*
X230751D02*
Y162000D01*
X229751Y161000D01*
X226752D01*
Y159001D02*
Y164999D01*
X229751D01*
X230751Y163999D01*
X228752Y161000D02*
X230751Y159001D01*
X230751Y173225D02*
X228752Y175224D01*
X229751D02*
X226752D01*
X229751D02*
X230751Y176224D01*
Y178223D01*
X229751Y179223D01*
X226752D01*
Y173225D01*
X232750D02*
X234750D01*
X233750D01*
Y179223D01*
X232750Y178223D01*
X237749Y174225D02*
Y175224D01*
X238748Y176224D01*
X237749Y177224D01*
Y178223D01*
X238748Y179223D01*
X240748D01*
X241747Y178223D01*
Y177224D01*
X240748Y176224D01*
X241747Y175224D01*
Y174225D01*
X240748Y173225D01*
X238748D01*
X237749Y174225D01*
X238748Y164999D02*
X237749Y163999D01*
Y163000D01*
X238748Y162000D01*
X241748D01*
Y163999D02*
X240748Y164999D01*
X238748D01*
X241748Y163999D02*
Y160001D01*
X240748Y159001D01*
X238748D01*
X237749Y160001D01*
X239248Y151275D02*
X241248D01*
X242247Y150275D01*
Y146277D01*
X241248Y145277D01*
X239248D01*
X238249Y146277D01*
Y150275D01*
X239248Y151275D01*
X236249Y145277D02*
X232251D01*
X238748Y176224D02*
X240748D01*
X182000Y110999D02*
X180001D01*
X181001D01*
Y106001D01*
X180001Y105001D01*
X179001D01*
X178002Y106001D01*
X167000Y109000D02*
X165000D01*
X167000D01*
X44000Y241484D02*
X-14000D01*
X-25000Y220234D02*
X-25000Y198984D01*
X-16000Y198984D01*
X-18001Y193249D02*
X-19001Y192249D01*
X-18001Y193249D02*
Y187251D01*
X-17001D01*
X-19001D01*
X29753Y173000D02*
X32752D01*
X33751Y174000D01*
Y175999D01*
X32752Y176999D01*
X29753D01*
Y171001D01*
Y162499D02*
X32752D01*
X33751Y161499D01*
Y159500D01*
X32752Y158500D01*
X29753D01*
Y156501D02*
Y162499D01*
Y147999D02*
X32752D01*
X33751Y146999D01*
Y145000D01*
X32752Y144000D01*
X29753D01*
Y142001D02*
Y147999D01*
X31752Y144000D02*
X33751Y142001D01*
X35751D02*
X39749Y146000D01*
Y146999D01*
X38750Y147999D01*
X36750D01*
X35751Y146999D01*
Y142001D02*
X39749D01*
X41749D02*
X43748D01*
X42748D01*
Y147999D01*
X41749Y146999D01*
Y156501D02*
X45747Y160500D01*
Y161499D01*
X44748Y162499D01*
X42748D01*
X41749Y161499D01*
X39749D02*
X38750Y162499D01*
X36750D01*
X35751Y161499D01*
X39749D02*
Y160500D01*
X35751Y156501D01*
X39749D01*
X41749D02*
X45747D01*
X33751D02*
X31752Y158500D01*
X33751Y171001D02*
X31752Y173000D01*
X35751Y171001D02*
X37750D01*
X36750D01*
Y176999D01*
X35751Y175999D01*
X40749Y176999D02*
X44748D01*
Y175999D01*
X40749Y172001D01*
Y171001D01*
X46400Y183754D02*
X47680D01*
X46400D01*
X46000Y198984D02*
X55000D01*
Y220234D01*
X-21000Y193249D02*
X-22999D01*
X-22000D01*
Y188251D01*
X-22999Y187251D01*
X-23999D01*
X-24999Y188251D01*
X-47501Y116499D02*
X-49501D01*
X-50500Y115499D01*
Y114500D01*
X-49501Y113500D01*
X-46502D01*
Y115499D02*
X-47501Y116499D01*
X-46502Y115499D02*
Y111501D01*
X-47501Y110501D01*
X-49501D01*
X-50500Y111501D01*
X-52500Y110501D02*
X-54499Y112500D01*
X-53499D02*
X-56498D01*
Y110501D02*
Y116499D01*
X-53499D01*
X-52500Y115499D01*
Y113500D01*
X-53499Y112500D01*
X-102551Y83549D02*
X-101552Y82549D01*
Y81550D01*
X-102551Y80550D01*
X-103551D01*
X-102551D01*
X-101552Y79550D01*
Y78551D01*
X-102551Y77551D01*
X-104551D01*
X-105550Y78551D01*
X-107550D02*
Y83549D01*
X-104551D02*
X-102551D01*
X-104551D02*
X-105550Y82549D01*
X-107550Y78551D02*
X-108549Y77551D01*
X-110549D01*
X-111548Y78551D01*
Y83549D01*
X-123950Y62500D02*
X-125950D01*
X-123950D01*
X-154751Y91502D02*
X-160749D01*
Y94501D01*
X-159749Y95501D01*
X-157750D01*
X-156750Y94501D01*
Y91502D01*
Y93502D02*
X-154751Y95501D01*
Y97500D02*
Y99500D01*
Y98500D01*
X-160749D01*
X-159749Y97500D01*
X-172502Y71249D02*
X-173502Y72249D01*
X-175501D01*
X-176501Y71249D01*
Y66251D02*
X-172502Y70250D01*
Y71249D01*
Y66251D02*
X-176501D01*
X-179500D02*
X-180500D01*
Y72249D01*
X-181500Y71249D01*
X-183499D02*
Y69250D01*
X-184499Y68250D01*
X-187498D01*
Y66251D02*
Y72249D01*
X-184499D01*
X-183499Y71249D01*
X-185498Y68250D02*
X-183499Y66251D01*
X-181500D02*
X-179500D01*
X-178001Y53749D02*
X-181000Y50750D01*
X-177002D01*
X-178001Y53749D02*
Y47751D01*
X-183999D02*
X-183000Y48751D01*
Y52749D01*
X-183999Y53749D01*
X-186998D01*
Y47751D01*
X-183999D01*
X-191570Y39020D02*
X-152200D01*
Y18000D01*
Y-6000D02*
Y-27020D01*
X-191570D01*
Y-6000D01*
X-189498Y-33001D02*
X-190498Y-34001D01*
Y-37999D01*
X-189498Y-38999D01*
X-187499D01*
X-186499Y-37999D01*
Y-34001D02*
X-187499Y-33001D01*
X-189498D01*
X-184500D02*
X-180501D01*
X-182500D01*
Y-38999D01*
X-178502D02*
X-176502D01*
X-177502D01*
Y-33001D01*
X-178502Y-34001D01*
X-197752Y-50751D02*
X-201750D01*
Y-53750D01*
X-199751Y-52750D01*
X-198751D01*
X-197752Y-53750D01*
Y-55749D01*
X-198751Y-56749D01*
X-200751D01*
X-201750Y-55749D01*
X-204749Y-54750D02*
X-207748D01*
Y-56749D02*
Y-50751D01*
X-204749D01*
X-203750Y-51751D01*
Y-53750D01*
X-204749Y-54750D01*
X-192430Y-75390D02*
X-190429D01*
X-192430D01*
X-162248Y-55499D02*
X-161248Y-56499D01*
X-159249D01*
X-158249Y-55499D01*
X-156250Y-56499D02*
X-154250D01*
X-155250D01*
Y-50501D01*
X-156250Y-51501D01*
X-158249D02*
X-159249Y-50501D01*
X-161248D01*
X-162248Y-51501D01*
Y-55499D01*
X-151251D02*
Y-54500D01*
X-150252Y-53500D01*
X-151251Y-52500D01*
Y-51501D01*
X-150252Y-50501D01*
X-148252D01*
X-147252Y-51501D01*
Y-52500D01*
X-148252Y-53500D01*
X-147252Y-54500D01*
Y-55499D01*
X-148252Y-56499D01*
X-150252D01*
X-151251Y-55499D01*
X-150252Y-53500D02*
X-148252D01*
X-191570Y18000D02*
Y39020D01*
X-195752Y89251D02*
X-196751Y88251D01*
X-198751D01*
X-199750Y89251D01*
X-201750D02*
Y94249D01*
X-199750D02*
Y91250D01*
X-197751Y92250D01*
X-196751D01*
X-195752Y91250D01*
Y89251D01*
Y94249D02*
X-199750D01*
X-205748D02*
Y89251D01*
X-204749Y88251D01*
X-202749D01*
X-201750Y89251D01*
X-217501Y96002D02*
X-216501Y97002D01*
Y99001D01*
X-217501Y100001D01*
X-216501Y102000D02*
X-220500Y105999D01*
X-221499D01*
X-222499Y104999D01*
Y103000D01*
X-221499Y102000D01*
Y100001D02*
X-222499Y99001D01*
Y97002D01*
X-221499Y96002D01*
X-217501D01*
X-216501Y102000D02*
Y105999D01*
Y107998D02*
Y109998D01*
Y108998D01*
X-222499D01*
X-221499Y107998D01*
X-205737Y101540D02*
Y98790D01*
X-171737D01*
Y101540D01*
X-160749Y102499D02*
X-157750D01*
X-158750Y104498D01*
Y105498D01*
X-157750Y106498D01*
X-155751D01*
X-154751Y105498D01*
Y103498D01*
X-155751Y102499D01*
X-160749D02*
Y106498D01*
X-171737Y150040D02*
Y152790D01*
X-205737D01*
Y150040D01*
X-198467Y187485D02*
X-199467D01*
X-200467Y188485D01*
X-197468D02*
X-198467Y187485D01*
X-197468Y188485D02*
Y193483D01*
X-198467D01*
X-196468D01*
X-194469D02*
X-191470D01*
X-190470Y192483D01*
Y190484D01*
X-191470Y189484D01*
X-194469D01*
Y187485D02*
Y193483D01*
X-187471D02*
X-188471Y192483D01*
X-187471Y193483D02*
X-185472D01*
X-184472Y192483D01*
Y191484D01*
X-188471Y187485D01*
X-184472D01*
X-231001Y157998D02*
X-232001Y158998D01*
X-233000D01*
X-234000Y157998D01*
Y154999D01*
X-232001D01*
X-231001Y155998D01*
Y157998D01*
Y152000D02*
Y151000D01*
X-236999D01*
X-235999Y150000D01*
X-231001D02*
Y152000D01*
X-234000Y154999D02*
X-235999Y156998D01*
X-236999Y158998D01*
Y147001D02*
X-235999Y148001D01*
X-234000D01*
X-233000Y147001D01*
Y144003D01*
X-231001D02*
X-236999D01*
Y147001D01*
X-233000Y146002D02*
X-231001Y148001D01*
X-232999Y-33001D02*
X-232000Y-34001D01*
Y-36000D01*
X-232999Y-37000D01*
X-235998D01*
Y-38999D02*
Y-33001D01*
X-232999D01*
X-229001D02*
X-230000Y-34001D01*
X-229001Y-33001D02*
X-227001D01*
X-226002Y-34001D01*
Y-35000D01*
X-230000Y-38999D01*
X-226002D01*
X-178749Y-136001D02*
Y-141999D01*
X-175750D01*
X-174750Y-140999D01*
Y-137001D01*
X-175750Y-136001D01*
X-178749D01*
X-179724Y-147014D02*
X-112668D01*
X-107842Y-151840D01*
Y-159576D01*
Y-171906D01*
X-112922Y-176986D01*
X-179724D01*
Y-147014D01*
X-172751Y-141999D02*
X-170751D01*
X-171751D01*
Y-136001D01*
X-172751Y-137001D01*
X-134499Y-201001D02*
X-133499Y-202001D01*
Y-204000D02*
X-131500D01*
X-130500Y-205000D01*
Y-207999D01*
X-128501D02*
X-134499D01*
Y-205000D01*
X-133499Y-204000D01*
X-134499Y-201001D02*
X-128501D01*
Y-200001D01*
Y-202001D01*
Y-204000D02*
X-130500Y-205999D01*
X-129001Y-225502D02*
Y-229500D01*
X-133000Y-225502D01*
X-133999D01*
X-134999Y-226501D01*
Y-228501D01*
X-133999Y-229500D01*
Y-231500D02*
X-132000D01*
X-131000Y-232499D01*
Y-235498D01*
X-129001D02*
X-134999D01*
Y-232499D01*
X-133999Y-231500D01*
X-129001D02*
X-131000Y-233499D01*
X-146752Y-225999D02*
X-147751Y-226999D01*
X-149751D01*
X-150750Y-225999D01*
X-152750D02*
X-153749Y-226999D01*
X-155749D01*
X-156748Y-225999D01*
Y-222001D01*
X-155749Y-221001D01*
X-153749D01*
X-152750Y-222001D01*
X-150750D02*
X-149751Y-221001D01*
X-147751D01*
X-146752Y-222001D01*
Y-223000D01*
X-147751Y-224000D01*
X-148751D01*
X-147751D01*
X-146752Y-225000D01*
Y-225999D01*
X-168752Y-226499D02*
X-172750D01*
X-168752Y-222500D01*
Y-221501D01*
X-169751Y-220501D01*
X-171751D01*
X-172750Y-221501D01*
X-174750D02*
X-175749Y-220501D01*
X-177749D01*
X-178748Y-221501D01*
Y-225499D01*
X-177749Y-226499D01*
X-175749D01*
X-174750Y-225499D01*
X-198251Y-209749D02*
X-199251D01*
Y-203751D01*
X-200251Y-204751D01*
X-202250D02*
Y-206750D01*
X-203250Y-207750D01*
X-206249D01*
Y-209749D02*
Y-203751D01*
X-203250D01*
X-202250Y-204751D01*
X-200251Y-209749D02*
X-198251D01*
X-87250Y-243146D02*
Y-212146D01*
X-61250D01*
Y-243146D02*
X-87250D01*
X-86748Y-207395D02*
X-83749D01*
X-82750Y-206395D01*
Y-202397D01*
X-83749Y-201397D01*
X-86748D01*
Y-207395D01*
X-80750D02*
X-76752Y-203396D01*
Y-202397D01*
X-77751Y-201397D01*
X-79751D01*
X-80750Y-202397D01*
Y-207395D02*
X-76752D01*
X-30333Y-201749D02*
X-29333Y-202749D01*
X-27334D01*
X-26334Y-201749D01*
X-24335Y-202749D02*
X-22335D01*
X-23335D01*
Y-196751D01*
X-24335Y-197751D01*
X-26334D02*
X-27334Y-196751D01*
X-29333D01*
X-30333Y-197751D01*
Y-201749D01*
X43502Y-114999D02*
X44501Y-115999D01*
X46501D01*
X47500Y-114999D01*
Y-111001D02*
X46501Y-110001D01*
X44501D01*
X43502Y-111001D01*
Y-114999D01*
X49500Y-113000D02*
X53498D01*
X52499Y-115999D02*
Y-110001D01*
X49500Y-113000D01*
X65502Y-111251D02*
Y-115249D01*
X66501Y-116249D01*
X68501D01*
X69500Y-115249D01*
X71500D02*
X72499Y-116249D01*
X74499D01*
X75498Y-115249D01*
Y-113250D01*
X74499Y-112250D01*
X73499D01*
X71500Y-113250D01*
Y-110251D01*
X75498D01*
X68501D02*
X66501D01*
X65502Y-111251D01*
X69500D02*
X68501Y-110251D01*
X129502Y-185751D02*
X130501D01*
Y-190749D01*
X129502Y-191749D01*
X128502D01*
X127502Y-190749D01*
X129502Y-185751D02*
X131501D01*
X-12751Y-126999D02*
X-11752Y-125999D01*
Y-125000D01*
X-12751Y-124000D01*
X-15750D01*
Y-125999D01*
X-14751Y-126999D01*
X-12751D01*
X-17750D02*
X-19749Y-125000D01*
X-18749D02*
X-21748D01*
Y-126999D02*
Y-121001D01*
X-18749D01*
X-17750Y-122001D01*
Y-124000D01*
X-18749Y-125000D01*
X-15750Y-124000D02*
X-13751Y-122001D01*
X-11752Y-121001D01*
X-15750Y-116249D02*
Y-115249D01*
X-11752Y-111251D01*
Y-110251D01*
X-15750D01*
X-18749D02*
X-17750Y-111251D01*
Y-113250D01*
X-18749Y-114250D01*
X-21748D01*
Y-116249D02*
Y-110251D01*
X-18749D01*
X-19749Y-114250D02*
X-17750Y-116249D01*
X-73251Y-119001D02*
X-74251Y-120001D01*
X-73251Y-119001D02*
Y-124999D01*
X-72251D01*
X-74251D01*
X-77250D02*
X-76250Y-123999D01*
Y-119001D01*
X-80249D02*
Y-123999D01*
X-79249Y-124999D01*
X-77250D01*
X-92251Y-124500D02*
X-94250Y-126499D01*
Y-125499D02*
Y-128498D01*
X-92251D02*
X-98249D01*
Y-125499D01*
X-97249Y-124500D01*
X-95250D01*
X-94250Y-125499D01*
X-95250Y-122500D02*
Y-118502D01*
X-92251Y-119501D02*
X-98249D01*
X-95250Y-122500D01*
D11*
X175300Y-241589D02*
X140081D01*
X128310Y-213649D02*
Y-198409D01*
X146090D01*
X156583D02*
X158463D01*
X169080D02*
X186730D01*
Y-212823D01*
X179110Y-199679D02*
X177205Y-198579D01*
Y-200779D01*
X179110Y-199679D01*
X102406Y-173130D02*
Y-242876D01*
X32250Y-242876D01*
X31840D02*
Y-172876D01*
X32250D02*
X102250D01*
X196130Y-56251D02*
Y-39062D01*
Y-28439D02*
Y-26562D01*
Y-15939D02*
Y-14062D01*
Y-3439D02*
Y13749D01*
X211319D01*
X238630Y2438D02*
Y-44939D01*
X211319Y-56251D02*
X196130D01*
X239130Y41002D02*
Y88380D01*
X211819Y99691D02*
X196630D01*
Y82502D01*
Y71879D02*
Y70002D01*
Y59380D02*
Y57502D01*
Y46880D02*
Y29691D01*
X211819D01*
X-39720Y212421D02*
Y199182D01*
X-57159D01*
X-55255Y195483D02*
Y193283D01*
X-53350Y194383D01*
X-55255Y195483D01*
X-67782Y199182D02*
X-69658D01*
X-80281D02*
X-82159D01*
X-92781D02*
X-94659D01*
X-105281D02*
X-107159D01*
X-117781D02*
X-119659D01*
X-130281D02*
X-132158D01*
X-142781D02*
X-144659D01*
X-155281D02*
X-157159D01*
X-167782D02*
X-169659D01*
X-197720Y212421D02*
Y199182D01*
X-180281D01*
X-208930Y151800D02*
X-210530Y151787D01*
X-208930Y151774D01*
X-186158Y239683D02*
X-51281D01*
X-233050Y32444D02*
X-221620D01*
X-207396D02*
X-195966D01*
Y-23944D01*
X-207396D01*
X-221620D02*
X-233050D01*
Y32444D01*
X-220858Y16950D02*
X-208158D01*
Y-8450D01*
X-220858D01*
Y16950D01*
X-239630Y-73002D02*
Y-120380D01*
X-241089Y-151081D02*
Y-186300D01*
X-212323Y-197730D02*
X-197909D01*
Y-180080D01*
Y-169463D02*
Y-167583D01*
Y-157090D02*
Y-139310D01*
X-213149D01*
X-212319Y-131691D02*
X-197130D01*
Y-114502D01*
Y-103879D02*
Y-102002D01*
Y-91379D02*
Y-89502D01*
Y-78879D02*
Y-61691D01*
X-212319D01*
X-199814Y-187740D02*
Y-189940D01*
X-197909Y-188840D01*
X-199814Y-187740D01*
D12*
X153375Y-74833D02*
X155250Y-73750D01*
X153375Y-72667D01*
Y-74833D01*
D13*
X243350Y-167608D02*
Y-158508D01*
Y-167608D02*
X227150D01*
Y-158508D01*
X243350Y-142508D02*
Y-137600D01*
X239158Y-133408D01*
X231342D01*
X227150Y-137600D01*
Y-142508D01*
X195419Y-147893D02*
X193602Y-146221D01*
X191341Y-145230D01*
X188881Y-145026D01*
X186487Y-145632D01*
X184420Y-146982D01*
X182904Y-148930D01*
X182102Y-151265D01*
Y-153735D01*
X182904Y-156070D01*
X184420Y-158018D01*
X186487Y-159368D01*
X188881Y-159974D01*
X191341Y-159770D01*
X193602Y-158779D01*
X195419Y-157107D01*
X196594Y-154935D01*
X197000Y-152500D01*
X196594Y-150065D01*
X195419Y-147893D01*
X150669D02*
X148852Y-146221D01*
X146591Y-145230D01*
X144131Y-145026D01*
X141737Y-145632D01*
X139670Y-146982D01*
X138154Y-148930D01*
X137352Y-151265D01*
Y-153735D01*
X138154Y-156070D01*
X139670Y-158018D01*
X141737Y-159368D01*
X144131Y-159974D01*
X146591Y-159770D01*
X148852Y-158779D01*
X150669Y-157107D01*
X151844Y-154935D01*
X152250Y-152500D01*
X151844Y-150065D01*
X150669Y-147893D01*
X119986Y-65000D02*
X120819Y-64167D01*
Y-63334D01*
X119986Y-62501D01*
X117487D01*
Y-64167D01*
X118320Y-65000D01*
X119986D01*
X115821D02*
X112488D01*
X115821Y-61668D01*
Y-60835D01*
X114988Y-60002D01*
X113322D01*
X112488Y-60835D01*
X110822D02*
Y-64167D01*
X109989Y-65000D01*
X108323D01*
X107490Y-64167D01*
Y-60835D01*
X108323Y-60002D01*
X109989D01*
X110822Y-60835D01*
Y-53963D02*
X108323Y-51464D01*
X110822Y-48965D01*
X107490Y-52297D01*
Y-53963D01*
Y-48965D01*
X112488D02*
Y-51464D01*
X114155Y-50631D01*
X114988D01*
X115821Y-51464D01*
Y-53130D01*
X114988Y-53963D01*
X113322D01*
X112488Y-53130D01*
Y-48965D02*
X115821D01*
X117487D02*
X120819D01*
Y-49798D01*
X117487Y-53130D01*
Y-53963D01*
X119153Y-60835D02*
X117487Y-62501D01*
X119153Y-60835D02*
X120819Y-60002D01*
X131649Y-42093D02*
X132482Y-42926D01*
X134981D01*
Y-39594D01*
X136647D02*
X139146D01*
X139980Y-40427D01*
Y-42926D01*
X141646Y-42093D02*
X142479Y-42926D01*
X144978D01*
Y-43759D02*
Y-39594D01*
X142479D01*
X141646Y-40427D01*
Y-42093D01*
X143312Y-44592D02*
X144145D01*
X144978Y-43759D01*
X136647Y-42926D02*
Y-39594D01*
X131649D02*
Y-42093D01*
X129983D02*
Y-38761D01*
X129150Y-37928D01*
X126651D01*
Y-42926D01*
X129150D01*
X129983Y-42093D01*
X119986Y-42926D02*
Y-40427D01*
X119153Y-39594D01*
X116654D01*
Y-42926D01*
X114155D02*
X112488D01*
X111656Y-42093D01*
Y-40427D01*
X112488Y-39594D01*
X114155D01*
X114988Y-40427D01*
Y-41260D01*
X111656D01*
X109156Y-42926D02*
X108323D01*
Y-39594D01*
X107490D01*
Y-42926D02*
X109156D01*
X104158D02*
Y-37928D01*
X105824D01*
X102492D01*
X94994Y-39594D02*
X95827Y-40427D01*
Y-42926D01*
X92495D02*
Y-39594D01*
X94994D01*
X89996D02*
X90829Y-40427D01*
Y-42926D01*
X88330D01*
X87497Y-42093D01*
X88330Y-41260D01*
X90829D01*
X89996Y-39594D02*
X88330D01*
X84998D02*
X84164D01*
X83331Y-40427D01*
X82498Y-41260D01*
Y-42926D01*
Y-39594D01*
X80832Y-37928D02*
X79166D01*
Y-42926D01*
Y-48965D02*
Y-53963D01*
X77500Y-60002D02*
X80832Y-65000D01*
Y-60002D01*
X82498Y-60835D02*
Y-64167D01*
X83331Y-65000D01*
X84998D01*
X85831Y-64167D01*
X87497Y-63334D02*
X90829Y-60002D01*
X88330Y-62501D01*
X90829Y-65000D01*
X92495D02*
Y-62501D01*
X95827D01*
Y-60002D01*
Y-65000D01*
X92495D02*
Y-60002D01*
X87497D02*
Y-65000D01*
Y-63334D01*
X85831Y-60835D02*
X84998Y-60002D01*
X83331D01*
X82498Y-60835D01*
Y-53963D02*
X85831D01*
X87497D02*
Y-48965D01*
X89996D01*
X90829Y-49798D01*
Y-51464D01*
X89996Y-52297D01*
X87497D01*
X92495D02*
X95827Y-48965D01*
X93328Y-51464D01*
X95827Y-53963D01*
X97493D02*
X100826Y-50631D01*
Y-49798D01*
X99993Y-48965D01*
X98327D01*
X97493Y-49798D01*
X92495Y-48965D02*
Y-53963D01*
Y-52297D01*
X82498Y-48965D02*
Y-53963D01*
X97493D02*
X100826D01*
X102492Y-60835D02*
X103325Y-60002D01*
X104991D01*
X105824Y-60835D01*
Y-61668D01*
X102492Y-65000D01*
X105824D01*
X80832Y-48965D02*
X79166D01*
X77500D02*
X80832D01*
Y-37928D02*
X77500D01*
Y-60002D02*
Y-65000D01*
X-135392Y62850D02*
X-144492D01*
X-135392D02*
Y46650D01*
X-144492D01*
X-169592Y50842D02*
Y58658D01*
X-165400Y62850D01*
X-160492D01*
X-169592Y50842D02*
X-165400Y46650D01*
X-160492D01*
D14*
X34050Y-67500D02*
X39450D01*
Y-62100D01*
Y67100D02*
Y72500D01*
X34050D01*
X74250Y137200D02*
Y191800D01*
Y225700D02*
Y236000D01*
X181800D01*
X193750Y198800D02*
Y137200D01*
X-95150Y72500D02*
X-100550D01*
Y67100D01*
X-215238Y127278D02*
X-224762D01*
Y123722D02*
X-215238D01*
X-100550Y-62100D02*
Y-67500D01*
X-95150D01*
D15*
X-42750Y-203100D02*
X-34650D01*
Y-189900D01*
X-42750D01*
X-54750D02*
X-62850D01*
Y-203100D01*
X-54750D01*
X84289Y-149600D02*
X97489D01*
Y-141500D01*
X100345D02*
Y-149600D01*
X113545D01*
Y-141500D01*
X116400D02*
Y-149600D01*
X129600D01*
Y-141500D01*
Y-129500D02*
Y-121400D01*
X116400D01*
Y-129500D01*
X113545D02*
Y-121400D01*
X100345D01*
Y-129500D01*
X97489D02*
Y-121400D01*
X84289D01*
Y-129500D01*
Y-141500D02*
Y-149600D01*
X207650Y-166600D02*
X220850D01*
Y-138400D01*
X207650D01*
Y-166600D01*
X-28900Y93150D02*
Y106350D01*
X-57100D01*
Y93150D01*
X-28900D01*
X-140150Y77850D02*
Y64650D01*
X-168350D01*
Y77850D01*
X-140150D01*
X-148150Y111150D02*
Y139350D01*
X-161350D01*
Y111150D01*
X-148150D01*
X-213650Y171350D02*
Y143150D01*
X-226850D01*
Y171350D01*
X-213650D01*
X-148600Y36100D02*
X-135400D01*
Y28000D01*
Y16000D02*
Y7900D01*
X-148600D01*
Y16000D01*
X-148600Y4350D02*
X-135400D01*
Y-3750D01*
Y-15750D02*
Y-23850D01*
X-148600D01*
Y-15750D01*
Y-3750D02*
Y4350D01*
X-148600Y28000D02*
Y36100D01*
X-155500Y-32900D02*
X-163600D01*
Y-46100D01*
X-155500D01*
X-143500D02*
X-135400D01*
Y-32900D01*
X-143500D01*
D16*
X-28541Y-182539D02*
X-70959D01*
X-28541Y-129961D02*
X-70959D01*
D17*
X-18909Y-184908D02*
Y-180676D01*
X-16794D02*
X-21026Y-184908D01*
Y-182792D02*
X-16794D01*
Y-184908D02*
X-21026Y-180676D01*
D18*
X-214504Y4250D02*
D03*
M02*
