M48
;Layer_Color=9474304
;FILE_FORMAT=4:4
METRIC,TZ
;TYPE=PLATED
T01F00S00C0.2500
T02F00S00C0.3000
T03F00S00C2.1001
%
T01
X-178750Y-109000
X-179000Y-84250
X-145000Y-97187
Y-111250
X-120000Y40500
X-125000Y123750
Y139000
Y160750
X-137250Y168250
X-111750
X-134500Y115000
X-204750Y168500
X-96250Y167750
X-82250Y167250
X-70184Y139316
X-62250Y132500
Y120500
X-70500Y106000
X-80500Y100250
X-72250Y64000
X-48500Y53250
X-55746Y36599
X-48500Y12250
Y3750
Y-5750
Y-14500
X-36720Y-32506
X-63750Y-43750
X-70500Y-38000
X-78500Y-49500
X-86000Y-58250
X-93250Y-1500
Y11500
Y25750
X-36750Y12250
X-5500Y-17250
X6500Y-5500
X22875Y-24250
X32250
X62500Y38750
X34500Y83000
X9250Y65500
X750
X34500Y126250
X45500
X41500Y166750
X-2250Y167250
X-24750
X-15750Y149000
X-32000Y139000
X-24750Y-89750
X-15083
X161520Y-71250
X175250Y-108250
X179750Y-33000
Y-10250
Y-250
X161520Y2750
X213250Y9750
Y23500
Y-20500
X222000Y-30000
X206250Y-47750
X209309Y74691
X177250Y62000
X176750Y87000
X161492Y75236
X140500Y75000
Y60000
X206750Y126500
X235250Y161000
X-142000Y222250
Y232750
T02
X-171250Y-231750
X-209750Y-175000
X-192500Y-127250
X-209750Y-96750
X-163034Y-97187
X-145000Y-61750
X-121250Y-137000
X-142000Y85500
Y100250
X-212000Y92000
Y57000
Y141059
X-93250Y64000
X-82385
X-93250Y40500
Y-24500
Y-35750
X-93750Y-89250
X-82885
X-2250Y-99750
X16865Y-89250
X27365
X32115Y-59500
X21500
X14000Y-37250
Y-24250
Y20500
Y35500
X32500Y53750
Y64750
X62458Y60458
Y49458
X89000Y21750
X99500Y12750
X140750Y39500
Y-34500
X175750Y-83750
X189500Y-92750
Y-108750
Y-125250
X164250Y-152000
X151250Y-212000
X72000Y-217250
Y-201000
X50750Y-157250
X11000Y-192500
X-92750Y-196500
Y-175250
X-26750Y99750
X-5250Y105500
X10000Y105750
X63750Y126250
X89000Y145250
X111000Y145500
X133000
X99750Y158750
X176750Y98000
X212000Y-75500
X235750Y-75250
Y-96500
X240250Y-128750
X193750Y196000
X84250Y202250
X72750Y174000
X40000Y210250
X30000
X-62500
X-87473
X-175000
T03
X-222704Y-222878
X222296
Y221872
X-222704
M30
