G04*
G04 #@! TF.GenerationSoftware,Altium Limited,Altium Designer,23.7.1 (13)*
G04*
G04 Layer_Physical_Order=4*
G04 Layer_Color=16711680*
%FSLAX44Y44*%
%MOMM*%
G71*
G04*
G04 #@! TF.SameCoordinates,CA0AFEA4-99C7-4052-BA11-7F101D67CBD2*
G04*
G04*
G04 #@! TF.FilePolarity,Positive*
G04*
G01*
G75*
%ADD10C,0.2000*%
%ADD12C,0.2500*%
%ADD74R,0.9000X0.7000*%
%ADD80R,0.7000X0.9000*%
G04:AMPARAMS|DCode=84|XSize=1mm|YSize=0.9mm|CornerRadius=0.1125mm|HoleSize=0mm|Usage=FLASHONLY|Rotation=0.000|XOffset=0mm|YOffset=0mm|HoleType=Round|Shape=RoundedRectangle|*
%AMROUNDEDRECTD84*
21,1,1.0000,0.6750,0,0,0.0*
21,1,0.7750,0.9000,0,0,0.0*
1,1,0.2250,0.3875,-0.3375*
1,1,0.2250,-0.3875,-0.3375*
1,1,0.2250,-0.3875,0.3375*
1,1,0.2250,0.3875,0.3375*
%
%ADD84ROUNDEDRECTD84*%
%ADD90R,0.5000X0.6000*%
%ADD91R,0.6000X0.5000*%
%ADD95C,0.5000*%
%ADD96C,0.3000*%
%ADD100C,3.5001*%
%ADD101C,0.6000*%
%ADD102C,0.5000*%
G04:AMPARAMS|DCode=103|XSize=0.59mm|YSize=0.35mm|CornerRadius=0.0875mm|HoleSize=0mm|Usage=FLASHONLY|Rotation=270.000|XOffset=0mm|YOffset=0mm|HoleType=Round|Shape=RoundedRectangle|*
%AMROUNDEDRECTD103*
21,1,0.5900,0.1750,0,0,270.0*
21,1,0.4150,0.3500,0,0,270.0*
1,1,0.1750,-0.0875,-0.2075*
1,1,0.1750,-0.0875,0.2075*
1,1,0.1750,0.0875,0.2075*
1,1,0.1750,0.0875,-0.2075*
%
%ADD103ROUNDEDRECTD103*%
G04:AMPARAMS|DCode=104|XSize=0.59mm|YSize=0.35mm|CornerRadius=0.0875mm|HoleSize=0mm|Usage=FLASHONLY|Rotation=180.000|XOffset=0mm|YOffset=0mm|HoleType=Round|Shape=RoundedRectangle|*
%AMROUNDEDRECTD104*
21,1,0.5900,0.1750,0,0,180.0*
21,1,0.4150,0.3500,0,0,180.0*
1,1,0.1750,-0.2075,0.0875*
1,1,0.1750,0.2075,0.0875*
1,1,0.1750,0.2075,-0.0875*
1,1,0.1750,-0.2075,-0.0875*
%
%ADD104ROUNDEDRECTD104*%
%ADD105C,0.2000*%
G04:AMPARAMS|DCode=106|XSize=1.12mm|YSize=0.27mm|CornerRadius=0.0338mm|HoleSize=0mm|Usage=FLASHONLY|Rotation=90.000|XOffset=0mm|YOffset=0mm|HoleType=Round|Shape=RoundedRectangle|*
%AMROUNDEDRECTD106*
21,1,1.1200,0.2025,0,0,90.0*
21,1,1.0525,0.2700,0,0,90.0*
1,1,0.0675,0.1013,0.5263*
1,1,0.0675,0.1013,-0.5263*
1,1,0.0675,-0.1013,-0.5263*
1,1,0.0675,-0.1013,0.5263*
%
%ADD106ROUNDEDRECTD106*%
G04:AMPARAMS|DCode=107|XSize=1mm|YSize=0.9mm|CornerRadius=0.1125mm|HoleSize=0mm|Usage=FLASHONLY|Rotation=90.000|XOffset=0mm|YOffset=0mm|HoleType=Round|Shape=RoundedRectangle|*
%AMROUNDEDRECTD107*
21,1,1.0000,0.6750,0,0,90.0*
21,1,0.7750,0.9000,0,0,90.0*
1,1,0.2250,0.3375,0.3875*
1,1,0.2250,0.3375,-0.3875*
1,1,0.2250,-0.3375,-0.3875*
1,1,0.2250,-0.3375,0.3875*
%
%ADD107ROUNDEDRECTD107*%
%ADD108C,0.1000*%
G36*
X246666Y-246666D02*
X-246666D01*
Y246666D01*
X246666D01*
Y-246666D01*
D02*
G37*
%LPC*%
G36*
X139500Y238039D02*
X114500D01*
X113720Y237884D01*
X113058Y237442D01*
X112616Y236780D01*
X112461Y236000D01*
Y216000D01*
X112616Y215220D01*
X113058Y214558D01*
X113720Y214116D01*
X114500Y213961D01*
X139500D01*
X140280Y214116D01*
X140942Y214558D01*
X141384Y215220D01*
X141539Y216000D01*
Y236000D01*
X141384Y236780D01*
X140942Y237442D01*
X140280Y237884D01*
X139500Y238039D01*
D02*
G37*
G36*
X40995Y215250D02*
X39005D01*
X37168Y214489D01*
X35761Y213082D01*
X35000Y211245D01*
Y209255D01*
X35761Y207418D01*
X37168Y206011D01*
X39005Y205250D01*
X40995D01*
X42832Y206011D01*
X44239Y207418D01*
X45000Y209255D01*
Y211245D01*
X44239Y213082D01*
X42832Y214489D01*
X40995Y215250D01*
D02*
G37*
G36*
X-86478D02*
X-88467D01*
X-90305Y214489D01*
X-91711Y213082D01*
X-92473Y211245D01*
Y209255D01*
X-91711Y207418D01*
X-90305Y206011D01*
X-88467Y205250D01*
X-86478D01*
X-84640Y206011D01*
X-83234Y207418D01*
X-82473Y209255D01*
Y211245D01*
X-83234Y213082D01*
X-84640Y214489D01*
X-86478Y215250D01*
D02*
G37*
G36*
X-174005D02*
X-175995D01*
X-177832Y214489D01*
X-179239Y213082D01*
X-180000Y211245D01*
Y209255D01*
X-179239Y207418D01*
X-177832Y206011D01*
X-175995Y205250D01*
X-174005D01*
X-172168Y206011D01*
X-170761Y207418D01*
X-170000Y209255D01*
Y211245D01*
X-170761Y213082D01*
X-172168Y214489D01*
X-174005Y215250D01*
D02*
G37*
G36*
X224216Y241372D02*
X220375D01*
X216607Y240623D01*
X213059Y239153D01*
X209865Y237019D01*
X207148Y234303D01*
X205014Y231109D01*
X203544Y227560D01*
X202795Y223792D01*
Y219951D01*
X203544Y216183D01*
X205014Y212635D01*
X207148Y209441D01*
X209865Y206724D01*
X213059Y204590D01*
X216607Y203120D01*
X220375Y202371D01*
X224216D01*
X227984Y203120D01*
X231533Y204590D01*
X234727Y206724D01*
X237443Y209441D01*
X239577Y212635D01*
X241047Y216183D01*
X241796Y219951D01*
Y223792D01*
X241047Y227560D01*
X239577Y231109D01*
X237443Y234303D01*
X234727Y237019D01*
X231533Y239153D01*
X227984Y240623D01*
X224216Y241372D01*
D02*
G37*
G36*
X-220784D02*
X-224625D01*
X-228393Y240623D01*
X-231941Y239153D01*
X-235135Y237019D01*
X-237852Y234303D01*
X-239986Y231109D01*
X-241456Y227560D01*
X-242205Y223792D01*
Y219951D01*
X-241456Y216183D01*
X-239986Y212635D01*
X-237852Y209441D01*
X-235135Y206724D01*
X-231941Y204590D01*
X-228393Y203120D01*
X-224625Y202371D01*
X-220784D01*
X-217016Y203120D01*
X-213467Y204590D01*
X-210273Y206724D01*
X-207557Y209441D01*
X-205423Y212635D01*
X-203953Y216183D01*
X-203204Y219951D01*
Y223792D01*
X-203953Y227560D01*
X-205423Y231109D01*
X-207557Y234303D01*
X-210273Y237019D01*
X-213467Y239153D01*
X-217016Y240623D01*
X-220784Y241372D01*
D02*
G37*
G36*
X-32125Y174811D02*
X-38875D01*
X-39864Y174614D01*
X-40000Y174750D01*
X-48000D01*
X-50000Y172750D01*
Y162750D01*
X-48000Y160750D01*
X-40088D01*
Y159000D01*
X-39739Y157244D01*
X-38744Y155756D01*
X-37608Y154996D01*
X-37540Y153754D01*
X-39442Y151852D01*
X-39553Y151685D01*
X-39695Y151543D01*
X-39772Y151357D01*
X-39884Y151190D01*
X-39923Y150993D01*
X-40000Y150808D01*
Y150753D01*
X-40168Y150297D01*
X-40854Y149698D01*
X-41173Y149580D01*
X-41228D01*
X-41963Y149276D01*
X-42526Y148713D01*
X-42830Y147978D01*
Y147182D01*
X-42526Y146447D01*
X-41963Y145885D01*
X-41228Y145580D01*
X-40432D01*
X-39697Y145885D01*
X-39625Y145956D01*
X-37039D01*
X-36513Y144686D01*
X-36717Y144483D01*
X-37250Y143196D01*
X-37831Y142890D01*
X-39135Y143053D01*
X-39697Y143616D01*
X-40432Y143920D01*
X-41228D01*
X-41963Y143616D01*
X-42526Y143053D01*
X-42830Y142318D01*
Y142263D01*
X-42850Y142208D01*
X-43293Y142087D01*
X-43668Y142160D01*
X-44606Y142700D01*
X-44718Y142867D01*
X-44795Y143053D01*
X-44937Y143195D01*
X-45048Y143362D01*
X-45215Y143473D01*
X-45357Y143616D01*
X-45543Y143692D01*
X-45710Y143804D01*
X-45907Y143843D01*
X-46092Y143920D01*
X-46472Y145115D01*
X-46288Y145528D01*
X-46147Y145580D01*
X-46092D01*
X-45357Y145885D01*
X-44795Y146447D01*
X-44490Y147182D01*
Y147978D01*
X-44795Y148713D01*
X-45357Y149276D01*
X-46092Y149580D01*
X-46888D01*
X-47623Y149276D01*
X-47695Y149204D01*
X-56977D01*
X-57337Y149743D01*
X-58330Y150406D01*
X-59500Y150639D01*
X-60648D01*
X-60884Y150797D01*
X-62250Y151069D01*
X-80000D01*
X-81366Y150797D01*
X-82523Y150023D01*
X-113978Y118569D01*
X-122681D01*
X-122934Y119839D01*
X-122701Y119935D01*
X-121435Y121201D01*
X-120750Y122855D01*
Y124299D01*
X-82299Y162750D01*
X-81355D01*
X-79701Y163435D01*
X-78435Y164701D01*
X-77750Y166355D01*
Y168145D01*
X-78435Y169799D01*
X-79701Y171065D01*
X-81355Y171750D01*
X-83145D01*
X-84799Y171065D01*
X-86065Y169799D01*
X-86750Y168145D01*
Y166951D01*
X-125451Y128250D01*
X-126145D01*
X-127799Y127565D01*
X-129065Y126299D01*
X-129750Y124645D01*
Y122855D01*
X-129065Y121201D01*
X-127799Y119935D01*
X-127566Y119839D01*
X-127819Y118569D01*
X-131705D01*
X-131951Y118815D01*
X-133605Y119500D01*
X-135395D01*
X-137049Y118815D01*
X-138315Y117549D01*
X-139000Y115895D01*
Y114105D01*
X-138315Y112451D01*
X-137049Y111185D01*
X-135395Y110500D01*
X-133605D01*
X-131951Y111185D01*
X-131705Y111431D01*
X-112500D01*
X-111134Y111703D01*
X-109977Y112477D01*
X-78522Y143931D01*
X-73729D01*
X-73203Y142661D01*
X-73999Y141865D01*
X-74684Y140211D01*
Y139252D01*
X-107593Y106343D01*
X-108311Y105268D01*
X-108564Y104000D01*
Y56623D01*
X-120186Y45000D01*
X-120895D01*
X-122549Y44315D01*
X-123815Y43049D01*
X-124255Y41987D01*
X-125673Y41610D01*
X-146436Y62372D01*
Y95819D01*
X-145166Y96345D01*
X-144832Y96011D01*
X-142995Y95250D01*
X-141005D01*
X-139168Y96011D01*
X-137761Y97418D01*
X-137000Y99255D01*
Y101245D01*
X-137761Y103082D01*
X-139168Y104489D01*
X-141005Y105250D01*
X-142995D01*
X-144832Y104489D01*
X-145166Y104155D01*
X-146436Y104681D01*
Y165450D01*
X-145935Y165951D01*
X-145250Y167605D01*
Y169395D01*
X-145935Y171049D01*
X-147201Y172315D01*
X-148855Y173000D01*
X-150645D01*
X-152299Y172315D01*
X-153565Y171049D01*
X-154250Y169395D01*
Y167605D01*
X-153565Y165951D01*
X-153064Y165450D01*
Y61000D01*
X-152811Y59732D01*
X-152093Y58657D01*
X-107564Y14127D01*
Y-57500D01*
X-107311Y-58768D01*
X-106593Y-59843D01*
X-93343Y-73093D01*
X-92268Y-73811D01*
X-91000Y-74064D01*
X33500D01*
X34768Y-73811D01*
X35843Y-73093D01*
X64593Y-44343D01*
X65311Y-43268D01*
X65564Y-42000D01*
Y-41360D01*
X65916Y-41009D01*
X67130Y-41514D01*
X67186Y-41586D01*
Y-46877D01*
X38128Y-75936D01*
X-95127D01*
X-115436Y-55627D01*
Y16000D01*
X-115689Y17268D01*
X-116407Y18343D01*
X-158936Y60873D01*
Y165450D01*
X-158435Y165951D01*
X-157750Y167605D01*
Y169395D01*
X-158435Y171049D01*
X-159701Y172315D01*
X-161355Y173000D01*
X-163145D01*
X-164799Y172315D01*
X-166065Y171049D01*
X-166750Y169395D01*
Y167605D01*
X-166065Y165951D01*
X-165564Y165450D01*
Y59500D01*
X-165311Y58232D01*
X-164593Y57157D01*
X-122064Y14627D01*
Y-57000D01*
X-121811Y-58268D01*
X-121093Y-59343D01*
X-98843Y-81593D01*
X-97768Y-82311D01*
X-96500Y-82564D01*
X39500D01*
X40768Y-82311D01*
X41843Y-81593D01*
X72843Y-50593D01*
X73561Y-49518D01*
X73814Y-48250D01*
Y-30750D01*
X73561Y-29482D01*
X72843Y-28407D01*
X66750Y-22314D01*
Y-21605D01*
X66065Y-19951D01*
X64799Y-18685D01*
X63145Y-18000D01*
X61355D01*
X59701Y-18685D01*
X58435Y-19951D01*
X57750Y-21605D01*
Y-23395D01*
X58435Y-25049D01*
X59701Y-26315D01*
X61355Y-27000D01*
X62064D01*
X67186Y-32123D01*
Y-34413D01*
X66616Y-34687D01*
X65916Y-34802D01*
X64799Y-33685D01*
X63145Y-33000D01*
X61355D01*
X59701Y-33685D01*
X58435Y-34951D01*
X57750Y-36605D01*
Y-38395D01*
X58435Y-40049D01*
X58936Y-40550D01*
Y-40627D01*
X38079Y-61484D01*
X37003Y-60765D01*
X37115Y-60495D01*
Y-59049D01*
X37172Y-58760D01*
Y-49000D01*
X37084Y-48557D01*
Y-44000D01*
X28084D01*
Y-48557D01*
X27996Y-49000D01*
Y-56548D01*
X27876Y-56668D01*
X27115Y-58505D01*
Y-60495D01*
X27876Y-62332D01*
X29282Y-63739D01*
X31120Y-64500D01*
X33109D01*
X33380Y-64388D01*
X34099Y-65465D01*
X32127Y-67436D01*
X-89627D01*
X-100936Y-56127D01*
Y15500D01*
X-101189Y16768D01*
X-101907Y17843D01*
X-118890Y34827D01*
X-118513Y36245D01*
X-117451Y36685D01*
X-116185Y37951D01*
X-115500Y39605D01*
Y40314D01*
X-102907Y52907D01*
X-102189Y53982D01*
X-101936Y55250D01*
Y102627D01*
X-69748Y134816D01*
X-69289D01*
X-67635Y135501D01*
X-66369Y136767D01*
X-65684Y138421D01*
Y140211D01*
X-66369Y141865D01*
X-67166Y142661D01*
X-66640Y143931D01*
X-62250D01*
X-60884Y144203D01*
X-60408Y144521D01*
X-59500D01*
X-58330Y144754D01*
X-57337Y145417D01*
X-56977Y145956D01*
X-52330D01*
X-52171Y145865D01*
X-51845Y145590D01*
X-51359Y144750D01*
Y141129D01*
X-54226D01*
X-54309Y141253D01*
X-55301Y141916D01*
X-56472Y142149D01*
X-57642Y141916D01*
X-58635Y141253D01*
X-62888Y137000D01*
X-63145D01*
X-64799Y136315D01*
X-66065Y135049D01*
X-66750Y133395D01*
Y131605D01*
X-66065Y129951D01*
X-64799Y128685D01*
X-63145Y128000D01*
X-61355D01*
X-60530Y128342D01*
X-59811Y127265D01*
X-62076Y125000D01*
X-63145D01*
X-64799Y124315D01*
X-66065Y123049D01*
X-66750Y121395D01*
Y119605D01*
X-66065Y117951D01*
X-64799Y116685D01*
X-63145Y116000D01*
X-63122D01*
X-62596Y114730D01*
X-67693Y109633D01*
X-67769D01*
X-67951Y109815D01*
X-69605Y110500D01*
X-71395D01*
X-73049Y109815D01*
X-74315Y108549D01*
X-75000Y106895D01*
Y105105D01*
X-74782Y104579D01*
X-75631Y103309D01*
X-77195D01*
X-77951Y104065D01*
X-79605Y104750D01*
X-81395D01*
X-83049Y104065D01*
X-84315Y102799D01*
X-85000Y101145D01*
Y99355D01*
X-84315Y97701D01*
X-83049Y96435D01*
X-81395Y95750D01*
X-79605D01*
X-77951Y96435D01*
X-77195Y97191D01*
X-58500D01*
X-58500Y97191D01*
X-57330Y97424D01*
X-56337Y98087D01*
X-23587Y130837D01*
X-23587Y130837D01*
X-22924Y131830D01*
X-22691Y133000D01*
X-22691Y133000D01*
Y142000D01*
X-22924Y143170D01*
X-23587Y144163D01*
X-25587Y146163D01*
X-26579Y146826D01*
X-27750Y147059D01*
X-28386Y146932D01*
X-30182Y148728D01*
X-31330Y149204D01*
X-34663D01*
X-35149Y150377D01*
X-34058Y151468D01*
X-33616Y152130D01*
X-33461Y152910D01*
X-33461Y152910D01*
Y154951D01*
X-32256Y155756D01*
X-31261Y157244D01*
X-30912Y159000D01*
Y160930D01*
X-30906Y160931D01*
X-29872Y161622D01*
X-29181Y162656D01*
X-29180Y162662D01*
X-24750D01*
X-24307Y162750D01*
X-23855D01*
X-23437Y162923D01*
X-22994Y163011D01*
X-22618Y163262D01*
X-22201Y163435D01*
X-21881Y163755D01*
X-21506Y164006D01*
X-21255Y164382D01*
X-20935Y164701D01*
X-20762Y165118D01*
X-20511Y165494D01*
X-20423Y165937D01*
X-20250Y166355D01*
Y166807D01*
X-20162Y167250D01*
X-20250Y167693D01*
Y168145D01*
X-20423Y168563D01*
X-20511Y169006D01*
X-20762Y169382D01*
X-20935Y169799D01*
X-21255Y170119D01*
X-21506Y170494D01*
X-21881Y170745D01*
X-22201Y171065D01*
X-22618Y171238D01*
X-22994Y171489D01*
X-23437Y171577D01*
X-23855Y171750D01*
X-24307D01*
X-24750Y171838D01*
X-28981D01*
X-29181Y172844D01*
X-29872Y173878D01*
X-30906Y174569D01*
X-32125Y174811D01*
D02*
G37*
G36*
X170000Y196039D02*
X85000D01*
X84220Y195884D01*
X83558Y195442D01*
X83116Y194780D01*
X82961Y194000D01*
Y174000D01*
X83116Y173220D01*
X83558Y172558D01*
X84220Y172116D01*
X85000Y171961D01*
X170000D01*
X170780Y172116D01*
X171442Y172558D01*
X171884Y173220D01*
X172039Y174000D01*
Y194000D01*
X171884Y194780D01*
X171442Y195442D01*
X170780Y195884D01*
X170000Y196039D01*
D02*
G37*
G36*
X-110855Y172750D02*
X-112645D01*
X-114299Y172065D01*
X-115050Y171314D01*
X-133950D01*
X-134701Y172065D01*
X-136355Y172750D01*
X-138145D01*
X-139799Y172065D01*
X-141065Y170799D01*
X-141750Y169145D01*
Y167355D01*
X-141065Y165701D01*
X-139799Y164435D01*
X-138145Y163750D01*
X-136355D01*
X-134701Y164435D01*
X-134450Y164686D01*
X-114550D01*
X-114299Y164435D01*
X-112645Y163750D01*
X-110855D01*
X-109201Y164435D01*
X-107935Y165701D01*
X-107250Y167355D01*
Y169145D01*
X-107935Y170799D01*
X-109201Y172065D01*
X-110855Y172750D01*
D02*
G37*
G36*
X73745Y179000D02*
X71755D01*
X69918Y178239D01*
X68511Y176832D01*
X67750Y174995D01*
Y173006D01*
X68511Y171168D01*
X69918Y169761D01*
X71755Y169000D01*
X73745D01*
X75582Y169761D01*
X76989Y171168D01*
X77750Y173006D01*
Y174995D01*
X76989Y176832D01*
X75582Y178239D01*
X73745Y179000D01*
D02*
G37*
G36*
X236145Y165500D02*
X234355D01*
X232701Y164815D01*
X231435Y163549D01*
X230750Y161895D01*
Y160105D01*
X231435Y158451D01*
X232701Y157185D01*
X234355Y156500D01*
X236145D01*
X237799Y157185D01*
X239065Y158451D01*
X239750Y160105D01*
Y161895D01*
X239065Y163549D01*
X237799Y164815D01*
X236145Y165500D01*
D02*
G37*
G36*
X133995Y150500D02*
X132005D01*
X130168Y149739D01*
X128761Y148332D01*
X128000Y146495D01*
Y144505D01*
X128761Y142668D01*
X130168Y141261D01*
X132005Y140500D01*
X133995D01*
X135832Y141261D01*
X137239Y142668D01*
X138000Y144505D01*
Y146495D01*
X137239Y148332D01*
X135832Y149739D01*
X133995Y150500D01*
D02*
G37*
G36*
X-95355Y172250D02*
X-97145D01*
X-98799Y171565D01*
X-100065Y170299D01*
X-100750Y168645D01*
Y167576D01*
X-124826Y143500D01*
X-126145D01*
X-127799Y142815D01*
X-129065Y141549D01*
X-129750Y139895D01*
Y138105D01*
X-129065Y136451D01*
X-127799Y135185D01*
X-126145Y134500D01*
X-124355D01*
X-122701Y135185D01*
X-121435Y136451D01*
X-120750Y138105D01*
Y138924D01*
X-96424Y163250D01*
X-95355D01*
X-93701Y163935D01*
X-92435Y165201D01*
X-91750Y166855D01*
Y168645D01*
X-92435Y170299D01*
X-93701Y171565D01*
X-95355Y172250D01*
D02*
G37*
G36*
X-230855Y138500D02*
X-232645D01*
X-234299Y137815D01*
X-235565Y136549D01*
X-236250Y134895D01*
Y133105D01*
X-235565Y131451D01*
X-234299Y130185D01*
X-232645Y129500D01*
X-230855D01*
X-229201Y130185D01*
X-227935Y131451D01*
X-227250Y133105D01*
Y134895D01*
X-227935Y136549D01*
X-229201Y137815D01*
X-230855Y138500D01*
D02*
G37*
G36*
X42395Y171250D02*
X40605D01*
X38951Y170565D01*
X37685Y169299D01*
X37000Y167645D01*
Y165855D01*
X37635Y164321D01*
X-18093Y108593D01*
X-18811Y107518D01*
X-19064Y106250D01*
Y95623D01*
X-85623Y29064D01*
X-90200D01*
X-90701Y29565D01*
X-92355Y30250D01*
X-94145D01*
X-95799Y29565D01*
X-97065Y28299D01*
X-97750Y26645D01*
Y24855D01*
X-97065Y23201D01*
X-95799Y21935D01*
X-94145Y21250D01*
X-92355D01*
X-90701Y21935D01*
X-90200Y22436D01*
X-84250D01*
X-82982Y22689D01*
X-81907Y23407D01*
X-13407Y91907D01*
X-12689Y92982D01*
X-12436Y94250D01*
Y104877D01*
X-11520Y105794D01*
X-10250Y105268D01*
Y104505D01*
X-9489Y102668D01*
X-8082Y101261D01*
X-6245Y100500D01*
X-4255D01*
X-2418Y101261D01*
X-1743Y101936D01*
X16993D01*
X17918Y101011D01*
X19755Y100250D01*
X21745D01*
X23582Y101011D01*
X24989Y102418D01*
X25750Y104255D01*
Y106245D01*
X24989Y108082D01*
X23582Y109489D01*
X21745Y110250D01*
X19755D01*
X17918Y109489D01*
X16993Y108564D01*
X-1243D01*
X-2418Y109739D01*
X-4255Y110500D01*
X-5018D01*
X-5544Y111770D01*
X43549Y160863D01*
X44267Y161938D01*
X44519Y163206D01*
Y163405D01*
X45315Y164201D01*
X46000Y165855D01*
Y167645D01*
X45315Y169299D01*
X44049Y170565D01*
X42395Y171250D01*
D02*
G37*
G36*
X35395Y130750D02*
X33605D01*
X31951Y130065D01*
X30685Y128799D01*
X30000Y127145D01*
Y125355D01*
X30685Y123701D01*
X31441Y122945D01*
Y86305D01*
X30685Y85549D01*
X30000Y83895D01*
Y82105D01*
X30685Y80451D01*
X31951Y79185D01*
X33605Y78500D01*
X35395D01*
X37049Y79185D01*
X38315Y80451D01*
X39000Y82105D01*
Y83895D01*
X38315Y85549D01*
X37559Y86305D01*
Y122945D01*
X38315Y123701D01*
X39000Y125355D01*
Y127145D01*
X38315Y128799D01*
X37049Y130065D01*
X35395Y130750D01*
D02*
G37*
G36*
X147500Y101750D02*
X146230Y101750D01*
X134500D01*
Y90750D01*
X137941D01*
Y86512D01*
X136761Y85332D01*
X136000Y83495D01*
Y81505D01*
X136761Y79668D01*
X138168Y78261D01*
X140005Y77500D01*
X141995D01*
X143832Y78261D01*
X145239Y79668D01*
X146000Y81505D01*
Y83495D01*
X145239Y85332D01*
X144059Y86512D01*
Y89852D01*
X144957Y90750D01*
X147500Y90750D01*
X148770Y90750D01*
X153706D01*
Y86729D01*
X153032Y86176D01*
X151007D01*
X150095Y85994D01*
X149322Y85478D01*
X148806Y84705D01*
X148624Y83792D01*
Y73267D01*
X148806Y72355D01*
X148806Y72354D01*
Y72242D01*
X145191Y68627D01*
X143737D01*
X143549Y68815D01*
X141895Y69500D01*
X140105D01*
X138451Y68815D01*
X137185Y67549D01*
X136500Y65895D01*
Y64105D01*
X137185Y62451D01*
X138451Y61185D01*
X140105Y60500D01*
X141895D01*
X143549Y61185D01*
X144050Y61686D01*
X146250D01*
X147518Y61939D01*
X148593Y62657D01*
X154463Y68527D01*
X155181Y69602D01*
X155210Y69748D01*
X155613Y70963D01*
X156007Y70884D01*
X158032D01*
X158438Y70552D01*
Y67827D01*
X158177Y67567D01*
X157492Y65913D01*
Y64123D01*
X158177Y62469D01*
X159443Y61203D01*
X161097Y60518D01*
X162887D01*
X164541Y61203D01*
X165807Y62469D01*
X166492Y64123D01*
Y65913D01*
X165807Y67567D01*
X165575Y67799D01*
Y70529D01*
X166007Y70884D01*
X168032D01*
X168944Y71066D01*
X169718Y71582D01*
X170234Y72355D01*
X170416Y73267D01*
Y83792D01*
X170534Y83936D01*
X173936D01*
Y80050D01*
X173435Y79549D01*
X172750Y77895D01*
Y76105D01*
X173435Y74451D01*
X174701Y73185D01*
X176355Y72500D01*
X178145D01*
X179799Y73185D01*
X181065Y74451D01*
X181750Y76105D01*
Y77895D01*
X181065Y79549D01*
X180564Y80050D01*
Y85786D01*
X180311Y87054D01*
X179593Y88129D01*
X178129Y89593D01*
X177054Y90311D01*
X175786Y90564D01*
X168465D01*
X167196Y90311D01*
X166121Y89593D01*
X164657Y88129D01*
X163939Y87054D01*
X163032Y86176D01*
X161007D01*
X160334Y86729D01*
Y90750D01*
X160500D01*
Y101750D01*
X148770D01*
X147500Y101750D01*
D02*
G37*
G36*
X33495Y69750D02*
X31505D01*
X30612Y69380D01*
X22042D01*
X21810Y69334D01*
X17000D01*
Y60334D01*
X21388D01*
X22042Y60204D01*
X30410D01*
X31505Y59750D01*
X33495D01*
X35332Y60511D01*
X36739Y61918D01*
X37500Y63755D01*
Y65745D01*
X36739Y67582D01*
X35332Y68989D01*
X33495Y69750D01*
D02*
G37*
G36*
X645Y171750D02*
X-1145D01*
X-2799Y171065D01*
X-4065Y169799D01*
X-4750Y168145D01*
Y166355D01*
X-4065Y164701D01*
X-3564Y164200D01*
Y137373D01*
X-72436Y68500D01*
X-73145D01*
X-74799Y67815D01*
X-76065Y66549D01*
X-76750Y64895D01*
Y63105D01*
X-76065Y61451D01*
X-74799Y60185D01*
X-73145Y59500D01*
X-71355D01*
X-69701Y60185D01*
X-68435Y61451D01*
X-67750Y63105D01*
Y63814D01*
X2093Y133657D01*
X2811Y134732D01*
X3064Y136000D01*
Y164200D01*
X3565Y164701D01*
X4250Y166355D01*
Y168145D01*
X3565Y169799D01*
X2299Y171065D01*
X645Y171750D01*
D02*
G37*
G36*
X158033Y58076D02*
X156007D01*
X155095Y57894D01*
X154520Y57510D01*
X153945Y57894D01*
X153033Y58076D01*
X151007D01*
X150095Y57894D01*
X149322Y57378D01*
X148806Y56605D01*
X148624Y55693D01*
Y53059D01*
X144305D01*
X143549Y53815D01*
X141895Y54500D01*
X140105D01*
X138451Y53815D01*
X137185Y52549D01*
X136500Y50895D01*
Y49105D01*
X137185Y47451D01*
X138451Y46185D01*
X140105Y45500D01*
X141895D01*
X143549Y46185D01*
X144305Y46941D01*
X148624D01*
Y45167D01*
X148806Y44255D01*
X149322Y43482D01*
X150095Y42966D01*
X151007Y42784D01*
X153032D01*
X153451Y42440D01*
Y39748D01*
X140953Y27250D01*
X140005D01*
X138168Y26489D01*
X136761Y25082D01*
X136000Y23245D01*
Y21255D01*
X136412Y20261D01*
Y16250D01*
X134750D01*
Y5250D01*
X146480D01*
X147750Y5250D01*
X149020Y5250D01*
X154211D01*
Y1536D01*
X153282Y426D01*
X151257D01*
X150345Y244D01*
X149572Y-272D01*
X149056Y-1045D01*
X148874Y-1957D01*
Y-8298D01*
X147604Y-8528D01*
X146000Y-6924D01*
Y-5855D01*
X145315Y-4201D01*
X144049Y-2935D01*
X142395Y-2250D01*
X140605D01*
X138951Y-2935D01*
X137685Y-4201D01*
X137000Y-5855D01*
Y-7645D01*
X137685Y-9299D01*
X138951Y-10565D01*
X140605Y-11250D01*
X141674D01*
X144337Y-13913D01*
X145330Y-14576D01*
X146500Y-14809D01*
X146500Y-14809D01*
X150971D01*
X151257Y-14866D01*
X153282D01*
X154194Y-14684D01*
X154770Y-14300D01*
X155345Y-14684D01*
X156257Y-14866D01*
X158282D01*
X158701Y-15210D01*
Y-17187D01*
X157935Y-17953D01*
X157174Y-19791D01*
Y-21780D01*
X157935Y-23618D01*
X159341Y-25024D01*
X161179Y-25786D01*
X163168D01*
X165006Y-25024D01*
X166412Y-23618D01*
X167174Y-21780D01*
Y-19791D01*
X166412Y-17953D01*
X165839Y-17380D01*
Y-15210D01*
X166257Y-14866D01*
X168283D01*
X169195Y-14684D01*
X169968Y-14168D01*
X170484Y-13395D01*
X170666Y-12483D01*
Y-2314D01*
X173936D01*
Y-5950D01*
X173435Y-6451D01*
X172750Y-8105D01*
Y-9895D01*
X173435Y-11549D01*
X174701Y-12815D01*
X176355Y-13500D01*
X178145D01*
X179799Y-12815D01*
X181065Y-11549D01*
X181750Y-9895D01*
Y-8105D01*
X181065Y-6451D01*
X180564Y-5950D01*
Y-465D01*
X180311Y804D01*
X179593Y1879D01*
X178129Y3343D01*
X177054Y4061D01*
X175786Y4314D01*
X169000D01*
X167732Y4061D01*
X166657Y3343D01*
X164907Y1593D01*
X164189Y518D01*
X163283Y426D01*
X161257D01*
X160329Y1536D01*
Y5250D01*
X160750D01*
Y16250D01*
X149020D01*
X147750Y16250D01*
X146486Y16250D01*
X145588Y17148D01*
Y20261D01*
X146000Y21255D01*
Y22203D01*
X159543Y35747D01*
X160317Y36904D01*
X160589Y38270D01*
Y50430D01*
X160416Y51299D01*
Y55693D01*
X160234Y56605D01*
X159718Y57378D01*
X158945Y57894D01*
X158033Y58076D01*
D02*
G37*
G36*
X-92255Y69000D02*
X-94244D01*
X-96082Y68239D01*
X-97489Y66832D01*
X-98250Y64995D01*
Y63005D01*
X-97672Y61610D01*
Y53750D01*
X-97584Y53307D01*
Y48750D01*
X-88584D01*
Y53307D01*
X-88496Y53750D01*
Y62412D01*
X-88250Y63005D01*
Y64995D01*
X-89011Y66832D01*
X-90418Y68239D01*
X-92255Y69000D01*
D02*
G37*
G36*
X-10005Y52250D02*
X-11995D01*
X-13832Y51489D01*
X-15239Y50082D01*
X-16000Y48245D01*
Y46255D01*
X-15588Y45261D01*
Y43919D01*
X-16094Y43819D01*
X-17128Y43128D01*
X-17819Y42094D01*
X-17969Y41338D01*
X-18000D01*
X-19756Y40989D01*
X-21081Y40104D01*
X-21281Y40064D01*
X-23172D01*
Y43493D01*
X-23443Y44858D01*
X-24217Y46016D01*
X-25974Y47773D01*
X-27132Y48547D01*
X-28497Y48819D01*
X-40183D01*
X-41548Y48547D01*
X-42706Y47773D01*
X-44463Y46016D01*
X-45237Y44858D01*
X-45509Y43493D01*
Y40717D01*
X-46515Y39622D01*
X-47313D01*
X-47341Y39641D01*
X-48609Y39893D01*
X-52677D01*
X-53197Y40414D01*
X-54851Y41099D01*
X-56641D01*
X-58295Y40414D01*
X-59561Y39148D01*
X-60246Y37494D01*
Y35704D01*
X-59561Y34050D01*
X-58295Y32784D01*
X-56641Y32099D01*
X-54851D01*
X-54122Y32401D01*
X-52852Y31552D01*
Y30685D01*
X-52685Y29848D01*
X-52255Y29060D01*
X-52686Y28272D01*
X-52852Y27435D01*
Y25685D01*
X-53518Y24874D01*
X-56690D01*
X-57958Y24622D01*
X-59033Y23903D01*
X-72593Y10343D01*
X-74286Y10094D01*
X-74500Y10251D01*
Y18000D01*
X-85500D01*
Y16088D01*
X-91000D01*
X-92059Y15877D01*
X-92355Y16000D01*
X-94145D01*
X-95799Y15315D01*
X-97065Y14049D01*
X-97750Y12395D01*
Y10605D01*
X-97065Y8951D01*
X-95799Y7685D01*
X-94145Y7000D01*
X-92355D01*
X-92059Y7122D01*
X-91000Y6912D01*
X-86398D01*
X-85500Y6014D01*
X-85500Y5000D01*
X-85500Y3986D01*
X-86398Y3088D01*
X-93250D01*
X-93693Y3000D01*
X-94145D01*
X-94563Y2827D01*
X-95006Y2739D01*
X-95381Y2488D01*
X-95799Y2315D01*
X-96118Y1995D01*
X-96494Y1744D01*
X-96745Y1368D01*
X-97065Y1049D01*
X-97238Y632D01*
X-97489Y256D01*
X-97577Y-188D01*
X-97750Y-605D01*
Y-1057D01*
X-97838Y-1500D01*
X-97750Y-1943D01*
Y-2395D01*
X-97577Y-2813D01*
X-97489Y-3256D01*
X-97238Y-3632D01*
X-97065Y-4049D01*
X-96745Y-4369D01*
X-96494Y-4744D01*
X-96118Y-4995D01*
X-95799Y-5315D01*
X-95381Y-5488D01*
X-95006Y-5739D01*
X-94563Y-5827D01*
X-94145Y-6000D01*
X-93693D01*
X-93250Y-6088D01*
X-85500D01*
Y-8000D01*
X-74834D01*
X-74500Y-8000D01*
X-73564Y-8806D01*
Y-22493D01*
X-74489Y-23418D01*
X-75250Y-25255D01*
Y-27245D01*
X-74489Y-29082D01*
X-73835Y-29736D01*
X-74533Y-30834D01*
X-75403Y-30834D01*
X-78807D01*
X-79250Y-30746D01*
X-88949D01*
X-90704Y-31095D01*
X-90979Y-31279D01*
X-92255Y-30750D01*
X-94244D01*
X-96082Y-31511D01*
X-97489Y-32918D01*
X-98250Y-34755D01*
Y-36745D01*
X-97489Y-38582D01*
X-96082Y-39989D01*
X-94244Y-40750D01*
X-92255D01*
X-90734Y-40120D01*
X-89635Y-40338D01*
X-89365D01*
X-87609Y-39989D01*
X-87509Y-39922D01*
X-79250D01*
X-78807Y-39834D01*
X-74250D01*
Y-32069D01*
X-74250Y-31117D01*
X-73242Y-30476D01*
X-73082Y-30489D01*
X-72866Y-30578D01*
X-71245Y-31250D01*
X-69255D01*
X-67418Y-30489D01*
X-66368Y-29439D01*
X-48275D01*
X-47007Y-29186D01*
X-46821Y-29062D01*
X-46075D01*
X-45031Y-30149D01*
Y-30551D01*
X-46666Y-32186D01*
X-60700D01*
X-61451Y-31435D01*
X-63105Y-30750D01*
X-64895D01*
X-66549Y-31435D01*
X-67815Y-32701D01*
X-68500Y-34355D01*
Y-36145D01*
X-67815Y-37799D01*
X-66549Y-39065D01*
X-64895Y-39750D01*
X-63105D01*
X-61451Y-39065D01*
X-61200Y-38814D01*
X-45294D01*
X-44026Y-38561D01*
X-43327Y-38094D01*
X-42517Y-39081D01*
X-48123Y-44686D01*
X-75200D01*
X-75701Y-44185D01*
X-77355Y-43500D01*
X-79145D01*
X-80799Y-44185D01*
X-82065Y-45451D01*
X-82750Y-47105D01*
Y-48895D01*
X-82065Y-50549D01*
X-81698Y-50916D01*
X-82224Y-52186D01*
X-83250D01*
X-84518Y-52439D01*
X-85593Y-53157D01*
X-86186Y-53750D01*
X-86895D01*
X-88549Y-54435D01*
X-89815Y-55701D01*
X-90500Y-57355D01*
Y-59145D01*
X-89815Y-60799D01*
X-88549Y-62065D01*
X-86895Y-62750D01*
X-85105D01*
X-83451Y-62065D01*
X-82185Y-60799D01*
X-81500Y-59145D01*
Y-58814D01*
X-43250D01*
X-41982Y-58561D01*
X-40907Y-57843D01*
X-28907Y-45843D01*
X-28189Y-44768D01*
X-27936Y-43500D01*
Y-27900D01*
X-28189Y-26632D01*
X-28438Y-26259D01*
Y-25575D01*
X-28605Y-24738D01*
X-29079Y-24028D01*
X-29788Y-23554D01*
X-30625Y-23388D01*
X-32375D01*
X-32959Y-22787D01*
X-33129Y-22243D01*
X-32935Y-22049D01*
X-32250Y-20395D01*
Y-18605D01*
X-32935Y-16951D01*
X-34201Y-15685D01*
X-35855Y-15000D01*
X-37645D01*
X-39299Y-15685D01*
X-40565Y-16951D01*
X-41250Y-18605D01*
Y-20395D01*
X-40565Y-22049D01*
X-40456Y-22158D01*
X-40484Y-22360D01*
X-41022Y-23388D01*
X-42375D01*
X-43071Y-23526D01*
X-43594Y-23094D01*
X-44026Y-22571D01*
X-43888Y-21875D01*
Y-20125D01*
X-44054Y-19288D01*
X-44486Y-18500D01*
X-44054Y-17712D01*
X-43888Y-16875D01*
Y-15125D01*
X-44026Y-14429D01*
X-43594Y-13906D01*
X-43071Y-13474D01*
X-42375Y-13612D01*
X-40625D01*
X-39788Y-13446D01*
X-39079Y-12971D01*
X-38605Y-12262D01*
X-38438Y-11425D01*
Y-10615D01*
X-38186Y-9350D01*
Y-6064D01*
X-28164D01*
Y-8373D01*
X-28472Y-8579D01*
X-28946Y-9288D01*
X-29112Y-10125D01*
Y-11875D01*
X-28946Y-12712D01*
X-28472Y-13421D01*
Y-13579D01*
X-28946Y-14288D01*
X-29112Y-15125D01*
Y-16875D01*
X-28946Y-17712D01*
X-28472Y-18421D01*
X-27762Y-18895D01*
X-26925Y-19062D01*
X-22775D01*
X-21938Y-18895D01*
X-21229Y-18421D01*
X-20754Y-17712D01*
X-20588Y-16875D01*
Y-15876D01*
X-19318Y-15197D01*
X-19256Y-15239D01*
X-17750Y-15538D01*
Y-22750D01*
X-15750Y-24750D01*
X-5750D01*
X-3750Y-22750D01*
Y-14750D01*
X-3886Y-14614D01*
X-3689Y-13625D01*
Y-6875D01*
X-3931Y-5656D01*
X-4622Y-4622D01*
X-5656Y-3931D01*
X-6162Y-3831D01*
Y-1989D01*
X-5750Y-995D01*
Y995D01*
X-6511Y2832D01*
X-7918Y4239D01*
X-9755Y5000D01*
X-11745D01*
X-13582Y4239D01*
X-14989Y2832D01*
X-15750Y995D01*
Y-995D01*
X-15338Y-1989D01*
Y-3831D01*
X-15844Y-3931D01*
X-16878Y-4622D01*
X-17569Y-5656D01*
X-17728Y-6457D01*
X-19256Y-6761D01*
X-20266Y-7436D01*
X-21191Y-7093D01*
X-21536Y-6780D01*
Y-4214D01*
X-21789Y-2946D01*
X-22507Y-1871D01*
X-23971Y-407D01*
X-25046Y311D01*
X-26314Y564D01*
X-31007D01*
X-31341Y1125D01*
X-31480Y1834D01*
X-27407Y5907D01*
X-26689Y6982D01*
X-26436Y8250D01*
Y16746D01*
X-26689Y18014D01*
X-27407Y19089D01*
X-28725Y20407D01*
X-28878Y21175D01*
Y21985D01*
X-29044Y22822D01*
X-29519Y23531D01*
X-30228Y24006D01*
X-31065Y24172D01*
X-32815D01*
X-33652Y24006D01*
X-34440Y23575D01*
X-35228Y24006D01*
X-36065Y24172D01*
X-37815D01*
X-38652Y24006D01*
X-39440Y23575D01*
X-40228Y24006D01*
X-41065Y24172D01*
X-42815D01*
X-43511Y24034D01*
X-44034Y24466D01*
X-44467Y24989D01*
X-44328Y25685D01*
Y27435D01*
X-44495Y28272D01*
X-44926Y29060D01*
X-44495Y29848D01*
X-44328Y30685D01*
Y32435D01*
X-44467Y33131D01*
X-44034Y33654D01*
X-43511Y34087D01*
X-42815Y33948D01*
X-41065D01*
X-40228Y34114D01*
X-39519Y34589D01*
X-39044Y35298D01*
X-38878Y36135D01*
Y36493D01*
X-38643Y36844D01*
X-38371Y38210D01*
Y41681D01*
X-30309D01*
Y36810D01*
X-30037Y35445D01*
X-29263Y34287D01*
X-29013Y34037D01*
X-28982Y33877D01*
X-29386Y33272D01*
X-29552Y32435D01*
Y30685D01*
X-29386Y29848D01*
X-28911Y29139D01*
X-28202Y28665D01*
X-27365Y28498D01*
X-23215D01*
X-22378Y28665D01*
X-21669Y29139D01*
X-21195Y29848D01*
X-21028Y30685D01*
Y31834D01*
X-19802Y32542D01*
X-19756Y32511D01*
X-18000Y32162D01*
Y25000D01*
X-16000Y23000D01*
X-6000D01*
X-4000Y25000D01*
Y33000D01*
X-4136Y33136D01*
X-3939Y34125D01*
Y40875D01*
X-4181Y42094D01*
X-4872Y43128D01*
X-5906Y43819D01*
X-6412Y43919D01*
Y45261D01*
X-6000Y46255D01*
Y48245D01*
X-6761Y50082D01*
X-8168Y51489D01*
X-10005Y52250D01*
D02*
G37*
G36*
X168032Y58076D02*
X166007D01*
X165096Y57894D01*
X164322Y57378D01*
X163806Y56605D01*
X163624Y55693D01*
Y45167D01*
X163806Y44255D01*
X163806Y44254D01*
Y43965D01*
X164059Y42696D01*
X164777Y41621D01*
X166241Y40157D01*
X167316Y39439D01*
X168584Y39186D01*
X175786D01*
X177054Y39439D01*
X178129Y40157D01*
X179593Y41621D01*
X180311Y42696D01*
X180564Y43965D01*
Y49200D01*
X181065Y49701D01*
X181750Y51355D01*
Y53145D01*
X181065Y54799D01*
X179799Y56065D01*
X178145Y56750D01*
X176355D01*
X174701Y56065D01*
X173435Y54799D01*
X172750Y53145D01*
Y51355D01*
X173435Y49701D01*
X173936Y49200D01*
Y45814D01*
X170434D01*
Y50330D01*
X170416Y50420D01*
Y55693D01*
X170234Y56605D01*
X169718Y57378D01*
X168944Y57894D01*
X168032Y58076D01*
D02*
G37*
G36*
X-92255Y45500D02*
X-94244D01*
X-96082Y44739D01*
X-97489Y43332D01*
X-98250Y41495D01*
Y39505D01*
X-97489Y37668D01*
X-96082Y36261D01*
X-94244Y35500D01*
X-92255D01*
X-90418Y36261D01*
X-89011Y37668D01*
X-88250Y39505D01*
Y41495D01*
X-89011Y43332D01*
X-90418Y44739D01*
X-92255Y45500D01*
D02*
G37*
G36*
X46395Y130750D02*
X44605D01*
X42951Y130065D01*
X41685Y128799D01*
X41000Y127145D01*
Y125355D01*
X41685Y123701D01*
X42186Y123200D01*
Y43250D01*
X42439Y41982D01*
X43157Y40907D01*
X47657Y36407D01*
X48732Y35689D01*
X50000Y35436D01*
X59450D01*
X59951Y34935D01*
X61605Y34250D01*
X63395D01*
X65049Y34935D01*
X66315Y36201D01*
X67000Y37855D01*
Y39645D01*
X66315Y41299D01*
X65049Y42565D01*
X63395Y43250D01*
X63453Y44458D01*
X65290Y45219D01*
X65357Y45286D01*
X70958D01*
X71612Y45416D01*
X78000D01*
Y54416D01*
X71190D01*
X70958Y54462D01*
X63145D01*
X63124Y54458D01*
X61463D01*
X59626Y53697D01*
X58219Y52290D01*
X57458Y50453D01*
Y48463D01*
X58219Y46626D01*
X59626Y45219D01*
X61463Y44458D01*
X61605Y43250D01*
X59951Y42565D01*
X59450Y42064D01*
X51373D01*
X48814Y44623D01*
Y123200D01*
X49315Y123701D01*
X50000Y125355D01*
Y127145D01*
X49315Y128799D01*
X48049Y130065D01*
X46395Y130750D01*
D02*
G37*
G36*
X100745Y163750D02*
X98755D01*
X96918Y162989D01*
X95511Y161582D01*
X94750Y159745D01*
Y157755D01*
X95511Y155918D01*
X96436Y154993D01*
Y26007D01*
X95511Y25082D01*
X94959Y23749D01*
X93584D01*
X93239Y24582D01*
X92314Y25507D01*
Y141493D01*
X93239Y142418D01*
X94000Y144255D01*
Y146245D01*
X93239Y148082D01*
X91832Y149489D01*
X89995Y150250D01*
X88005D01*
X86168Y149489D01*
X84761Y148082D01*
X84000Y146245D01*
Y144255D01*
X84761Y142418D01*
X85686Y141493D01*
Y25507D01*
X84761Y24582D01*
X84000Y22745D01*
Y20755D01*
X84761Y18918D01*
X86168Y17511D01*
X88005Y16750D01*
X89995D01*
X91832Y17511D01*
X93239Y18918D01*
X93791Y20251D01*
X95166D01*
X95511Y19418D01*
X96918Y18011D01*
X98755Y17250D01*
X100745D01*
X102582Y18011D01*
X103989Y19418D01*
X104750Y21255D01*
Y23245D01*
X103989Y25082D01*
X103064Y26007D01*
Y154993D01*
X103989Y155918D01*
X104750Y157755D01*
Y159745D01*
X103989Y161582D01*
X102582Y162989D01*
X100745Y163750D01*
D02*
G37*
G36*
X142395Y-16286D02*
X140605D01*
X138951Y-16971D01*
X137685Y-18237D01*
X137000Y-19891D01*
Y-21681D01*
X137685Y-23335D01*
X138951Y-24601D01*
X140605Y-25286D01*
X142395D01*
X144049Y-24601D01*
X144787Y-23863D01*
X149326Y-28402D01*
Y-28740D01*
X149056Y-29146D01*
X148874Y-30057D01*
Y-40582D01*
X149056Y-41495D01*
X149572Y-42268D01*
X150345Y-42784D01*
X151257Y-42966D01*
X153282D01*
X154211Y-44076D01*
Y-44270D01*
X154211Y-44270D01*
X154444Y-45441D01*
X155107Y-46433D01*
X162337Y-53663D01*
X162337Y-53663D01*
X163330Y-54326D01*
X164500Y-54559D01*
X173488D01*
X174668Y-55739D01*
X176505Y-56500D01*
X178495D01*
X180332Y-55739D01*
X181739Y-54332D01*
X182500Y-52495D01*
Y-50505D01*
X181739Y-48668D01*
X180332Y-47261D01*
X179395Y-46873D01*
X179097Y-45375D01*
X179843Y-44629D01*
X180561Y-43554D01*
X180814Y-42285D01*
Y-36800D01*
X181315Y-36299D01*
X182000Y-34645D01*
Y-32855D01*
X181315Y-31201D01*
X180049Y-29935D01*
X178395Y-29250D01*
X176605D01*
X174951Y-29935D01*
X173685Y-31201D01*
X173000Y-32855D01*
Y-34645D01*
X173685Y-36299D01*
X174186Y-36800D01*
Y-40436D01*
X170674D01*
Y-35410D01*
X170666Y-35370D01*
Y-30057D01*
X170484Y-29146D01*
X169968Y-28372D01*
X169195Y-27856D01*
X168283Y-27674D01*
X166257D01*
X165345Y-27856D01*
X164572Y-28372D01*
X164056Y-29146D01*
X163874Y-30057D01*
Y-40582D01*
X164046Y-41448D01*
Y-42285D01*
X164299Y-43554D01*
X165017Y-44629D01*
X166481Y-46093D01*
X167556Y-46811D01*
X168825Y-47064D01*
X171658D01*
X172337Y-48334D01*
X172265Y-48441D01*
X165767D01*
X160329Y-43003D01*
Y-41727D01*
X160484Y-41495D01*
X160666Y-40582D01*
Y-30057D01*
X160484Y-29146D01*
X159968Y-28372D01*
X159194Y-27856D01*
X158282Y-27674D01*
X156495D01*
X155444Y-27135D01*
X155211Y-25965D01*
X154548Y-24972D01*
X148198Y-18623D01*
X147206Y-17960D01*
X146036Y-17727D01*
X146035Y-17727D01*
X144805D01*
X144049Y-16971D01*
X142395Y-16286D01*
D02*
G37*
G36*
X-144105Y-62250D02*
X-145895D01*
X-147549Y-62935D01*
X-148050Y-63436D01*
X-152514D01*
X-153782Y-63689D01*
X-154857Y-64407D01*
X-160653Y-70203D01*
X-161371Y-71278D01*
X-161624Y-72546D01*
Y-77005D01*
X-161706Y-77417D01*
Y-87942D01*
X-161525Y-88855D01*
X-161008Y-89628D01*
X-160235Y-90144D01*
X-159323Y-90326D01*
X-157298D01*
X-156386Y-90144D01*
X-155810Y-89760D01*
X-155235Y-90144D01*
X-154670Y-90257D01*
X-149247Y-95680D01*
X-149500Y-96292D01*
Y-98082D01*
X-148815Y-99736D01*
X-147549Y-101002D01*
X-145895Y-101687D01*
X-144105D01*
X-142451Y-101002D01*
X-141185Y-99736D01*
X-140500Y-98082D01*
Y-96292D01*
X-141185Y-94638D01*
X-142451Y-93372D01*
X-142516Y-93345D01*
X-143135Y-92419D01*
X-149914Y-85639D01*
Y-77417D01*
X-150096Y-76505D01*
X-150612Y-75732D01*
X-151386Y-75216D01*
X-152298Y-75034D01*
X-154323D01*
X-154450Y-74929D01*
X-154518Y-73440D01*
X-151141Y-70064D01*
X-148050D01*
X-147549Y-70565D01*
X-145895Y-71250D01*
X-144105D01*
X-142451Y-70565D01*
X-141185Y-69299D01*
X-140500Y-67645D01*
Y-65855D01*
X-141185Y-64201D01*
X-142451Y-62935D01*
X-144105Y-62250D01*
D02*
G37*
G36*
X236745Y-70250D02*
X234755D01*
X232918Y-71011D01*
X231511Y-72418D01*
X230750Y-74255D01*
Y-76245D01*
X231511Y-78082D01*
X232918Y-79489D01*
X234755Y-80250D01*
X236745D01*
X238582Y-79489D01*
X239989Y-78082D01*
X240750Y-76245D01*
Y-74255D01*
X239989Y-72418D01*
X238582Y-71011D01*
X236745Y-70250D01*
D02*
G37*
G36*
X212995Y-70500D02*
X211005D01*
X209168Y-71261D01*
X207761Y-72668D01*
X207000Y-74505D01*
Y-76495D01*
X207761Y-78332D01*
X209168Y-79739D01*
X211005Y-80500D01*
X212995D01*
X214832Y-79739D01*
X216239Y-78332D01*
X217000Y-76495D01*
Y-74505D01*
X216239Y-72668D01*
X214832Y-71261D01*
X212995Y-70500D01*
D02*
G37*
G36*
X-169875Y-72686D02*
X-177535D01*
X-178804Y-72939D01*
X-179879Y-73657D01*
X-181343Y-75121D01*
X-182061Y-76196D01*
X-182314Y-77464D01*
Y-81200D01*
X-182815Y-81701D01*
X-183500Y-83355D01*
Y-85145D01*
X-182815Y-86799D01*
X-181549Y-88065D01*
X-179895Y-88750D01*
X-178105D01*
X-176451Y-88065D01*
X-175185Y-86799D01*
X-174500Y-85145D01*
Y-83355D01*
X-175185Y-81701D01*
X-175686Y-81200D01*
Y-79314D01*
X-171724D01*
Y-82580D01*
X-171706Y-82670D01*
Y-87942D01*
X-171525Y-88855D01*
X-171008Y-89628D01*
X-170235Y-90144D01*
X-169323Y-90326D01*
X-167298D01*
X-166386Y-90144D01*
X-165612Y-89628D01*
X-165096Y-88855D01*
X-164914Y-87942D01*
Y-77417D01*
X-165096Y-76505D01*
X-165612Y-75732D01*
X-165696Y-75676D01*
X-166067Y-75121D01*
X-167532Y-73657D01*
X-168606Y-72939D01*
X-168817Y-72897D01*
X-169875Y-72686D01*
D02*
G37*
G36*
X190495Y-87750D02*
X188505D01*
X186668Y-88511D01*
X185261Y-89918D01*
X184500Y-91756D01*
Y-93745D01*
X185261Y-95582D01*
X186668Y-96989D01*
X188505Y-97750D01*
X190495D01*
X192332Y-96989D01*
X193739Y-95582D01*
X194500Y-93745D01*
Y-91756D01*
X193739Y-89918D01*
X192332Y-88511D01*
X190495Y-87750D01*
D02*
G37*
G36*
X236745Y-91500D02*
X234755D01*
X232918Y-92261D01*
X231511Y-93668D01*
X230750Y-95505D01*
Y-97495D01*
X231511Y-99332D01*
X232918Y-100739D01*
X234755Y-101500D01*
X236745D01*
X238582Y-100739D01*
X239989Y-99332D01*
X240750Y-97495D01*
Y-95505D01*
X239989Y-93668D01*
X238582Y-92261D01*
X236745Y-91500D01*
D02*
G37*
G36*
X17859Y-84250D02*
X15870D01*
X14032Y-85011D01*
X12626Y-86418D01*
X11865Y-88255D01*
Y-90245D01*
X12078Y-90759D01*
Y-99500D01*
X12166Y-99943D01*
Y-104500D01*
X21166D01*
Y-99943D01*
X21254Y-99500D01*
Y-91719D01*
X21865Y-90245D01*
Y-88255D01*
X21103Y-86418D01*
X19697Y-85011D01*
X17859Y-84250D01*
D02*
G37*
G36*
X190495Y-104000D02*
X188505D01*
X186668Y-104761D01*
X185261Y-106168D01*
X184500Y-108005D01*
Y-109995D01*
X185261Y-111832D01*
X186668Y-113239D01*
X188505Y-114000D01*
X190495D01*
X192332Y-113239D01*
X193739Y-111832D01*
X194500Y-109995D01*
Y-108005D01*
X193739Y-106168D01*
X192332Y-104761D01*
X190495Y-104000D01*
D02*
G37*
G36*
X-81891Y-84250D02*
X-83880D01*
X-85718Y-85011D01*
X-87124Y-86418D01*
X-87885Y-88255D01*
Y-90245D01*
X-87754Y-90561D01*
Y-99500D01*
Y-120266D01*
X-90400Y-122912D01*
X-135750D01*
Y-122000D01*
X-147480D01*
X-148750Y-122000D01*
X-150020Y-122000D01*
X-155251D01*
Y-119536D01*
X-154323Y-118426D01*
X-152298D01*
X-151386Y-118244D01*
X-150612Y-117728D01*
X-150096Y-116954D01*
X-149914Y-116042D01*
Y-114564D01*
X-148050D01*
X-147549Y-115065D01*
X-145895Y-115750D01*
X-144105D01*
X-142451Y-115065D01*
X-141185Y-113799D01*
X-140500Y-112145D01*
Y-110355D01*
X-141185Y-108701D01*
X-142451Y-107435D01*
X-144105Y-106750D01*
X-145895D01*
X-147549Y-107435D01*
X-148050Y-107936D01*
X-149914D01*
Y-105518D01*
X-150096Y-104605D01*
X-150612Y-103832D01*
X-151386Y-103316D01*
X-152298Y-103134D01*
X-154323D01*
X-155235Y-103316D01*
X-155810Y-103700D01*
X-156386Y-103316D01*
X-157298Y-103134D01*
X-159323D01*
X-159604Y-102904D01*
Y-100827D01*
X-158795Y-100019D01*
X-158034Y-98181D01*
Y-96192D01*
X-158795Y-94354D01*
X-160202Y-92948D01*
X-162040Y-92187D01*
X-164029D01*
X-165867Y-92948D01*
X-167273Y-94354D01*
X-168034Y-96192D01*
Y-98181D01*
X-167273Y-100019D01*
X-166741Y-100551D01*
Y-102677D01*
X-167298Y-103134D01*
X-169323D01*
X-170235Y-103316D01*
X-171008Y-103832D01*
X-171525Y-104605D01*
X-171706Y-105518D01*
Y-110790D01*
X-171724Y-110880D01*
Y-116186D01*
X-175686D01*
Y-112300D01*
X-174935Y-111549D01*
X-174250Y-109895D01*
Y-108105D01*
X-174935Y-106451D01*
X-176201Y-105185D01*
X-177855Y-104500D01*
X-179645D01*
X-181299Y-105185D01*
X-182565Y-106451D01*
X-183250Y-108105D01*
Y-109895D01*
X-182565Y-111549D01*
X-182314Y-111800D01*
Y-117750D01*
X-182061Y-119018D01*
X-181343Y-120093D01*
X-179593Y-121843D01*
X-178518Y-122561D01*
X-177250Y-122814D01*
X-170250D01*
X-168982Y-122561D01*
X-167907Y-121843D01*
X-166067Y-120003D01*
X-165349Y-118928D01*
X-165214Y-118249D01*
X-164323Y-118426D01*
X-162298D01*
X-161369Y-119536D01*
Y-122000D01*
X-161750D01*
Y-133000D01*
X-150020D01*
X-148750Y-133000D01*
X-147480Y-133000D01*
X-135750D01*
Y-132088D01*
X-88500D01*
X-86744Y-131739D01*
X-85256Y-130744D01*
X-79922Y-125410D01*
X-78927Y-123922D01*
X-78578Y-122166D01*
Y-99500D01*
Y-91917D01*
X-77885Y-90245D01*
Y-88255D01*
X-78646Y-86418D01*
X-80053Y-85011D01*
X-81891Y-84250D01*
D02*
G37*
G36*
X190495Y-120250D02*
X188505D01*
X186668Y-121011D01*
X185261Y-122418D01*
X184500Y-124255D01*
Y-126245D01*
X185261Y-128082D01*
X186668Y-129489D01*
X188505Y-130250D01*
X190495D01*
X192332Y-129489D01*
X193739Y-128082D01*
X194500Y-126245D01*
Y-124255D01*
X193739Y-122418D01*
X192332Y-121011D01*
X190495Y-120250D01*
D02*
G37*
G36*
X165245Y-147000D02*
X163255D01*
X161418Y-147761D01*
X160011Y-149168D01*
X159250Y-151005D01*
Y-152995D01*
X160011Y-154832D01*
X161418Y-156239D01*
X163255Y-157000D01*
X165245D01*
X167082Y-156239D01*
X168489Y-154832D01*
X169250Y-152995D01*
Y-151005D01*
X168489Y-149168D01*
X167082Y-147761D01*
X165245Y-147000D01*
D02*
G37*
G36*
X-91755Y-170250D02*
X-93745D01*
X-95582Y-171011D01*
X-96989Y-172418D01*
X-97750Y-174255D01*
Y-176245D01*
X-97338Y-177239D01*
Y-194511D01*
X-97750Y-195505D01*
Y-197495D01*
X-96989Y-199332D01*
X-95582Y-200739D01*
X-93745Y-201500D01*
X-91755D01*
X-89918Y-200739D01*
X-88511Y-199332D01*
X-87750Y-197495D01*
Y-195505D01*
X-88162Y-194511D01*
Y-177239D01*
X-87750Y-176245D01*
Y-174255D01*
X-88511Y-172418D01*
X-89918Y-171011D01*
X-91755Y-170250D01*
D02*
G37*
G36*
X72995Y-196000D02*
X71005D01*
X69168Y-196761D01*
X67761Y-198168D01*
X67000Y-200005D01*
Y-201995D01*
X67761Y-203832D01*
X69168Y-205239D01*
X71005Y-206000D01*
X72995D01*
X74832Y-205239D01*
X76239Y-203832D01*
X77000Y-201995D01*
Y-200005D01*
X76239Y-198168D01*
X74832Y-196761D01*
X72995Y-196000D01*
D02*
G37*
G36*
Y-212250D02*
X71005D01*
X69168Y-213011D01*
X67761Y-214418D01*
X67000Y-216255D01*
Y-218245D01*
X67761Y-220082D01*
X69168Y-221489D01*
X71005Y-222250D01*
X72995D01*
X74832Y-221489D01*
X76239Y-220082D01*
X77000Y-218245D01*
Y-216255D01*
X76239Y-214418D01*
X74832Y-213011D01*
X72995Y-212250D01*
D02*
G37*
G36*
X224216Y-203378D02*
X220375D01*
X216607Y-204127D01*
X213059Y-205597D01*
X209865Y-207731D01*
X207148Y-210448D01*
X205014Y-213641D01*
X203544Y-217190D01*
X202795Y-220958D01*
Y-224799D01*
X203544Y-228566D01*
X205014Y-232115D01*
X207148Y-235309D01*
X209865Y-238025D01*
X213059Y-240160D01*
X216607Y-241630D01*
X220375Y-242379D01*
X224216D01*
X227984Y-241630D01*
X231533Y-240160D01*
X234727Y-238025D01*
X237443Y-235309D01*
X239577Y-232115D01*
X241047Y-228566D01*
X241796Y-224799D01*
Y-220958D01*
X241047Y-217190D01*
X239577Y-213641D01*
X237443Y-210448D01*
X234727Y-207731D01*
X231533Y-205597D01*
X227984Y-204127D01*
X224216Y-203378D01*
D02*
G37*
G36*
X-220784D02*
X-224625D01*
X-228393Y-204127D01*
X-231941Y-205597D01*
X-235135Y-207731D01*
X-237852Y-210448D01*
X-239986Y-213641D01*
X-241456Y-217190D01*
X-242205Y-220958D01*
Y-224799D01*
X-241456Y-228566D01*
X-239986Y-232115D01*
X-237852Y-235309D01*
X-235135Y-238025D01*
X-231941Y-240160D01*
X-228393Y-241630D01*
X-224625Y-242379D01*
X-220784D01*
X-217016Y-241630D01*
X-213467Y-240160D01*
X-210273Y-238025D01*
X-207557Y-235309D01*
X-205423Y-232115D01*
X-203953Y-228566D01*
X-203204Y-224799D01*
Y-220958D01*
X-203953Y-217190D01*
X-205423Y-213641D01*
X-207557Y-210448D01*
X-210273Y-207731D01*
X-213467Y-205597D01*
X-217016Y-204127D01*
X-220784Y-203378D01*
D02*
G37*
%LPD*%
D10*
X-158310Y-125000D02*
Y-110780D01*
Y-125000D02*
X-155810Y-127500D01*
X-155250D01*
X34500Y83000D02*
Y126500D01*
X-38000Y150410D02*
X-35500Y152910D01*
Y159000D01*
X-34562Y142500D02*
X-33750D01*
X-34562D02*
X-37964Y139097D01*
X-37992D01*
X-38000Y139090D01*
X-41750Y131250D02*
X-66426Y106574D01*
X-69926D01*
X-70500Y106000D01*
X-58500Y100250D02*
X-25750Y133000D01*
Y142000D01*
X-27750Y144000D01*
X-50500Y159000D02*
X-52500Y161000D01*
Y162000D01*
X-49320Y144750D02*
Y139090D01*
X-46490Y141920D01*
X-49320Y139090D02*
X-56472D01*
X-62250Y133312D01*
Y132500D01*
X-51500Y131250D02*
X-61750Y121000D01*
Y120500D01*
X-58500Y100250D02*
X-80500D01*
X-62250Y147500D02*
X-62170Y147580D01*
X-59500D01*
X-82250Y167125D02*
Y167250D01*
Y167125D02*
X-125500Y123875D01*
Y123750D01*
X-125250Y139000D02*
X-125000D01*
X-96250Y167750D01*
X-111750D02*
X-111500Y167500D01*
X152385Y-35205D02*
Y-27135D01*
X146036Y-20786D01*
X141500D01*
Y-6750D02*
X146500Y-11750D01*
X151920D01*
X152270Y-11400D01*
Y-7220D01*
Y-35320D02*
X152385Y-35205D01*
X157270Y-35320D02*
Y-44270D01*
X164500Y-51500D01*
X177500D01*
X157270Y-7220D02*
Y8250D01*
X154770Y10750D01*
X154250D01*
X152020Y50350D02*
Y50430D01*
Y50350D02*
X151670Y50000D01*
X141000D01*
Y82500D02*
X141000Y82500D01*
Y96250D01*
D12*
X-145000Y-111250D02*
X-153210D01*
X-153310Y-111150D01*
Y-110780D01*
X-168310D02*
X-168410Y-110880D01*
Y-117660D01*
X-170250Y-119500D01*
X-177250D01*
X-179000Y-117750D01*
Y-109250D01*
X-178750Y-109000D01*
X-165929Y-91648D02*
X-163410Y-89128D01*
Y-82780D01*
X-163310Y-82680D01*
X-158310D02*
Y-72546D01*
X-152514Y-66750D01*
X-145000D01*
X-145478Y-94762D02*
Y-97272D01*
X-145000Y-97750D01*
X-145478Y-94762D02*
X-153310Y-86930D01*
Y-82680D01*
X-168310D02*
X-168410Y-82580D01*
Y-77464D01*
X-169875Y-76000D01*
X-177535D01*
X-179000Y-77464D01*
Y-84250D01*
X-165929Y-91648D02*
X-210128D01*
X-211830Y-93350D01*
Y-96080D01*
X-212500Y-96750D01*
X-118750Y-57000D02*
X-96500Y-79250D01*
X39500D01*
X70500Y-48250D01*
Y-30750D01*
X62250Y-22500D01*
Y-37750D02*
Y-42000D01*
X33500Y-70750D01*
X-91000D01*
X-104250Y-57500D01*
Y15500D01*
X-149750Y61000D01*
Y168500D01*
X-162250D02*
Y59500D01*
X-118750Y16000D01*
Y-57000D01*
X-86000Y-58250D02*
X-83250Y-55500D01*
X-43250D01*
X-31250Y-43500D01*
Y-27900D01*
X-31500Y-27650D01*
X-36500D02*
X-36625Y-27525D01*
Y-19625D01*
X-36750Y-19500D01*
X-31500Y-17101D02*
Y-9350D01*
Y-17101D02*
X-28101Y-20500D01*
X-25350D01*
X-24850Y-21000D01*
Y-11000D02*
Y-4214D01*
X-26314Y-2750D01*
X-40036D01*
X-41500Y-4214D01*
Y-9350D01*
X-24850Y-11000D02*
X-19500D01*
X-19500Y-11000D01*
X-29750Y8250D02*
Y16746D01*
X-31214Y18210D01*
X-31440D01*
X-31940Y18710D01*
Y19910D01*
X-36940D02*
X-36845Y19815D01*
Y12345D01*
X-36750Y12250D01*
X-34000Y4000D02*
X-29750Y8250D01*
X-34000Y4000D02*
X-49250D01*
X-55250Y-2000D01*
Y-17750D01*
X-48150Y-11000D02*
Y-4850D01*
X-48250Y-4750D01*
X-48150Y-26000D02*
X-48275Y-26125D01*
X-70125D01*
X-70250Y-26250D01*
Y8000D01*
X-56690Y21560D01*
X-48590D01*
X-48500Y12250D02*
X-48400D01*
X-41940Y18710D01*
Y19910D01*
X-41717Y-27867D02*
X-41500Y-27650D01*
X-41717Y-27867D02*
Y-31923D01*
X-45294Y-35500D01*
X-63750D01*
X-64000Y-35250D01*
X-46750Y-48000D02*
X-36500Y-37750D01*
Y-27650D01*
X-46750Y-48000D02*
X-78250D01*
X-20000Y36750D02*
X-25100D01*
X-25290Y36560D01*
X-48590D02*
X-48609Y36579D01*
X-55727D01*
X-55746Y36599D01*
X-72250Y64000D02*
X-250Y136000D01*
Y167250D01*
X-5250Y105500D02*
X-5000Y105250D01*
X20750D01*
X45500Y126500D02*
Y43250D01*
X50000Y38750D01*
X62500D01*
X89000Y21750D02*
Y145250D01*
X99750Y158626D02*
Y22250D01*
X141000Y65000D02*
X146250D01*
X152120Y70870D01*
Y78430D01*
X152020Y78530D01*
X157020D02*
Y94000D01*
X154770Y96250D01*
X154000D01*
X164418Y59530D02*
X211243D01*
X212217Y60505D01*
Y64217D01*
X212750Y64750D01*
X177250Y77000D02*
Y85786D01*
X175786Y87250D01*
X168465D01*
X167000Y85786D01*
Y78550D01*
X167020Y78530D01*
X164418Y59530D02*
X162020Y57132D01*
Y50430D01*
X167020D02*
X167120Y50330D01*
Y43965D01*
X168584Y42500D01*
X175786D01*
X177250Y43965D01*
Y52250D01*
X175786Y1000D02*
X177250Y-465D01*
Y-9000D01*
X167270Y-7220D02*
X167250Y-7200D01*
Y-750D01*
X169000Y1000D01*
X175786D01*
X164771Y-26470D02*
X210753D01*
X212217Y-25006D01*
Y-22459D01*
X212750Y-21927D01*
Y-21250D01*
X164771Y-26470D02*
X162370Y-28872D01*
Y-35220D01*
X162270Y-35320D01*
X167270D02*
X167360Y-35410D01*
Y-42285D01*
X168825Y-43750D01*
X176035D01*
X177500Y-42285D01*
Y-33750D01*
X32750Y64750D02*
X32708Y64792D01*
X22042D02*
X22000Y64834D01*
X-15750Y94250D02*
Y106250D01*
X41206Y163206D01*
Y166456D01*
X41500Y166750D01*
X-15750Y94250D02*
X-84250Y25750D01*
X-93250D01*
X-105250Y55250D02*
Y104000D01*
X-70184Y139066D01*
Y139316D01*
X-111750Y167750D02*
X-112000Y168000D01*
X-137000D01*
X-137250Y168250D01*
X-105250Y55250D02*
X-120000Y40500D01*
D74*
X-142250Y-127500D02*
D03*
X-155250D02*
D03*
X141250Y10750D02*
D03*
X154250D02*
D03*
X154000Y96250D02*
D03*
X141000D02*
D03*
D80*
X-80000Y-1500D02*
D03*
Y11500D02*
D03*
D84*
X-10750Y-27250D02*
D03*
Y-10250D02*
D03*
X-11000Y20500D02*
D03*
Y37500D02*
D03*
D90*
X16666Y-99500D02*
D03*
X27334D02*
D03*
X32584Y-49000D02*
D03*
X21916D02*
D03*
X-82416Y53750D02*
D03*
X-93084D02*
D03*
X-93834Y-99500D02*
D03*
X-83166D02*
D03*
D91*
X-79250Y-35334D02*
D03*
Y-24666D02*
D03*
X22000Y54166D02*
D03*
Y64834D02*
D03*
X73000Y60584D02*
D03*
Y49916D02*
D03*
D95*
X-92750Y-196500D02*
Y-175250D01*
X-88500Y-127500D02*
X-83166Y-122166D01*
Y-99500D01*
Y-89801D01*
X-82885Y-89521D01*
Y-89250D01*
X-93750D02*
Y-98916D01*
X-93834Y-99000D01*
Y-99500D01*
X-88500Y-127500D02*
X-142250D01*
X-142250Y-127500D01*
X-89635Y-35750D02*
X-89365D01*
X-88949Y-35334D01*
X-79250D01*
Y-24666D02*
X-89469D01*
X-93250Y-1500D02*
X-80000D01*
X-80000Y11500D02*
X-80000Y11500D01*
X-80000Y11500D02*
X-91000D01*
X-93084Y53750D02*
Y63834D01*
X-82385Y64000D02*
Y54281D01*
X-82416Y54250D01*
Y53750D01*
X-17500Y-11000D02*
X-11500D01*
X-10750Y-10250D02*
Y-0D01*
X-11000Y20500D02*
X-500D01*
X-11000D02*
X-12250Y21750D01*
X-19500D01*
X-10750Y-27250D02*
X321D01*
X21916Y-49000D02*
Y-58813D01*
X21500Y-59229D01*
Y-59500D01*
X16666Y-89449D02*
X16673Y-89456D01*
Y-89712D01*
X16666Y-89719D01*
Y-99500D01*
X27334D02*
Y-99000D01*
X27365Y-98969D01*
Y-89250D01*
X32115Y-59500D02*
Y-59229D01*
X32584Y-58760D01*
Y-49000D01*
X-11000Y37500D02*
X-11000Y37500D01*
Y47250D01*
X-11000Y37500D02*
X-11750Y36750D01*
X-18000D01*
X22000Y54166D02*
X31813D01*
X32229Y53750D01*
X32500D01*
X32708Y64792D02*
X22042D01*
X62542Y60542D02*
X70958D01*
Y49874D02*
X63145D01*
X62729Y49458D01*
X62458D01*
X141000Y22250D02*
Y11000D01*
X-24750Y167250D02*
X-35000D01*
X-35500Y167750D01*
Y159000D01*
X-52500Y167750D02*
Y206823D01*
X-55927Y210250D01*
X-62500D01*
D96*
X-163310Y-110780D02*
X-163172Y-110642D01*
Y-97325D01*
X-163034Y-97187D01*
X-24850Y-26000D02*
Y-21000D01*
Y-26000D02*
X-24600Y-26250D01*
X-11750D01*
X-10750Y-27250D01*
X321D02*
X379Y-27308D01*
X-11500Y-11000D02*
X-10750Y-10250D01*
X-17500Y-11000D02*
X-19500D01*
X-10750Y-0D02*
X-10750Y0D01*
X-19500Y21750D02*
X-25100D01*
X-25290Y21560D01*
Y26560D01*
X-25540Y26810D01*
X-28645D01*
X-31940Y30105D01*
Y38210D01*
X-36940D01*
X-41940D02*
Y43493D01*
X-40183Y45250D01*
X-28497D01*
X-26740Y43493D01*
Y36810D01*
X-26490Y36560D01*
X-25290D01*
X-20000Y36750D02*
X-18000D01*
X-31500Y-9350D02*
X-36500D01*
X-112500Y115000D02*
X-80000Y147500D01*
X-62250D01*
X-52500Y162000D02*
Y167750D01*
X-112500Y115000D02*
X-134500D01*
X141000Y22250D02*
X157020Y38270D01*
Y50430D01*
X161992Y65018D02*
X162006Y65032D01*
Y78516D01*
X162020Y78530D01*
X162270Y-7220D02*
Y-18480D01*
X162250Y-18500D01*
D100*
X222296Y-222878D02*
D03*
Y221872D02*
D03*
X-222704D02*
D03*
Y-222878D02*
D03*
D101*
X151250Y-212000D02*
D03*
X164250Y-152000D02*
D03*
X189500Y-125250D02*
D03*
Y-109000D02*
D03*
Y-92750D02*
D03*
X212000Y-75500D02*
D03*
X235750Y-96500D02*
D03*
X240250Y-128750D02*
D03*
X235750Y-75250D02*
D03*
X162174Y-20786D02*
D03*
X177500Y-51500D02*
D03*
X181500Y-70500D02*
D03*
X141000Y22250D02*
D03*
X99750D02*
D03*
X89000Y21750D02*
D03*
X62458Y49458D02*
D03*
Y60458D02*
D03*
X32500Y64750D02*
D03*
Y53750D02*
D03*
X20750Y105250D02*
D03*
X-5250Y105500D02*
D03*
X-26750Y99750D02*
D03*
X-82385Y64000D02*
D03*
X-93250D02*
D03*
Y40500D02*
D03*
Y-24500D02*
D03*
Y-35750D02*
D03*
X-70250Y-26250D02*
D03*
X-10750Y0D02*
D03*
X-11000Y47250D02*
D03*
X21500Y-59500D02*
D03*
X16865Y-89250D02*
D03*
X27365D02*
D03*
X32115Y-59500D02*
D03*
X-3000Y-89250D02*
D03*
X50750Y-157250D02*
D03*
X72000Y-201000D02*
D03*
Y-217250D02*
D03*
X11000Y-192500D02*
D03*
X-82885Y-89250D02*
D03*
X-93750D02*
D03*
X-121250Y-137000D02*
D03*
X-92750Y-175250D02*
D03*
Y-196500D02*
D03*
X-171250Y-231750D02*
D03*
X-212500Y-175000D02*
D03*
X-163034Y-97187D02*
D03*
X-212500Y-96750D02*
D03*
X-212000Y57000D02*
D03*
X-142000Y85500D02*
D03*
Y100250D02*
D03*
X-62500Y210250D02*
D03*
X-87473D02*
D03*
X-175000D02*
D03*
X30000D02*
D03*
X40000D02*
D03*
X72750Y174000D02*
D03*
X63750Y126250D02*
D03*
X89000Y145250D02*
D03*
X111000Y145500D02*
D03*
X133000D02*
D03*
X141000Y82500D02*
D03*
X99750Y158750D02*
D03*
X84250Y202250D02*
D03*
X193750Y196000D02*
D03*
D102*
X-145000Y-111250D02*
D03*
Y-97187D02*
D03*
Y-66750D02*
D03*
X-86000Y-58250D02*
D03*
X-64000Y-35250D02*
D03*
X-36750Y-19500D02*
D03*
X379Y-27308D02*
D03*
X-500Y20500D02*
D03*
X-36750Y12250D02*
D03*
X-55746Y36599D02*
D03*
X-48500Y12250D02*
D03*
X-48250Y-4750D02*
D03*
X-55250Y-17750D02*
D03*
X-93250Y-1500D02*
D03*
Y11500D02*
D03*
Y25750D02*
D03*
X-72250Y64000D02*
D03*
X-120000Y40500D02*
D03*
X-78250Y-48000D02*
D03*
X-179000Y-84250D02*
D03*
X-178750Y-109000D02*
D03*
X34500Y83000D02*
D03*
X62500Y38750D02*
D03*
X62250Y-22500D02*
D03*
Y-37500D02*
D03*
X141500Y-20786D02*
D03*
Y-6750D02*
D03*
X177500Y-33750D02*
D03*
X177250Y-9000D02*
D03*
X212750Y-21250D02*
D03*
Y64750D02*
D03*
X177250Y77000D02*
D03*
Y52250D02*
D03*
X161992Y65018D02*
D03*
X141000Y65000D02*
D03*
Y50000D02*
D03*
X206750Y126500D02*
D03*
X235250Y161000D02*
D03*
X41500Y166750D02*
D03*
X45500Y126250D02*
D03*
X34500D02*
D03*
X-250Y167250D02*
D03*
X-24750D02*
D03*
X-33750Y142500D02*
D03*
X-62250Y132500D02*
D03*
X-70184Y139316D02*
D03*
X-62250Y120500D02*
D03*
X-70500Y106000D02*
D03*
X-80500Y100250D02*
D03*
X-82250Y167250D02*
D03*
X-96250Y167750D02*
D03*
X-111750Y168250D02*
D03*
X-137250D02*
D03*
X-125250Y139000D02*
D03*
Y123750D02*
D03*
X-134500Y115000D02*
D03*
X-149750Y168500D02*
D03*
X-162250D02*
D03*
X-231750Y134000D02*
D03*
Y117000D02*
D03*
D103*
X-41500Y-27650D02*
D03*
X-36500D02*
D03*
X-31500D02*
D03*
Y-9350D02*
D03*
X-36500D02*
D03*
X-41500D02*
D03*
X-41940Y19910D02*
D03*
X-36940D02*
D03*
X-31940D02*
D03*
Y38210D02*
D03*
X-36940D02*
D03*
X-41940D02*
D03*
D104*
X-24850Y-26000D02*
D03*
Y-21000D02*
D03*
Y-16000D02*
D03*
Y-11000D02*
D03*
X-25290Y21560D02*
D03*
Y26560D02*
D03*
Y31560D02*
D03*
Y36560D02*
D03*
X-48590D02*
D03*
Y31560D02*
D03*
Y26560D02*
D03*
Y21560D02*
D03*
X-48150Y-11000D02*
D03*
Y-16000D02*
D03*
Y-21000D02*
D03*
Y-26000D02*
D03*
D105*
X-43660Y139090D02*
D03*
X-38000D02*
D03*
Y144750D02*
D03*
X-40830Y141920D02*
D03*
Y147580D02*
D03*
X-38000Y150410D02*
D03*
X-43660D02*
D03*
X-49320D02*
D03*
X-46490Y147580D02*
D03*
X-49320Y144750D02*
D03*
Y139090D02*
D03*
X-46490Y141920D02*
D03*
D106*
X-168310Y-110780D02*
D03*
X-163310D02*
D03*
X-158310D02*
D03*
X-153310D02*
D03*
Y-82680D02*
D03*
X-158310D02*
D03*
X-163310D02*
D03*
X-168310D02*
D03*
X152270Y-35320D02*
D03*
X157270D02*
D03*
X162270D02*
D03*
X167270D02*
D03*
Y-7220D02*
D03*
X162270D02*
D03*
X157270D02*
D03*
X152270D02*
D03*
X162020Y50430D02*
D03*
X167020D02*
D03*
Y78530D02*
D03*
X162020D02*
D03*
X157020D02*
D03*
X152020D02*
D03*
Y50430D02*
D03*
X157020D02*
D03*
D107*
X-35500Y167750D02*
D03*
X-52500D02*
D03*
D108*
X-41750Y131250D02*
X-40830Y132170D01*
Y141920D01*
X-41535Y144750D02*
X-38000D01*
X-41535D02*
X-43660Y146875D01*
Y150410D01*
X-49320D01*
Y157820D01*
X-50500Y159000D01*
X-46490Y147580D02*
X-59500D01*
X-51500Y131250D02*
X-43660Y139090D01*
X-40830Y147580D02*
X-31330D01*
X-27750Y144000D01*
M02*
